<svg width="278" height="37" viewBox="0 0 278 37" fill="none" xmlns="http://www.w3.org/2000/svg">
<path d="M138.74 29.715C141.11 29.715 143.03 27.7943 143.03 25.425C143.03 23.0557 141.11 21.135 138.74 21.135C136.371 21.135 134.45 23.0557 134.45 25.425C134.45 27.7943 136.371 29.715 138.74 29.715Z" fill="#DCC323"/>
<path d="M8.63 0.544922C13.45 0.544922 15.37 1.23492 17.03 2.51492C19.11 4.21492 20.27 6.98492 20.27 9.79492C20.27 12.6049 19.08 15.5349 17.27 17.0049C15.34 18.5849 13.42 19.2749 9.25 19.2749H5.74V29.0649H0V0.554932H8.63V0.544922ZM5.74 14.2249H9.13C10.44 14.2249 11.71 14.1049 12.87 13.4949C13.91 12.9549 14.76 11.6849 14.76 9.87492C14.76 8.06492 13.91 6.86493 12.79 6.33493C11.63 5.71493 10.32 5.60493 8.9 5.60493H5.74V14.2349V14.2249ZM26.24 20.1549C26.47 23.5449 29.48 25.4349 32.37 25.3949C34.84 25.3949 36.49 24.2749 37.46 22.5449H42.66C41.66 24.8949 40.16 26.6649 38.38 27.8649C36.61 29.0949 34.53 29.7149 32.33 29.7149C25.82 29.7149 21.16 24.4349 21.16 18.5449C21.16 12.6549 25.86 7.25493 32.26 7.25493C35.42 7.25493 38.19 8.44493 40.16 10.4949C42.74 13.1549 43.7 16.4649 43.28 20.1649H26.24V20.1549ZM38.3 16.3049C38.11 14.3049 35.99 11.4849 32.29 11.5249C28.55 11.5249 26.51 14.2249 26.32 16.3049H38.3ZM46.01 18.4249C46.01 13.0349 49.98 7.28493 57.34 7.28493C64.7 7.28493 68.67 13.0249 68.67 18.4549C68.67 23.8849 64.7 29.6649 57.34 29.6649C49.98 29.6649 46.01 23.9249 46.01 18.4549V18.4149V18.4249ZM51.06 18.5049C51.06 22.2049 53.87 24.9349 57.34 24.9349C60.81 24.9349 63.58 22.1949 63.58 18.4649C63.58 14.7349 60.81 11.9949 57.34 11.9949C53.87 11.9949 51.06 14.7349 51.06 18.4649V18.5049ZM72.57 7.90492H77.31V10.9849C78.81 8.86492 81.28 7.24493 84.78 7.24493C92.18 7.24493 95.3 13.5249 95.3 18.6549C95.3 24.6649 91.02 29.7149 84.82 29.7149C80.7 29.7149 78.46 27.5949 77.61 26.2449V36.4549H72.56V7.90492H72.57ZM90.26 18.4649C90.26 15.4249 88.06 11.9549 83.79 11.9549C81.94 11.9549 80.36 12.6849 79.21 13.8849C78.09 15.0449 77.4 16.6949 77.4 18.5449C77.4 20.3949 78.09 21.9749 79.25 23.1349C80.41 24.2949 82.02 25.0249 83.84 25.0249C87.69 25.0249 90.27 21.9849 90.27 18.5149V18.4749L90.26 18.4649ZM99.24 0.544922H104.29V29.0549H99.24V0.544922ZM113.27 20.1549C113.5 23.5449 116.51 25.4349 119.4 25.3949C121.87 25.3949 123.52 24.2749 124.49 22.5449H129.69C128.69 24.8949 127.19 26.6649 125.41 27.8649C123.64 29.0949 121.56 29.7149 119.36 29.7149C112.85 29.7149 108.19 24.4349 108.19 18.5449C108.19 12.6549 112.89 7.25493 119.29 7.25493C122.45 7.25493 125.22 8.44493 127.19 10.4949C129.77 13.1549 130.73 16.4649 130.31 20.1649H113.28L113.27 20.1549ZM125.33 16.3049C125.14 14.3049 123.02 11.4849 119.32 11.5249C115.58 11.5249 113.54 14.2249 113.35 16.3049H125.33ZM148.67 29.0549V0.544922H154.41V11.9849H167.35V0.544922H173.09V29.0549H167.35V17.0349H154.41V29.0549H148.67ZM182.07 20.1549C182.3 23.5449 185.31 25.4349 188.2 25.3949C190.67 25.3949 192.32 24.2749 193.29 22.5449H198.49C197.49 24.8949 195.98 26.6649 194.21 27.8649C192.44 29.0949 190.36 29.7149 188.16 29.7149C181.65 29.7149 176.99 24.4349 176.99 18.5449C176.99 12.6549 181.69 7.25493 188.09 7.25493C191.25 7.25493 194.02 8.44493 195.99 10.4949C198.57 13.1549 199.54 16.4649 199.11 20.1649H182.08L182.07 20.1549ZM194.13 16.3049C193.94 14.3049 191.82 11.4849 188.12 11.5249C184.38 11.5249 182.34 14.2249 182.15 16.3049H194.13ZM224.77 29.0549H219.72V26.0149C218.37 28.4849 215.56 29.7149 212.59 29.7149C205.81 29.7149 201.84 24.4349 201.84 18.4649C201.84 11.7949 206.66 7.25493 212.59 7.25493C216.44 7.25493 218.79 9.29493 219.72 10.9949V7.91493H224.77V29.0649V29.0549ZM206.89 18.5749C206.89 21.1949 208.78 25.0149 213.32 25.0149C216.13 25.0149 217.98 23.5549 218.95 21.6249C219.45 20.7049 219.68 19.6949 219.76 18.6549C219.8 17.6549 219.61 16.6149 219.18 15.6849C218.29 13.6849 216.33 11.9449 213.28 11.9449C209.19 11.9449 206.88 15.2549 206.88 18.5349V18.5749H206.89ZM230.23 0.544922H235.28V29.0549H230.23V0.544922ZM242.29 11.7949H238.78V7.90492H242.29V0.544922H247.34V7.90492H250.96V11.7949H247.34V29.0549H242.29V11.7949ZM277.4 18.4649C277.4 15.7449 276.6 13.3749 275.24 11.5249C273.28 8.84493 270.16 7.25493 266.65 7.25493C262.79 7.25493 260.44 9.29492 259.52 10.9849V0.544922H254.47V29.0649H259.52V19.0449C259.52 16.6449 260.38 15.0249 261.17 14.0949C261.96 13.1649 263.44 11.9549 265.95 11.9549C267.99 11.9549 269.59 12.7849 270.68 14.0149C271.77 15.2449 272.35 16.8949 272.35 18.5349V29.0549H277.4V18.4649Z" fill="#731A63"/>
</svg>
