<svg xmlns="http://www.w3.org/2000/svg" xmlns:xlink="http://www.w3.org/1999/xlink" width="500" zoomAndPan="magnify" viewBox="0 0 375 374.999991" height="500" preserveAspectRatio="xMidYMid meet" version="1.0"><defs><clipPath id="08d8fe2cfb"><path d="M 332 127 L 372.84375 127 L 372.84375 168 L 332 168 Z M 332 127 " clip-rule="nonzero"/></clipPath><clipPath id="cf5505f675"><path d="M 332 207 L 372.84375 207 L 372.84375 247 L 332 247 Z M 332 207 " clip-rule="nonzero"/></clipPath><clipPath id="fe8174fa90"><path d="M 2.34375 127 L 43 127 L 43 168 L 2.34375 168 Z M 2.34375 127 " clip-rule="nonzero"/></clipPath><clipPath id="2bb8e5f7e8"><path d="M 2.34375 207 L 43 207 L 43 247 L 2.34375 247 Z M 2.34375 207 " clip-rule="nonzero"/></clipPath></defs><path fill="#3d81a8" d="M 248.242188 259.667969 L 126.539062 259.667969 C 114.015625 259.667969 103.691406 249.339844 103.691406 236.820312 L 103.691406 138.179688 C 103.691406 125.4375 114.015625 115.113281 126.539062 115.113281 L 248.242188 115.113281 C 260.984375 115.113281 271.308594 125.4375 271.308594 138.179688 L 271.308594 236.820312 C 271.308594 249.339844 260.984375 259.667969 248.242188 259.667969 Z M 130.710938 213.972656 C 130.273438 213.972656 129.832031 213.972656 129.394531 213.753906 C 127.417969 213.09375 126.539062 210.894531 127.417969 208.917969 L 135.324219 189.148438 L 135.324219 188.929688 L 149.605469 153.339844 C 149.605469 153.339844 149.605469 153.121094 149.605469 153.121094 C 149.824219 152.679688 150.042969 152.242188 150.484375 152.019531 C 150.703125 151.582031 151.140625 151.363281 151.582031 151.140625 C 151.582031 151.140625 151.582031 151.140625 151.800781 151.140625 C 152.242188 150.921875 152.460938 150.921875 152.898438 150.921875 C 153.339844 150.921875 153.777344 150.921875 154.21875 151.140625 C 154.21875 151.140625 154.4375 151.140625 154.4375 151.140625 C 154.878906 151.363281 155.316406 151.582031 155.535156 152.019531 C 155.976562 152.242188 156.195312 152.679688 156.414062 153.121094 C 156.414062 153.121094 156.414062 153.339844 156.414062 153.339844 L 170.695312 188.929688 L 170.695312 189.148438 L 178.601562 208.917969 C 179.261719 210.894531 178.382812 213.09375 176.625 213.753906 C 174.648438 214.410156 172.453125 213.53125 171.792969 211.773438 L 164.761719 194.199219 L 141.257812 194.199219 L 134.226562 211.773438 C 133.566406 213.09375 132.25 213.972656 130.710938 213.972656 Z M 214.410156 214.191406 L 194.859375 214.191406 C 192.882812 214.191406 191.34375 212.652344 191.34375 210.675781 C 191.34375 208.480469 192.882812 206.941406 194.859375 206.941406 L 210.675781 206.941406 L 210.675781 157.953125 L 194.859375 157.953125 C 192.882812 157.953125 191.34375 156.414062 191.34375 154.4375 C 191.34375 152.242188 192.882812 150.703125 194.859375 150.703125 L 233.742188 150.703125 C 235.71875 150.703125 237.476562 152.242188 237.476562 154.4375 C 237.476562 156.414062 235.71875 157.953125 233.742188 157.953125 L 217.925781 157.953125 L 217.925781 206.941406 L 233.742188 206.941406 C 235.71875 206.941406 237.476562 208.480469 237.476562 210.675781 C 237.476562 212.652344 235.71875 214.191406 233.742188 214.191406 Z M 161.90625 186.730469 L 152.898438 164.542969 L 144.113281 186.730469 Z M 161.90625 186.730469 " fill-opacity="1" fill-rule="evenodd"/><path fill="#3d81a8" d="M 168.058594 122.582031 C 166.082031 122.582031 164.324219 120.824219 164.324219 118.847656 L 164.324219 36.027344 C 164.324219 34.050781 166.082031 32.292969 168.058594 32.292969 C 170.035156 32.292969 171.574219 34.050781 171.574219 36.027344 L 171.574219 118.847656 C 171.574219 120.824219 170.035156 122.582031 168.058594 122.582031 Z M 168.058594 122.582031 " fill-opacity="1" fill-rule="evenodd"/><path fill="#3d81a8" d="M 168.058594 39.761719 C 157.074219 39.761719 148.066406 30.753906 148.066406 19.773438 C 148.066406 9.007812 157.074219 0 168.058594 0 C 179.042969 0 187.828125 9.007812 187.828125 19.773438 C 187.828125 30.753906 179.042969 39.761719 168.058594 39.761719 Z M 168.058594 39.761719 " fill-opacity="1" fill-rule="evenodd"/><path fill="#3d81a8" d="M 206.941406 122.582031 C 204.964844 122.582031 203.207031 120.824219 203.207031 118.847656 L 203.207031 84.578125 C 203.207031 82.601562 204.964844 80.84375 206.941406 80.84375 C 208.917969 80.84375 210.675781 82.601562 210.675781 84.578125 L 210.675781 118.847656 C 210.675781 120.824219 208.917969 122.582031 206.941406 122.582031 Z M 206.941406 122.582031 " fill-opacity="1" fill-rule="evenodd"/><path fill="#3d81a8" d="M 206.941406 88.3125 C 195.957031 88.3125 187.171875 79.304688 187.171875 68.320312 C 187.171875 57.558594 195.957031 48.550781 206.941406 48.550781 C 217.925781 48.550781 226.714844 57.558594 226.714844 68.320312 C 226.714844 79.304688 217.925781 88.3125 206.941406 88.3125 Z M 206.941406 88.3125 " fill-opacity="1" fill-rule="evenodd"/><path fill="#3d81a8" d="M 245.824219 122.582031 C 243.847656 122.582031 242.089844 120.824219 242.089844 118.847656 L 242.089844 65.246094 C 242.089844 54.480469 250.878906 45.695312 261.644531 45.695312 L 284.929688 45.695312 C 286.90625 45.695312 288.664062 47.453125 288.664062 49.429688 C 288.664062 51.40625 286.90625 53.164062 284.929688 53.164062 L 261.644531 53.164062 C 255.050781 53.164062 249.5625 58.4375 249.5625 65.246094 L 249.5625 118.847656 C 249.5625 120.824219 247.804688 122.582031 245.824219 122.582031 Z M 245.824219 122.582031 " fill-opacity="1" fill-rule="evenodd"/><path fill="#3d81a8" d="M 301.1875 69.199219 C 290.203125 69.199219 281.195312 60.414062 281.195312 49.429688 C 281.195312 38.445312 290.203125 29.65625 301.1875 29.65625 C 312.171875 29.65625 320.957031 38.445312 320.957031 49.429688 C 320.957031 60.414062 312.171875 69.199219 301.1875 69.199219 Z M 301.1875 69.199219 " fill-opacity="1" fill-rule="evenodd"/><path fill="#3d81a8" d="M 129.175781 122.582031 C 126.976562 122.582031 125.4375 120.824219 125.4375 118.847656 L 125.4375 65.246094 C 125.4375 58.4375 119.949219 53.164062 113.355469 53.164062 L 90.070312 53.164062 C 87.875 53.164062 86.335938 51.40625 86.335938 49.429688 C 86.335938 47.453125 87.875 45.695312 90.070312 45.695312 L 113.355469 45.695312 C 124.121094 45.695312 132.6875 54.480469 132.6875 65.246094 L 132.6875 118.847656 C 132.6875 120.824219 131.152344 122.582031 129.175781 122.582031 Z M 129.175781 122.582031 " fill-opacity="1" fill-rule="evenodd"/><path fill="#3d81a8" d="M 73.8125 69.199219 C 62.828125 69.199219 54.042969 60.414062 54.042969 49.429688 C 54.042969 38.445312 62.828125 29.65625 73.8125 29.65625 C 84.796875 29.65625 93.585938 38.445312 93.585938 49.429688 C 93.585938 60.414062 84.796875 69.199219 73.8125 69.199219 Z M 73.8125 69.199219 " fill-opacity="1" fill-rule="evenodd"/><path fill="#3d81a8" d="M 336.554688 151.363281 L 267.574219 151.363281 C 265.597656 151.363281 263.839844 149.605469 263.839844 147.628906 C 263.839844 145.648438 265.597656 144.113281 267.574219 144.113281 L 336.554688 144.113281 C 338.53125 144.113281 340.070312 145.648438 340.070312 147.628906 C 340.070312 149.605469 338.53125 151.363281 336.554688 151.363281 Z M 336.554688 151.363281 " fill-opacity="1" fill-rule="evenodd"/><g clip-path="url(#08d8fe2cfb)"><path fill="#3d81a8" d="M 352.59375 167.617188 C 341.828125 167.617188 332.820312 158.613281 332.820312 147.628906 C 332.820312 136.644531 341.828125 127.855469 352.59375 127.855469 C 363.578125 127.855469 372.582031 136.644531 372.582031 147.628906 C 372.582031 158.613281 363.578125 167.617188 352.59375 167.617188 Z M 352.59375 167.617188 " fill-opacity="1" fill-rule="evenodd"/></g><path fill="#3d81a8" d="M 288.226562 191.125 L 267.574219 191.125 C 265.597656 191.125 263.839844 189.585938 263.839844 187.390625 C 263.839844 185.414062 265.597656 183.875 267.574219 183.875 L 288.226562 183.875 C 290.203125 183.875 291.738281 185.414062 291.738281 187.390625 C 291.738281 189.585938 290.203125 191.125 288.226562 191.125 Z M 288.226562 191.125 " fill-opacity="1" fill-rule="evenodd"/><path fill="#3d81a8" d="M 304.261719 207.382812 C 293.496094 207.382812 284.492188 198.375 284.492188 187.390625 C 284.492188 176.625 293.496094 167.617188 304.261719 167.617188 C 315.246094 167.617188 324.253906 176.625 324.253906 187.390625 C 324.253906 198.375 315.246094 207.382812 304.261719 207.382812 Z M 304.261719 207.382812 " fill-opacity="1" fill-rule="evenodd"/><path fill="#3d81a8" d="M 336.554688 230.667969 L 267.574219 230.667969 C 265.597656 230.667969 263.839844 229.128906 263.839844 226.933594 C 263.839844 224.957031 265.597656 223.417969 267.574219 223.417969 L 336.554688 223.417969 C 338.53125 223.417969 340.070312 224.957031 340.070312 226.933594 C 340.070312 229.128906 338.53125 230.667969 336.554688 230.667969 Z M 336.554688 230.667969 " fill-opacity="1" fill-rule="evenodd"/><g clip-path="url(#cf5505f675)"><path fill="#3d81a8" d="M 352.59375 246.925781 C 341.828125 246.925781 332.820312 237.917969 332.820312 226.933594 C 332.820312 216.167969 341.828125 207.160156 352.59375 207.160156 C 363.578125 207.160156 372.582031 216.167969 372.582031 226.933594 C 372.582031 237.917969 363.578125 246.925781 352.59375 246.925781 Z M 352.59375 246.925781 " fill-opacity="1" fill-rule="evenodd"/></g><path fill="#3d81a8" d="M 168.058594 342.488281 C 166.082031 342.488281 164.324219 340.949219 164.324219 338.972656 L 164.324219 256.152344 C 164.324219 253.953125 166.082031 252.417969 168.058594 252.417969 C 170.035156 252.417969 171.574219 253.953125 171.574219 256.152344 L 171.574219 338.972656 C 171.574219 340.949219 170.035156 342.488281 168.058594 342.488281 Z M 168.058594 342.488281 " fill-opacity="1" fill-rule="evenodd"/><path fill="#3d81a8" d="M 168.058594 375 C 157.074219 375 148.066406 365.992188 148.066406 355.007812 C 148.066406 344.023438 157.074219 335.238281 168.058594 335.238281 C 179.042969 335.238281 187.828125 344.023438 187.828125 355.007812 C 187.828125 365.992188 179.042969 375 168.058594 375 Z M 168.058594 375 " fill-opacity="1" fill-rule="evenodd"/><path fill="#3d81a8" d="M 206.941406 293.9375 C 204.964844 293.9375 203.207031 292.398438 203.207031 290.421875 L 203.207031 256.152344 C 203.207031 253.953125 204.964844 252.417969 206.941406 252.417969 C 208.917969 252.417969 210.675781 253.953125 210.675781 256.152344 L 210.675781 290.421875 C 210.675781 292.398438 208.917969 293.9375 206.941406 293.9375 Z M 206.941406 293.9375 " fill-opacity="1" fill-rule="evenodd"/><path fill="#3d81a8" d="M 206.941406 326.449219 C 195.957031 326.449219 187.171875 317.441406 187.171875 306.457031 C 187.171875 295.472656 195.957031 286.6875 206.941406 286.6875 C 217.925781 286.6875 226.714844 295.472656 226.714844 306.457031 C 226.714844 317.441406 217.925781 326.449219 206.941406 326.449219 Z M 206.941406 326.449219 " fill-opacity="1" fill-rule="evenodd"/><path fill="#3d81a8" d="M 284.929688 329.085938 L 261.644531 329.085938 C 250.878906 329.085938 242.089844 320.519531 242.089844 309.753906 L 242.089844 256.152344 C 242.089844 253.953125 243.847656 252.417969 245.824219 252.417969 C 247.804688 252.417969 249.5625 253.953125 249.5625 256.152344 L 249.5625 309.753906 C 249.5625 316.34375 255.050781 321.835938 261.644531 321.835938 L 284.929688 321.835938 C 286.90625 321.835938 288.664062 323.375 288.664062 325.570312 C 288.664062 327.546875 286.90625 329.085938 284.929688 329.085938 Z M 284.929688 329.085938 " fill-opacity="1" fill-rule="evenodd"/><path fill="#3d81a8" d="M 301.1875 345.34375 C 290.203125 345.34375 281.195312 336.335938 281.195312 325.570312 C 281.195312 314.585938 290.203125 305.578125 301.1875 305.578125 C 312.171875 305.578125 320.957031 314.585938 320.957031 325.570312 C 320.957031 336.335938 312.171875 345.34375 301.1875 345.34375 Z M 301.1875 345.34375 " fill-opacity="1" fill-rule="evenodd"/><path fill="#3d81a8" d="M 113.355469 329.085938 L 90.070312 329.085938 C 87.875 329.085938 86.335938 327.546875 86.335938 325.570312 C 86.335938 323.375 87.875 321.835938 90.070312 321.835938 L 113.355469 321.835938 C 119.949219 321.835938 125.4375 316.34375 125.4375 309.753906 L 125.4375 256.152344 C 125.4375 253.953125 126.976562 252.417969 129.175781 252.417969 C 131.152344 252.417969 132.6875 253.953125 132.6875 256.152344 L 132.6875 309.753906 C 132.6875 320.519531 124.121094 329.085938 113.355469 329.085938 Z M 113.355469 329.085938 " fill-opacity="1" fill-rule="evenodd"/><path fill="#3d81a8" d="M 73.8125 345.34375 C 62.828125 345.34375 54.042969 336.335938 54.042969 325.570312 C 54.042969 314.585938 62.828125 305.578125 73.8125 305.578125 C 84.796875 305.578125 93.585938 314.585938 93.585938 325.570312 C 93.585938 336.335938 84.796875 345.34375 73.8125 345.34375 Z M 73.8125 345.34375 " fill-opacity="1" fill-rule="evenodd"/><path fill="#3d81a8" d="M 107.425781 151.363281 L 38.445312 151.363281 C 36.46875 151.363281 34.710938 149.824219 34.710938 147.847656 C 34.710938 145.648438 36.46875 144.113281 38.445312 144.113281 L 107.425781 144.113281 C 109.402344 144.113281 110.941406 145.648438 110.941406 147.847656 C 110.941406 149.824219 109.402344 151.363281 107.425781 151.363281 Z M 107.425781 151.363281 " fill-opacity="1" fill-rule="evenodd"/><g clip-path="url(#fe8174fa90)"><path fill="#3d81a8" d="M 22.1875 167.617188 C 11.421875 167.617188 2.417969 158.832031 2.417969 147.847656 C 2.417969 136.863281 11.421875 127.855469 22.1875 127.855469 C 33.171875 127.855469 42.179688 136.863281 42.179688 147.847656 C 42.179688 158.832031 33.171875 167.617188 22.1875 167.617188 Z M 22.1875 167.617188 " fill-opacity="1" fill-rule="evenodd"/></g><path fill="#3d81a8" d="M 107.425781 191.125 L 86.773438 191.125 C 84.796875 191.125 83.039062 189.585938 83.039062 187.609375 C 83.039062 185.632812 84.796875 183.875 86.773438 183.875 L 107.425781 183.875 C 109.402344 183.875 110.941406 185.632812 110.941406 187.609375 C 110.941406 189.585938 109.402344 191.125 107.425781 191.125 Z M 107.425781 191.125 " fill-opacity="1" fill-rule="evenodd"/><path fill="#3d81a8" d="M 70.519531 207.382812 C 59.535156 207.382812 50.746094 198.59375 50.746094 187.609375 C 50.746094 176.625 59.535156 167.617188 70.519531 167.617188 C 81.503906 167.617188 90.507812 176.625 90.507812 187.609375 C 90.507812 198.59375 81.503906 207.382812 70.519531 207.382812 Z M 70.519531 207.382812 " fill-opacity="1" fill-rule="evenodd"/><path fill="#3d81a8" d="M 107.425781 230.886719 L 38.445312 230.886719 C 36.46875 230.886719 34.710938 229.128906 34.710938 227.152344 C 34.710938 225.175781 36.46875 223.417969 38.445312 223.417969 L 107.425781 223.417969 C 109.402344 223.417969 110.941406 225.175781 110.941406 227.152344 C 110.941406 229.128906 109.402344 230.886719 107.425781 230.886719 Z M 107.425781 230.886719 " fill-opacity="1" fill-rule="evenodd"/><g clip-path="url(#2bb8e5f7e8)"><path fill="#3d81a8" d="M 22.1875 246.925781 C 11.421875 246.925781 2.417969 238.136719 2.417969 227.152344 C 2.417969 216.167969 11.421875 207.382812 22.1875 207.382812 C 33.171875 207.382812 42.179688 216.167969 42.179688 227.152344 C 42.179688 238.136719 33.171875 246.925781 22.1875 246.925781 Z M 22.1875 246.925781 " fill-opacity="1" fill-rule="evenodd"/></g></svg>