<svg xmlns="http://www.w3.org/2000/svg" xmlns:xlink="http://www.w3.org/1999/xlink" width="500" zoomAndPan="magnify" viewBox="0 0 375 374.999991" height="500" preserveAspectRatio="xMidYMid meet" version="1.0"><defs><clipPath id="d9ae61e9ab"><path d="M 0.304688 44.765625 L 374.695312 44.765625 L 374.695312 330.242188 L 0.304688 330.242188 Z M 0.304688 44.765625 " clip-rule="nonzero"/></clipPath></defs><path fill="#ffffff" d="M 121.253906 205.726562 L 114.8125 216.347656 C 113.695312 218.1875 114.757812 220.816406 116.621094 220.816406 L 187.5 220.816406 L 187.5 203.207031 L 125.332031 203.207031 C 123.730469 203.207031 122.21875 204.140625 121.253906 205.726562 " fill-opacity="1" fill-rule="nonzero"/><path fill="#ffffff" d="M 99.582031 248.046875 L 99.582031 256.902344 C 99.582031 260.359375 102.386719 263.160156 105.839844 263.160156 L 187.5 263.160156 L 187.5 241.789062 L 105.839844 241.789062 C 102.386719 241.789062 99.582031 244.59375 99.582031 248.046875 " fill-opacity="1" fill-rule="nonzero"/><path fill="#ffffff" d="M 96.632812 199.480469 C 76.910156 192.171875 57.1875 184.863281 37.464844 177.554688 C 35.679688 176.890625 33.675781 177.523438 32.589844 179.085938 C 31.292969 180.957031 29.90625 183.535156 29.117188 186.800781 C 28.445312 189.585938 28.402344 192.0625 28.550781 193.957031 C 28.625 194.929688 29.046875 195.839844 29.726562 196.535156 C 35.6875 202.609375 41.648438 208.683594 47.609375 214.761719 C 48.691406 215.863281 50.167969 216.492188 51.710938 216.507812 C 63.804688 216.625 75.894531 216.742188 87.984375 216.859375 C 89.292969 216.871094 90.53125 216.269531 91.328125 215.234375 L 98.484375 205.925781 C 100.195312 203.703125 99.261719 200.457031 96.632812 199.480469 " fill-opacity="1" fill-rule="nonzero"/><g clip-path="url(#d9ae61e9ab)"><path fill="#3d81a8" d="M 356.125 233.984375 C 350.996094 233.984375 346.839844 229.828125 346.839844 224.695312 C 346.839844 219.570312 350.996094 215.410156 356.125 215.410156 C 361.253906 215.410156 365.410156 219.570312 365.410156 224.695312 C 365.410156 229.828125 361.253906 233.984375 356.125 233.984375 Z M 176.585938 223.273438 L 110.796875 223.273438 C 108.9375 223.273438 107.871094 220.644531 108.992188 218.800781 L 115.433594 208.183594 C 116.398438 206.59375 117.90625 205.660156 119.511719 205.660156 L 176.585938 205.660156 Z M 176.585938 265.617188 L 100.019531 265.617188 C 96.5625 265.617188 93.761719 262.8125 93.761719 259.359375 L 93.761719 250.503906 C 93.761719 247.046875 96.5625 244.246094 100.019531 244.246094 L 176.585938 244.246094 Z M 92.664062 208.382812 L 85.503906 217.6875 C 84.707031 218.722656 83.472656 219.328125 82.164062 219.3125 C 70.074219 219.195312 57.980469 219.078125 45.890625 218.960938 C 44.34375 218.949219 42.871094 218.320312 41.789062 217.214844 C 35.828125 211.140625 29.867188 205.066406 23.90625 198.992188 C 23.222656 198.292969 22.804688 197.386719 22.726562 196.414062 C 22.582031 194.519531 22.621094 192.042969 23.296875 189.257812 C 24.085938 185.988281 25.472656 183.410156 26.769531 181.542969 C 27.855469 179.980469 29.859375 179.347656 31.644531 180.007812 C 51.367188 187.316406 71.085938 194.628906 90.808594 201.933594 C 93.441406 202.914062 94.375 206.15625 92.664062 208.382812 Z M 316.78125 302.382812 C 321.910156 302.382812 326.066406 306.542969 326.066406 311.667969 C 326.066406 316.796875 321.910156 320.953125 316.78125 320.953125 C 311.652344 320.953125 307.496094 316.796875 307.496094 311.667969 C 307.496094 306.542969 311.652344 302.382812 316.78125 302.382812 Z M 266.929688 54.050781 C 272.058594 54.050781 276.21875 58.207031 276.21875 63.335938 C 276.21875 68.464844 272.058594 72.621094 266.929688 72.621094 C 261.804688 72.621094 257.644531 68.464844 257.644531 63.335938 C 257.644531 58.207031 261.804688 54.050781 266.929688 54.050781 Z M 312.566406 120.179688 C 317.695312 120.179688 321.855469 124.335938 321.855469 129.464844 C 321.855469 134.59375 317.695312 138.753906 312.566406 138.753906 C 307.441406 138.753906 303.285156 134.59375 303.285156 129.464844 C 303.285156 124.335938 307.441406 120.179688 312.566406 120.179688 Z M 257.375 185.792969 C 262.503906 185.792969 266.660156 189.953125 266.660156 195.078125 C 266.660156 200.207031 262.503906 204.367188 257.375 204.367188 C 252.246094 204.367188 248.085938 200.207031 248.085938 195.078125 C 248.085938 189.953125 252.246094 185.792969 257.375 185.792969 Z M 369.257812 211.566406 C 365.75 208.058594 361.085938 206.125 356.125 206.125 C 351.164062 206.125 346.5 208.058594 342.992188 211.566406 C 340.46875 214.085938 338.765625 217.207031 338.003906 220.601562 L 298.960938 220.601562 C 297.367188 220.601562 295.839844 221.234375 294.714844 222.363281 L 266.441406 250.699219 C 265.316406 251.828125 263.789062 252.460938 262.195312 252.460938 L 248.914062 252.460938 C 247.746094 252.460938 246.601562 252.117188 245.625 251.476562 L 216.828125 232.570312 C 215.855469 231.929688 214.710938 231.585938 213.546875 231.585938 L 182.589844 231.539062 L 182.589844 201.964844 L 240.117188 201.964844 C 241.039062 204.277344 242.429688 206.398438 244.242188 208.210938 C 247.746094 211.71875 252.414062 213.652344 257.375 213.652344 C 262.335938 213.652344 267 211.71875 270.507812 208.210938 C 274.015625 204.703125 275.945312 200.039062 275.945312 195.078125 C 275.945312 190.117188 274.015625 185.457031 270.507812 181.949219 C 267 178.441406 262.335938 176.507812 257.375 176.507812 C 252.414062 176.507812 247.746094 178.441406 244.242188 181.949219 C 241.976562 184.214844 240.371094 186.960938 239.515625 189.960938 L 182.589844 189.960938 L 182.589844 167.785156 L 219.335938 167.785156 L 219.335938 167.714844 L 249.367188 137.683594 C 250.492188 136.5625 252.019531 135.929688 253.609375 135.929688 L 295.148438 135.929688 C 296.066406 138.40625 297.515625 140.675781 299.4375 142.597656 C 302.945312 146.105469 307.605469 148.039062 312.566406 148.039062 C 317.53125 148.039062 322.195312 146.105469 325.703125 142.597656 C 329.210938 139.089844 331.140625 134.425781 331.140625 129.464844 C 331.140625 124.503906 329.210938 119.839844 325.703125 116.335938 C 322.195312 112.828125 317.53125 110.894531 312.566406 110.894531 C 307.605469 110.894531 302.945312 112.828125 299.4375 116.335938 C 297.277344 118.492188 295.71875 121.089844 294.835938 123.921875 L 248.566406 123.921875 C 246.972656 123.921875 245.445312 124.554688 244.320312 125.683594 L 216.050781 154.019531 C 214.925781 155.148438 213.398438 155.78125 211.804688 155.78125 L 182.589844 155.78125 L 182.589844 155.757812 L 181.679688 155.757812 L 181.679688 155.722656 C 153.121094 155.6875 124.5625 154.523438 96.074219 152.226562 C 85.546875 151.375 75.074219 149.902344 64.714844 147.828125 L 53.605469 145.570312 L 76.128906 93.472656 C 76.238281 93.226562 76.355469 92.980469 76.46875 92.738281 C 77.886719 89.699219 80.59375 84.292969 81.617188 82.101562 C 82.523438 80.179688 84.316406 78.832031 86.417969 78.496094 C 108.542969 74.941406 138.257812 71.945312 163.699219 70.804688 L 249.917969 70.804688 C 250.832031 72.890625 252.140625 74.808594 253.800781 76.46875 C 257.308594 79.976562 261.972656 81.910156 266.929688 81.910156 C 271.890625 81.910156 276.554688 79.976562 280.0625 76.46875 C 283.570312 72.960938 285.503906 68.296875 285.503906 63.335938 C 285.503906 58.375 283.570312 53.714844 280.0625 50.207031 C 276.554688 46.695312 271.890625 44.765625 266.929688 44.765625 C 261.972656 44.765625 257.308594 46.695312 253.800781 50.207031 C 251.386719 52.613281 249.722656 55.574219 248.914062 58.796875 L 187.691406 58.796875 C 186.632812 58.796875 185.589844 58.796875 184.535156 58.800781 C 183.582031 58.804688 182.632812 58.808594 181.683594 58.8125 L 181.679688 58.804688 C 180.699219 58.800781 179.71875 58.796875 178.738281 58.796875 C 177.988281 58.796875 177.25 58.796875 176.5 58.800781 C 169.84375 58.828125 163.324219 58.960938 156.9375 59.195312 C 133.433594 60.050781 111.808594 62.230469 92.363281 65.074219 C 89.742188 65.453125 87.167969 65.851562 84.625 66.257812 C 84.421875 66.289062 84.21875 66.320312 84.015625 66.351562 C 79.121094 67.140625 74.933594 70.285156 72.824219 74.769531 C 67.332031 86.476562 56.109375 110.785156 45.460938 132.609375 C 44.53125 131.351562 43.597656 130.097656 42.667969 128.84375 C 41.023438 126.632812 40.199219 123.921875 40.324219 121.171875 C 40.457031 118.324219 40.589844 115.480469 40.722656 112.628906 C 40.832031 110.28125 39.042969 108.28125 36.699219 108.125 C 27.707031 107.519531 18.707031 106.914062 9.710938 106.304688 C 7.285156 106.140625 5 107.46875 3.941406 109.648438 C 2.835938 111.925781 1.734375 114.199219 0.628906 116.472656 C -0.238281 118.257812 0.703125 120.394531 2.609375 120.960938 C 11.242188 123.507812 19.878906 126.0625 28.515625 128.613281 C 31.898438 129.613281 34.757812 131.902344 36.472656 134.988281 C 37.558594 136.945312 38.644531 138.90625 39.730469 140.859375 C 36.277344 143.832031 31.996094 145.894531 29.992188 146.625 C 28.65625 147.117188 27.335938 147.644531 26.058594 148.28125 C 11.335938 155.707031 1.183594 170.886719 1.023438 188.453125 C 1.015625 188.839844 2.214844 202.210938 2.292969 202.597656 C 2.609375 205.308594 9.082031 251.53125 10.648438 291.835938 C 10.9375 299.238281 11.0625 306.441406 10.949219 313.140625 C 11.238281 314.277344 11.710938 315.34375 12.34375 316.300781 C 14.230469 319.199219 17.503906 321.121094 21.214844 321.121094 L 80.558594 321.121094 C 86.398438 321.121094 91.15625 316.367188 91.15625 310.523438 L 91.15625 302.433594 C 91.15625 296.589844 86.398438 291.835938 80.558594 291.835938 L 43.5625 291.835938 C 42.25 291.835938 41.214844 290.710938 41.324219 289.402344 C 41.328125 289.386719 41.328125 289.371094 41.328125 289.351562 C 41.425781 288.191406 42.402344 287.296875 43.574219 287.300781 C 89.609375 287.433594 135.644531 287.566406 181.679688 287.695312 L 181.679688 287.652344 L 221.265625 287.652344 C 222.859375 287.652344 224.382812 288.28125 225.507812 289.40625 L 253.785156 317.683594 C 254.90625 318.804688 256.429688 319.4375 258.019531 319.441406 L 299.558594 319.5 C 299.683594 319.5 299.804688 319.496094 299.925781 319.488281 C 300.832031 321.4375 302.082031 323.234375 303.648438 324.800781 C 307.15625 328.308594 311.820312 330.242188 316.78125 330.242188 C 321.742188 330.242188 326.40625 328.308594 329.914062 324.800781 C 333.421875 321.292969 335.351562 316.628906 335.351562 311.667969 C 335.351562 306.707031 333.421875 302.042969 329.914062 298.535156 C 326.40625 295.027344 321.742188 293.097656 316.78125 293.097656 C 311.820312 293.097656 307.15625 295.027344 303.648438 298.535156 C 301.144531 301.039062 299.445312 304.132812 298.675781 307.5 L 263.074219 307.5 C 261.480469 307.5 259.949219 306.867188 258.824219 305.742188 L 230.554688 277.402344 C 229.429688 276.277344 227.902344 275.644531 226.308594 275.644531 L 182.589844 275.644531 L 182.589844 243.523438 L 208.496094 243.523438 C 209.664062 243.523438 210.808594 243.867188 211.789062 244.507812 L 240.582031 263.414062 C 241.558594 264.054688 242.695312 264.398438 243.863281 264.398438 L 267.164062 264.460938 C 268.761719 264.464844 270.292969 263.832031 271.417969 262.703125 L 281.664062 252.460938 L 299.757812 234.367188 C 300.882812 233.238281 302.410156 232.609375 304 232.609375 L 339.3125 232.609375 C 340.214844 234.523438 341.449219 236.289062 342.992188 237.828125 C 346.5 241.339844 351.164062 243.269531 356.125 243.269531 C 361.085938 243.269531 365.75 241.339844 369.257812 237.828125 C 372.765625 234.324219 374.695312 229.65625 374.695312 224.695312 C 374.695312 219.738281 372.765625 215.074219 369.257812 211.566406 " fill-opacity="1" fill-rule="nonzero"/></g></svg>