<svg xmlns="http://www.w3.org/2000/svg" xmlns:xlink="http://www.w3.org/1999/xlink" width="500" zoomAndPan="magnify" viewBox="0 0 375 374.999991" height="500" preserveAspectRatio="xMidYMid meet" version="1.0"><defs><clipPath id="e09746ff29"><path d="M 0 215 L 370 215 L 370 359.203125 L 0 359.203125 Z M 0 215 " clip-rule="nonzero"/></clipPath></defs><g clip-path="url(#e09746ff29)"><path fill="#3d81a8" d="M 365.726562 359.308594 L 4.265625 359.308594 C 1.914062 359.308594 0.0117188 357.40625 0.0117188 355.054688 L 0.0117188 219.875 C 0.0117188 217.523438 1.914062 215.621094 4.265625 215.621094 L 365.726562 215.621094 C 368.078125 215.621094 369.980469 217.523438 369.980469 219.875 L 369.980469 355.054688 C 369.980469 357.40625 368.078125 359.308594 365.726562 359.308594 Z M 8.515625 350.804688 L 361.476562 350.804688 L 361.476562 224.125 L 8.515625 224.125 Z M 8.515625 350.804688 " fill-opacity="1" fill-rule="nonzero"/></g><path fill="#3d81a8" d="M 140.007812 103.644531 L 99.28125 103.644531 C 96.929688 103.644531 95.027344 101.738281 95.027344 99.390625 C 95.027344 97.042969 96.929688 95.136719 99.28125 95.136719 L 140.007812 95.136719 C 142.355469 95.136719 144.261719 97.042969 144.261719 99.390625 C 144.261719 101.738281 142.355469 103.644531 140.007812 103.644531 Z M 140.007812 103.644531 " fill-opacity="1" fill-rule="nonzero"/><path fill="#3d81a8" d="M 4.265625 224.121094 C 1.914062 224.121094 0.0117188 222.21875 0.0117188 219.871094 L 0.0117188 99.390625 C 0.0117188 97.042969 1.914062 95.136719 4.265625 95.136719 L 81.75 95.136719 C 84.097656 95.136719 86.003906 97.042969 86.003906 99.390625 C 86.003906 101.738281 84.097656 103.644531 81.75 103.644531 L 8.515625 103.644531 L 8.515625 219.871094 C 8.515625 222.21875 6.613281 224.121094 4.265625 224.121094 Z M 4.265625 224.121094 " fill-opacity="1" fill-rule="nonzero"/><path fill="#3d81a8" d="M 365.726562 224.121094 C 363.378906 224.121094 361.472656 222.21875 361.472656 219.871094 L 361.472656 103.644531 L 299.558594 103.644531 C 297.210938 103.644531 295.308594 101.738281 295.308594 99.390625 C 295.308594 97.042969 297.210938 95.136719 299.558594 95.136719 L 365.726562 95.136719 C 368.074219 95.136719 369.980469 97.042969 369.980469 99.390625 L 369.980469 219.871094 C 369.980469 222.21875 368.074219 224.121094 365.726562 224.121094 Z M 365.726562 224.121094 " fill-opacity="1" fill-rule="nonzero"/><path fill="#3d81a8" d="M 281.988281 103.644531 L 205.742188 103.644531 C 203.394531 103.644531 201.484375 101.738281 201.484375 99.390625 C 201.484375 97.042969 203.382812 95.136719 205.734375 95.136719 L 281.988281 95.136719 C 284.335938 95.136719 286.238281 97.042969 286.238281 99.390625 C 286.238281 101.738281 284.335938 103.644531 281.988281 103.644531 Z M 281.988281 103.644531 " fill-opacity="1" fill-rule="nonzero"/><path fill="#3d81a8" d="M 162.878906 137.652344 L 99.28125 137.652344 C 96.929688 137.652344 95.027344 135.75 95.027344 133.402344 C 95.027344 131.054688 96.929688 129.148438 99.28125 129.148438 L 162.878906 129.148438 C 165.226562 129.148438 167.132812 131.054688 167.132812 133.402344 C 167.132812 135.75 165.226562 137.652344 162.878906 137.652344 Z M 162.878906 137.652344 " fill-opacity="1" fill-rule="nonzero"/><path fill="#3d81a8" d="M 81.75 137.652344 L 38.273438 137.652344 C 35.925781 137.652344 34.023438 135.75 34.023438 133.402344 C 34.023438 131.054688 35.925781 129.148438 38.273438 129.148438 L 81.75 129.148438 C 84.097656 129.148438 86.003906 131.054688 86.003906 133.402344 C 86.003906 135.75 84.097656 137.652344 81.75 137.652344 Z M 81.75 137.652344 " fill-opacity="1" fill-rule="nonzero"/><path fill="#3d81a8" d="M 331.714844 137.652344 L 292.566406 137.652344 C 290.21875 137.652344 288.316406 135.75 288.316406 133.402344 C 288.316406 131.054688 290.21875 129.148438 292.566406 129.148438 L 331.714844 129.148438 C 334.0625 129.148438 335.96875 131.054688 335.96875 133.402344 C 335.96875 135.75 334.0625 137.652344 331.714844 137.652344 Z M 331.714844 137.652344 " fill-opacity="1" fill-rule="nonzero"/><path fill="#3d81a8" d="M 274.996094 137.652344 L 182.875 137.652344 C 180.523438 137.652344 178.621094 135.75 178.621094 133.402344 C 178.621094 131.054688 180.523438 129.148438 182.875 129.148438 L 274.996094 129.148438 C 277.347656 129.148438 279.25 131.054688 279.25 133.402344 C 279.25 135.75 277.347656 137.652344 274.996094 137.652344 Z M 274.996094 137.652344 " fill-opacity="1" fill-rule="nonzero"/><path fill="#3d81a8" d="M 221.730469 291.71875 L 143.855469 291.71875 C 141.507812 291.71875 139.601562 289.8125 139.601562 287.464844 L 139.601562 253.671875 C 139.601562 251.320312 141.507812 249.417969 143.855469 249.417969 L 221.730469 249.417969 C 224.078125 249.417969 225.984375 251.320312 225.984375 253.671875 L 225.984375 287.464844 C 225.984375 289.8125 224.078125 291.71875 221.730469 291.71875 Z M 148.105469 283.214844 L 217.476562 283.214844 L 217.476562 257.921875 L 148.105469 257.921875 Z M 148.105469 283.214844 " fill-opacity="1" fill-rule="nonzero"/><path fill="#3d81a8" d="M 38.277344 224.125 C 35.929688 224.125 34.023438 222.222656 34.023438 219.875 L 34.023438 99.386719 C 34.023438 97.039062 35.929688 95.132812 38.277344 95.132812 C 40.625 95.132812 42.53125 97.039062 42.53125 99.386719 L 42.53125 219.875 C 42.53125 222.222656 40.625 224.125 38.277344 224.125 Z M 38.277344 224.125 " fill-opacity="1" fill-rule="nonzero"/><path fill="#3d81a8" d="M 331.714844 224.125 C 329.367188 224.125 327.464844 222.222656 327.464844 219.875 L 327.464844 99.386719 C 327.464844 97.039062 329.367188 95.132812 331.714844 95.132812 C 334.066406 95.132812 335.96875 97.039062 335.96875 99.386719 L 335.96875 219.875 C 335.96875 222.222656 334.0625 224.125 331.714844 224.125 Z M 331.714844 224.125 " fill-opacity="1" fill-rule="nonzero"/><path fill="#3d81a8" d="M 201.914062 224.125 C 200.40625 224.125 198.945312 223.320312 198.175781 221.902344 C 194.652344 215.417969 188.605469 210.421875 181.585938 208.195312 C 179.816406 207.636719 178.617188 205.996094 178.617188 204.140625 L 178.617188 127.421875 C 178.617188 125.570312 179.816406 123.929688 181.585938 123.371094 C 188.601562 121.144531 194.652344 116.148438 198.175781 109.664062 C 200.464844 105.464844 201.671875 100.710938 201.671875 95.910156 C 201.671875 85.347656 196.015625 75.898438 187.121094 70.867188 L 187.121094 95.910156 C 187.121094 98.257812 185.214844 100.160156 182.867188 100.160156 L 162.875 100.160156 C 160.527344 100.160156 158.621094 98.257812 158.621094 95.910156 L 158.621094 70.863281 C 149.730469 75.894531 144.070312 85.347656 144.070312 95.910156 C 144.070312 100.710938 145.28125 105.464844 147.566406 109.65625 C 151.144531 116.246094 157.039062 121.113281 164.160156 123.367188 C 165.925781 123.929688 167.125 125.570312 167.125 127.421875 L 167.125 204.140625 C 167.125 205.996094 165.925781 207.636719 164.160156 208.195312 C 157.039062 210.449219 151.144531 215.320312 147.566406 221.902344 C 146.449219 223.964844 143.863281 224.726562 141.800781 223.609375 C 139.738281 222.484375 138.972656 219.90625 140.097656 217.839844 C 144.222656 210.246094 150.730469 204.417969 158.621094 201.167969 L 158.621094 130.398438 C 150.730469 127.148438 144.222656 121.316406 140.097656 113.726562 C 137.132812 108.292969 135.566406 102.132812 135.566406 95.910156 C 135.566406 79.570312 146.027344 65.28125 161.589844 60.351562 C 162.882812 59.941406 164.292969 60.175781 165.386719 60.972656 C 166.480469 61.773438 167.125 63.050781 167.125 64.40625 L 167.125 91.65625 L 178.617188 91.65625 L 178.617188 64.40625 C 178.617188 63.050781 179.261719 61.773438 180.355469 60.972656 C 181.449219 60.171875 182.859375 59.941406 184.152344 60.351562 C 199.71875 65.285156 210.175781 79.574219 210.175781 95.910156 C 210.175781 102.132812 208.609375 108.292969 205.644531 113.730469 C 201.523438 121.316406 195.015625 127.148438 187.121094 130.398438 L 187.121094 201.167969 C 195.015625 204.421875 201.523438 210.253906 205.648438 217.839844 C 206.769531 219.90625 206.003906 222.488281 203.941406 223.609375 C 203.296875 223.957031 202.601562 224.125 201.914062 224.125 Z M 201.914062 224.125 " fill-opacity="1" fill-rule="nonzero"/><path fill="#3d81a8" d="M 115.847656 224.128906 C 113.5 224.128906 111.59375 222.226562 111.59375 219.878906 L 111.59375 198.785156 L 69.429688 198.785156 L 69.429688 219.878906 C 69.429688 222.226562 67.523438 224.128906 65.175781 224.128906 C 62.828125 224.128906 60.921875 222.226562 60.921875 219.878906 L 60.921875 194.535156 C 60.921875 192.183594 62.828125 190.28125 65.175781 190.28125 L 115.847656 190.28125 C 118.195312 190.28125 120.097656 192.183594 120.097656 194.535156 L 120.097656 219.878906 C 120.097656 222.226562 118.195312 224.128906 115.847656 224.128906 Z M 115.847656 224.128906 " fill-opacity="1" fill-rule="nonzero"/><path fill="#3d81a8" d="M 107.160156 198.785156 L 73.867188 198.785156 C 71.519531 198.785156 69.617188 196.878906 69.617188 194.53125 L 69.617188 178.675781 C 69.617188 176.328125 71.519531 174.421875 73.867188 174.421875 L 107.160156 174.421875 C 109.507812 174.421875 111.410156 176.328125 111.410156 178.675781 L 111.410156 194.53125 C 111.410156 196.878906 109.507812 198.785156 107.160156 198.785156 Z M 78.121094 190.277344 L 102.90625 190.277344 L 102.90625 182.929688 L 78.121094 182.929688 Z M 78.121094 190.277344 " fill-opacity="1" fill-rule="nonzero"/><path fill="#3d81a8" d="M 115.851562 182.929688 L 65.175781 182.929688 C 62.828125 182.929688 60.925781 181.023438 60.925781 178.675781 L 60.925781 160.789062 C 60.925781 158.4375 62.828125 156.535156 65.175781 156.535156 L 115.851562 156.535156 C 118.199219 156.535156 120.105469 158.4375 120.105469 160.789062 L 120.105469 178.675781 C 120.105469 181.023438 118.199219 182.929688 115.851562 182.929688 Z M 69.429688 174.425781 L 111.601562 174.425781 L 111.601562 165.039062 L 69.429688 165.039062 Z M 69.429688 174.425781 " fill-opacity="1" fill-rule="nonzero"/><path fill="#3d81a8" d="M 82.082031 224.128906 C 79.734375 224.128906 77.832031 222.226562 77.832031 219.878906 L 77.832031 194.535156 C 77.832031 192.183594 79.734375 190.28125 82.082031 190.28125 C 84.429688 190.28125 86.335938 192.183594 86.335938 194.535156 L 86.335938 219.878906 C 86.335938 222.226562 84.429688 224.128906 82.082031 224.128906 Z M 82.082031 224.128906 " fill-opacity="1" fill-rule="nonzero"/><path fill="#3d81a8" d="M 98.949219 224.128906 C 96.601562 224.128906 94.695312 222.226562 94.695312 219.878906 L 94.695312 194.535156 C 94.695312 192.183594 96.601562 190.28125 98.949219 190.28125 C 101.296875 190.28125 103.199219 192.183594 103.199219 194.535156 L 103.199219 219.878906 C 103.199219 222.226562 101.296875 224.128906 98.949219 224.128906 Z M 98.949219 224.128906 " fill-opacity="1" fill-rule="nonzero"/><path fill="#3d81a8" d="M 99.28125 165.039062 C 96.929688 165.039062 95.027344 163.136719 95.027344 160.789062 L 95.027344 54.527344 C 95.027344 53.925781 95.152344 53.332031 95.398438 52.785156 L 100.382812 41.691406 L 95.878906 25.726562 L 85.148438 25.726562 L 80.648438 41.691406 L 85.628906 52.785156 C 85.875 53.332031 86.003906 53.925781 86.003906 54.527344 L 86.003906 160.785156 C 86.003906 163.132812 84.097656 165.039062 81.75 165.039062 C 79.402344 165.039062 77.496094 163.132812 77.496094 160.785156 L 77.496094 55.4375 L 72.257812 43.765625 C 71.847656 42.851562 71.773438 41.828125 72.042969 40.867188 L 77.839844 20.320312 C 78.355469 18.488281 80.027344 17.222656 81.933594 17.222656 L 99.097656 17.222656 C 101.003906 17.222656 102.675781 18.488281 103.191406 20.320312 L 108.988281 40.867188 C 109.257812 41.828125 109.183594 42.851562 108.773438 43.765625 L 103.535156 55.4375 L 103.535156 160.789062 C 103.53125 163.136719 101.628906 165.039062 99.28125 165.039062 Z M 99.28125 165.039062 " fill-opacity="1" fill-rule="nonzero"/><path fill="#3d81a8" d="M 274.820312 224.125 C 274.535156 224.125 274.25 224.097656 273.960938 224.035156 C 271.660156 223.5625 270.175781 221.316406 270.648438 219.015625 L 298.835938 81.761719 L 290.308594 80.011719 L 261.410156 220.726562 C 260.9375 223.027344 258.695312 224.511719 256.390625 224.035156 C 254.089844 223.566406 252.605469 221.316406 253.078125 219.015625 L 282.832031 74.132812 C 283.304688 71.835938 285.542969 70.355469 287.851562 70.824219 L 304.710938 74.285156 C 305.816406 74.511719 306.785156 75.167969 307.40625 76.109375 C 308.027344 77.050781 308.25 78.203125 308.023438 79.308594 L 278.980469 220.726562 C 278.566406 222.738281 276.796875 224.125 274.820312 224.125 Z M 274.820312 224.125 " fill-opacity="1" fill-rule="nonzero"/><path fill="#3d81a8" d="M 312.554688 84.492188 C 312.265625 84.492188 311.980469 84.460938 311.695312 84.402344 L 277.453125 77.371094 C 275.445312 76.957031 274.019531 75.171875 274.058594 73.125 L 274.429688 53.417969 C 268.253906 50.945312 249.144531 45.347656 219.585938 55.046875 C 217.355469 55.78125 214.953125 54.566406 214.21875 52.335938 C 213.941406 51.484375 213.945312 50.613281 214.179688 49.816406 C 214.265625 49.101562 214.535156 48.398438 214.996094 47.78125 C 223.503906 36.441406 234.96875 28.007812 249.074219 22.714844 C 264.394531 16.964844 281.105469 15.695312 297.398438 19.042969 L 341.644531 28.132812 C 343.261719 24.75 347.039062 22.765625 350.871094 23.546875 L 367.542969 26.972656 C 372.058594 27.902344 374.976562 32.328125 374.046875 36.84375 L 367.007812 71.128906 C 366.558594 73.316406 365.285156 75.195312 363.417969 76.425781 C 361.554688 77.652344 359.324219 78.082031 357.136719 77.636719 L 340.464844 74.210938 C 338.277344 73.761719 336.394531 72.484375 335.164062 70.621094 C 334.316406 69.332031 333.847656 67.867188 333.789062 66.363281 L 320.308594 63.597656 L 316.714844 81.09375 C 316.488281 82.199219 315.832031 83.167969 314.890625 83.789062 C 314.195312 84.25 313.378906 84.492188 312.554688 84.492188 Z M 282.628906 69.75 L 309.242188 75.21875 L 312.835938 57.71875 C 313.066406 56.617188 313.71875 55.644531 314.664062 55.023438 C 315.605469 54.402344 316.757812 54.183594 317.859375 54.410156 L 339.429688 58.839844 C 341.730469 59.3125 343.210938 61.5625 342.738281 63.863281 L 342.320312 65.910156 L 358.710938 69.273438 L 365.691406 35.273438 L 349.304688 31.910156 L 348.882812 33.960938 C 348.65625 35.0625 348 36.035156 347.058594 36.65625 C 346.117188 37.277344 344.964844 37.496094 343.863281 37.269531 L 295.691406 27.375 C 280.964844 24.351562 265.878906 25.492188 252.0625 30.675781 C 243.925781 33.730469 236.785156 37.941406 230.71875 43.257812 C 262.3125 36.667969 280.023438 46.550781 280.859375 47.03125 C 282.199219 47.804688 283.015625 49.246094 282.988281 50.796875 Z M 282.628906 69.75 " fill-opacity="1" fill-rule="nonzero"/><path fill="#3d81a8" d="M 205.925781 103.640625 L 205.738281 103.640625 C 203.390625 103.640625 201.488281 101.738281 201.488281 99.386719 C 201.488281 97.039062 203.390625 95.136719 205.738281 95.136719 L 205.925781 95.136719 C 208.273438 95.136719 210.175781 97.039062 210.175781 99.386719 C 210.175781 101.738281 208.273438 103.640625 205.925781 103.640625 Z M 205.925781 103.640625 " fill-opacity="1" fill-rule="nonzero"/></svg>