<svg xmlns="http://www.w3.org/2000/svg" xmlns:xlink="http://www.w3.org/1999/xlink" width="500" zoomAndPan="magnify" viewBox="0 0 375 374.999991" height="500" preserveAspectRatio="xMidYMid meet" version="1.0"><defs><clipPath id="db2c3d4b90"><path d="M 26.066406 69.25 L 348.566406 69.25 L 348.566406 305.5 L 26.066406 305.5 Z M 26.066406 69.25 " clip-rule="nonzero"/></clipPath></defs><g clip-path="url(#db2c3d4b90)"><path fill="#ffffff" d="M 316.496094 69.25 L 58.5 69.25 C 57.445312 69.25 56.390625 69.304688 55.339844 69.40625 C 54.289062 69.511719 53.246094 69.664062 52.210938 69.871094 C 51.175781 70.078125 50.152344 70.332031 49.140625 70.640625 C 48.128906 70.945312 47.136719 71.300781 46.160156 71.707031 C 45.183594 72.109375 44.230469 72.5625 43.300781 73.058594 C 42.367188 73.558594 41.464844 74.097656 40.585938 74.6875 C 39.707031 75.273438 38.859375 75.902344 38.042969 76.570312 C 37.226562 77.242188 36.445312 77.949219 35.699219 78.695312 C 34.949219 79.445312 34.242188 80.226562 33.574219 81.042969 C 32.902344 81.859375 32.273438 82.707031 31.6875 83.582031 C 31.101562 84.460938 30.558594 85.367188 30.058594 86.296875 C 29.5625 87.230469 29.109375 88.183594 28.707031 89.160156 C 28.304688 90.136719 27.949219 91.128906 27.640625 92.140625 C 27.335938 93.148438 27.078125 94.171875 26.871094 95.207031 C 26.664062 96.246094 26.511719 97.289062 26.40625 98.339844 C 26.304688 99.390625 26.253906 100.445312 26.253906 101.5 L 26.253906 273.496094 C 26.253906 274.554688 26.304688 275.609375 26.40625 276.660156 C 26.511719 277.710938 26.664062 278.753906 26.871094 279.789062 C 27.078125 280.824219 27.335938 281.847656 27.640625 282.859375 C 27.949219 283.871094 28.304688 284.863281 28.707031 285.839844 C 29.109375 286.816406 29.5625 287.769531 30.058594 288.699219 C 30.558594 289.632812 31.101562 290.535156 31.6875 291.414062 C 32.273438 292.292969 32.902344 293.140625 33.574219 293.957031 C 34.242188 294.773438 34.949219 295.554688 35.699219 296.300781 C 36.445312 297.046875 37.226562 297.757812 38.042969 298.425781 C 38.859375 299.097656 39.707031 299.726562 40.585938 300.3125 C 41.464844 300.898438 42.367188 301.441406 43.300781 301.9375 C 44.230469 302.4375 45.183594 302.886719 46.160156 303.292969 C 47.136719 303.695312 48.128906 304.050781 49.140625 304.359375 C 50.152344 304.664062 51.175781 304.921875 52.210938 305.128906 C 53.246094 305.332031 54.289062 305.488281 55.339844 305.59375 C 56.390625 305.695312 57.445312 305.746094 58.5 305.746094 L 316.496094 305.746094 C 317.554688 305.746094 318.605469 305.695312 319.660156 305.59375 C 320.710938 305.488281 321.753906 305.332031 322.789062 305.128906 C 323.824219 304.921875 324.847656 304.664062 325.859375 304.359375 C 326.871094 304.050781 327.863281 303.695312 328.839844 303.292969 C 329.816406 302.886719 330.769531 302.4375 331.699219 301.9375 C 332.632812 301.441406 333.535156 300.898438 334.414062 300.3125 C 335.292969 299.726562 336.140625 299.097656 336.957031 298.425781 C 337.773438 297.757812 338.554688 297.046875 339.300781 296.300781 C 340.046875 295.554688 340.757812 294.773438 341.425781 293.957031 C 342.097656 293.140625 342.726562 292.292969 343.3125 291.414062 C 343.898438 290.535156 344.441406 289.632812 344.9375 288.699219 C 345.4375 287.769531 345.886719 286.816406 346.292969 285.839844 C 346.695312 284.863281 347.050781 283.871094 347.359375 282.859375 C 347.664062 281.847656 347.921875 280.824219 348.128906 279.789062 C 348.332031 278.753906 348.488281 277.710938 348.589844 276.660156 C 348.695312 275.609375 348.746094 274.554688 348.746094 273.496094 L 348.746094 101.5 C 348.746094 100.445312 348.695312 99.390625 348.589844 98.339844 C 348.488281 97.289062 348.332031 96.246094 348.128906 95.207031 C 347.921875 94.171875 347.664062 93.148438 347.359375 92.140625 C 347.050781 91.128906 346.695312 90.136719 346.292969 89.160156 C 345.886719 88.183594 345.4375 87.230469 344.9375 86.296875 C 344.441406 85.367188 343.898438 84.460938 343.3125 83.582031 C 342.726562 82.707031 342.097656 81.859375 341.425781 81.042969 C 340.757812 80.226562 340.046875 79.445312 339.300781 78.695312 C 338.554688 77.949219 337.773438 77.242188 336.957031 76.570312 C 336.140625 75.902344 335.292969 75.273438 334.414062 74.6875 C 333.535156 74.097656 332.632812 73.558594 331.699219 73.058594 C 330.769531 72.5625 329.816406 72.109375 328.839844 71.707031 C 327.863281 71.300781 326.871094 70.945312 325.859375 70.640625 C 324.847656 70.332031 323.824219 70.078125 322.789062 69.871094 C 321.753906 69.664062 320.710938 69.511719 319.660156 69.40625 C 318.605469 69.304688 317.554688 69.25 316.496094 69.25 Z M 47.75 103.382812 L 136.976562 179.835938 L 47.75 269.046875 Z M 194.488281 188.84375 C 194.003906 189.257812 193.492188 189.628906 192.945312 189.953125 C 192.398438 190.28125 191.824219 190.554688 191.226562 190.773438 C 190.632812 190.996094 190.019531 191.164062 189.394531 191.277344 C 188.765625 191.390625 188.136719 191.449219 187.5 191.449219 C 186.863281 191.449219 186.230469 191.390625 185.605469 191.277344 C 184.980469 191.164062 184.367188 190.996094 183.769531 190.773438 C 183.175781 190.554688 182.601562 190.28125 182.054688 189.953125 C 181.507812 189.628906 180.992188 189.257812 180.511719 188.84375 L 66.027344 90.75 L 308.972656 90.75 Z M 153.335938 193.863281 L 166.503906 205.148438 C 167.238281 205.75 167.996094 206.320312 168.777344 206.855469 C 169.558594 207.390625 170.363281 207.894531 171.1875 208.359375 C 172.011719 208.828125 172.855469 209.257812 173.71875 209.652344 C 174.578125 210.046875 175.457031 210.402344 176.347656 210.722656 C 177.242188 211.042969 178.144531 211.324219 179.0625 211.5625 C 179.980469 211.804688 180.90625 212.007812 181.839844 212.167969 C 182.773438 212.332031 183.710938 212.453125 184.65625 212.535156 C 185.601562 212.617188 186.546875 212.65625 187.496094 212.65625 C 188.441406 212.65625 189.386719 212.617188 190.332031 212.535156 C 191.277344 212.453125 192.214844 212.332031 193.148438 212.167969 C 194.085938 212.007812 195.007812 211.804688 195.925781 211.5625 C 196.84375 211.324219 197.746094 211.042969 198.640625 210.722656 C 199.53125 210.402344 200.410156 210.046875 201.269531 209.652344 C 202.132812 209.257812 202.976562 208.828125 203.800781 208.359375 C 204.625 207.894531 205.429688 207.390625 206.210938 206.855469 C 206.992188 206.320312 207.75 205.75 208.484375 205.148438 L 221.664062 193.851562 L 312.046875 284.246094 L 62.953125 284.246094 Z M 238.035156 179.886719 L 327.246094 103.382812 L 327.246094 269.046875 Z M 238.035156 179.886719 " fill-opacity="1" fill-rule="nonzero"/></g></svg>