<svg xmlns="http://www.w3.org/2000/svg" xmlns:xlink="http://www.w3.org/1999/xlink" width="500" zoomAndPan="magnify" viewBox="0 0 375 374.999991" height="500" preserveAspectRatio="xMidYMid meet" version="1.0"><defs><clipPath id="d098dbc1c5"><path d="M 11.265625 122 L 64 122 L 64 187 L 11.265625 187 Z M 11.265625 122 " clip-rule="nonzero"/></clipPath><clipPath id="4f0b308aff"><path d="M 11.265625 154 L 64 154 L 64 220 L 11.265625 220 Z M 11.265625 154 " clip-rule="nonzero"/></clipPath><clipPath id="897f371fc6"><path d="M 11.265625 226 L 65 226 L 65 292 L 11.265625 292 Z M 11.265625 226 " clip-rule="nonzero"/></clipPath><clipPath id="856f130d10"><path d="M 122.1875 49.484375 L 174.828125 49.484375 L 174.828125 114.667969 L 122.1875 114.667969 Z M 122.1875 49.484375 " clip-rule="nonzero"/></clipPath><clipPath id="761902338f"><path d="M 70.488281 49.484375 L 123 49.484375 L 123 114.667969 L 70.488281 114.667969 Z M 70.488281 49.484375 " clip-rule="nonzero"/></clipPath><clipPath id="2f286c1b0a"><path d="M 69.546875 260.367188 L 122.1875 260.367188 L 122.1875 325.84375 L 69.546875 325.84375 Z M 69.546875 260.367188 " clip-rule="nonzero"/></clipPath><clipPath id="91c0721563"><path d="M 311 193 L 363.765625 193 L 363.765625 259 L 311 259 Z M 311 193 " clip-rule="nonzero"/></clipPath><clipPath id="55bf51a298"><path d="M 311 225 L 363.765625 225 L 363.765625 292 L 311 292 Z M 311 225 " clip-rule="nonzero"/></clipPath></defs><g clip-path="url(#d098dbc1c5)"><path fill="#3d81a8" d="M 11.851562 122.328125 C 29.164062 133.035156 46.476562 143.742188 63.769531 154.445312 C 63.71875 154.640625 63.726562 154.820312 63.65625 154.859375 C 46.390625 165.542969 29.121094 176.222656 11.851562 186.890625 Z M 11.851562 122.328125 " fill-opacity="1" fill-rule="nonzero"/></g><g clip-path="url(#4f0b308aff)"><path fill="#3d81a8" d="M 63.816406 154.515625 L 63.816406 219.585938 C 46.402344 208.746094 29.144531 198.007812 11.582031 187.078125 C 29.050781 176.1875 46.316406 165.425781 63.816406 154.515625 " fill-opacity="1" fill-rule="nonzero"/></g><path fill="#3d81a8" d="M 12.050781 194.152344 C 29.363281 204.863281 46.679688 215.566406 63.972656 226.265625 C 63.921875 226.464844 63.929688 226.640625 63.859375 226.679688 C 46.59375 237.371094 29.320312 248.042969 12.050781 258.71875 Z M 12.050781 194.152344 " fill-opacity="1" fill-rule="nonzero"/><g clip-path="url(#897f371fc6)"><path fill="#3d81a8" d="M 64.015625 226.339844 L 64.015625 291.410156 C 46.605469 280.570312 29.351562 269.832031 11.785156 258.902344 C 29.253906 248.011719 46.519531 237.25 64.015625 226.339844 " fill-opacity="1" fill-rule="nonzero"/></g><g clip-path="url(#856f130d10)"><path fill="#3d81a8" d="M 122.835938 49.484375 C 140.15625 60.21875 157.480469 70.949219 174.785156 81.671875 C 174.734375 81.871094 174.738281 82.046875 174.667969 82.089844 C 157.394531 92.800781 140.117188 103.5 122.835938 114.199219 Z M 122.835938 49.484375 " fill-opacity="1" fill-rule="nonzero"/></g><g clip-path="url(#761902338f)"><path fill="#3d81a8" d="M 122.835938 49.527344 L 122.835938 114.191406 C 105.507812 103.421875 88.34375 92.75 70.863281 81.886719 C 88.246094 71.0625 105.425781 60.371094 122.835938 49.527344 " fill-opacity="1" fill-rule="nonzero"/></g><path fill="#3d81a8" d="M 65.625 84.960938 C 82.945312 95.695312 100.269531 106.425781 117.574219 117.148438 C 117.523438 117.347656 117.527344 117.523438 117.457031 117.566406 C 100.183594 128.273438 82.90625 138.972656 65.625 149.679688 Z M 65.625 84.960938 " fill-opacity="1" fill-rule="nonzero"/><path fill="#3d81a8" d="M 65.625 85 L 65.625 149.667969 C 48.296875 138.898438 31.132812 128.222656 13.652344 117.359375 C 31.035156 106.535156 48.214844 95.84375 65.625 85 " fill-opacity="1" fill-rule="nonzero"/><path fill="#3d81a8" d="M 70.121094 228.289062 C 87.433594 238.996094 104.75 249.703125 122.042969 260.402344 C 121.992188 260.601562 121.996094 260.777344 121.929688 260.816406 C 104.660156 271.507812 87.390625 282.179688 70.121094 292.855469 Z M 70.121094 228.289062 " fill-opacity="1" fill-rule="nonzero"/><g clip-path="url(#2f286c1b0a)"><path fill="#3d81a8" d="M 122.082031 260.480469 L 122.082031 325.546875 C 104.671875 314.710938 87.417969 303.96875 69.851562 293.039062 C 87.320312 282.148438 104.585938 271.386719 122.082031 260.480469 " fill-opacity="1" fill-rule="nonzero"/></g><path fill="#3d81a8" d="M 128.679688 324.941406 C 145.992188 314.234375 163.308594 303.527344 180.601562 292.824219 C 180.550781 292.632812 180.554688 292.453125 180.484375 292.410156 C 163.21875 281.722656 145.949219 271.050781 128.679688 260.375 Z M 128.679688 324.941406 " fill-opacity="1" fill-rule="nonzero"/><path fill="#3d81a8" d="M 180.644531 292.75 L 180.644531 227.683594 C 163.234375 238.519531 145.976562 249.257812 128.414062 260.191406 C 145.886719 271.082031 163.144531 281.84375 180.644531 292.75 " fill-opacity="1" fill-rule="nonzero"/><path fill="#3d81a8" d="M 128.882812 253.113281 C 146.195312 242.40625 163.511719 231.699219 180.804688 221 C 180.753906 220.804688 180.761719 220.628906 180.691406 220.585938 C 163.425781 209.898438 146.152344 199.226562 128.882812 188.550781 Z M 128.882812 253.113281 " fill-opacity="1" fill-rule="nonzero"/><path fill="#3d81a8" d="M 180.847656 220.925781 L 180.847656 155.859375 C 163.4375 166.695312 146.183594 177.4375 128.617188 188.367188 C 146.085938 199.253906 163.351562 210.019531 180.847656 220.925781 " fill-opacity="1" fill-rule="nonzero"/><path fill="#3d81a8" d="M 197.894531 86.363281 C 215.207031 97.070312 232.519531 107.78125 249.8125 118.476562 C 249.761719 118.675781 249.769531 118.851562 249.699219 118.898438 C 232.433594 129.578125 215.160156 140.253906 197.894531 150.929688 Z M 197.894531 86.363281 " fill-opacity="1" fill-rule="nonzero"/><path fill="#3d81a8" d="M 249.859375 118.550781 L 249.859375 183.621094 C 232.449219 172.785156 215.191406 162.042969 197.628906 151.113281 C 215.101562 140.222656 232.359375 129.460938 249.859375 118.550781 " fill-opacity="1" fill-rule="nonzero"/><path fill="#3d81a8" d="M 198.09375 156.699219 C 215.40625 167.40625 232.722656 178.113281 250.015625 188.8125 C 249.964844 189.007812 249.96875 189.183594 249.902344 189.226562 C 232.636719 199.914062 215.363281 210.585938 198.09375 221.261719 Z M 198.09375 156.699219 " fill-opacity="1" fill-rule="nonzero"/><path fill="#3d81a8" d="M 250.0625 188.886719 L 250.0625 253.957031 C 232.648438 243.117188 215.394531 232.375 197.832031 221.445312 C 215.300781 210.554688 232.5625 199.796875 250.0625 188.886719 " fill-opacity="1" fill-rule="nonzero"/><path fill="#3d81a8" d="M 197.375 226.726562 C 214.691406 237.433594 232.003906 248.144531 249.300781 258.839844 C 249.25 259.039062 249.25 259.214844 249.1875 259.253906 C 231.917969 269.941406 214.648438 280.617188 197.375 291.292969 Z M 197.375 226.726562 " fill-opacity="1" fill-rule="nonzero"/><path fill="#3d81a8" d="M 249.34375 258.917969 L 249.34375 323.984375 C 231.929688 313.144531 214.671875 302.40625 197.109375 291.476562 C 214.582031 280.582031 231.84375 269.824219 249.34375 258.917969 " fill-opacity="1" fill-rule="nonzero"/><path fill="#3d81a8" d="M 362.667969 53.394531 C 345.355469 64.101562 328.039062 74.808594 310.746094 85.507812 C 310.796875 85.707031 310.792969 85.882812 310.863281 85.921875 C 328.125 96.613281 345.394531 107.285156 362.667969 117.960938 Z M 362.667969 53.394531 " fill-opacity="1" fill-rule="nonzero"/><path fill="#3d81a8" d="M 310.699219 85.585938 L 310.699219 150.65625 C 328.117188 139.816406 345.371094 129.074219 362.9375 118.144531 C 345.460938 107.253906 328.199219 96.492188 310.699219 85.585938 " fill-opacity="1" fill-rule="nonzero"/><path fill="#3d81a8" d="M 362.464844 123.730469 C 345.152344 134.441406 327.835938 145.144531 310.542969 155.84375 C 310.59375 156.042969 310.589844 156.21875 310.660156 156.257812 C 327.925781 166.945312 345.195312 177.621094 362.464844 188.296875 Z M 362.464844 123.730469 " fill-opacity="1" fill-rule="nonzero"/><path fill="#3d81a8" d="M 310.589844 155.917969 L 310.589844 220.984375 C 328.003906 210.144531 345.257812 199.410156 362.824219 188.480469 C 345.351562 177.585938 328.085938 166.824219 310.589844 155.917969 " fill-opacity="1" fill-rule="nonzero"/><g clip-path="url(#91c0721563)"><path fill="#3d81a8" d="M 363.1875 193.753906 C 345.875 204.460938 328.558594 215.167969 311.261719 225.871094 C 311.3125 226.0625 311.308594 226.238281 311.378906 226.285156 C 328.644531 236.972656 345.914062 247.644531 363.1875 258.320312 Z M 363.1875 193.753906 " fill-opacity="1" fill-rule="nonzero"/></g><g clip-path="url(#55bf51a298)"><path fill="#3d81a8" d="M 311.222656 225.945312 L 311.222656 291.011719 C 328.632812 280.175781 345.886719 269.4375 363.453125 258.503906 C 345.984375 247.613281 328.71875 236.851562 311.222656 225.945312 " fill-opacity="1" fill-rule="nonzero"/></g><path fill="#3d81a8" d="M 254.691406 253.035156 C 272.003906 242.328125 289.320312 231.621094 306.613281 220.917969 C 306.5625 220.726562 306.566406 220.546875 306.496094 220.503906 C 289.230469 209.820312 271.957031 199.144531 254.691406 188.472656 Z M 254.691406 253.035156 " fill-opacity="1" fill-rule="nonzero"/><path fill="#3d81a8" d="M 306.652344 221.589844 L 306.652344 156.523438 C 289.242188 167.363281 271.988281 178.101562 254.421875 189.03125 C 271.890625 199.921875 289.15625 210.683594 306.652344 221.589844 " fill-opacity="1" fill-rule="nonzero"/></svg>