<svg width="76" height="76" viewBox="0 0 76 76" fill="none" xmlns="http://www.w3.org/2000/svg">
<g clip-path="url(#clip0_11_9)">
<path d="M38.0006 6.3335C25.7457 6.3335 15.834 16.2452 15.834 28.5002C15.834 34.0102 17.4173 39.1718 20.299 43.8268C23.3073 48.7035 27.2656 52.8835 30.3056 57.7602C31.794 60.1352 32.8706 62.3518 34.0106 64.9168C34.834 66.6585 35.499 69.6668 38.0006 69.6668C40.5023 69.6668 41.1673 66.6585 41.959 64.9168C43.1306 62.3518 44.1756 60.1352 45.664 57.7602C48.704 52.9152 52.6623 48.7352 55.6706 43.8268C58.584 39.1718 60.1673 34.0102 60.1673 28.5002C60.1673 16.2452 50.2556 6.3335 38.0006 6.3335ZM38.0006 37.2085C33.6307 37.2085 30.084 33.6618 30.084 29.2918C30.084 24.9218 33.6307 21.3752 38.0006 21.3752C42.3706 21.3752 45.9173 24.9218 45.9173 29.2918C45.9173 33.6618 42.3706 37.2085 38.0006 37.2085Z" fill="white"/>
</g>
<defs>
<clipPath id="clip0_11_9">
<rect width="76" height="76" fill="white"/>
</clipPath>
</defs>
</svg>
