<svg xmlns="http://www.w3.org/2000/svg" xmlns:xlink="http://www.w3.org/1999/xlink" width="500" zoomAndPan="magnify" viewBox="0 0 375 374.999991" height="500" preserveAspectRatio="xMidYMid meet" version="1.0"><path fill="#3d81a8" d="M 65.707031 226.347656 C 67.980469 228.496094 68.085938 232.074219 65.945312 234.367188 L 60.851562 239.761719 C 59.738281 240.953125 58.238281 241.527344 56.734375 241.527344 C 55.34375 241.527344 53.949219 241.050781 52.859375 240 C 50.582031 237.851562 50.480469 234.273438 52.621094 232.027344 L 57.714844 226.585938 C 59.855469 224.34375 63.433594 224.199219 65.707031 226.347656 Z M 40.902344 263.242188 C 38.039062 262.003906 36.734375 258.660156 37.988281 255.796875 L 40.621094 249.785156 C 41.875 246.917969 45.210938 245.628906 48.070312 246.871094 C 50.933594 248.113281 52.238281 251.453125 50.984375 254.316406 L 48.347656 260.332031 C 47.417969 262.480469 45.34375 263.71875 43.164062 263.71875 C 42.410156 263.722656 41.640625 263.578125 40.902344 263.242188 Z M 39.441406 287.347656 C 36.316406 287.347656 33.785156 284.820312 33.785156 281.667969 L 33.785156 275.414062 C 33.785156 272.3125 36.316406 269.78125 39.441406 269.78125 C 42.5625 269.78125 45.09375 272.3125 45.09375 275.414062 L 45.09375 281.667969 C 45.097656 284.816406 42.566406 287.347656 39.441406 287.347656 Z M 48.070312 310.210938 C 47.335938 310.542969 46.566406 310.6875 45.808594 310.6875 C 43.628906 310.6875 41.550781 309.445312 40.625 307.300781 L 37.988281 301.285156 C 36.738281 298.421875 38.042969 295.078125 40.902344 293.839844 C 43.765625 292.597656 47.097656 293.886719 48.351562 296.75 L 50.988281 302.765625 C 52.238281 305.628906 50.933594 308.96875 48.070312 310.210938 Z M 65.945312 322.761719 C 68.085938 325.007812 67.980469 328.585938 65.707031 330.734375 C 64.617188 331.785156 63.222656 332.261719 61.832031 332.261719 C 60.328125 332.261719 58.828125 331.6875 57.714844 330.496094 L 52.621094 325.101562 C 50.480469 322.8125 50.582031 319.230469 52.859375 317.085938 C 55.132812 314.984375 58.710938 315.078125 60.851562 317.324219 Z M 91.242188 347.871094 C 90.175781 349.636719 88.320312 350.589844 86.414062 350.589844 C 85.40625 350.589844 84.386719 350.304688 83.46875 349.730469 L 76.261719 345.339844 C 73.601562 343.714844 72.765625 340.230469 74.394531 337.558594 C 76.027344 334.886719 79.511719 334.074219 82.175781 335.699219 L 89.375 340.089844 C 92.039062 341.710938 92.875 345.195312 91.242188 347.871094 Z M 123.234375 360.566406 C 122.414062 362.90625 120.230469 364.335938 117.902344 364.335938 C 117.277344 364.335938 116.640625 364.242188 116.015625 364.003906 L 107.195312 360.898438 C 104.25 359.851562 102.707031 356.652344 103.75 353.691406 C 104.789062 350.734375 108.023438 349.207031 110.96875 350.257812 L 119.789062 353.359375 C 122.734375 354.410156 124.277344 357.652344 123.234375 360.566406 Z M 159.710938 367.917969 C 159.257812 370.683594 156.859375 372.640625 154.140625 372.640625 C 153.832031 372.640625 153.523438 372.640625 153.214844 372.59375 L 143.375 370.972656 C 140.292969 370.445312 138.207031 367.535156 138.710938 364.480469 C 139.21875 361.378906 142.125 359.324219 145.207031 359.800781 L 155.046875 361.425781 C 158.128906 361.949219 160.21875 364.863281 159.710938 367.917969 Z M 198.292969 369.15625 C 198.355469 372.308594 195.875 374.886719 192.753906 374.933594 C 190.976562 374.980469 189.261719 374.980469 187.546875 374.980469 C 185.828125 374.980469 184.113281 374.980469 182.335938 374.933594 C 179.210938 374.886719 176.730469 372.308594 176.796875 369.15625 C 176.863281 366.054688 179.449219 363.574219 182.566406 363.621094 C 185.964844 363.714844 189.128906 363.714844 192.523438 363.621094 C 195.644531 363.574219 198.226562 366.054688 198.292969 369.15625 Z M 236.375 364.480469 C 236.882812 367.535156 234.796875 370.445312 231.714844 370.972656 L 221.875 372.59375 C 221.5625 372.640625 221.253906 372.640625 220.953125 372.640625 C 218.230469 372.640625 215.832031 370.683594 215.375 367.917969 C 214.871094 364.863281 216.957031 361.949219 220.042969 361.425781 L 229.878906 359.800781 C 232.964844 359.324219 235.871094 361.378906 236.375 364.480469 Z M 271.335938 353.691406 C 272.378906 356.652344 270.839844 359.847656 267.890625 360.898438 L 259.070312 364.003906 C 258.449219 364.242188 257.8125 364.335938 257.183594 364.335938 C 254.855469 364.335938 252.675781 362.90625 251.855469 360.566406 C 250.8125 357.652344 252.355469 354.410156 255.300781 353.359375 L 264.121094 350.257812 C 267.0625 349.207031 270.296875 350.734375 271.335938 353.691406 Z M 300.695312 337.558594 C 302.324219 340.230469 301.488281 343.714844 298.824219 345.339844 L 291.621094 349.730469 C 290.699219 350.304688 289.679688 350.589844 288.671875 350.589844 C 286.769531 350.589844 284.914062 349.636719 283.847656 347.871094 C 282.214844 345.195312 283.050781 341.710938 285.714844 340.089844 L 292.917969 335.699219 C 295.578125 334.074219 299.0625 334.886719 300.695312 337.558594 Z M 322.230469 317.082031 C 324.503906 319.230469 324.609375 322.8125 322.46875 325.101562 L 317.375 330.496094 C 316.261719 331.6875 314.761719 332.261719 313.257812 332.261719 C 311.867188 332.261719 310.472656 331.785156 309.378906 330.734375 C 307.109375 328.585938 307 325.007812 309.144531 322.761719 L 314.238281 317.320312 C 316.378906 315.078125 319.957031 314.984375 322.230469 317.082031 Z M 337.101562 301.285156 L 334.464844 307.300781 C 333.535156 309.445312 331.460938 310.6875 329.28125 310.6875 C 328.523438 310.6875 327.753906 310.542969 327.015625 310.210938 C 324.15625 308.96875 322.851562 305.628906 324.101562 302.765625 L 326.738281 296.75 C 327.988281 293.886719 331.324219 292.597656 334.183594 293.839844 C 337.046875 295.078125 338.351562 298.421875 337.101562 301.285156 Z M 341.304688 275.414062 L 341.304688 281.667969 C 341.304688 284.816406 338.773438 287.347656 335.648438 287.347656 C 332.523438 287.347656 329.992188 284.816406 329.992188 281.667969 L 329.992188 275.414062 C 329.992188 272.3125 332.523438 269.78125 335.648438 269.78125 C 338.773438 269.78125 341.304688 272.3125 341.304688 275.414062 Z M 324.101562 254.316406 C 322.851562 251.453125 324.15625 248.113281 327.015625 246.871094 C 329.878906 245.628906 333.214844 246.917969 334.464844 249.785156 L 337.101562 255.796875 C 338.351562 258.660156 337.046875 262.003906 334.1875 263.242188 C 333.449219 263.578125 332.679688 263.722656 331.921875 263.722656 C 329.742188 263.722656 327.667969 262.480469 326.738281 260.332031 Z M 322.46875 232.027344 C 324.609375 234.269531 324.503906 237.851562 322.230469 240 C 321.140625 241.050781 319.746094 241.527344 318.355469 241.527344 C 316.851562 241.527344 315.347656 240.953125 314.238281 239.761719 L 309.144531 234.367188 C 307.003906 232.074219 307.109375 228.496094 309.378906 226.347656 C 311.652344 224.199219 315.234375 224.34375 317.375 226.585938 Z M 335.128906 119.289062 C 335.941406 117.855469 335.507812 116.042969 334.117188 115.136719 L 333.457031 114.707031 C 332.027344 113.753906 330.074219 114.132812 329.101562 115.519531 C 322.097656 125.683594 314.285156 135.421875 305.871094 144.441406 C 297.59375 153.320312 287.710938 163.917969 274.582031 169.214844 C 271.96875 170.550781 269.097656 171.457031 266.066406 171.792969 C 265.199219 171.984375 264.320312 172.125 263.421875 172.222656 C 260.554688 172.652344 257.917969 172.84375 255.484375 172.84375 C 239.972656 172.84375 232.441406 165.253906 222.535156 155.324219 L 199.0625 131.839844 C 198.453125 131.222656 197.660156 130.886719 196.824219 130.886719 C 196.820312 130.886719 196.816406 130.886719 196.8125 130.886719 C 195.972656 130.886719 195.179688 131.222656 194.570312 131.839844 L 194.136719 132.320312 C 193.070312 133.367188 192.898438 134.894531 193.703125 136.183594 C 195.703125 139.429688 197.667969 142.484375 199.5625 145.445312 C 212.472656 165.539062 222.671875 181.433594 222.535156 210.550781 C 222.433594 233.078125 215.050781 263.722656 208.539062 290.785156 C 207.0625 296.894531 205.667969 302.71875 204.417969 308.160156 C 204.230469 308.96875 204.746094 309.828125 205.570312 310.019531 L 206.746094 310.351562 C 207.488281 310.542969 208.160156 310.257812 208.535156 309.589844 L 241.613281 250.355469 C 242.636719 248.542969 244.550781 247.492188 246.550781 247.492188 C 247.160156 247.492188 247.777344 247.585938 248.382812 247.777344 C 250.96875 248.683594 252.550781 251.261719 252.140625 253.984375 L 243.40625 311.546875 C 243.269531 312.453125 243.652344 313.074219 243.890625 313.359375 C 244.132812 313.691406 244.671875 314.171875 245.59375 314.265625 L 246.925781 314.363281 C 248.015625 314.410156 248.878906 313.882812 249.292969 312.882812 C 263.539062 277.992188 275.667969 241.667969 286.378906 201.765625 C 287.921875 196.039062 290.121094 191.265625 293.503906 186.398438 C 308.125 165.207031 322.128906 142.628906 335.128906 119.289062 Z M 181.386719 136.183594 C 182.191406 134.894531 182.019531 133.367188 180.953125 132.320312 L 180.519531 131.839844 C 179.910156 131.222656 179.113281 130.886719 178.273438 130.886719 C 178.273438 130.886719 178.265625 130.886719 178.261719 130.886719 C 177.429688 130.886719 176.632812 131.222656 176.027344 131.839844 L 152.554688 155.324219 C 141.089844 166.828125 132.804688 175.132812 111.664062 172.222656 C 110.769531 172.125 109.890625 171.984375 109.019531 171.792969 C 105.988281 171.457031 103.121094 170.550781 100.507812 169.214844 C 87.378906 163.917969 77.496094 153.320312 69.21875 144.441406 C 60.804688 135.421875 52.992188 125.683594 45.988281 115.519531 C 45.378906 114.660156 44.382812 114.179688 43.375 114.179688 C 42.769531 114.179688 42.164062 114.324219 41.628906 114.707031 L 40.972656 115.136719 C 39.582031 116.042969 39.148438 117.855469 39.960938 119.289062 C 52.957031 142.628906 66.960938 165.207031 81.589844 186.398438 C 84.972656 191.265625 87.167969 196.039062 88.710938 201.765625 C 99.417969 241.667969 111.550781 277.992188 125.796875 312.882812 C 126.210938 313.882812 127.074219 314.410156 128.167969 314.363281 L 129.496094 314.265625 C 130.421875 314.171875 130.960938 313.691406 131.199219 313.359375 C 131.441406 313.074219 131.824219 312.453125 131.683594 311.546875 L 122.949219 253.984375 C 122.539062 251.261719 124.121094 248.683594 126.707031 247.777344 C 129.292969 246.917969 132.144531 247.96875 133.480469 250.355469 L 166.558594 309.589844 C 166.933594 310.257812 167.601562 310.542969 168.347656 310.351562 L 169.519531 310.019531 C 170.34375 309.828125 170.859375 308.96875 170.667969 308.15625 C 169.421875 302.714844 168.027344 296.894531 166.550781 290.78125 C 160.039062 263.71875 152.65625 233.078125 152.554688 210.546875 C 152.421875 181.433594 162.617188 165.539062 175.527344 145.445312 C 177.421875 142.484375 179.386719 139.429688 181.386719 136.183594 Z M 50.414062 102.820312 C 60.625 103.777344 69.296875 103.347656 76.9375 101.628906 C 98.65625 96.664062 103.78125 84.828125 110.273438 69.839844 C 111.277344 67.546875 112.316406 65.113281 113.476562 62.632812 L 127.175781 32.945312 C 128.601562 35.761719 130.046875 38.671875 131.5 41.632812 C 123.65625 71.320312 118.289062 95.757812 116.238281 121.53125 C 114.84375 121.246094 113.410156 121.148438 111.945312 121.148438 C 98.097656 121.148438 86.808594 132.269531 86.546875 146.066406 C 83.367188 143.011719 80.371094 139.8125 77.488281 136.710938 C 69.453125 128.070312 61.988281 118.8125 55.300781 109.121094 C 53.53125 106.542969 51.046875 104.730469 48.292969 103.777344 C 48.378906 103.632812 48.460938 103.539062 48.535156 103.488281 C 48.824219 103.203125 49.453125 102.726562 50.414062 102.820312 Z M 79.199219 59.53125 C 71.421875 59.53125 65.097656 65.878906 65.097656 73.660156 C 65.097656 81.390625 71.421875 87.738281 79.199219 87.738281 C 82.113281 87.738281 84.824219 86.832031 87.074219 85.351562 C 87.078125 85.304688 87.078125 85.304688 87.082031 85.304688 C 87.167969 85.257812 87.246094 85.210938 87.332031 85.160156 C 87.757812 84.828125 88.167969 84.492188 88.566406 84.160156 C 91.460938 81.582031 93.300781 77.808594 93.300781 73.65625 C 93.300781 65.878906 86.972656 59.53125 79.199219 59.53125 Z M 127.234375 126.257812 C 128.71875 103.683594 132.882812 82.296875 139.117188 57.382812 C 146.4375 73.039062 152.871094 88.789062 155.519531 102.394531 C 157.253906 111.269531 158.433594 121.246094 159.132812 132.75 L 144.542969 147.355469 C 141.167969 150.742188 138.363281 153.511719 135.628906 155.753906 C 136.738281 152.890625 137.355469 149.789062 137.355469 146.542969 C 137.355469 138.285156 133.378906 130.886719 127.234375 126.257812 Z M 105.191406 158.90625 C 100.816406 156.519531 97.84375 151.890625 97.84375 146.542969 C 97.84375 138.761719 104.167969 132.460938 111.945312 132.460938 C 119.71875 132.460938 126.046875 138.761719 126.046875 146.542969 C 126.046875 154.324219 119.71875 160.671875 111.945312 160.671875 C 111.519531 160.671875 111.105469 160.625 110.691406 160.574219 C 108.796875 160.195312 106.964844 159.621094 105.191406 158.90625 Z M 131.460938 14.28125 C 131.617188 13.902344 132.015625 13.234375 132.929688 12.945312 L 133.414062 12.800781 C 134.527344 12.421875 135.652344 12.851562 136.21875 13.898438 C 144.839844 29.363281 154.855469 41.824219 165.984375 50.84375 C 178.675781 61.199219 196.410156 61.199219 209.101562 50.84375 C 220.230469 41.824219 230.246094 29.363281 238.867188 13.898438 C 239.335938 13.039062 240.09375 12.660156 241.125 12.707031 C 241.984375 12.753906 243.152344 13.183594 243.613281 14.28125 C 243.917969 14.996094 243.902344 15.570312 243.5625 16.238281 C 241.730469 20.007812 239.796875 23.875 237.816406 27.835938 C 226.097656 51.320312 212.816406 77.90625 208.464844 100.242188 C 207.140625 107.023438 206.125 114.324219 205.382812 122.4375 C 202.910156 120.578125 199.941406 119.574219 196.824219 119.574219 C 196.808594 119.574219 196.792969 119.574219 196.777344 119.574219 C 193.367188 119.621094 190.136719 120.816406 187.542969 122.960938 C 184.949219 120.8125 181.71875 119.621094 178.308594 119.574219 C 175.160156 119.574219 172.183594 120.578125 169.699219 122.4375 C 168.960938 114.324219 167.945312 107.019531 166.621094 100.242188 C 162.269531 77.90625 148.988281 51.320312 137.269531 27.835938 C 135.285156 23.875 133.355469 20.007812 131.523438 16.238281 C 131.101562 15.378906 131.300781 14.617188 131.460938 14.28125 Z M 187.546875 19.101562 C 179.769531 19.101562 173.441406 25.402344 173.441406 33.183594 C 173.441406 40.484375 178.996094 46.5 186.089844 47.214844 C 187.058594 47.261719 188.03125 47.261719 189 47.214844 C 196.09375 46.5 201.648438 40.484375 201.648438 33.183594 C 201.648438 25.402344 195.320312 19.101562 187.546875 19.101562 Z M 235.96875 57.382812 C 242.207031 82.296875 246.371094 103.679688 247.855469 126.257812 C 241.710938 130.886719 237.730469 138.285156 237.730469 146.542969 C 237.730469 149.789062 238.347656 152.890625 239.457031 155.753906 C 236.726562 153.511719 233.921875 150.742188 230.546875 147.355469 L 215.953125 132.75 C 216.652344 121.246094 217.835938 111.269531 219.570312 102.390625 C 222.21875 88.789062 228.652344 73.039062 235.96875 57.382812 Z M 264.398438 160.574219 C 263.984375 160.625 263.566406 160.671875 263.144531 160.671875 C 255.371094 160.671875 249.042969 154.324219 249.042969 146.542969 C 249.042969 138.761719 255.371094 132.460938 263.144531 132.460938 C 270.921875 132.460938 277.246094 138.761719 277.246094 146.542969 C 277.246094 151.890625 274.273438 156.519531 269.898438 158.90625 C 268.125 159.621094 266.292969 160.195312 264.398438 160.574219 Z M 264.824219 69.886719 C 268.515625 78.433594 271.914062 86.257812 278.65625 92.273438 C 279.636719 93.179688 280.6875 94.039062 281.804688 94.757812 C 285.964844 97.667969 291.222656 100.007812 298.148438 101.628906 C 305.789062 103.347656 314.464844 103.777344 324.671875 102.824219 C 325.628906 102.726562 326.261719 103.203125 326.554688 103.492188 C 326.625 103.539062 326.710938 103.632812 326.792969 103.777344 C 324.039062 104.730469 321.558594 106.546875 319.789062 109.121094 C 313.101562 118.8125 305.632812 128.070312 297.597656 136.710938 C 294.714844 139.8125 291.71875 143.011719 288.542969 146.066406 C 288.28125 132.269531 276.992188 121.152344 263.144531 121.152344 C 261.679688 121.152344 260.246094 121.246094 258.847656 121.53125 C 256.800781 95.757812 251.433594 71.367188 243.589844 41.632812 C 245.039062 38.671875 246.488281 35.761719 247.910156 32.945312 L 261.613281 62.632812 C 262.773438 65.113281 263.816406 67.550781 264.824219 69.886719 Z M 295.890625 59.53125 C 288.113281 59.53125 281.789062 65.878906 281.789062 73.660156 C 281.789062 77.953125 283.75 81.820312 286.820312 84.398438 C 286.882812 84.492188 286.945312 84.542969 287.007812 84.589844 C 289.4375 86.546875 292.527344 87.738281 295.890625 87.738281 C 303.667969 87.738281 309.992188 81.390625 309.992188 73.660156 C 309.992188 65.878906 303.664062 59.53125 295.890625 59.53125 Z M 340.382812 105.734375 L 339.722656 105.257812 C 339.34375 105.019531 338.953125 104.777344 338.5625 104.589844 C 338.414062 101.105469 336.953125 97.808594 334.4375 95.375 C 331.570312 92.558594 327.636719 91.175781 323.644531 91.558594 C 320.007812 91.890625 316.621094 92.035156 313.441406 91.988281 C 318.28125 87.359375 321.300781 80.867188 321.300781 73.660156 C 321.300781 59.628906 309.902344 48.21875 295.890625 48.21875 C 286.25 48.21875 277.84375 53.613281 273.539062 61.535156 C 273.011719 60.34375 272.464844 59.148438 271.882812 57.863281 L 254.316406 19.820312 C 255.496094 16.574219 255.402344 13.089844 254.023438 9.84375 C 251.964844 5.023438 247.136719 1.683594 241.722656 1.398438 C 236.421875 1.109375 231.542969 3.785156 228.988281 8.414062 C 224.058594 17.242188 218.671875 24.976562 212.894531 31.515625 C 212.035156 18.292969 200.996094 7.792969 187.546875 7.792969 C 174.089844 7.792969 163.054688 18.292969 162.191406 31.515625 C 156.414062 24.976562 151.03125 17.242188 146.101562 8.414062 C 142.886719 2.636719 136.25 0.0117188 129.964844 2.015625 L 129.480469 2.160156 C 125.679688 3.402344 122.609375 6.171875 121.050781 9.84375 C 119.695312 13.042969 119.613281 16.574219 120.773438 19.820312 L 103.207031 57.863281 C 102.625 59.152344 102.078125 60.34375 101.546875 61.535156 C 97.242188 53.613281 88.839844 48.21875 79.199219 48.21875 C 65.1875 48.21875 53.785156 59.628906 53.785156 73.660156 C 53.785156 80.867188 56.808594 87.359375 61.648438 91.988281 C 58.464844 92.035156 55.082031 91.890625 51.445312 91.558594 C 47.449219 91.175781 43.515625 92.558594 40.648438 95.375 C 38.136719 97.8125 36.675781 101.105469 36.523438 104.589844 C 36.132812 104.78125 35.742188 105.019531 35.363281 105.257812 L 34.707031 105.734375 C 28.457031 109.886719 26.425781 118.238281 30.078125 124.824219 C 43.25 148.453125 57.449219 171.316406 72.277344 192.792969 C 74.929688 196.660156 76.574219 200.191406 77.785156 204.726562 C 88.621094 245.058594 100.898438 281.8125 115.324219 317.179688 C 117.441406 322.332031 122.449219 325.675781 127.988281 325.675781 C 128.308594 325.675781 128.632812 325.675781 128.957031 325.625 L 130.289062 325.53125 C 134.101562 325.292969 137.652344 323.429688 140.03125 320.472656 C 142.40625 317.464844 143.4375 313.597656 142.863281 309.828125 L 138.808594 283.097656 L 156.683594 315.078125 C 159.589844 320.28125 165.417969 322.808594 171.1875 321.28125 L 172.363281 320.996094 C 179.164062 319.230469 183.265625 312.453125 181.695312 305.625 C 180.433594 300.089844 179.03125 294.265625 177.546875 288.109375 C 171.175781 261.667969 163.960938 231.691406 163.863281 210.5 C 163.746094 184.726562 172.679688 170.789062 185.046875 151.554688 C 185.867188 150.265625 186.699219 148.976562 187.546875 147.640625 C 188.386719 148.976562 189.222656 150.265625 190.046875 151.554688 C 202.410156 170.789062 211.34375 184.726562 211.226562 210.5 C 211.128906 231.691406 203.910156 261.667969 197.542969 288.109375 C 196.058594 294.265625 194.65625 300.089844 193.394531 305.625 C 191.824219 312.453125 195.921875 319.230469 202.726562 320.996094 L 203.898438 321.28125 C 209.671875 322.808594 215.5 320.277344 218.40625 315.078125 L 236.277344 283.097656 L 232.222656 309.828125 C 231.648438 313.597656 232.683594 317.464844 235.058594 320.472656 C 237.433594 323.429688 240.984375 325.292969 244.796875 325.53125 L 246.132812 325.625 C 246.457031 325.675781 246.78125 325.675781 247.101562 325.675781 C 252.636719 325.675781 257.644531 322.332031 259.761719 317.179688 C 274.1875 281.8125 286.46875 245.058594 297.300781 204.726562 C 298.511719 200.191406 300.15625 196.660156 302.808594 192.792969 C 317.636719 171.316406 331.832031 148.453125 345.007812 124.824219 C 348.664062 118.238281 346.632812 109.886719 340.382812 105.734375 Z M 340.382812 105.734375 " fill-opacity="1" fill-rule="evenodd"/></svg>