<svg width="96" height="96" viewBox="0 0 96 96" fill="none" xmlns="http://www.w3.org/2000/svg">
<path d="M24 12C17.4201 12 12 17.4201 12 24V72C12 78.5799 17.4201 84 24 84H72C78.5799 84 84 78.5799 84 72V24C84 17.4201 78.5799 12 72 12H24ZM24 20H72C74.2601 20 76 21.7399 76 24V72C76 74.2601 74.2601 76 72 76H24C21.7399 76 20 74.2601 20 72V24C20 21.7399 21.7399 20 24 20ZM48 28V56C48 58.2601 46.2601 60 44 60C41.7399 60 40 58.2601 40 56C40 53.7399 41.7399 52 44 52V44C37.4201 44 32 49.4201 32 56C32 62.5799 37.4201 68 44 68C50.5799 68 56 62.5799 56 56V40.9297C58.4646 42.6854 61.0365 44 64 44V36C63.8107 36 61.0507 35.1237 59.125 33.4453C57.1993 31.7669 56 29.66 56 28H48Z" fill="white"/>
</svg>
