<svg width="96" height="96" viewBox="0 0 96 96" fill="none" xmlns="http://www.w3.org/2000/svg">
<path d="M24 12C17.4201 12 12 17.4201 12 24V72C12 78.5799 17.4201 84 24 84H72C78.5799 84 84 78.5799 84 72V24C84 17.4201 78.5799 12 72 12H24ZM24 20H72C74.2601 20 76 21.7399 76 24V72C76 74.2601 74.2601 76 72 76H24C21.7399 76 20 74.2601 20 72V24C20 21.7399 21.7399 20 24 20ZM26.8047 28L42.5703 50.5312L27.625 68H32.9531L44.9609 53.9375L54.7891 68H70.1484L53.4062 44.0391L67.0938 28H61.8516L51.0391 40.6406L42.2109 28H26.8047ZM34.2656 31.9531H40.2109L62.7344 64.0469H56.75L34.2656 31.9531Z" fill="white"/>
</svg>
