<svg xmlns="http://www.w3.org/2000/svg" xmlns:xlink="http://www.w3.org/1999/xlink" width="500" zoomAndPan="magnify" viewBox="0 0 375 187.499995" height="250" preserveAspectRatio="xMidYMid meet" version="1.0"><path fill="#100f0d" d="M 281.6875 34.101562 C 278.480469 37.960938 279.019531 43.683594 282.882812 46.882812 L 328.449219 84.578125 L 21.097656 84.578125 C 16.074219 84.578125 12.003906 88.640625 12.003906 93.65625 C 12.003906 98.667969 16.074219 102.734375 21.097656 102.734375 L 328.449219 102.734375 L 282.882812 140.429688 C 279.019531 143.625 278.480469 149.351562 281.6875 153.210938 C 284.890625 157.070312 290.625 157.605469 294.492188 154.40625 L 359.472656 100.644531 C 361.558594 98.917969 362.761719 96.359375 362.761719 93.65625 C 362.761719 90.953125 361.558594 88.390625 359.472656 86.667969 L 294.492188 32.90625 C 290.625 29.707031 284.890625 30.238281 281.6875 34.101562 " fill-opacity="1" fill-rule="nonzero"/></svg>