<svg xmlns="http://www.w3.org/2000/svg" xmlns:xlink="http://www.w3.org/1999/xlink" width="500" zoomAndPan="magnify" viewBox="0 0 375 374.999991" height="500" preserveAspectRatio="xMidYMid meet" version="1.0"><defs><clipPath id="b9e5eb08df"><path d="M 4.449219 33 L 370.449219 33 L 370.449219 370.449219 L 4.449219 370.449219 Z M 4.449219 33 " clip-rule="nonzero"/></clipPath><clipPath id="ed30109838"><path d="M 258 4.449219 L 286 4.449219 L 286 75 L 258 75 Z M 258 4.449219 " clip-rule="nonzero"/></clipPath><clipPath id="d6fe43a1b3"><path d="M 89 4.449219 L 117 4.449219 L 117 75 L 89 75 Z M 89 4.449219 " clip-rule="nonzero"/></clipPath></defs><g clip-path="url(#b9e5eb08df)"><path fill="#272727" d="M 32.304688 132.269531 L 342.691406 132.269531 L 342.691406 325.261719 C 342.691406 334.917969 334.859375 342.75 325.203125 342.75 L 49.789062 342.75 C 40.136719 342.75 32.304688 334.917969 32.304688 325.261719 Z M 39.453125 33.078125 C 20.117188 33.078125 4.449219 48.742188 4.449219 68.082031 L 4.449219 335.46875 C 4.449219 354.808594 20.117188 370.472656 39.453125 370.472656 L 335.539062 370.472656 C 354.878906 370.472656 370.542969 354.808594 370.542969 335.46875 L 370.542969 68.082031 C 370.542969 48.742188 354.878906 33.078125 335.539062 33.078125 L 301.804688 33.078125 L 301.804688 61.320312 C 301.675781 77.734375 288.25 90.960938 271.839844 90.800781 C 255.585938 90.667969 242.457031 77.539062 242.328125 61.320312 L 242.328125 33.078125 L 132.667969 33.078125 L 132.667969 61.320312 C 132.667969 77.734375 119.34375 91.058594 102.929688 91.058594 C 86.484375 91.058594 73.191406 77.734375 73.15625 61.320312 L 73.15625 33.078125 L 39.453125 33.078125 " fill-opacity="1" fill-rule="nonzero"/></g><g clip-path="url(#ed30109838)"><path fill="#272727" d="M 285.75 60.929688 L 285.75 18.515625 C 285.75 10.945312 279.605469 4.835938 272.03125 4.835938 C 264.492188 4.867188 258.414062 10.976562 258.382812 18.515625 L 258.382812 60.929688 C 258.414062 68.503906 264.558594 74.613281 272.097656 74.582031 C 279.636719 74.550781 285.75 68.472656 285.75 60.929688 " fill-opacity="1" fill-rule="nonzero"/></g><g clip-path="url(#d6fe43a1b3)"><path fill="#272727" d="M 116.613281 18.515625 C 116.578125 10.945312 110.4375 4.835938 102.898438 4.867188 C 95.355469 4.867188 89.246094 10.976562 89.246094 18.515625 L 89.246094 60.929688 C 89.246094 68.503906 95.390625 74.613281 102.960938 74.582031 C 110.503906 74.550781 116.578125 68.472656 116.613281 60.929688 L 116.613281 18.515625 " fill-opacity="1" fill-rule="nonzero"/></g></svg>