<svg xmlns="http://www.w3.org/2000/svg" xmlns:xlink="http://www.w3.org/1999/xlink" width="500" zoomAndPan="magnify" viewBox="0 0 375 374.999991" height="500" preserveAspectRatio="xMidYMid meet" version="1.0"><defs><clipPath id="c36a11a557"><path d="M 13.496094 46 L 37 46 L 37 74 L 13.496094 74 Z M 13.496094 46 " clip-rule="nonzero"/></clipPath><clipPath id="084a6aece4"><path d="M 129 3.125 L 158 3.125 L 158 31 L 129 31 Z M 129 3.125 " clip-rule="nonzero"/></clipPath><clipPath id="4061a992e9"><path d="M 360 352 L 361.496094 352 L 361.496094 353 L 360 353 Z M 360 352 " clip-rule="nonzero"/></clipPath><clipPath id="7a27e11621"><path d="M 361 352 L 361.496094 352 L 361.496094 353 L 361 353 Z M 361 352 " clip-rule="nonzero"/></clipPath></defs><g clip-path="url(#c36a11a557)"><path fill="#fff4c3" d="M 13.886719 67.15625 C 13.492188 66.574219 13.65625 65.773438 13.796875 65.125 C 13.84375 64.902344 13.957031 64.695312 14.074219 64.496094 C 15.328125 62.328125 16.140625 59.808594 17.335938 57.542969 C 19.296875 53.757812 22.121094 47.6875 26.765625 46.476562 C 27.113281 46.386719 27.601562 46.421875 27.667969 46.769531 C 27.691406 46.871094 27.65625 46.976562 27.636719 47.082031 L 26.4375 51.367188 C 25.707031 54.082031 27.808594 55.40625 30.199219 55.90625 C 31.988281 56.289062 34.472656 56.101562 35.808594 57.625 C 36.132812 57.996094 36.34375 58.496094 36.308594 58.984375 C 36.285156 59.214844 36.214844 59.433594 36.132812 59.644531 C 35.53125 61.257812 34.277344 62.234375 33.242188 63.511719 C 32.324219 64.671875 31.441406 66.25 31.859375 67.863281 C 32.265625 69.441406 33.800781 70.753906 34.707031 72.054688 C 34.9375 72.390625 35.179688 72.832031 34.996094 73.183594 C 34.902344 73.34375 34.742188 73.4375 34.566406 73.507812 C 33.636719 73.878906 32.558594 73.703125 31.558594 73.390625 C 26.265625 71.800781 20.96875 69.570312 15.480469 68.015625 C 15.015625 67.886719 14.527344 67.75 14.15625 67.421875 C 14.039062 67.351562 13.957031 67.261719 13.886719 67.15625 Z M 13.886719 67.15625 " fill-opacity="1" fill-rule="nonzero"/></g><path fill="#fff4c3" d="M 24.59375 37.585938 C 24.917969 34.53125 25.90625 31.59375 26.855469 28.644531 C 27.726562 25.953125 27.949219 22.386719 29.585938 19.960938 C 29.992188 19.378906 30.664062 18.800781 31.375 18.9375 C 32.652344 19.195312 32.988281 21.621094 33.148438 22.585938 C 33.601562 25.335938 36.644531 23.792969 38.746094 23.375 C 40.21875 23.035156 46.546875 21.597656 47.152344 23.558594 C 47.257812 23.894531 47.105469 24.257812 46.953125 24.582031 C 45.898438 26.777344 44.238281 28.75 43.75 31.140625 C 43.15625 34.101562 44.726562 35.496094 46.917969 37.015625 C 47.558594 37.457031 48.835938 38.234375 48.730469 39.152344 C 48.683594 39.511719 48.5 39.847656 48.265625 40.140625 C 45.933594 43.132812 41.078125 42.4375 37.734375 42.84375 C 35.960938 43.066406 32.660156 43.726562 29.816406 43.691406 C 26.960938 43.644531 24.511719 42.855469 24.453125 39.929688 C 24.476562 39.140625 24.511719 38.351562 24.59375 37.585938 Z M 24.59375 37.585938 " fill-opacity="1" fill-rule="nonzero"/><path fill="#fff4c3" d="M 60.515625 49.648438 C 60.246094 48.996094 60.5625 48.253906 60.828125 47.640625 C 60.921875 47.429688 61.074219 47.257812 61.222656 47.082031 C 62.894531 45.199219 64.183594 42.890625 65.796875 40.894531 C 68.46875 37.5625 72.425781 32.164062 77.210938 31.882812 C 77.570312 31.859375 78.046875 31.988281 78.035156 32.347656 C 78.035156 32.453125 77.988281 32.558594 77.929688 32.652344 L 75.921875 36.621094 C 74.679688 39.140625 76.480469 40.847656 78.730469 41.8125 C 80.414062 42.53125 82.886719 42.832031 83.898438 44.585938 C 84.140625 45.015625 84.257812 45.539062 84.128906 46.015625 C 84.074219 46.234375 83.957031 46.445312 83.839844 46.628906 C 82.921875 48.09375 81.507812 48.800781 80.242188 49.855469 C 79.113281 50.808594 77.941406 52.203125 78.023438 53.851562 C 78.117188 55.488281 79.359375 57.066406 79.996094 58.519531 C 80.160156 58.890625 80.308594 59.378906 80.066406 59.679688 C 79.949219 59.828125 79.765625 59.875 79.578125 59.910156 C 78.59375 60.097656 77.570312 59.714844 76.640625 59.214844 C 71.742188 56.625 66.980469 53.398438 61.898438 50.785156 C 61.46875 50.566406 61.015625 50.332031 60.710938 49.949219 C 60.621094 49.867188 60.5625 49.753906 60.515625 49.648438 Z M 60.515625 49.648438 " fill-opacity="1" fill-rule="nonzero"/><path fill="#fff4c3" d="M 76.816406 22.734375 C 77.722656 19.808594 79.265625 17.117188 80.761719 14.398438 C 82.132812 11.925781 83.039062 8.464844 85.117188 6.410156 C 85.617188 5.910156 86.394531 5.480469 87.054688 5.761719 C 88.261719 6.261719 88.125 8.710938 88.089844 9.683594 C 88.007812 12.472656 91.28125 11.542969 93.417969 11.542969 C 94.929688 11.496094 101.40625 11.300781 101.617188 13.34375 C 101.648438 13.691406 101.441406 14.015625 101.230469 14.304688 C 99.78125 16.257812 97.761719 17.871094 96.832031 20.121094 C 95.683594 22.910156 96.949219 24.582031 98.816406 26.496094 C 99.363281 27.054688 100.464844 28.0625 100.1875 28.933594 C 100.082031 29.285156 99.828125 29.574219 99.546875 29.816406 C 96.679688 32.300781 92.058594 30.6875 88.703125 30.445312 C 86.917969 30.316406 83.5625 30.328125 80.761719 29.746094 C 77.976562 29.144531 75.722656 27.902344 76.234375 25.023438 C 76.386719 24.246094 76.582031 23.476562 76.816406 22.734375 Z M 76.816406 22.734375 " fill-opacity="1" fill-rule="nonzero"/><path fill="#fff4c3" d="M 109.730469 41.507812 C 109.589844 40.824219 110.042969 40.152344 110.425781 39.605469 C 110.554688 39.417969 110.742188 39.269531 110.925781 39.140625 C 112.921875 37.609375 114.628906 35.597656 116.605469 33.949219 C 119.867188 31.1875 124.777344 26.648438 129.527344 27.296875 C 129.875 27.34375 130.328125 27.566406 130.246094 27.914062 C 130.222656 28.019531 130.152344 28.109375 130.09375 28.191406 L 127.367188 31.710938 C 125.660156 33.949219 127.101562 35.972656 129.121094 37.339844 C 130.628906 38.375 133.007812 39.140625 133.660156 41.054688 C 133.824219 41.519531 133.832031 42.066406 133.613281 42.496094 C 133.507812 42.703125 133.359375 42.878906 133.207031 43.042969 C 132.035156 44.308594 130.5 44.726562 129.050781 45.527344 C 127.761719 46.246094 126.34375 47.382812 126.113281 49.019531 C 125.882812 50.644531 126.808594 52.433594 127.15625 53.976562 C 127.25 54.386719 127.296875 54.882812 127.007812 55.128906 C 126.855469 55.242188 126.671875 55.265625 126.484375 55.265625 C 125.484375 55.253906 124.546875 54.6875 123.734375 54.023438 C 119.425781 50.554688 115.363281 46.464844 110.867188 42.925781 C 110.484375 42.625 110.089844 42.308594 109.859375 41.867188 C 109.800781 41.742188 109.753906 41.625 109.730469 41.507812 Z M 109.730469 41.507812 " fill-opacity="1" fill-rule="nonzero"/><g clip-path="url(#084a6aece4)"><path fill="#fff4c3" d="M 130.886719 18.21875 C 132.335938 15.511719 134.367188 13.167969 136.363281 10.800781 C 138.1875 8.628906 139.730469 5.414062 142.171875 3.800781 C 142.761719 3.402344 143.609375 3.136719 144.203125 3.53125 C 145.292969 4.25 144.691406 6.632812 144.46875 7.582031 C 143.855469 10.300781 147.242188 10.023438 149.34375 10.429688 C 150.84375 10.683594 157.238281 11.730469 157.054688 13.773438 C 157.019531 14.121094 156.753906 14.398438 156.484375 14.644531 C 154.675781 16.28125 152.398438 17.476562 151.039062 19.507812 C 149.378906 22.027344 150.296875 23.90625 151.761719 26.148438 C 152.191406 26.796875 153.070312 28.007812 152.632812 28.808594 C 152.457031 29.132812 152.15625 29.363281 151.828125 29.550781 C 148.542969 31.441406 144.304688 28.957031 141.066406 28.074219 C 139.335938 27.601562 136.039062 26.984375 133.40625 25.871094 C 130.78125 24.742188 128.808594 23.09375 129.863281 20.367188 C 130.1875 19.613281 130.523438 18.902344 130.886719 18.21875 Z M 130.886719 18.21875 " fill-opacity="1" fill-rule="nonzero"/></g><path fill="#fff4c3" d="M 159.574219 42.960938 C 159.574219 42.261719 160.144531 41.683594 160.617188 41.21875 C 160.78125 41.054688 160.992188 40.953125 161.199219 40.847656 C 163.453125 39.746094 165.519531 38.082031 167.769531 36.851562 C 171.496094 34.773438 177.210938 31.28125 181.738281 32.847656 C 182.074219 32.964844 182.46875 33.265625 182.328125 33.589844 C 182.285156 33.683594 182.203125 33.765625 182.121094 33.835938 L 178.753906 36.75 C 176.640625 38.617188 177.664062 40.871094 179.382812 42.613281 C 180.65625 43.925781 182.828125 45.132812 183.097656 47.140625 C 183.164062 47.628906 183.0625 48.160156 182.757812 48.542969 C 182.621094 48.730469 182.433594 48.871094 182.25 48.996094 C 180.84375 50.019531 179.277344 50.125 177.699219 50.625 C 176.292969 51.074219 174.679688 51.921875 174.144531 53.480469 C 173.609375 55.023438 174.15625 56.960938 174.203125 58.554688 C 174.214844 58.960938 174.167969 59.46875 173.832031 59.65625 C 173.667969 59.75 173.472656 59.726562 173.296875 59.691406 C 172.320312 59.480469 171.519531 58.738281 170.859375 57.9375 C 167.328125 53.6875 164.136719 48.894531 160.421875 44.5625 C 160.109375 44.191406 159.78125 43.808594 159.644531 43.332031 C 159.597656 43.203125 159.574219 43.089844 159.574219 42.960938 Z M 159.574219 42.960938 " fill-opacity="1" fill-rule="nonzero"/><path fill="#fff4c3" d="M 184.859375 24.234375 C 186.8125 21.875 189.273438 19.960938 191.699219 18.03125 C 193.917969 16.28125 196.078125 13.414062 198.792969 12.320312 C 199.457031 12.054688 200.347656 11.949219 200.859375 12.460938 C 201.800781 13.390625 200.730469 15.59375 200.324219 16.488281 C 199.175781 19.03125 202.601562 19.4375 204.644531 20.285156 C 206.085938 20.84375 212.367188 23.28125 211.738281 25.253906 C 211.632812 25.589844 211.296875 25.800781 210.984375 25.972656 C 208.800781 27.160156 206.269531 27.832031 204.503906 29.527344 C 202.335938 31.640625 202.867188 33.671875 203.84375 36.179688 C 204.132812 36.898438 204.75 38.28125 204.144531 38.964844 C 203.902344 39.246094 203.554688 39.40625 203.207031 39.523438 C 199.59375 40.683594 195.960938 37.410156 192.941406 35.902344 C 191.339844 35.089844 188.226562 33.835938 185.871094 32.222656 C 183.527344 30.605469 181.910156 28.597656 183.480469 26.125 C 183.898438 25.464844 184.363281 24.835938 184.859375 24.234375 Z M 184.859375 24.234375 " fill-opacity="1" fill-rule="nonzero"/><path fill="#fff4c3" d="M 207.59375 54.28125 C 207.757812 53.59375 208.429688 53.164062 208.988281 52.828125 C 209.183594 52.714844 209.40625 52.65625 209.613281 52.609375 C 212.007812 52.039062 214.351562 50.949219 216.8125 50.332031 C 218.855469 49.820312 221.46875 49.113281 224.105469 48.953125 C 226.714844 48.789062 229.363281 49.183594 231.242188 50.703125 C 231.535156 50.925781 231.800781 51.34375 231.546875 51.597656 C 231.476562 51.679688 231.371094 51.714844 231.265625 51.75 C 229.863281 52.261719 228.480469 52.804688 227.132812 53.363281 C 224.546875 54.476562 224.800781 56.902344 225.683594 59.0625 C 226.367188 60.664062 227.785156 62.488281 227.203125 64.417969 C 227.0625 64.878906 226.773438 65.332031 226.367188 65.589844 C 226.183594 65.703125 225.972656 65.785156 225.765625 65.84375 C 224.207031 66.34375 222.875 65.996094 221.375 66.03125 C 220.050781 66.054688 218.414062 66.4375 217.429688 67.761719 C 216.453125 69.070312 216.230469 71.011719 215.6875 72.484375 C 215.546875 72.867188 215.328125 73.320312 215 73.414062 C 214.839844 73.460938 214.699219 73.402344 214.570312 73.332031 C 213.898438 72.914062 213.527344 72.042969 213.25 71.148438 C 211.832031 66.367188 210.34375 61.039062 207.976562 56.023438 C 207.78125 55.59375 207.570312 55.152344 207.558594 54.664062 C 207.546875 54.523438 207.558594 54.394531 207.59375 54.28125 Z M 207.59375 54.28125 " fill-opacity="1" fill-rule="nonzero"/><path fill="#fff4c3" d="M 237.222656 43.738281 C 239.976562 42.273438 243.15625 41.53125 246.394531 40.882812 C 249.34375 40.289062 252.699219 38.734375 256.054688 39.28125 C 256.867188 39.417969 257.867188 39.859375 258.203125 40.636719 C 258.820312 42.066406 256.761719 43.472656 255.984375 44.050781 C 253.746094 45.734375 257.054688 48.082031 258.65625 50.125 C 258.945312 50.472656 259.46875 51.121094 260.074219 51.921875 C 260.675781 52.714844 261.335938 53.652344 261.882812 54.628906 C 262.988281 56.554688 263.71875 58.449219 262.917969 59.074219 C 262.648438 59.296875 262.21875 59.261719 261.835938 59.203125 C 259.179688 58.84375 256.578125 57.785156 254.082031 58.261719 C 251.015625 58.867188 250.5625 60.96875 250.097656 63.648438 C 249.960938 64.4375 249.75 65.960938 248.867188 66.203125 C 248.519531 66.308594 248.136719 66.25 247.777344 66.15625 C 245.953125 65.660156 244.6875 64.324219 243.585938 62.722656 C 242.496094 61.117188 241.53125 59.285156 240.507812 57.9375 C 239.40625 56.496094 237.0625 54.011719 235.402344 51.621094 C 233.773438 49.21875 232.847656 46.734375 235.214844 44.980469 C 235.839844 44.503906 236.515625 44.109375 237.222656 43.738281 Z M 237.222656 43.738281 " fill-opacity="1" fill-rule="nonzero"/><path fill="#fff4c3" d="M 242.796875 80.425781 C 243.34375 79.984375 244.109375 80.007812 244.746094 80.054688 C 244.96875 80.066406 245.164062 80.148438 245.363281 80.230469 C 246.453125 80.660156 247.601562 81.007812 248.777344 81.390625 C 249.972656 81.75 251.144531 82.15625 252.269531 82.679688 C 254.175781 83.539062 256.601562 84.675781 258.703125 86.277344 C 260.792969 87.867188 262.511719 89.933594 262.90625 92.316406 C 262.964844 92.675781 262.882812 93.164062 262.535156 93.199219 C 262.429688 93.210938 262.324219 93.164062 262.21875 93.128906 C 260.851562 92.570312 259.445312 92.058594 258.0625 91.585938 C 255.429688 90.703125 253.953125 92.699219 253.210938 94.882812 C 252.910156 95.707031 252.746094 96.703125 252.433594 97.609375 C 252.097656 98.539062 251.632812 99.375 250.785156 99.910156 C 250.378906 100.164062 249.855469 100.316406 249.378906 100.234375 C 249.160156 100.199219 248.949219 100.117188 248.753906 100.023438 C 247.265625 99.339844 246.476562 98.191406 245.363281 97.226562 C 244.339844 96.378906 242.890625 95.613281 241.285156 95.960938 C 239.695312 96.308594 238.222656 97.585938 236.828125 98.316406 C 236.46875 98.503906 236.003906 98.703125 235.703125 98.5625 C 235.550781 98.492188 235.492188 98.363281 235.445312 98.226562 C 235.214844 97.503906 235.527344 96.679688 235.957031 95.867188 C 238.128906 91.640625 240.636719 87.042969 242.019531 81.972656 C 242.132812 81.542969 242.261719 81.089844 242.550781 80.707031 C 242.621094 80.589844 242.703125 80.507812 242.796875 80.425781 Z M 242.796875 80.425781 " fill-opacity="1" fill-rule="nonzero"/><path fill="#fff4c3" d="M 271.996094 91.085938 C 275.039062 91.828125 277.894531 93.371094 280.726562 94.949219 C 283.328125 96.402344 286.84375 97.355469 289.015625 99.757812 C 289.527344 100.339844 289.992188 101.230469 289.75 101.988281 C 289.285156 103.367188 286.824219 103.160156 285.847656 103.125 C 283.0625 103.007812 284.058594 106.644531 284.011719 109 C 284.023438 109.835938 284.046875 112.03125 283.78125 114.015625 C 283.5 116 282.945312 117.765625 281.921875 117.8125 C 281.574219 117.824219 281.261719 117.578125 280.984375 117.335938 C 279.113281 115.652344 277.59375 113.433594 275.351562 112.367188 C 272.601562 111.054688 270.894531 112.34375 268.90625 114.15625 C 268.339844 114.6875 267.269531 115.757812 266.410156 115.429688 C 266.074219 115.304688 265.785156 115.035156 265.550781 114.746094 C 263.207031 111.785156 264.902344 107.246094 265.066406 103.832031 C 265.167969 102.023438 265.03125 98.644531 265.378906 95.753906 C 265.773438 92.871094 266.714844 90.398438 269.652344 90.679688 C 270.441406 90.757812 271.230469 90.898438 271.996094 91.085938 Z M 271.996094 91.085938 " fill-opacity="1" fill-rule="nonzero"/><path fill="#fff4c3" d="M 253.246094 123.917969 C 253.941406 123.835938 254.582031 124.324219 255.089844 124.742188 C 255.265625 124.882812 255.394531 125.066406 255.519531 125.265625 C 256.855469 127.308594 258.691406 129.167969 260.117188 131.28125 C 261.304688 133.03125 262.882812 135.25 263.972656 137.652344 C 265.066406 140.046875 265.667969 142.609375 264.996094 144.910156 C 264.890625 145.257812 264.613281 145.664062 264.273438 145.535156 C 264.171875 145.503906 264.101562 145.421875 264.03125 145.339844 C 263.019531 144.25 262 143.167969 260.964844 142.125 C 258.980469 140.125 256.796875 141.265625 255.136719 142.996094 C 253.894531 144.292969 252.769531 146.453125 250.773438 146.769531 C 250.285156 146.847656 249.75 146.769531 249.355469 146.476562 C 249.171875 146.351562 249.019531 146.175781 248.878906 146 C 247.8125 144.679688 247.625 143.167969 247.046875 141.683594 C 246.523438 140.359375 245.582031 138.859375 243.992188 138.421875 C 242.414062 137.980469 240.519531 138.582031 238.941406 138.664062 C 238.535156 138.6875 238.023438 138.664062 237.828125 138.351562 C 237.722656 138.199219 237.734375 138.023438 237.757812 137.851562 C 237.910156 136.945312 238.59375 136.179688 239.347656 135.527344 C 243.332031 132.082031 247.847656 128.796875 251.757812 124.871094 C 252.097656 124.535156 252.433594 124.199219 252.898438 124.011719 C 253 123.953125 253.128906 123.929688 253.246094 123.917969 Z M 253.246094 123.917969 " fill-opacity="1" fill-rule="nonzero"/><path fill="#fff4c3" d="M 273.726562 147.660156 C 276.152344 149.554688 278.136719 152.003906 280.125 154.453125 C 281.933594 156.648438 284.847656 158.761719 286.007812 161.476562 C 286.289062 162.140625 286.417969 163.035156 285.917969 163.554688 C 285.011719 164.507812 282.78125 163.5 281.875 163.113281 C 279.3125 162.035156 278.984375 165.4375 278.21875 167.433594 C 277.695312 168.863281 275.59375 174.910156 273.609375 174.367188 C 273.273438 174.273438 273.042969 173.96875 272.855469 173.667969 C 271.542969 171.636719 270.753906 169.199219 268.988281 167.515625 C 266.792969 165.4375 264.785156 166.015625 262.324219 167.0625 C 261.617188 167.363281 260.269531 168.039062 259.550781 167.457031 C 259.257812 167.226562 259.085938 166.886719 258.957031 166.539062 C 257.65625 162.976562 260.851562 159.238281 262.277344 156.195312 C 263.054688 154.570312 264.230469 151.433594 265.761719 148.996094 C 267.292969 146.570312 269.234375 144.839844 271.765625 146.316406 C 272.460938 146.734375 273.097656 147.175781 273.726562 147.660156 Z M 273.726562 147.660156 " fill-opacity="1" fill-rule="nonzero"/><path fill="#fff4c3" d="M 244.410156 171.984375 C 245.105469 172.089844 245.570312 172.761719 245.953125 173.320312 C 246.082031 173.519531 246.152344 173.738281 246.222656 173.957031 C 246.953125 176.398438 248.253906 178.730469 249.148438 181.15625 C 250.644531 185.210938 253.375 191.28125 251.386719 195.566406 C 251.238281 195.890625 250.910156 196.25 250.597656 196.078125 C 250.503906 196.03125 250.4375 195.9375 250.378906 195.84375 L 247.824219 192.199219 C 246.210938 189.875 243.851562 190.65625 241.914062 192.246094 C 240.472656 193.441406 239.035156 195.601562 237.003906 195.761719 C 236.503906 195.796875 235.980469 195.671875 235.621094 195.320312 C 235.457031 195.160156 235.332031 194.960938 235.214844 194.753906 C 234.332031 193.195312 234.402344 191.511719 234.089844 189.785156 C 233.808594 188.261719 233.183594 186.453125 231.695312 185.71875 C 230.222656 184.988281 228.214844 185.40625 226.625 185.3125 C 226.207031 185.289062 225.71875 185.199219 225.578125 184.804688 C 225.507812 184.617188 225.554688 184.398438 225.625 184.210938 C 225.972656 183.152344 226.832031 182.351562 227.738281 181.703125 C 232.519531 178.3125 237.78125 175.675781 242.691406 172.578125 C 243.109375 172.308594 243.539062 172.042969 244.039062 171.972656 C 244.167969 171.960938 244.28125 171.960938 244.410156 171.984375 Z M 244.410156 171.984375 " fill-opacity="1" fill-rule="nonzero"/><path fill="#fff4c3" d="M 259.675781 199.457031 C 261.859375 201.554688 263.601562 204.042969 265.414062 206.433594 C 267.0625 208.617188 269.835938 210.785156 270.90625 213.25 C 271.171875 213.839844 271.277344 214.617188 270.777344 215.023438 C 269.871094 215.777344 267.675781 214.722656 266.792969 214.304688 C 264.265625 213.144531 263.890625 216.164062 263.148438 217.902344 C 262.589844 219.144531 260.746094 224.5 258.773438 224.023438 C 258.433594 223.941406 258.191406 223.664062 257.984375 223.382812 C 256.589844 221.527344 255.742188 219.261719 253.964844 217.636719 C 251.757812 215.628906 249.773438 216.09375 247.324219 217.101562 C 246.617188 217.394531 245.28125 218.054688 244.550781 217.496094 C 244.257812 217.277344 244.085938 216.941406 243.957031 216.59375 C 242.644531 213.015625 245.953125 209.300781 247.578125 206.421875 C 249.296875 203.308594 253.28125 194.371094 257.902344 197.921875 C 258.539062 198.410156 259.121094 198.921875 259.675781 199.457031 Z M 259.675781 199.457031 " fill-opacity="1" fill-rule="nonzero"/><path fill="#fff4c3" d="M 229.503906 222.804688 C 230.199219 222.863281 230.722656 223.546875 231.140625 224.105469 C 231.289062 224.300781 231.371094 224.535156 231.453125 224.765625 C 232.371094 227.296875 233.867188 229.582031 234.996094 231.953125 C 235.957031 233.9375 237.175781 236.328125 238.199219 238.777344 C 239.183594 241.230469 239.824219 243.691406 239.277344 245.953125 C 239.195312 246.289062 238.953125 246.707031 238.605469 246.605469 C 238.5 246.570312 238.417969 246.5 238.347656 246.429688 C 237.257812 245.410156 236.214844 244.375 235.144531 243.320312 C 233.148438 241.285156 230.941406 242.472656 229.339844 244.550781 C 228.144531 246.09375 227.191406 248.671875 225.253906 249.332031 C 224.777344 249.496094 224.242188 249.484375 223.8125 249.214844 C 223.617188 249.089844 223.441406 248.902344 223.292969 248.71875 C 222.09375 247.289062 221.828125 245.453125 221.203125 243.65625 C 220.644531 242.054688 219.726562 240.207031 218.148438 239.695312 C 216.582031 239.183594 214.652344 240.101562 213.050781 240.371094 C 212.632812 240.4375 212.132812 240.449219 211.9375 240.03125 C 211.84375 239.824219 211.855469 239.570312 211.890625 239.335938 C 212.074219 238.023438 212.832031 236.898438 213.644531 235.957031 C 215.789062 233.4375 218.230469 231.40625 220.644531 229.421875 C 223.058594 227.480469 225.496094 225.507812 227.84375 223.628906 C 228.238281 223.300781 228.65625 222.964844 229.132812 222.851562 C 229.257812 222.804688 229.386719 222.792969 229.503906 222.804688 Z M 229.503906 222.804688 " fill-opacity="1" fill-rule="nonzero"/><path fill="#fff4c3" d="M 248.195312 248.03125 C 250.773438 249.542969 253.023438 251.398438 255.359375 253.09375 C 257.496094 254.640625 260.722656 255.859375 262.429688 257.597656 C 262.847656 258.027344 263.148438 258.621094 262.789062 259.0625 C 262.128906 259.875 259.722656 259.550781 258.761719 259.421875 C 255.996094 259.0625 256.484375 261.699219 256.320312 263.359375 C 256.148438 264.542969 256.136719 269.558594 254.128906 269.8125 C 253.78125 269.859375 253.453125 269.699219 253.175781 269.535156 C 251.238281 268.410156 249.703125 266.703125 247.511719 265.796875 C 244.792969 264.671875 243.039062 265.65625 241.042969 267.386719 C 240.472656 267.875 239.417969 268.929688 238.558594 268.652344 C 238.210938 268.535156 237.929688 268.28125 237.699219 268.003906 C 235.261719 265.042969 237.316406 260.433594 238.117188 257.273438 C 238.523438 255.554688 239.140625 252.304688 240.40625 249.84375 C 241.660156 247.371094 243.527344 245.734375 246.140625 246.964844 C 246.859375 247.289062 247.542969 247.648438 248.195312 248.03125 Z M 248.195312 248.03125 " fill-opacity="1" fill-rule="nonzero"/><path fill="#fff4c3" d="M 226.402344 279.183594 C 227.0625 278.960938 227.808594 279.4375 228.398438 279.808594 C 228.609375 279.9375 228.769531 280.136719 228.933594 280.332031 C 229.816406 281.390625 230.835938 282.304688 231.90625 283.175781 C 232.949219 284.046875 234.03125 284.882812 235.050781 285.753906 C 235.886719 286.484375 236.886719 287.261719 237.921875 288.078125 C 238.929688 288.890625 240 289.726562 240.996094 290.605469 C 242.957031 292.371094 244.675781 294.21875 245.246094 296.449219 C 245.339844 296.785156 245.316406 297.261719 244.980469 297.328125 C 244.875 297.351562 244.769531 297.328125 244.664062 297.292969 C 243.214844 296.933594 241.820312 296.503906 240.371094 296.050781 C 237.617188 295.171875 236.257812 297.226562 235.839844 299.929688 C 235.550781 301.914062 236.039062 304.761719 234.726562 306.363281 C 234.402344 306.757812 233.9375 307.023438 233.414062 306.976562 C 233.171875 306.953125 232.9375 306.875 232.695312 306.78125 C 230.871094 306.050781 229.710938 304.433594 228.238281 303.019531 C 226.972656 301.753906 225.207031 300.417969 223.582031 300.660156 C 221.945312 300.90625 220.679688 302.707031 219.425781 303.738281 C 219.101562 304.003906 218.660156 304.261719 218.265625 303.9375 C 218.078125 303.773438 217.949219 303.519531 217.859375 303.261719 C 217.382812 301.871094 217.484375 300.394531 217.765625 299.09375 C 219.273438 292.199219 222.269531 286.277344 225.160156 280.632812 C 225.402344 280.15625 225.660156 279.671875 226.066406 279.367188 C 226.183594 279.277344 226.296875 279.21875 226.402344 279.183594 Z M 226.402344 279.183594 " fill-opacity="1" fill-rule="nonzero"/><path fill="#fff4c3" d="M 254.058594 293.941406 C 256.996094 293.941406 259.828125 294.289062 262.589844 294.359375 C 263.867188 294.378906 265.320312 294.207031 266.726562 294.042969 C 268.152344 293.871094 269.511719 293.71875 270.589844 293.847656 C 271.125 293.894531 271.648438 294.101562 271.53125 294.589844 C 271.3125 295.484375 269.1875 296.609375 268.328125 297.050781 C 265.855469 298.316406 267.480469 299.894531 268.152344 301.101562 C 268.269531 301.324219 268.476562 301.707031 268.746094 302.183594 C 269.023438 302.636719 269.3125 303.191406 269.558594 303.773438 C 270.058594 304.886719 270.359375 306.09375 269.640625 306.828125 C 269.394531 307.070312 269.058594 307.164062 268.757812 307.234375 C 267.722656 307.441406 266.65625 307.5 265.574219 307.570312 C 264.519531 307.628906 263.429688 307.710938 262.300781 308.035156 C 259.492188 308.835938 258.621094 310.566406 258.027344 313.121094 C 257.84375 313.851562 257.644531 315.3125 256.785156 315.628906 C 256.4375 315.753906 256.066406 315.707031 255.71875 315.628906 C 254.8125 315.394531 254.023438 314.929688 253.386719 314.28125 C 252.757812 313.617188 252.234375 312.816406 251.804688 311.945312 C 251.398438 311.066406 251.0625 310.125 250.773438 309.230469 C 250.503906 308.3125 250.261719 307.429688 249.984375 306.664062 C 249.4375 305.003906 248.21875 301.960938 248.148438 299.222656 C 248.03125 296.480469 248.914062 294.230469 251.792969 294.03125 C 252.539062 293.972656 253.304688 293.949219 254.058594 293.941406 Z M 254.058594 293.941406 " fill-opacity="1" fill-rule="nonzero"/><path fill="#fff4c3" d="M 254.222656 331.671875 C 254.582031 331.070312 255.464844 330.964844 256.183594 330.871094 C 256.425781 330.835938 256.695312 330.882812 256.949219 330.929688 C 258.355469 331.183594 259.757812 331.207031 261.152344 331.160156 C 262.535156 331.140625 263.914062 331.023438 265.273438 330.976562 C 267.527344 330.929688 270.3125 330.558594 272.949219 330.464844 C 275.582031 330.382812 278.089844 330.558594 280.054688 331.789062 C 280.355469 331.976562 280.65625 332.335938 280.460938 332.625 C 280.402344 332.71875 280.296875 332.765625 280.203125 332.824219 C 278.902344 333.542969 277.582031 334.214844 276.234375 334.867188 C 273.644531 336.109375 274.0625 338.558594 275.582031 340.785156 C 276.152344 341.601562 276.988281 342.4375 277.683594 343.339844 C 278.394531 344.222656 278.960938 345.164062 278.996094 346.199219 C 279.007812 346.695312 278.847656 347.21875 278.441406 347.53125 C 278.253906 347.683594 278.023438 347.789062 277.789062 347.871094 C 276.023438 348.578125 274.144531 348.21875 272.160156 348.230469 C 270.394531 348.207031 268.246094 348.4375 267.222656 349.75 C 266.214844 351.0625 266.527344 353.210938 266.308594 354.824219 C 266.25 355.242188 266.097656 355.730469 265.609375 355.765625 C 265.367188 355.789062 265.109375 355.683594 264.878906 355.566406 C 263.589844 354.90625 262.648438 353.742188 261.953125 352.628906 C 258.226562 346.570312 256.054688 339.996094 254.277344 333.636719 C 254.128906 333.101562 253.976562 332.542969 254.082031 332.042969 C 254.105469 331.894531 254.152344 331.765625 254.222656 331.671875 Z M 254.222656 331.671875 " fill-opacity="1" fill-rule="nonzero"/><path fill="#fff4c3" d="M 284.800781 323.941406 C 286.984375 321.953125 289.386719 320.328125 291.652344 318.601562 C 293.71875 317.019531 295.832031 314.28125 297.992188 313.175781 C 298.527344 312.910156 299.199219 312.78125 299.523438 313.269531 C 300.117188 314.152344 299.082031 316.347656 298.675781 317.230469 C 297.492188 319.75 300.21875 320.085938 301.859375 320.78125 C 302.949219 321.316406 308.160156 323.023438 307.746094 325.019531 C 307.675781 325.355469 307.394531 325.613281 307.128906 325.820312 C 305.316406 327.261719 303.113281 328.144531 301.542969 329.929688 C 299.582031 332.160156 300.035156 334.132812 301.058594 336.574219 C 301.347656 337.28125 302.019531 338.605469 301.476562 339.335938 C 301.253906 339.625 300.917969 339.8125 300.582031 339.9375 C 297.015625 341.308594 293.265625 337.988281 290.46875 336.28125 C 288.957031 335.375 286.019531 333.84375 284.082031 331.882812 C 282.109375 329.941406 281.191406 327.667969 283.164062 325.566406 C 283.699219 324.996094 284.246094 324.453125 284.800781 323.941406 Z M 284.800781 323.941406 " fill-opacity="1" fill-rule="nonzero"/><path fill="#fff4c3" d="M 307.035156 354.289062 C 307.082031 353.59375 307.734375 353.058594 308.277344 352.640625 C 308.464844 352.488281 308.695312 352.410156 308.917969 352.316406 C 311.367188 351.375 313.605469 349.855469 315.964844 348.714844 C 319.910156 346.835938 325.566406 343.421875 330.070312 344.863281 C 330.40625 344.964844 330.800781 345.257812 330.675781 345.582031 C 330.640625 345.6875 330.558594 345.757812 330.476562 345.824219 L 327.15625 348.785156 C 325.042969 350.667969 326.089844 352.917969 327.910156 354.648438 C 329.257812 355.9375 331.558594 357.109375 331.941406 359.109375 C 332.03125 359.59375 331.964844 360.128906 331.660156 360.523438 C 331.523438 360.710938 331.335938 360.859375 331.152344 361 C 329.722656 362.058594 328.050781 362.183594 326.402344 362.707031 C 324.925781 363.171875 323.21875 364.007812 322.664062 365.574219 C 322.117188 367.117188 322.769531 369.070312 322.859375 370.660156 C 322.882812 371.066406 322.847656 371.578125 322.476562 371.761719 C 322.292969 371.855469 322.082031 371.832031 321.886719 371.796875 C 320.792969 371.578125 319.898438 370.8125 319.144531 369.988281 C 315.046875 365.585938 311.550781 360.558594 307.859375 355.949219 C 307.546875 355.554688 307.222656 355.148438 307.105469 354.660156 C 307.035156 354.535156 307.023438 354.417969 307.035156 354.289062 Z M 307.035156 354.289062 " fill-opacity="1" fill-rule="nonzero"/><path fill="#fff4c3" d="M 332.949219 336.167969 C 334.785156 333.75 337.070312 331.742188 339.289062 329.6875 C 341.308594 327.808594 343.203125 324.824219 345.628906 323.511719 C 346.21875 323.199219 347.023438 323.011719 347.507812 323.476562 C 348.402344 324.3125 347.542969 326.597656 347.21875 327.515625 C 346.289062 330.140625 349.472656 330.246094 351.375 330.847656 C 352.722656 331.277344 358.574219 332.800781 358.238281 334.820312 C 358.179688 335.167969 357.902344 335.421875 357.632812 335.644531 C 355.789062 337.140625 353.511719 338.140625 352.003906 340.03125 C 350.144531 342.378906 350.816406 344.328125 352.039062 346.707031 C 352.386719 347.394531 353.152344 348.683594 352.652344 349.4375 C 352.445312 349.738281 352.128906 349.949219 351.792969 350.097656 C 348.332031 351.675781 344.363281 348.726562 341.296875 347.417969 C 338.011719 346.011719 328.652344 343.109375 331.636719 338.105469 C 332.03125 337.429688 332.472656 336.78125 332.949219 336.167969 Z M 332.949219 336.167969 " fill-opacity="1" fill-rule="nonzero"/><g clip-path="url(#4061a992e9)"><path fill="#fff4c3" d="M 360.804688 352.582031 C 360.804688 352.570312 360.816406 352.570312 360.816406 352.558594 C 360.816406 352.558594 360.816406 352.558594 360.828125 352.558594 C 360.847656 352.546875 360.871094 352.535156 360.894531 352.523438 C 360.941406 352.5 361 352.46875 361.046875 352.476562 C 361.046875 352.476562 361.058594 352.476562 361.058594 352.488281 C 361.046875 352.5 361.035156 352.511719 361.023438 352.523438 C 361 352.546875 361.011719 352.570312 361.035156 352.582031 C 361.046875 352.59375 361.070312 352.605469 361.082031 352.628906 C 361.082031 352.628906 361.082031 352.640625 361.082031 352.640625 C 361.070312 352.652344 361.046875 352.652344 361.035156 352.664062 C 361.023438 352.664062 361 352.675781 361 352.699219 C 360.988281 352.710938 361 352.734375 361 352.757812 C 361 352.757812 361 352.769531 361 352.769531 C 361 352.769531 361 352.769531 360.988281 352.769531 C 360.976562 352.769531 360.964844 352.757812 360.953125 352.746094 C 360.90625 352.699219 360.871094 352.640625 360.839844 352.59375 C 360.816406 352.605469 360.804688 352.59375 360.804688 352.582031 C 360.804688 352.59375 360.804688 352.59375 360.804688 352.582031 Z M 360.804688 352.582031 " fill-opacity="1" fill-rule="nonzero"/></g><g clip-path="url(#7a27e11621)"><path fill="#fff4c3" d="M 361.082031 352.398438 C 361.105469 352.375 361.128906 352.351562 361.152344 352.328125 C 361.175781 352.304688 361.199219 352.28125 361.222656 352.257812 C 361.234375 352.257812 361.234375 352.257812 361.246094 352.257812 C 361.253906 352.269531 361.246094 352.292969 361.246094 352.304688 C 361.234375 352.328125 361.265625 352.339844 361.289062 352.339844 C 361.300781 352.339844 361.371094 352.363281 361.359375 352.386719 C 361.359375 352.386719 361.359375 352.398438 361.347656 352.398438 C 361.324219 352.410156 361.300781 352.421875 361.289062 352.445312 C 361.265625 352.46875 361.277344 352.488281 361.289062 352.511719 C 361.289062 352.523438 361.300781 352.535156 361.300781 352.546875 C 361.300781 352.546875 361.300781 352.546875 361.289062 352.558594 C 361.253906 352.570312 361.210938 352.546875 361.175781 352.535156 C 361.140625 352.523438 361.035156 352.488281 361.070312 352.433594 C 361.070312 352.410156 361.070312 352.398438 361.082031 352.398438 Z M 361.082031 352.398438 " fill-opacity="1" fill-rule="nonzero"/></g></svg>