<svg xmlns="http://www.w3.org/2000/svg" xmlns:xlink="http://www.w3.org/1999/xlink" width="500" zoomAndPan="magnify" viewBox="0 0 375 374.999991" height="500" preserveAspectRatio="xMidYMid meet" version="1.0"><defs><clipPath id="2ab127825b"><path d="M 13.496094 301 L 37 301 L 37 329 L 13.496094 329 Z M 13.496094 301 " clip-rule="nonzero"/></clipPath><clipPath id="775445520b"><path d="M 129 344 L 158 344 L 158 371.867188 L 129 371.867188 Z M 129 344 " clip-rule="nonzero"/></clipPath><clipPath id="e592f9e69b"><path d="M 307 3.125 L 332 3.125 L 332 31 L 307 31 Z M 307 3.125 " clip-rule="nonzero"/></clipPath><clipPath id="f1a042a082"><path d="M 360 22 L 361.496094 22 L 361.496094 23 L 360 23 Z M 360 22 " clip-rule="nonzero"/></clipPath><clipPath id="575a2d7330"><path d="M 361 22 L 361.496094 22 L 361.496094 23 L 361 23 Z M 361 22 " clip-rule="nonzero"/></clipPath></defs><g clip-path="url(#2ab127825b)"><path fill="#fff4c3" d="M 13.886719 307.835938 C 13.492188 308.417969 13.65625 309.21875 13.796875 309.867188 C 13.84375 310.089844 13.957031 310.296875 14.074219 310.496094 C 15.328125 312.667969 16.140625 315.1875 17.335938 317.449219 C 19.296875 321.234375 22.121094 327.308594 26.765625 328.515625 C 27.113281 328.609375 27.601562 328.574219 27.667969 328.226562 C 27.691406 328.121094 27.65625 328.015625 27.636719 327.910156 L 26.4375 323.625 C 25.707031 320.910156 27.808594 319.585938 30.199219 319.085938 C 31.988281 318.703125 34.472656 318.890625 35.808594 317.367188 C 36.132812 316.996094 36.34375 316.5 36.308594 316.011719 C 36.285156 315.777344 36.214844 315.558594 36.132812 315.347656 C 35.53125 313.734375 34.277344 312.757812 33.242188 311.484375 C 32.324219 310.320312 31.441406 308.742188 31.859375 307.128906 C 32.265625 305.550781 33.800781 304.238281 34.707031 302.9375 C 34.9375 302.601562 35.179688 302.160156 34.996094 301.8125 C 34.902344 301.648438 34.742188 301.554688 34.566406 301.484375 C 33.636719 301.113281 32.558594 301.289062 31.558594 301.601562 C 26.265625 303.191406 20.96875 305.421875 15.480469 306.976562 C 15.015625 307.105469 14.527344 307.246094 14.15625 307.570312 C 14.039062 307.640625 13.957031 307.734375 13.886719 307.835938 Z M 13.886719 307.835938 " fill-opacity="1" fill-rule="nonzero"/></g><path fill="#fff4c3" d="M 24.59375 337.410156 C 24.917969 340.460938 25.90625 343.398438 26.855469 346.347656 C 27.726562 349.042969 27.949219 352.605469 29.585938 355.03125 C 29.992188 355.613281 30.664062 356.195312 31.375 356.054688 C 32.652344 355.800781 32.988281 353.371094 33.148438 352.410156 C 33.601562 349.65625 36.644531 351.203125 38.746094 351.621094 C 40.21875 351.957031 46.546875 353.394531 47.152344 351.433594 C 47.257812 351.097656 47.105469 350.738281 46.953125 350.410156 C 45.898438 348.21875 44.238281 346.242188 43.75 343.851562 C 43.15625 340.890625 44.726562 339.5 46.917969 337.976562 C 47.558594 337.535156 48.835938 336.757812 48.730469 335.839844 C 48.683594 335.480469 48.5 335.144531 48.265625 334.855469 C 45.933594 331.859375 41.078125 332.554688 37.734375 332.148438 C 35.960938 331.929688 32.660156 331.265625 29.816406 331.300781 C 26.960938 331.347656 24.511719 332.136719 24.453125 335.0625 C 24.476562 335.851562 24.511719 336.640625 24.59375 337.410156 Z M 24.59375 337.410156 " fill-opacity="1" fill-rule="nonzero"/><path fill="#fff4c3" d="M 60.515625 325.34375 C 60.246094 325.996094 60.5625 326.738281 60.828125 327.355469 C 60.921875 327.5625 61.074219 327.738281 61.222656 327.910156 C 62.894531 329.792969 64.183594 332.101562 65.796875 334.097656 C 68.46875 337.429688 72.425781 342.832031 77.210938 343.109375 C 77.570312 343.132812 78.046875 343.003906 78.035156 342.644531 C 78.035156 342.539062 77.988281 342.4375 77.929688 342.34375 L 75.921875 338.371094 C 74.679688 335.851562 76.480469 334.144531 78.730469 333.183594 C 80.414062 332.460938 82.886719 332.160156 83.898438 330.40625 C 84.140625 329.976562 84.257812 329.457031 84.128906 328.980469 C 84.074219 328.757812 83.957031 328.550781 83.839844 328.363281 C 82.921875 326.902344 81.507812 326.191406 80.242188 325.136719 C 79.113281 324.183594 77.941406 322.792969 78.023438 321.140625 C 78.117188 319.503906 79.359375 317.925781 79.996094 316.476562 C 80.160156 316.101562 80.308594 315.617188 80.066406 315.3125 C 79.949219 315.164062 79.765625 315.117188 79.578125 315.082031 C 78.59375 314.894531 77.570312 315.277344 76.640625 315.777344 C 71.742188 318.367188 66.980469 321.59375 61.898438 324.207031 C 61.46875 324.429688 61.015625 324.660156 60.710938 325.042969 C 60.621094 325.125 60.5625 325.242188 60.515625 325.34375 Z M 60.515625 325.34375 " fill-opacity="1" fill-rule="nonzero"/><path fill="#fff4c3" d="M 76.816406 352.257812 C 77.722656 355.183594 79.265625 357.878906 80.761719 360.59375 C 82.132812 363.066406 83.039062 366.527344 85.117188 368.582031 C 85.617188 369.082031 86.394531 369.511719 87.054688 369.230469 C 88.261719 368.734375 88.125 366.28125 88.089844 365.308594 C 88.007812 362.519531 91.28125 363.449219 93.417969 363.449219 C 94.929688 363.496094 101.40625 363.695312 101.617188 361.652344 C 101.648438 361.300781 101.441406 360.976562 101.230469 360.6875 C 99.78125 358.738281 97.761719 357.121094 96.832031 354.871094 C 95.683594 352.082031 96.949219 350.410156 98.816406 348.496094 C 99.363281 347.9375 100.464844 346.929688 100.1875 346.058594 C 100.082031 345.710938 99.828125 345.417969 99.546875 345.175781 C 96.679688 342.691406 92.058594 344.304688 88.703125 344.546875 C 86.917969 344.675781 83.5625 344.664062 80.761719 345.246094 C 77.976562 345.847656 75.722656 347.089844 76.234375 349.96875 C 76.386719 350.75 76.582031 351.515625 76.816406 352.257812 Z M 76.816406 352.257812 " fill-opacity="1" fill-rule="nonzero"/><path fill="#fff4c3" d="M 109.730469 333.484375 C 109.589844 334.167969 110.042969 334.84375 110.425781 335.386719 C 110.554688 335.574219 110.742188 335.726562 110.925781 335.851562 C 112.921875 337.386719 114.628906 339.394531 116.605469 341.042969 C 119.867188 343.804688 124.777344 348.34375 129.527344 347.695312 C 129.875 347.648438 130.328125 347.429688 130.246094 347.078125 C 130.222656 346.976562 130.152344 346.882812 130.09375 346.800781 L 127.367188 343.28125 C 125.660156 341.042969 127.101562 339.023438 129.121094 337.652344 C 130.628906 336.617188 133.007812 335.851562 133.660156 333.9375 C 133.824219 333.472656 133.832031 332.925781 133.613281 332.496094 C 133.507812 332.289062 133.359375 332.113281 133.207031 331.953125 C 132.035156 330.6875 130.5 330.269531 129.050781 329.46875 C 127.761719 328.746094 126.34375 327.609375 126.113281 325.972656 C 125.882812 324.347656 126.808594 322.558594 127.15625 321.015625 C 127.25 320.609375 127.296875 320.109375 127.007812 319.867188 C 126.855469 319.75 126.671875 319.726562 126.484375 319.726562 C 125.484375 319.738281 124.546875 320.304688 123.734375 320.96875 C 119.425781 324.441406 115.363281 328.527344 110.867188 332.066406 C 110.484375 332.371094 110.089844 332.683594 109.859375 333.125 C 109.800781 333.25 109.753906 333.367188 109.730469 333.484375 Z M 109.730469 333.484375 " fill-opacity="1" fill-rule="nonzero"/><g clip-path="url(#775445520b)"><path fill="#fff4c3" d="M 130.886719 356.773438 C 132.335938 359.480469 134.367188 361.824219 136.363281 364.191406 C 138.1875 366.363281 139.730469 369.582031 142.171875 371.195312 C 142.761719 371.589844 143.609375 371.855469 144.203125 371.460938 C 145.292969 370.742188 144.691406 368.363281 144.46875 367.410156 C 143.855469 364.691406 147.242188 364.972656 149.34375 364.566406 C 150.84375 364.308594 157.238281 363.265625 157.054688 361.222656 C 157.019531 360.871094 156.753906 360.59375 156.484375 360.351562 C 154.675781 358.714844 152.398438 357.515625 151.039062 355.484375 C 149.378906 352.964844 150.296875 351.085938 151.761719 348.84375 C 152.191406 348.195312 153.070312 346.988281 152.632812 346.1875 C 152.457031 345.859375 152.15625 345.628906 151.828125 345.441406 C 148.542969 343.550781 144.304688 346.035156 141.066406 346.917969 C 139.335938 347.394531 136.039062 348.007812 133.40625 349.125 C 130.78125 350.25 128.808594 351.898438 129.863281 354.625 C 130.1875 355.382812 130.523438 356.089844 130.886719 356.773438 Z M 130.886719 356.773438 " fill-opacity="1" fill-rule="nonzero"/></g><path fill="#fff4c3" d="M 159.574219 332.03125 C 159.574219 332.730469 160.144531 333.308594 160.617188 333.773438 C 160.78125 333.9375 160.992188 334.042969 161.199219 334.144531 C 163.453125 335.25 165.519531 336.910156 167.769531 338.140625 C 171.496094 340.21875 177.210938 343.710938 181.738281 342.144531 C 182.074219 342.027344 182.46875 341.726562 182.328125 341.402344 C 182.285156 341.308594 182.203125 341.226562 182.121094 341.160156 L 178.753906 338.246094 C 176.640625 336.375 177.664062 334.121094 179.382812 332.382812 C 180.65625 331.070312 182.828125 329.863281 183.097656 327.851562 C 183.164062 327.367188 183.0625 326.832031 182.757812 326.449219 C 182.621094 326.261719 182.433594 326.125 182.25 325.996094 C 180.84375 324.972656 179.277344 324.871094 177.699219 324.371094 C 176.292969 323.917969 174.679688 323.070312 174.144531 321.515625 C 173.609375 319.96875 174.15625 318.03125 174.203125 316.441406 C 174.214844 316.035156 174.167969 315.523438 173.832031 315.335938 C 173.667969 315.246094 173.472656 315.269531 173.296875 315.300781 C 172.320312 315.511719 171.519531 316.253906 170.859375 317.054688 C 167.328125 321.304688 164.136719 326.101562 160.421875 330.429688 C 160.109375 330.800781 159.78125 331.183594 159.644531 331.660156 C 159.597656 331.789062 159.574219 331.90625 159.574219 332.03125 Z M 159.574219 332.03125 " fill-opacity="1" fill-rule="nonzero"/><path fill="#fff4c3" d="M 184.859375 350.761719 C 186.8125 353.117188 189.273438 355.03125 191.699219 356.960938 C 193.917969 358.714844 196.078125 361.582031 198.792969 362.671875 C 199.457031 362.9375 200.347656 363.042969 200.859375 362.53125 C 201.800781 361.605469 200.730469 359.398438 200.324219 358.503906 C 199.175781 355.960938 202.601562 355.554688 204.644531 354.707031 C 206.085938 354.148438 212.367188 351.710938 211.738281 349.738281 C 211.632812 349.402344 211.296875 349.191406 210.984375 349.019531 C 208.800781 347.835938 206.269531 347.160156 204.503906 345.464844 C 202.335938 343.351562 202.867188 341.320312 203.84375 338.8125 C 204.132812 338.09375 204.75 336.710938 204.144531 336.027344 C 203.902344 335.75 203.554688 335.585938 203.207031 335.46875 C 199.59375 334.308594 195.960938 337.582031 192.941406 339.09375 C 191.339844 339.90625 188.226562 341.160156 185.871094 342.773438 C 183.527344 344.386719 181.910156 346.394531 183.480469 348.867188 C 183.898438 349.53125 184.363281 350.15625 184.859375 350.761719 Z M 184.859375 350.761719 " fill-opacity="1" fill-rule="nonzero"/><path fill="#fff4c3" d="M 207.59375 320.710938 C 207.757812 321.398438 208.429688 321.828125 208.988281 322.164062 C 209.183594 322.28125 209.40625 322.339844 209.613281 322.382812 C 212.007812 322.953125 214.351562 324.046875 216.8125 324.660156 C 218.855469 325.171875 221.46875 325.878906 224.105469 326.042969 C 226.714844 326.203125 229.363281 325.808594 231.242188 324.289062 C 231.535156 324.066406 231.800781 323.648438 231.546875 323.394531 C 231.476562 323.3125 231.371094 323.277344 231.265625 323.242188 C 229.863281 322.734375 228.480469 322.1875 227.132812 321.628906 C 224.546875 320.515625 224.800781 318.089844 225.683594 315.929688 C 226.367188 314.328125 227.785156 312.503906 227.203125 310.578125 C 227.0625 310.113281 226.773438 309.660156 226.367188 309.40625 C 226.183594 309.289062 225.972656 309.207031 225.765625 309.148438 C 224.207031 308.648438 222.875 308.996094 221.375 308.964844 C 220.050781 308.941406 218.414062 308.558594 217.429688 307.234375 C 216.453125 305.921875 216.230469 303.980469 215.6875 302.507812 C 215.546875 302.125 215.328125 301.671875 215 301.578125 C 214.839844 301.53125 214.699219 301.589844 214.570312 301.660156 C 213.898438 302.078125 213.527344 302.949219 213.25 303.84375 C 211.832031 308.625 210.34375 313.957031 207.976562 318.972656 C 207.78125 319.402344 207.570312 319.84375 207.558594 320.328125 C 207.546875 320.46875 207.558594 320.597656 207.59375 320.710938 Z M 207.59375 320.710938 " fill-opacity="1" fill-rule="nonzero"/><path fill="#fff4c3" d="M 237.222656 331.253906 C 239.976562 332.71875 243.15625 333.460938 246.394531 334.109375 C 249.34375 334.703125 252.699219 336.257812 256.054688 335.714844 C 256.867188 335.574219 257.867188 335.132812 258.203125 334.355469 C 258.820312 332.925781 256.761719 331.523438 255.984375 330.941406 C 253.746094 329.257812 257.054688 326.914062 258.65625 324.871094 C 258.945312 324.519531 259.46875 323.871094 260.074219 323.070312 C 260.675781 322.28125 261.335938 321.339844 261.882812 320.363281 C 262.988281 318.4375 263.71875 316.542969 262.917969 315.917969 C 262.648438 315.695312 262.21875 315.730469 261.835938 315.789062 C 259.179688 316.148438 256.578125 317.207031 254.082031 316.730469 C 251.015625 316.125 250.5625 314.023438 250.097656 311.34375 C 249.960938 310.554688 249.75 309.03125 248.867188 308.789062 C 248.519531 308.683594 248.136719 308.742188 247.777344 308.835938 C 245.953125 309.335938 244.6875 310.667969 243.585938 312.273438 C 242.496094 313.875 241.53125 315.707031 240.507812 317.054688 C 239.40625 318.496094 237.0625 320.980469 235.402344 323.371094 C 233.773438 325.773438 232.847656 328.257812 235.214844 330.011719 C 235.839844 330.488281 236.515625 330.882812 237.222656 331.253906 Z M 237.222656 331.253906 " fill-opacity="1" fill-rule="nonzero"/><path fill="#fff4c3" d="M 242.796875 294.566406 C 243.34375 295.007812 244.109375 294.984375 244.746094 294.9375 C 244.96875 294.925781 245.164062 294.84375 245.363281 294.765625 C 246.453125 294.335938 247.601562 293.984375 248.777344 293.601562 C 249.972656 293.242188 251.144531 292.835938 252.269531 292.3125 C 254.175781 291.453125 256.601562 290.316406 258.703125 288.714844 C 260.792969 287.125 262.511719 285.058594 262.90625 282.675781 C 262.964844 282.316406 262.882812 281.828125 262.535156 281.796875 C 262.429688 281.785156 262.324219 281.828125 262.21875 281.863281 C 260.851562 282.421875 259.445312 282.933594 258.0625 283.410156 C 255.429688 284.292969 253.953125 282.292969 253.210938 280.113281 C 252.910156 279.289062 252.746094 278.289062 252.433594 277.382812 C 252.097656 276.453125 251.632812 275.617188 250.785156 275.085938 C 250.378906 274.828125 249.855469 274.679688 249.378906 274.757812 C 249.160156 274.792969 248.949219 274.875 248.753906 274.96875 C 247.265625 275.652344 246.476562 276.804688 245.363281 277.765625 C 244.339844 278.613281 242.890625 279.378906 241.285156 279.03125 C 239.695312 278.683594 238.222656 277.40625 236.828125 276.675781 C 236.46875 276.488281 236.003906 276.292969 235.703125 276.429688 C 235.550781 276.5 235.492188 276.628906 235.445312 276.769531 C 235.214844 277.488281 235.527344 278.3125 235.957031 279.125 C 238.128906 283.351562 240.636719 287.949219 242.019531 293.023438 C 242.132812 293.453125 242.261719 293.90625 242.550781 294.289062 C 242.621094 294.402344 242.703125 294.484375 242.796875 294.566406 Z M 242.796875 294.566406 " fill-opacity="1" fill-rule="nonzero"/><path fill="#fff4c3" d="M 271.996094 283.910156 C 275.039062 283.164062 277.894531 281.621094 280.726562 280.042969 C 283.328125 278.589844 286.84375 277.636719 289.015625 275.234375 C 289.527344 274.65625 289.992188 273.761719 289.75 273.007812 C 289.285156 271.625 286.824219 271.832031 285.847656 271.867188 C 283.0625 271.984375 284.058594 268.351562 284.011719 265.992188 C 284.023438 265.15625 284.046875 262.964844 283.78125 260.976562 C 283.5 258.992188 282.945312 257.226562 281.921875 257.179688 C 281.574219 257.167969 281.261719 257.414062 280.984375 257.65625 C 279.113281 259.339844 277.59375 261.558594 275.351562 262.625 C 272.601562 263.9375 270.894531 262.648438 268.90625 260.839844 C 268.339844 260.304688 267.269531 259.238281 266.410156 259.5625 C 266.074219 259.6875 265.785156 259.957031 265.550781 260.246094 C 263.207031 263.207031 264.902344 267.746094 265.066406 271.160156 C 265.167969 272.972656 265.03125 276.351562 265.378906 279.242188 C 265.773438 282.121094 266.714844 284.59375 269.652344 284.316406 C 270.441406 284.234375 271.230469 284.09375 271.996094 283.910156 Z M 271.996094 283.910156 " fill-opacity="1" fill-rule="nonzero"/><path fill="#fff4c3" d="M 253.246094 251.074219 C 253.941406 251.15625 254.582031 250.667969 255.089844 250.25 C 255.265625 250.109375 255.394531 249.925781 255.519531 249.726562 C 256.855469 247.683594 258.691406 245.828125 260.117188 243.714844 C 261.304688 241.960938 262.882812 239.742188 263.972656 237.339844 C 265.066406 234.949219 265.667969 232.382812 264.996094 230.082031 C 264.890625 229.734375 264.613281 229.328125 264.273438 229.457031 C 264.171875 229.492188 264.101562 229.570312 264.03125 229.652344 C 263.019531 230.746094 262 231.824219 260.964844 232.871094 C 258.980469 234.867188 256.796875 233.730469 255.136719 232 C 253.894531 230.699219 252.769531 228.539062 250.773438 228.226562 C 250.285156 228.144531 249.75 228.226562 249.355469 228.515625 C 249.171875 228.644531 249.019531 228.816406 248.878906 228.992188 C 247.8125 230.316406 247.625 231.824219 247.046875 233.3125 C 246.523438 234.632812 245.582031 236.132812 243.992188 236.574219 C 242.414062 237.015625 240.519531 236.410156 238.941406 236.328125 C 238.535156 236.304688 238.023438 236.328125 237.828125 236.644531 C 237.722656 236.792969 237.734375 236.96875 237.757812 237.140625 C 237.910156 238.046875 238.59375 238.8125 239.347656 239.464844 C 243.332031 242.914062 247.847656 246.199219 251.757812 250.121094 C 252.097656 250.460938 252.433594 250.796875 252.898438 250.980469 C 253 251.039062 253.128906 251.0625 253.246094 251.074219 Z M 253.246094 251.074219 " fill-opacity="1" fill-rule="nonzero"/><path fill="#fff4c3" d="M 273.726562 227.332031 C 276.152344 225.4375 278.136719 222.988281 280.125 220.539062 C 281.933594 218.34375 284.847656 216.230469 286.007812 213.515625 C 286.289062 212.851562 286.417969 211.960938 285.917969 211.4375 C 285.011719 210.484375 282.78125 211.496094 281.875 211.878906 C 279.3125 212.957031 278.984375 209.554688 278.21875 207.558594 C 277.695312 206.132812 275.59375 200.082031 273.609375 200.628906 C 273.273438 200.71875 273.042969 201.023438 272.855469 201.324219 C 271.542969 203.355469 270.753906 205.792969 268.988281 207.476562 C 266.792969 209.554688 264.785156 208.976562 262.324219 207.929688 C 261.617188 207.628906 260.269531 206.957031 259.550781 207.535156 C 259.257812 207.769531 259.085938 208.105469 258.957031 208.453125 C 257.65625 212.015625 260.851562 215.757812 262.277344 218.796875 C 263.054688 220.421875 264.230469 223.558594 265.761719 225.996094 C 267.292969 228.421875 269.234375 230.152344 271.765625 228.679688 C 272.460938 228.261719 273.097656 227.820312 273.726562 227.332031 Z M 273.726562 227.332031 " fill-opacity="1" fill-rule="nonzero"/><path fill="#fff4c3" d="M 244.410156 203.007812 C 245.105469 202.902344 245.570312 202.230469 245.953125 201.671875 C 246.082031 201.476562 246.152344 201.253906 246.222656 201.035156 C 246.953125 198.597656 248.253906 196.261719 249.148438 193.835938 C 250.644531 189.785156 253.375 183.710938 251.386719 179.425781 C 251.238281 179.101562 250.910156 178.742188 250.597656 178.917969 C 250.503906 178.964844 250.4375 179.054688 250.378906 179.148438 L 247.824219 182.792969 C 246.210938 185.117188 243.851562 184.339844 241.914062 182.746094 C 240.472656 181.550781 239.035156 179.394531 237.003906 179.230469 C 236.503906 179.195312 235.980469 179.324219 235.621094 179.671875 C 235.457031 179.832031 235.332031 180.03125 235.214844 180.238281 C 234.332031 181.796875 234.402344 183.480469 234.089844 185.210938 C 233.808594 186.730469 233.183594 188.542969 231.695312 189.273438 C 230.222656 190.003906 228.214844 189.585938 226.625 189.679688 C 226.207031 189.703125 225.71875 189.796875 225.578125 190.191406 C 225.507812 190.375 225.554688 190.597656 225.625 190.78125 C 225.972656 191.839844 226.832031 192.640625 227.738281 193.289062 C 232.519531 196.679688 237.78125 199.316406 242.691406 202.414062 C 243.109375 202.683594 243.539062 202.949219 244.039062 203.019531 C 244.167969 203.03125 244.28125 203.03125 244.410156 203.007812 Z M 244.410156 203.007812 " fill-opacity="1" fill-rule="nonzero"/><path fill="#fff4c3" d="M 259.675781 175.539062 C 261.859375 173.4375 263.601562 170.953125 265.414062 168.558594 C 267.0625 166.378906 269.835938 164.207031 270.90625 161.746094 C 271.171875 161.152344 271.277344 160.375 270.777344 159.96875 C 269.871094 159.214844 267.675781 160.269531 266.792969 160.6875 C 264.265625 161.847656 263.890625 158.832031 263.148438 157.089844 C 262.589844 155.847656 260.746094 150.496094 258.773438 150.96875 C 258.433594 151.050781 258.191406 151.332031 257.984375 151.609375 C 256.589844 153.46875 255.742188 155.730469 253.964844 157.355469 C 251.757812 159.363281 249.773438 158.902344 247.324219 157.890625 C 246.617188 157.601562 245.28125 156.9375 244.550781 157.496094 C 244.257812 157.714844 244.085938 158.054688 243.957031 158.402344 C 242.644531 161.976562 245.953125 165.691406 247.578125 168.570312 C 249.296875 171.683594 253.28125 180.625 257.902344 177.070312 C 258.539062 176.582031 259.121094 176.070312 259.675781 175.539062 Z M 259.675781 175.539062 " fill-opacity="1" fill-rule="nonzero"/><path fill="#fff4c3" d="M 229.503906 152.191406 C 230.199219 152.132812 230.722656 151.445312 231.140625 150.890625 C 231.289062 150.691406 231.371094 150.460938 231.453125 150.226562 C 232.371094 147.695312 233.867188 145.410156 234.996094 143.039062 C 235.957031 141.054688 237.175781 138.664062 238.199219 136.214844 C 239.183594 133.765625 239.824219 131.304688 239.277344 129.039062 C 239.195312 128.703125 238.953125 128.285156 238.605469 128.386719 C 238.5 128.421875 238.417969 128.492188 238.347656 128.5625 C 237.257812 129.585938 236.214844 130.617188 235.144531 131.675781 C 233.148438 133.707031 230.941406 132.523438 229.339844 130.445312 C 228.144531 128.898438 227.191406 126.320312 225.253906 125.660156 C 224.777344 125.496094 224.242188 125.507812 223.8125 125.777344 C 223.617188 125.902344 223.441406 126.089844 223.292969 126.277344 C 222.09375 127.703125 221.828125 129.539062 221.203125 131.335938 C 220.644531 132.941406 219.726562 134.785156 218.148438 135.296875 C 216.582031 135.808594 214.652344 134.890625 213.050781 134.625 C 212.632812 134.554688 212.132812 134.542969 211.9375 134.960938 C 211.84375 135.167969 211.855469 135.425781 211.890625 135.65625 C 212.074219 136.96875 212.832031 138.09375 213.644531 139.035156 C 215.789062 141.554688 218.230469 143.585938 220.644531 145.570312 C 223.058594 147.511719 225.496094 149.484375 227.84375 151.367188 C 228.238281 151.691406 228.65625 152.027344 229.132812 152.144531 C 229.257812 152.191406 229.386719 152.203125 229.503906 152.191406 Z M 229.503906 152.191406 " fill-opacity="1" fill-rule="nonzero"/><path fill="#fff4c3" d="M 248.195312 126.960938 C 250.773438 125.453125 253.023438 123.59375 255.359375 121.898438 C 257.496094 120.355469 260.722656 119.136719 262.429688 117.394531 C 262.847656 116.964844 263.148438 116.371094 262.789062 115.929688 C 262.128906 115.117188 259.722656 115.441406 258.761719 115.570312 C 255.996094 115.929688 256.484375 113.296875 256.320312 111.636719 C 256.148438 110.449219 256.136719 105.433594 254.128906 105.179688 C 253.78125 105.132812 253.453125 105.296875 253.175781 105.457031 C 251.238281 106.585938 249.703125 108.292969 247.511719 109.195312 C 244.792969 110.324219 243.039062 109.335938 241.042969 107.605469 C 240.472656 107.117188 239.417969 106.0625 238.558594 106.339844 C 238.210938 106.457031 237.929688 106.710938 237.699219 106.992188 C 235.261719 109.953125 237.316406 114.5625 238.117188 117.71875 C 238.523438 119.4375 239.140625 122.6875 240.40625 125.148438 C 241.660156 127.621094 243.527344 129.257812 246.140625 128.027344 C 246.859375 127.703125 247.542969 127.34375 248.195312 126.960938 Z M 248.195312 126.960938 " fill-opacity="1" fill-rule="nonzero"/><path fill="#fff4c3" d="M 226.402344 95.808594 C 227.0625 96.03125 227.808594 95.554688 228.398438 95.183594 C 228.609375 95.054688 228.769531 94.859375 228.933594 94.660156 C 229.816406 93.605469 230.835938 92.6875 231.90625 91.816406 C 232.949219 90.945312 234.03125 90.109375 235.050781 89.238281 C 235.886719 88.507812 236.886719 87.730469 237.921875 86.917969 C 238.929688 86.105469 240 85.269531 240.996094 84.386719 C 242.957031 82.621094 244.675781 80.773438 245.246094 78.546875 C 245.339844 78.210938 245.316406 77.734375 244.980469 77.664062 C 244.875 77.640625 244.769531 77.664062 244.664062 77.699219 C 243.214844 78.058594 241.820312 78.488281 240.371094 78.941406 C 237.617188 79.824219 236.257812 77.769531 235.839844 75.0625 C 235.550781 73.078125 236.039062 70.234375 234.726562 68.628906 C 234.402344 68.234375 233.9375 67.96875 233.414062 68.015625 C 233.171875 68.039062 232.9375 68.121094 232.695312 68.210938 C 230.871094 68.945312 229.710938 70.558594 228.238281 71.972656 C 226.972656 73.238281 225.207031 74.574219 223.582031 74.332031 C 221.945312 74.085938 220.679688 72.289062 219.425781 71.253906 C 219.101562 70.988281 218.660156 70.730469 218.265625 71.058594 C 218.078125 71.21875 217.949219 71.476562 217.859375 71.730469 C 217.382812 73.125 217.484375 74.597656 217.765625 75.898438 C 219.273438 82.796875 222.269531 88.714844 225.160156 94.359375 C 225.402344 94.835938 225.660156 95.324219 226.066406 95.625 C 226.183594 95.71875 226.296875 95.777344 226.402344 95.808594 Z M 226.402344 95.808594 " fill-opacity="1" fill-rule="nonzero"/><path fill="#fff4c3" d="M 254.058594 81.054688 C 256.996094 81.054688 259.828125 80.707031 262.589844 80.636719 C 263.867188 80.613281 265.320312 80.785156 266.726562 80.949219 C 268.152344 81.125 269.511719 81.273438 270.589844 81.148438 C 271.125 81.101562 271.648438 80.890625 271.53125 80.402344 C 271.3125 79.507812 269.1875 78.382812 268.328125 77.941406 C 265.855469 76.675781 267.480469 75.097656 268.152344 73.890625 C 268.269531 73.667969 268.476562 73.285156 268.746094 72.808594 C 269.023438 72.359375 269.3125 71.800781 269.558594 71.21875 C 270.058594 70.105469 270.359375 68.898438 269.640625 68.167969 C 269.394531 67.921875 269.058594 67.828125 268.757812 67.761719 C 267.722656 67.550781 266.65625 67.492188 265.574219 67.421875 C 264.519531 67.363281 263.429688 67.285156 262.300781 66.957031 C 259.492188 66.15625 258.621094 64.425781 258.027344 61.875 C 257.84375 61.140625 257.644531 59.679688 256.785156 59.367188 C 256.4375 59.238281 256.066406 59.285156 255.71875 59.367188 C 254.8125 59.597656 254.023438 60.0625 253.386719 60.710938 C 252.757812 61.375 252.234375 62.175781 251.804688 63.046875 C 251.398438 63.929688 251.0625 64.867188 250.773438 65.761719 C 250.503906 66.679688 250.261719 67.5625 249.984375 68.328125 C 249.4375 69.988281 248.21875 73.03125 248.148438 75.769531 C 248.03125 78.511719 248.914062 80.761719 251.792969 80.960938 C 252.539062 81.019531 253.304688 81.042969 254.058594 81.054688 Z M 254.058594 81.054688 " fill-opacity="1" fill-rule="nonzero"/><path fill="#fff4c3" d="M 254.222656 43.320312 C 254.582031 43.925781 255.464844 44.027344 256.183594 44.121094 C 256.425781 44.15625 256.695312 44.109375 256.949219 44.0625 C 258.355469 43.808594 259.757812 43.785156 261.152344 43.832031 C 262.535156 43.855469 263.914062 43.96875 265.273438 44.015625 C 267.527344 44.0625 270.3125 44.433594 272.949219 44.527344 C 275.582031 44.609375 278.089844 44.433594 280.054688 43.203125 C 280.355469 43.019531 280.65625 42.660156 280.460938 42.367188 C 280.402344 42.273438 280.296875 42.230469 280.203125 42.171875 C 278.902344 41.449219 277.582031 40.777344 276.234375 40.128906 C 273.644531 38.886719 274.0625 36.433594 275.582031 34.207031 C 276.152344 33.394531 276.988281 32.558594 277.683594 31.652344 C 278.394531 30.769531 278.960938 29.828125 278.996094 28.796875 C 279.007812 28.296875 278.847656 27.773438 278.441406 27.460938 C 278.253906 27.308594 278.023438 27.207031 277.789062 27.125 C 276.023438 26.414062 274.144531 26.777344 272.160156 26.765625 C 270.394531 26.789062 268.246094 26.554688 267.222656 25.242188 C 266.214844 23.929688 266.527344 21.78125 266.308594 20.167969 C 266.25 19.75 266.097656 19.265625 265.609375 19.230469 C 265.367188 19.207031 265.109375 19.308594 264.878906 19.425781 C 263.589844 20.089844 262.648438 21.25 261.953125 22.363281 C 258.226562 28.425781 256.054688 34.996094 254.277344 41.359375 C 254.128906 41.890625 253.976562 42.449219 254.082031 42.949219 C 254.105469 43.101562 254.152344 43.226562 254.222656 43.320312 Z M 254.222656 43.320312 " fill-opacity="1" fill-rule="nonzero"/><path fill="#fff4c3" d="M 284.800781 51.050781 C 286.984375 53.039062 289.386719 54.664062 291.652344 56.394531 C 293.71875 57.972656 295.832031 60.710938 297.992188 61.816406 C 298.527344 62.082031 299.199219 62.210938 299.523438 61.722656 C 300.117188 60.839844 299.082031 58.644531 298.675781 57.761719 C 297.492188 55.242188 300.21875 54.90625 301.859375 54.210938 C 302.949219 53.675781 308.160156 51.96875 307.746094 49.972656 C 307.675781 49.636719 307.394531 49.378906 307.128906 49.171875 C 305.316406 47.730469 303.113281 46.851562 301.542969 45.0625 C 299.582031 42.832031 300.035156 40.859375 301.058594 38.421875 C 301.347656 37.710938 302.019531 36.390625 301.476562 35.65625 C 301.253906 35.367188 300.917969 35.179688 300.582031 35.054688 C 297.015625 33.683594 293.265625 37.003906 290.46875 38.710938 C 288.957031 39.617188 286.019531 41.148438 284.082031 43.109375 C 282.109375 45.050781 281.191406 47.324219 283.164062 49.425781 C 283.699219 49.996094 284.246094 50.542969 284.800781 51.050781 Z M 284.800781 51.050781 " fill-opacity="1" fill-rule="nonzero"/><g clip-path="url(#e592f9e69b)"><path fill="#fff4c3" d="M 307.035156 20.703125 C 307.082031 21.398438 307.734375 21.933594 308.277344 22.351562 C 308.464844 22.503906 308.695312 22.585938 308.917969 22.675781 C 311.367188 23.617188 313.605469 25.136719 315.964844 26.277344 C 319.910156 28.15625 325.566406 31.570312 330.070312 30.132812 C 330.40625 30.027344 330.800781 29.734375 330.675781 29.410156 C 330.640625 29.308594 330.558594 29.238281 330.476562 29.167969 L 327.15625 26.207031 C 325.042969 24.324219 326.089844 22.074219 327.910156 20.34375 C 329.257812 19.054688 331.558594 17.882812 331.941406 15.886719 C 332.03125 15.398438 331.964844 14.863281 331.660156 14.46875 C 331.523438 14.28125 331.335938 14.132812 331.152344 13.992188 C 329.722656 12.9375 328.050781 12.808594 326.402344 12.285156 C 324.925781 11.820312 323.21875 10.984375 322.664062 9.417969 C 322.117188 7.875 322.769531 5.921875 322.859375 4.332031 C 322.882812 3.925781 322.847656 3.414062 322.476562 3.230469 C 322.292969 3.136719 322.082031 3.160156 321.886719 3.195312 C 320.792969 3.414062 319.898438 4.183594 319.144531 5.007812 C 315.046875 9.40625 311.550781 14.433594 307.859375 19.042969 C 307.546875 19.4375 307.222656 19.84375 307.105469 20.332031 C 307.035156 20.460938 307.023438 20.574219 307.035156 20.703125 Z M 307.035156 20.703125 " fill-opacity="1" fill-rule="nonzero"/></g><path fill="#fff4c3" d="M 332.949219 38.828125 C 334.785156 41.242188 337.070312 43.25 339.289062 45.304688 C 341.308594 47.1875 343.203125 50.171875 345.628906 51.480469 C 346.21875 51.796875 347.023438 51.980469 347.507812 51.515625 C 348.402344 50.679688 347.542969 48.394531 347.21875 47.476562 C 346.289062 44.851562 349.472656 44.75 351.375 44.144531 C 352.722656 43.714844 358.574219 42.195312 358.238281 40.175781 C 358.179688 39.824219 357.902344 39.570312 357.632812 39.347656 C 355.789062 37.851562 353.511719 36.851562 352.003906 34.960938 C 350.144531 32.617188 350.816406 30.664062 352.039062 28.285156 C 352.386719 27.601562 353.152344 26.3125 352.652344 25.554688 C 352.445312 25.253906 352.128906 25.046875 351.792969 24.894531 C 348.332031 23.316406 344.363281 26.265625 341.296875 27.578125 C 338.011719 28.980469 328.652344 31.882812 331.636719 36.886719 C 332.03125 37.5625 332.472656 38.210938 332.949219 38.828125 Z M 332.949219 38.828125 " fill-opacity="1" fill-rule="nonzero"/><g clip-path="url(#f1a042a082)"><path fill="#fff4c3" d="M 360.804688 22.410156 C 360.804688 22.421875 360.816406 22.421875 360.816406 22.433594 C 360.816406 22.433594 360.816406 22.433594 360.828125 22.433594 C 360.847656 22.445312 360.871094 22.457031 360.894531 22.46875 C 360.941406 22.492188 361 22.527344 361.046875 22.515625 C 361.046875 22.515625 361.058594 22.515625 361.058594 22.503906 C 361.046875 22.492188 361.035156 22.480469 361.023438 22.46875 C 361 22.445312 361.011719 22.421875 361.035156 22.410156 C 361.046875 22.398438 361.070312 22.386719 361.082031 22.363281 C 361.082031 22.363281 361.082031 22.351562 361.082031 22.351562 C 361.070312 22.339844 361.046875 22.339844 361.035156 22.328125 C 361.023438 22.328125 361 22.316406 361 22.292969 C 360.988281 22.28125 361 22.257812 361 22.234375 C 361 22.234375 361 22.222656 361 22.222656 C 361 22.222656 361 22.222656 360.988281 22.222656 C 360.976562 22.222656 360.964844 22.234375 360.953125 22.246094 C 360.90625 22.292969 360.871094 22.351562 360.839844 22.398438 C 360.816406 22.386719 360.804688 22.398438 360.804688 22.410156 C 360.804688 22.398438 360.804688 22.398438 360.804688 22.410156 Z M 360.804688 22.410156 " fill-opacity="1" fill-rule="nonzero"/></g><g clip-path="url(#575a2d7330)"><path fill="#fff4c3" d="M 361.082031 22.597656 C 361.105469 22.617188 361.128906 22.640625 361.152344 22.664062 C 361.175781 22.6875 361.199219 22.710938 361.222656 22.734375 C 361.234375 22.734375 361.234375 22.734375 361.246094 22.734375 C 361.253906 22.722656 361.246094 22.699219 361.246094 22.6875 C 361.234375 22.664062 361.265625 22.652344 361.289062 22.652344 C 361.300781 22.652344 361.371094 22.628906 361.359375 22.609375 C 361.359375 22.609375 361.359375 22.597656 361.347656 22.597656 C 361.324219 22.585938 361.300781 22.574219 361.289062 22.550781 C 361.265625 22.527344 361.277344 22.503906 361.289062 22.480469 C 361.289062 22.46875 361.300781 22.457031 361.300781 22.445312 C 361.300781 22.445312 361.300781 22.445312 361.289062 22.433594 C 361.253906 22.421875 361.210938 22.445312 361.175781 22.457031 C 361.140625 22.46875 361.035156 22.503906 361.070312 22.5625 C 361.070312 22.585938 361.070312 22.597656 361.082031 22.597656 Z M 361.082031 22.597656 " fill-opacity="1" fill-rule="nonzero"/></g></svg>