<svg xmlns="http://www.w3.org/2000/svg" xmlns:xlink="http://www.w3.org/1999/xlink" width="500" zoomAndPan="magnify" viewBox="0 0 375 374.999991" height="500" preserveAspectRatio="xMidYMid meet" version="1.0"><defs><clipPath id="ff7ba05ee1"><path d="M 63 197 L 89 197 L 89 218 L 63 218 Z M 63 197 " clip-rule="nonzero"/></clipPath><clipPath id="f081ff2e92"><path d="M 11.390625 70.882812 L 132.753906 65.160156 L 139.8125 214.804688 L 18.449219 220.527344 Z M 11.390625 70.882812 " clip-rule="nonzero"/></clipPath><clipPath id="87538233e6"><path d="M 11.390625 70.882812 L 132.753906 65.160156 L 139.8125 214.804688 L 18.449219 220.527344 Z M 11.390625 70.882812 " clip-rule="nonzero"/></clipPath><clipPath id="4207068225"><path d="M 62 199 L 89 199 L 89 218 L 62 218 Z M 62 199 " clip-rule="nonzero"/></clipPath><clipPath id="09b6444b45"><path d="M 11.390625 70.882812 L 132.753906 65.160156 L 139.8125 214.804688 L 18.449219 220.527344 Z M 11.390625 70.882812 " clip-rule="nonzero"/></clipPath><clipPath id="d6e4049ede"><path d="M 11.390625 70.882812 L 132.753906 65.160156 L 139.8125 214.804688 L 18.449219 220.527344 Z M 11.390625 70.882812 " clip-rule="nonzero"/></clipPath><clipPath id="9ffe184104"><path d="M 23 76 L 136 76 L 136 203 L 23 203 Z M 23 76 " clip-rule="nonzero"/></clipPath><clipPath id="a3b403f33b"><path d="M 11.390625 70.882812 L 132.753906 65.160156 L 139.8125 214.804688 L 18.449219 220.527344 Z M 11.390625 70.882812 " clip-rule="nonzero"/></clipPath><clipPath id="9ed0ab1cea"><path d="M 11.390625 70.882812 L 132.753906 65.160156 L 139.8125 214.804688 L 18.449219 220.527344 Z M 11.390625 70.882812 " clip-rule="nonzero"/></clipPath><clipPath id="c7a7f31029"><path d="M 33 124 L 137 124 L 137 204 L 33 204 Z M 33 124 " clip-rule="nonzero"/></clipPath><clipPath id="00d2c4a20c"><path d="M 11.390625 70.882812 L 132.753906 65.160156 L 139.8125 214.804688 L 18.449219 220.527344 Z M 11.390625 70.882812 " clip-rule="nonzero"/></clipPath><clipPath id="193f4b2e51"><path d="M 11.390625 70.882812 L 132.753906 65.160156 L 139.8125 214.804688 L 18.449219 220.527344 Z M 11.390625 70.882812 " clip-rule="nonzero"/></clipPath><clipPath id="9f60ef4711"><path d="M 22 75 L 117 75 L 117 158 L 22 158 Z M 22 75 " clip-rule="nonzero"/></clipPath><clipPath id="15fe4a1946"><path d="M 11.390625 70.882812 L 132.753906 65.160156 L 139.8125 214.804688 L 18.449219 220.527344 Z M 11.390625 70.882812 " clip-rule="nonzero"/></clipPath><clipPath id="122d22127c"><path d="M 11.390625 70.882812 L 132.753906 65.160156 L 139.8125 214.804688 L 18.449219 220.527344 Z M 11.390625 70.882812 " clip-rule="nonzero"/></clipPath><clipPath id="d3be2597a9"><path d="M 54 112 L 83 112 L 83 132 L 54 132 Z M 54 112 " clip-rule="nonzero"/></clipPath><clipPath id="2936abc0ee"><path d="M 11.390625 70.882812 L 132.753906 65.160156 L 139.8125 214.804688 L 18.449219 220.527344 Z M 11.390625 70.882812 " clip-rule="nonzero"/></clipPath><clipPath id="073ef6e434"><path d="M 11.390625 70.882812 L 132.753906 65.160156 L 139.8125 214.804688 L 18.449219 220.527344 Z M 11.390625 70.882812 " clip-rule="nonzero"/></clipPath><clipPath id="a139a51984"><path d="M 54 111 L 84 111 L 84 133 L 54 133 Z M 54 111 " clip-rule="nonzero"/></clipPath><clipPath id="4cf2213b7b"><path d="M 11.390625 70.882812 L 132.753906 65.160156 L 139.8125 214.804688 L 18.449219 220.527344 Z M 11.390625 70.882812 " clip-rule="nonzero"/></clipPath><clipPath id="5593cbb3e9"><path d="M 11.390625 70.882812 L 132.753906 65.160156 L 139.8125 214.804688 L 18.449219 220.527344 Z M 11.390625 70.882812 " clip-rule="nonzero"/></clipPath><clipPath id="3571ed78cc"><path d="M 16 153 L 45 153 L 45 178 L 16 178 Z M 16 153 " clip-rule="nonzero"/></clipPath><clipPath id="9fe13b1409"><path d="M 11.390625 70.882812 L 132.753906 65.160156 L 139.8125 214.804688 L 18.449219 220.527344 Z M 11.390625 70.882812 " clip-rule="nonzero"/></clipPath><clipPath id="6ab93b2e26"><path d="M 11.390625 70.882812 L 132.753906 65.160156 L 139.8125 214.804688 L 18.449219 220.527344 Z M 11.390625 70.882812 " clip-rule="nonzero"/></clipPath><clipPath id="56fe47bce1"><path d="M 99 108 L 107 108 L 107 117 L 99 117 Z M 99 108 " clip-rule="nonzero"/></clipPath><clipPath id="836ec60861"><path d="M 11.390625 70.882812 L 132.753906 65.160156 L 139.8125 214.804688 L 18.449219 220.527344 Z M 11.390625 70.882812 " clip-rule="nonzero"/></clipPath><clipPath id="749c49f36e"><path d="M 11.390625 70.882812 L 132.753906 65.160156 L 139.8125 214.804688 L 18.449219 220.527344 Z M 11.390625 70.882812 " clip-rule="nonzero"/></clipPath><clipPath id="9ab58e4bb0"><path d="M 30 132 L 39 132 L 39 141 L 30 141 Z M 30 132 " clip-rule="nonzero"/></clipPath><clipPath id="cea06c75f7"><path d="M 11.390625 70.882812 L 132.753906 65.160156 L 139.8125 214.804688 L 18.449219 220.527344 Z M 11.390625 70.882812 " clip-rule="nonzero"/></clipPath><clipPath id="35ea86b564"><path d="M 11.390625 70.882812 L 132.753906 65.160156 L 139.8125 214.804688 L 18.449219 220.527344 Z M 11.390625 70.882812 " clip-rule="nonzero"/></clipPath><clipPath id="d426b7c9d9"><path d="M 109 114 L 135 114 L 135 145 L 109 145 Z M 109 114 " clip-rule="nonzero"/></clipPath><clipPath id="07efbad523"><path d="M 11.390625 70.882812 L 132.753906 65.160156 L 139.8125 214.804688 L 18.449219 220.527344 Z M 11.390625 70.882812 " clip-rule="nonzero"/></clipPath><clipPath id="95270654b4"><path d="M 11.390625 70.882812 L 132.753906 65.160156 L 139.8125 214.804688 L 18.449219 220.527344 Z M 11.390625 70.882812 " clip-rule="nonzero"/></clipPath><clipPath id="07de1acbf8"><path d="M 85 107 L 97 107 L 97 112 L 85 112 Z M 85 107 " clip-rule="nonzero"/></clipPath><clipPath id="5b7d4297fb"><path d="M 11.390625 70.882812 L 132.753906 65.160156 L 139.8125 214.804688 L 18.449219 220.527344 Z M 11.390625 70.882812 " clip-rule="nonzero"/></clipPath><clipPath id="d11cd9e2ba"><path d="M 11.390625 70.882812 L 132.753906 65.160156 L 139.8125 214.804688 L 18.449219 220.527344 Z M 11.390625 70.882812 " clip-rule="nonzero"/></clipPath><clipPath id="ae959dee63"><path d="M 38 123 L 47 123 L 47 132 L 38 132 Z M 38 123 " clip-rule="nonzero"/></clipPath><clipPath id="a00fb47f93"><path d="M 11.390625 70.882812 L 132.753906 65.160156 L 139.8125 214.804688 L 18.449219 220.527344 Z M 11.390625 70.882812 " clip-rule="nonzero"/></clipPath><clipPath id="c5620bcebb"><path d="M 11.390625 70.882812 L 132.753906 65.160156 L 139.8125 214.804688 L 18.449219 220.527344 Z M 11.390625 70.882812 " clip-rule="nonzero"/></clipPath><clipPath id="37b6b1c14f"><path d="M 107 113 L 135 113 L 135 145 L 107 145 Z M 107 113 " clip-rule="nonzero"/></clipPath><clipPath id="92789dbc54"><path d="M 11.390625 70.882812 L 132.753906 65.160156 L 139.8125 214.804688 L 18.449219 220.527344 Z M 11.390625 70.882812 " clip-rule="nonzero"/></clipPath><clipPath id="cfb21370bb"><path d="M 11.390625 70.882812 L 132.753906 65.160156 L 139.8125 214.804688 L 18.449219 220.527344 Z M 11.390625 70.882812 " clip-rule="nonzero"/></clipPath><clipPath id="96307f2c0e"><path d="M 15 152 L 45 152 L 45 178 L 15 178 Z M 15 152 " clip-rule="nonzero"/></clipPath><clipPath id="8a6d783db7"><path d="M 11.390625 70.882812 L 132.753906 65.160156 L 139.8125 214.804688 L 18.449219 220.527344 Z M 11.390625 70.882812 " clip-rule="nonzero"/></clipPath><clipPath id="8fb4af3066"><path d="M 11.390625 70.882812 L 132.753906 65.160156 L 139.8125 214.804688 L 18.449219 220.527344 Z M 11.390625 70.882812 " clip-rule="nonzero"/></clipPath><clipPath id="a9f80610a8"><path d="M 102 153 L 128 153 L 128 179 L 102 179 Z M 102 153 " clip-rule="nonzero"/></clipPath><clipPath id="5e99fe1e0b"><path d="M 11.390625 70.882812 L 132.753906 65.160156 L 139.8125 214.804688 L 18.449219 220.527344 Z M 11.390625 70.882812 " clip-rule="nonzero"/></clipPath><clipPath id="92f15618c1"><path d="M 11.390625 70.882812 L 132.753906 65.160156 L 139.8125 214.804688 L 18.449219 220.527344 Z M 11.390625 70.882812 " clip-rule="nonzero"/></clipPath><clipPath id="f492782b12"><path d="M 101 153 L 129 153 L 129 179 L 101 179 Z M 101 153 " clip-rule="nonzero"/></clipPath><clipPath id="7236af98ad"><path d="M 11.390625 70.882812 L 132.753906 65.160156 L 139.8125 214.804688 L 18.449219 220.527344 Z M 11.390625 70.882812 " clip-rule="nonzero"/></clipPath><clipPath id="bacf53b884"><path d="M 11.390625 70.882812 L 132.753906 65.160156 L 139.8125 214.804688 L 18.449219 220.527344 Z M 11.390625 70.882812 " clip-rule="nonzero"/></clipPath><clipPath id="a6a27d4727"><path d="M 106 119 L 205 119 L 205 215 L 106 215 Z M 106 119 " clip-rule="nonzero"/></clipPath><clipPath id="e7313de43a"><path d="M 169.53125 114.566406 L 214.597656 192.066406 L 137.101562 237.132812 L 92.035156 159.636719 Z M 169.53125 114.566406 " clip-rule="nonzero"/></clipPath><clipPath id="5d6ae56361"><path d="M 169.53125 114.566406 L 214.597656 192.066406 L 137.101562 237.132812 L 92.035156 159.636719 Z M 169.53125 114.566406 " clip-rule="nonzero"/></clipPath><clipPath id="0c5f0b71b9"><path d="M 169.53125 114.566406 L 214.597656 192.066406 L 137.101562 237.132812 L 92.035156 159.636719 Z M 169.53125 114.566406 " clip-rule="nonzero"/></clipPath><clipPath id="ac71ee6fa8"><path d="M 126 122 L 203 122 L 203 207 L 126 207 Z M 126 122 " clip-rule="nonzero"/></clipPath><clipPath id="a9face4f94"><path d="M 169.53125 114.566406 L 214.597656 192.066406 L 137.101562 237.132812 L 92.035156 159.636719 Z M 169.53125 114.566406 " clip-rule="nonzero"/></clipPath><clipPath id="e4f4490c7d"><path d="M 169.53125 114.566406 L 214.597656 192.066406 L 137.101562 237.132812 L 92.035156 159.636719 Z M 169.53125 114.566406 " clip-rule="nonzero"/></clipPath><clipPath id="1e9f5760cb"><path d="M 169.53125 114.566406 L 214.597656 192.066406 L 137.101562 237.132812 L 92.035156 159.636719 Z M 169.53125 114.566406 " clip-rule="nonzero"/></clipPath><clipPath id="a860f05acc"><path d="M 143 132 L 185 132 L 185 217 L 143 217 Z M 143 132 " clip-rule="nonzero"/></clipPath><clipPath id="926bc569d0"><path d="M 169.53125 114.566406 L 214.597656 192.066406 L 137.101562 237.132812 L 92.035156 159.636719 Z M 169.53125 114.566406 " clip-rule="nonzero"/></clipPath><clipPath id="11eb390559"><path d="M 169.53125 114.566406 L 214.597656 192.066406 L 137.101562 237.132812 L 92.035156 159.636719 Z M 169.53125 114.566406 " clip-rule="nonzero"/></clipPath><clipPath id="b316d55cf6"><path d="M 169.53125 114.566406 L 214.597656 192.066406 L 137.101562 237.132812 L 92.035156 159.636719 Z M 169.53125 114.566406 " clip-rule="nonzero"/></clipPath><clipPath id="ad31bf75aa"><path d="M 175 162 L 203 162 L 203 192 L 175 192 Z M 175 162 " clip-rule="nonzero"/></clipPath><clipPath id="819d332cd2"><path d="M 169.53125 114.566406 L 214.597656 192.066406 L 137.101562 237.132812 L 92.035156 159.636719 Z M 169.53125 114.566406 " clip-rule="nonzero"/></clipPath><clipPath id="785a02a068"><path d="M 169.53125 114.566406 L 214.597656 192.066406 L 137.101562 237.132812 L 92.035156 159.636719 Z M 169.53125 114.566406 " clip-rule="nonzero"/></clipPath><clipPath id="7602666525"><path d="M 169.53125 114.566406 L 214.597656 192.066406 L 137.101562 237.132812 L 92.035156 159.636719 Z M 169.53125 114.566406 " clip-rule="nonzero"/></clipPath><clipPath id="b8221f18ec"><path d="M 187 175 L 324 175 L 324 268 L 187 268 Z M 187 175 " clip-rule="nonzero"/></clipPath><clipPath id="8e7a065ed5"><path d="M 184.40625 180.480469 L 316.433594 132.800781 L 363.308594 262.609375 L 231.28125 310.285156 Z M 184.40625 180.480469 " clip-rule="nonzero"/></clipPath><clipPath id="71be26eac8"><path d="M 316.882812 132.636719 L 184.855469 180.316406 L 231.734375 310.125 L 363.757812 262.445312 Z M 316.882812 132.636719 " clip-rule="nonzero"/></clipPath><clipPath id="01cc23b6eb"><path d="M 321 229 L 353 229 L 353 241 L 321 241 Z M 321 229 " clip-rule="nonzero"/></clipPath><clipPath id="4eba255eee"><path d="M 184.40625 180.480469 L 316.433594 132.800781 L 363.308594 262.609375 L 231.28125 310.285156 Z M 184.40625 180.480469 " clip-rule="nonzero"/></clipPath><clipPath id="4954e60069"><path d="M 316.882812 132.636719 L 184.855469 180.316406 L 231.734375 310.125 L 363.757812 262.445312 Z M 316.882812 132.636719 " clip-rule="nonzero"/></clipPath><clipPath id="dbd9569bf3"><path d="M 212 246 L 239 246 L 239 260 L 212 260 Z M 212 246 " clip-rule="nonzero"/></clipPath><clipPath id="dd9b73bf7b"><path d="M 184.40625 180.480469 L 316.433594 132.800781 L 363.308594 262.609375 L 231.28125 310.285156 Z M 184.40625 180.480469 " clip-rule="nonzero"/></clipPath><clipPath id="8e8e8e844c"><path d="M 316.882812 132.636719 L 184.855469 180.316406 L 231.734375 310.125 L 363.757812 262.445312 Z M 316.882812 132.636719 " clip-rule="nonzero"/></clipPath><clipPath id="8d9efc521d"><path d="M 317 240 L 342 240 L 342 258 L 317 258 Z M 317 240 " clip-rule="nonzero"/></clipPath><clipPath id="8974fe5396"><path d="M 184.40625 180.480469 L 316.433594 132.800781 L 363.308594 262.609375 L 231.28125 310.285156 Z M 184.40625 180.480469 " clip-rule="nonzero"/></clipPath><clipPath id="39914e439c"><path d="M 316.882812 132.636719 L 184.855469 180.316406 L 231.734375 310.125 L 363.757812 262.445312 Z M 316.882812 132.636719 " clip-rule="nonzero"/></clipPath><clipPath id="9f9c210b5c"><path d="M 286 264 L 302 264 L 302 285 L 286 285 Z M 286 264 " clip-rule="nonzero"/></clipPath><clipPath id="dcc1d10ffb"><path d="M 184.40625 180.480469 L 316.433594 132.800781 L 363.308594 262.609375 L 231.28125 310.285156 Z M 184.40625 180.480469 " clip-rule="nonzero"/></clipPath><clipPath id="4decd5c8c4"><path d="M 316.882812 132.636719 L 184.855469 180.316406 L 231.734375 310.125 L 363.757812 262.445312 Z M 316.882812 132.636719 " clip-rule="nonzero"/></clipPath><clipPath id="eee8f77c86"><path d="M 268 262 L 282 262 L 282 288 L 268 288 Z M 268 262 " clip-rule="nonzero"/></clipPath><clipPath id="4b1fe08bfc"><path d="M 184.40625 180.480469 L 316.433594 132.800781 L 363.308594 262.609375 L 231.28125 310.285156 Z M 184.40625 180.480469 " clip-rule="nonzero"/></clipPath><clipPath id="3af21f8960"><path d="M 316.882812 132.636719 L 184.855469 180.316406 L 231.734375 310.125 L 363.757812 262.445312 Z M 316.882812 132.636719 " clip-rule="nonzero"/></clipPath></defs><g clip-path="url(#ff7ba05ee1)"><g clip-path="url(#f081ff2e92)"><g clip-path="url(#87538233e6)"><path fill="#fcbd78" d="M 83.046875 197.347656 C 85.027344 199.117188 86.910156 201.25 87.722656 203.925781 C 88.539062 206.601562 87.972656 209.902344 85.894531 211.230469 C 84.980469 211.816406 83.878906 211.972656 82.933594 212.492188 C 81.628906 213.214844 80.714844 214.566406 79.605469 215.617188 C 78.496094 216.667969 76.941406 217.4375 75.550781 216.738281 C 74.007812 215.960938 72.851562 213.515625 71.289062 214.027344 C 70.839844 214.171875 70.5 214.554688 70.113281 214.835938 C 68.601562 215.9375 66.363281 215.378906 65.035156 213.832031 C 63.710938 212.285156 63.25 209.96875 63.566406 207.925781 C 63.886719 205.882812 64.898438 204.089844 66.148438 202.628906 C 69.097656 199.171875 73.496094 197.371094 83.046875 197.347656 Z M 83.046875 197.347656 " fill-opacity="1" fill-rule="nonzero"/></g></g></g><g clip-path="url(#4207068225)"><g clip-path="url(#09b6444b45)"><g clip-path="url(#d6e4049ede)"><path fill="#272727" d="M 77.050781 217.902344 C 75.101562 217.996094 73.039062 216.84375 71.851562 214.96875 C 71 215.824219 69.84375 216.367188 68.613281 216.472656 C 67.195312 216.59375 65.855469 216.152344 64.804688 215.238281 C 63.621094 214.210938 62.832031 212.21875 62.6875 209.910156 C 62.515625 207.148438 63.316406 204.5625 64.878906 202.820312 C 65.203125 202.457031 65.757812 202.429688 66.121094 202.75 C 66.480469 203.074219 66.511719 203.632812 66.1875 203.992188 C 64.9375 205.386719 64.300781 207.503906 64.441406 209.800781 C 64.554688 211.597656 65.148438 213.210938 65.957031 213.914062 C 66.648438 214.511719 67.542969 214.796875 68.460938 214.722656 C 69.386719 214.644531 70.242188 214.199219 70.808594 213.503906 C 71.109375 213.132812 71.5625 212.9375 72.023438 212.980469 C 72.503906 213.027344 72.9375 213.320312 73.183594 213.769531 C 74.082031 215.410156 75.832031 216.402344 77.347656 216.105469 C 78.839844 215.816406 80.078125 214.285156 80.300781 212.460938 C 80.363281 211.949219 80.65625 211.515625 81.082031 211.296875 C 81.503906 211.085938 82.011719 211.101562 82.4375 211.339844 C 83.546875 211.960938 85.007812 211.734375 85.910156 210.800781 C 87.988281 208.648438 87.570312 204.75 84.894531 201.3125 C 84.597656 200.929688 84.664062 200.378906 85.046875 200.082031 C 85.429688 199.78125 85.980469 199.851562 86.28125 200.234375 C 89.511719 204.375 89.878906 209.222656 87.175781 212.023438 C 85.832031 213.410156 83.714844 213.820312 81.984375 213.074219 C 81.542969 215.492188 79.816406 217.417969 77.679688 217.832031 C 77.472656 217.867188 77.261719 217.894531 77.050781 217.902344 Z M 77.050781 217.902344 " fill-opacity="1" fill-rule="nonzero"/></g></g></g><g clip-path="url(#9ffe184104)"><g clip-path="url(#a3b403f33b)"><g clip-path="url(#9ed0ab1cea)"><path fill="#fff4c3" d="M 135.386719 154.484375 C 136.25 157.785156 135.128906 163.070312 133.859375 166.859375 C 131.96875 172.503906 129.523438 176.128906 125.519531 180.53125 C 121.511719 184.933594 116.253906 187.980469 110.9375 190.664062 C 102.691406 194.820312 94.085938 198.269531 85.246094 200.953125 C 75.253906 203.585938 64.839844 203.34375 55.46875 200.058594 C 41.640625 195.214844 36.035156 183.195312 34.742188 175.214844 C 33.257812 166.019531 35.34375 154.683594 35.34375 154.683594 C 35.34375 154.683594 29.21875 151.566406 26.640625 147.6875 C 24.351562 144.25 23.425781 140.046875 23.324219 135.917969 C 23.222656 131.789062 23.894531 127.683594 24.566406 123.609375 C 24.296875 118.058594 24.738281 112.515625 26.074219 107.160156 C 27.40625 101.804688 29.652344 96.625 33.074219 92.292969 C 37.894531 86.1875 44.75 82.074219 51.777344 78.3125 C 61.082031 76.25 71.007812 74.585938 79.960938 77.851562 C 88.144531 80.832031 94.335938 87.503906 100.195312 93.945312 C 104.335938 98.5 108.480469 103.058594 112.175781 107.980469 C 114.347656 110.875 116.4375 114.152344 116.347656 117.765625 C 116.28125 120.570312 113.554688 125.613281 113.554688 125.613281 C 113.554688 125.613281 129.445312 131.738281 135.386719 154.484375 Z M 135.386719 154.484375 " fill-opacity="1" fill-rule="nonzero"/></g></g></g><g clip-path="url(#c7a7f31029)"><g clip-path="url(#00d2c4a20c)"><g clip-path="url(#193f4b2e51)"><path fill="#272727" d="M 71.769531 203.695312 C 68.890625 203.828125 65.988281 203.753906 63.105469 203.328125 C 52.75 201.804688 44.875 197.332031 39.699219 190.039062 C 33.496094 181.300781 31.691406 169.015625 34.480469 154.519531 C 34.574219 154.042969 35.039062 153.730469 35.511719 153.824219 C 35.988281 153.914062 36.300781 154.375 36.207031 154.851562 C 33.511719 168.867188 35.214844 180.683594 41.132812 189.023438 C 46.019531 195.910156 53.5 200.136719 63.363281 201.589844 C 69.582031 202.507812 75.984375 201.722656 81.980469 200.742188 C 89.398438 199.523438 104.6875 194.050781 111.191406 190.285156 C 117.09375 186.863281 123.652344 182.765625 127.546875 178.273438 C 133.121094 171.84375 135.371094 163.390625 133.882812 154.472656 C 132.015625 143.292969 124.492188 133.140625 113.238281 126.617188 C 112.816406 126.375 112.675781 125.835938 112.917969 125.414062 C 113.160156 124.996094 113.699219 124.855469 114.121094 125.097656 C 125.828125 131.882812 133.660156 142.484375 135.617188 154.183594 C 137.191406 163.628906 134.796875 172.59375 128.871094 179.425781 C 124.808594 184.113281 118.101562 188.3125 112.074219 191.804688 C 105.304688 195.722656 89.984375 201.210938 82.265625 202.476562 C 78.867188 203.03125 75.339844 203.527344 71.769531 203.695312 Z M 71.769531 203.695312 " fill-opacity="1" fill-rule="nonzero"/></g></g></g><g clip-path="url(#9f60ef4711)"><g clip-path="url(#15fe4a1946)"><g clip-path="url(#122d22127c)"><path fill="#272727" d="M 41.53125 157.214844 C 41.460938 157.21875 41.390625 157.214844 41.316406 157.199219 C 34.1875 155.78125 28.523438 152.347656 25.371094 147.523438 C 22.433594 143.03125 22.859375 137.804688 23.265625 132.75 C 23.421875 130.828125 23.582031 128.84375 23.558594 126.914062 C 23.417969 114.40625 23.550781 107.46875 28.058594 98.558594 C 36.871094 81.144531 60.582031 68.605469 83.519531 78.703125 C 92.65625 82.726562 97.167969 88.007812 104.992188 97.761719 C 106.199219 99.265625 107.582031 100.699219 108.921875 102.085938 C 112.445312 105.730469 116.089844 109.503906 116.671875 114.835938 C 117.296875 120.5625 115.101562 126.8125 110.488281 132.4375 C 110.183594 132.808594 109.628906 132.867188 109.253906 132.558594 C 108.878906 132.25 108.824219 131.695312 109.132812 131.320312 C 113.441406 126.066406 115.5 120.28125 114.925781 115.027344 C 114.410156 110.292969 111.128906 106.898438 107.660156 103.304688 C 106.292969 101.890625 104.878906 100.429688 103.621094 98.859375 C 95.761719 89.0625 91.59375 84.179688 82.8125 80.3125 C 60.8125 70.621094 38.074219 82.652344 29.625 99.351562 C 25.296875 107.910156 25.171875 114.332031 25.316406 126.894531 C 25.339844 128.902344 25.175781 130.929688 25.019531 132.890625 C 24.617188 137.871094 24.234375 142.574219 26.839844 146.5625 C 29.730469 150.988281 34.996094 154.152344 41.660156 155.476562 C 42.136719 155.570312 42.445312 156.035156 42.351562 156.507812 C 42.269531 156.914062 41.925781 157.195312 41.53125 157.214844 Z M 41.53125 157.214844 " fill-opacity="1" fill-rule="nonzero"/></g></g></g><g clip-path="url(#d3be2597a9)"><g clip-path="url(#2936abc0ee)"><g clip-path="url(#073ef6e434)"><path fill="#fcbd78" d="M 75.136719 124.996094 C 76.742188 124.855469 78.382812 124.738281 79.886719 124.160156 C 81.394531 123.585938 82.769531 122.238281 82.726562 120.625 C 82.691406 119.164062 81.511719 117.957031 80.203125 117.308594 C 78.894531 116.65625 77.425781 116.40625 76.054688 115.890625 C 73.859375 115.066406 71.96875 113.574219 69.796875 112.699219 C 68.164062 112.039062 66.1875 111.789062 64.617188 112.441406 C 63.265625 113.003906 61.703125 113.9375 60.578125 115.996094 C 59.453125 118.054688 58.941406 120.410156 57.765625 122.441406 C 57.035156 123.707031 56.058594 124.832031 55.460938 126.164062 C 54.863281 127.496094 54.71875 129.179688 55.617188 130.332031 C 56.609375 131.601562 58.523438 131.773438 60.054688 131.261719 C 61.585938 130.753906 62.949219 129.835938 64.257812 128.894531 C 67.273438 126.722656 70.238281 125.425781 75.136719 124.996094 Z M 75.136719 124.996094 " fill-opacity="1" fill-rule="nonzero"/></g></g></g><g clip-path="url(#a139a51984)"><g clip-path="url(#4cf2213b7b)"><g clip-path="url(#5593cbb3e9)"><path fill="#272727" d="M 58.6875 132.402344 C 57.292969 132.464844 55.84375 132.050781 54.925781 130.871094 C 53.738281 129.351562 54.007812 127.257812 54.660156 125.804688 C 55.054688 124.929688 55.582031 124.152344 56.097656 123.402344 C 56.425781 122.925781 56.734375 122.472656 57.007812 122 C 57.578125 121.007812 57.988281 119.929688 58.417969 118.789062 C 58.820312 117.722656 59.238281 116.621094 59.808594 115.578125 C 61.128906 113.15625 62.992188 112.164062 64.28125 111.628906 C 65.917969 110.949219 68.046875 111.042969 70.125 111.882812 C 71.226562 112.328125 72.25 112.914062 73.238281 113.484375 C 74.292969 114.09375 75.292969 114.664062 76.367188 115.070312 C 76.875 115.261719 77.402344 115.414062 77.960938 115.578125 C 78.832031 115.832031 79.734375 116.09375 80.59375 116.519531 C 82.019531 117.230469 83.558594 118.675781 83.605469 120.605469 C 83.660156 122.707031 81.933594 124.316406 80.203125 124.980469 C 78.660156 125.574219 77.039062 125.714844 75.46875 125.851562 L 75.214844 125.871094 C 70.246094 126.308594 67.445312 127.679688 64.769531 129.605469 C 63.503906 130.519531 62.011719 131.535156 60.332031 132.097656 C 59.820312 132.265625 59.257812 132.375 58.6875 132.402344 Z M 66.425781 112.945312 C 65.886719 112.972656 65.390625 113.074219 64.957031 113.253906 C 63.824219 113.722656 62.394531 114.507812 61.347656 116.417969 C 60.839844 117.355469 60.460938 118.351562 60.0625 119.410156 C 59.625 120.566406 59.171875 121.761719 58.527344 122.878906 C 58.222656 123.410156 57.878906 123.910156 57.546875 124.394531 C 57.054688 125.113281 56.59375 125.789062 56.265625 126.523438 C 55.84375 127.464844 55.601562 128.882812 56.308594 129.792969 C 57.070312 130.769531 58.640625 130.804688 59.777344 130.429688 C 61.222656 129.945312 62.527344 129.054688 63.742188 128.179688 C 66.652344 126.085938 69.691406 124.59375 75.058594 124.121094 L 75.316406 124.101562 C 76.765625 123.976562 78.261719 123.84375 79.574219 123.339844 C 80.691406 122.914062 81.878906 121.886719 81.851562 120.648438 C 81.820312 119.496094 80.734375 118.550781 79.8125 118.09375 C 79.089844 117.734375 78.304688 117.507812 77.46875 117.265625 C 76.90625 117.101562 76.320312 116.929688 75.746094 116.714844 C 74.539062 116.261719 73.433594 115.625 72.359375 115.007812 C 71.382812 114.445312 70.457031 113.910156 69.46875 113.511719 C 68.429688 113.09375 67.367188 112.902344 66.425781 112.945312 Z M 66.425781 112.945312 " fill-opacity="1" fill-rule="nonzero"/></g></g></g><g clip-path="url(#3571ed78cc)"><g clip-path="url(#9fe13b1409)"><g clip-path="url(#6ab93b2e26)"><path fill="#fff4c3" d="M 36.738281 177.054688 C 32.082031 177.308594 27.308594 175.714844 23.644531 172.679688 C 19.976562 169.644531 17.453125 165.199219 16.714844 160.472656 C 16.390625 158.375 16.503906 155.972656 18.007812 154.539062 C 19.691406 152.9375 22.351562 153.210938 24.660156 153.585938 C 30.894531 154.597656 37.125 155.609375 44.859375 157.050781 C 43.328125 164.378906 39.6875 171.253906 36.738281 177.054688 Z M 36.738281 177.054688 " fill-opacity="1" fill-rule="nonzero"/></g></g></g><g clip-path="url(#56fe47bce1)"><g clip-path="url(#836ec60861)"><g clip-path="url(#749c49f36e)"><path fill="#fcc3b2" d="M 106.730469 112.132812 C 106.753906 112.632812 106.679688 113.121094 106.507812 113.59375 C 106.339844 114.066406 106.085938 114.488281 105.746094 114.859375 C 105.410156 115.230469 105.011719 115.523438 104.558594 115.738281 C 104.105469 115.953125 103.625 116.070312 103.125 116.09375 C 102.621094 116.117188 102.136719 116.046875 101.664062 115.875 C 101.191406 115.703125 100.765625 115.449219 100.394531 115.113281 C 100.023438 114.773438 99.730469 114.378906 99.519531 113.921875 C 99.304688 113.46875 99.183594 112.992188 99.160156 112.488281 C 99.136719 111.988281 99.210938 111.5 99.382812 111.027344 C 99.550781 110.554688 99.804688 110.132812 100.144531 109.761719 C 100.480469 109.390625 100.878906 109.097656 101.332031 108.882812 C 101.785156 108.667969 102.265625 108.550781 102.765625 108.527344 C 103.269531 108.503906 103.757812 108.578125 104.230469 108.746094 C 104.703125 108.917969 105.125 109.171875 105.496094 109.507812 C 105.867188 109.847656 106.160156 110.242188 106.375 110.699219 C 106.585938 111.152344 106.707031 111.628906 106.730469 112.132812 Z M 106.730469 112.132812 " fill-opacity="1" fill-rule="nonzero"/></g></g></g><g clip-path="url(#9ab58e4bb0)"><g clip-path="url(#cea06c75f7)"><g clip-path="url(#35ea86b564)"><path fill="#fcc3b2" d="M 38.5 136.558594 C 38.523438 137.0625 38.449219 137.546875 38.277344 138.019531 C 38.109375 138.492188 37.855469 138.914062 37.515625 139.285156 C 37.179688 139.660156 36.78125 139.949219 36.328125 140.164062 C 35.875 140.378906 35.394531 140.496094 34.894531 140.519531 C 34.390625 140.546875 33.902344 140.472656 33.429688 140.300781 C 32.957031 140.132812 32.535156 139.878906 32.164062 139.539062 C 31.792969 139.199219 31.5 138.804688 31.285156 138.351562 C 31.074219 137.894531 30.953125 137.417969 30.929688 136.914062 C 30.90625 136.414062 30.980469 135.925781 31.152344 135.453125 C 31.320312 134.980469 31.574219 134.558594 31.914062 134.1875 C 32.25 133.816406 32.648438 133.523438 33.101562 133.308594 C 33.554688 133.097656 34.035156 132.976562 34.535156 132.953125 C 35.039062 132.929688 35.523438 133.003906 35.996094 133.171875 C 36.46875 133.34375 36.894531 133.597656 37.265625 133.933594 C 37.636719 134.273438 37.929688 134.667969 38.140625 135.125 C 38.355469 135.578125 38.476562 136.058594 38.5 136.558594 Z M 38.5 136.558594 " fill-opacity="1" fill-rule="nonzero"/></g></g></g><g clip-path="url(#d426b7c9d9)"><g clip-path="url(#07efbad523)"><g clip-path="url(#95270654b4)"><path fill="#fff4c3" d="M 127.710938 143.308594 C 131.214844 140.222656 133.5 135.742188 133.988281 131.007812 C 134.476562 126.273438 133.160156 121.332031 130.375 117.445312 C 129.136719 115.71875 127.371094 114.085938 125.296875 114.117188 C 122.96875 114.152344 121.265625 116.214844 119.878906 118.097656 C 116.144531 123.1875 112.40625 128.277344 109.070312 133.640625 C 112.910156 138.019531 118.160156 140.871094 123.292969 143.628906 C 124.273438 144.15625 125.78125 145.007812 127.710938 143.308594 Z M 127.710938 143.308594 " fill-opacity="1" fill-rule="nonzero"/></g></g></g><g clip-path="url(#07de1acbf8)"><g clip-path="url(#5b7d4297fb)"><g clip-path="url(#d11cd9e2ba)"><path fill="#272727" d="M 90.605469 107.261719 C 92.257812 107.414062 94.019531 107.609375 95.300781 108.667969 C 95.746094 109.035156 96.132812 109.550781 96.121094 110.128906 C 96.105469 110.734375 95.648438 111.261719 95.101562 111.527344 C 94.558594 111.789062 93.9375 111.84375 93.332031 111.882812 C 92.011719 111.972656 90.6875 112.011719 89.367188 111.902344 C 88.605469 111.839844 87.828125 111.722656 87.167969 111.339844 C 86.507812 110.957031 85.980469 110.261719 85.992188 109.5 C 86.007812 108.664062 86.660156 107.945312 87.425781 107.601562 C 88.1875 107.253906 89.050781 107.117188 90.605469 107.261719 Z M 90.605469 107.261719 " fill-opacity="1" fill-rule="nonzero"/></g></g></g><g clip-path="url(#ae959dee63)"><g clip-path="url(#a00fb47f93)"><g clip-path="url(#c5620bcebb)"><path fill="#272727" d="M 41.046875 125.003906 C 39.867188 126.167969 38.628906 127.441406 38.3125 129.070312 C 38.199219 129.636719 38.226562 130.28125 38.605469 130.722656 C 39 131.179688 39.6875 131.292969 40.277344 131.152344 C 40.867188 131.011719 41.378906 130.660156 41.871094 130.308594 C 42.949219 129.539062 44 128.726562 44.949219 127.804688 C 45.496094 127.273438 46.023438 126.6875 46.292969 125.972656 C 46.558594 125.257812 46.523438 124.386719 46.03125 123.804688 C 45.488281 123.167969 44.527344 123.027344 43.71875 123.246094 C 42.910156 123.464844 42.15625 123.90625 41.046875 125.003906 Z M 41.046875 125.003906 " fill-opacity="1" fill-rule="nonzero"/></g></g></g><g clip-path="url(#37b6b1c14f)"><g clip-path="url(#92789dbc54)"><g clip-path="url(#cfb21370bb)"><path fill="#272727" d="M 127.753906 144.183594 C 127.496094 144.195312 127.234375 144.097656 127.050781 143.886719 C 126.730469 143.523438 126.765625 142.96875 127.132812 142.648438 C 130.46875 139.710938 132.648438 135.433594 133.113281 130.917969 C 133.582031 126.394531 132.320312 121.671875 129.660156 117.957031 C 128.679688 116.589844 127.132812 114.96875 125.308594 114.996094 C 123.398438 115.019531 121.863281 116.882812 120.589844 118.617188 L 109.375 133.890625 C 109.085938 134.28125 108.539062 134.363281 108.148438 134.078125 C 107.757812 133.789062 107.671875 133.242188 107.960938 132.851562 L 119.171875 117.578125 C 120.273438 116.078125 122.316406 113.269531 125.28125 113.242188 C 127.863281 113.199219 129.863281 115.226562 131.089844 116.933594 C 133.996094 120.992188 135.371094 126.152344 134.863281 131.097656 C 134.351562 136.050781 131.957031 140.738281 128.292969 143.96875 C 128.136719 144.105469 127.945312 144.175781 127.753906 144.183594 Z M 127.753906 144.183594 " fill-opacity="1" fill-rule="nonzero"/></g></g></g><g clip-path="url(#96307f2c0e)"><g clip-path="url(#8a6d783db7)"><g clip-path="url(#8fb4af3066)"><path fill="#272727" d="M 36.648438 177.941406 C 31.816406 178.167969 26.878906 176.5 23.082031 173.355469 C 19.253906 170.1875 16.617188 165.539062 15.847656 160.609375 C 15.523438 158.535156 15.53125 155.683594 17.398438 153.902344 C 19.542969 151.867188 22.960938 152.417969 24.800781 152.71875 L 43.5 155.753906 C 43.980469 155.832031 44.304688 156.28125 44.226562 156.761719 C 44.148438 157.238281 43.699219 157.566406 43.21875 157.488281 L 24.519531 154.453125 C 22.390625 154.109375 20.003906 153.851562 18.613281 155.175781 C 17.222656 156.5 17.371094 158.976562 17.585938 160.339844 C 18.289062 164.851562 20.699219 169.105469 24.203125 172.003906 C 27.667969 174.871094 32.164062 176.390625 36.566406 176.183594 C 36.609375 176.183594 36.652344 176.175781 36.699219 176.175781 C 37.179688 176.15625 37.589844 176.523438 37.617188 177.007812 C 37.644531 177.492188 37.273438 177.90625 36.785156 177.933594 C 36.742188 177.933594 36.695312 177.9375 36.648438 177.941406 Z M 36.648438 177.941406 " fill-opacity="1" fill-rule="nonzero"/></g></g></g><g clip-path="url(#a9f80610a8)"><g clip-path="url(#5e99fe1e0b)"><g clip-path="url(#92f15618c1)"><path fill="#fcbd78" d="M 118.855469 177.523438 C 111.683594 180.054688 105.199219 173.5625 103.035156 167.113281 C 102.296875 164.910156 102.105469 162.359375 103.308594 160.375 C 104.515625 158.390625 107.460938 157.414062 109.492188 158.46875 C 109.589844 156.378906 111.214844 154.449219 113.261719 154.007812 C 115.308594 153.5625 117.585938 154.644531 118.714844 156.214844 C 119.707031 154.886719 121.628906 154.449219 123.207031 154.972656 C 124.78125 155.496094 125.996094 156.839844 126.648438 158.367188 C 127.296875 159.894531 127.433594 161.597656 127.363281 163.253906 C 127.121094 168.785156 125.335938 175.234375 118.855469 177.523438 Z M 118.855469 177.523438 " fill-opacity="1" fill-rule="nonzero"/></g></g></g><g clip-path="url(#f492782b12)"><g clip-path="url(#7236af98ad)"><g clip-path="url(#bacf53b884)"><path fill="#272727" d="M 116.136719 178.945312 C 114.355469 179.03125 112.558594 178.648438 110.832031 177.804688 C 107.042969 175.957031 103.738281 171.964844 102.203125 167.390625 C 101.242188 164.53125 101.371094 161.878906 102.558594 159.917969 C 103.789062 157.894531 106.496094 156.765625 108.796875 157.289062 C 109.34375 155.238281 111.046875 153.585938 113.078125 153.148438 C 115.015625 152.730469 117.222656 153.421875 118.753906 154.921875 C 120.023438 153.90625 121.855469 153.597656 123.484375 154.136719 C 125.203125 154.707031 126.648438 156.125 127.457031 158.023438 C 128.074219 159.480469 128.332031 161.207031 128.242188 163.292969 C 127.898438 171.164062 124.753906 176.371094 119.148438 178.351562 C 118.160156 178.699219 117.148438 178.898438 116.136719 178.945312 Z M 107.4375 158.917969 C 106.109375 158.980469 104.734375 159.71875 104.0625 160.832031 C 102.824219 162.867188 103.410156 165.464844 103.867188 166.832031 C 105.238281 170.914062 108.273438 174.601562 111.601562 176.226562 C 113.910156 177.351562 116.253906 177.511719 118.566406 176.691406 C 124.722656 174.519531 126.269531 168.164062 126.484375 163.21875 C 126.5625 161.394531 126.351562 159.921875 125.835938 158.710938 C 125.238281 157.296875 124.148438 156.210938 122.929688 155.804688 C 121.839844 155.441406 120.566406 155.667969 119.769531 156.363281 C 119.140625 156.914062 118.195312 156.871094 117.617188 156.273438 C 116.515625 155.128906 114.839844 154.566406 113.449219 154.867188 C 112.035156 155.171875 110.808594 156.402344 110.464844 157.855469 C 110.363281 158.28125 110.101562 158.640625 109.730469 158.863281 C 109.367188 159.082031 108.933594 159.140625 108.519531 159.03125 C 108.171875 158.9375 107.804688 158.902344 107.4375 158.917969 Z M 107.4375 158.917969 " fill-opacity="1" fill-rule="nonzero"/></g></g></g><g clip-path="url(#a6a27d4727)"><g clip-path="url(#e7313de43a)"><g clip-path="url(#5d6ae56361)"><g clip-path="url(#0c5f0b71b9)"><path fill="#9ca9ac" d="M 199.664062 194.550781 L 199.65625 194.539062 C 199.5625 194.605469 199.464844 194.667969 199.363281 194.726562 C 197.886719 195.585938 195.945312 195.476562 193.652344 194.457031 L 133.847656 214.839844 C 133.847656 214.839844 122.335938 211.765625 113.210938 196.074219 C 104.085938 180.382812 107.105469 168.859375 107.105469 168.859375 L 154.398438 126.960938 C 154.644531 124.460938 155.511719 122.722656 156.988281 121.863281 L 159.238281 120.554688 C 164.921875 117.25 177.476562 128.230469 190.71875 151 C 203.960938 173.769531 207.296875 190.113281 201.609375 193.417969 Z M 199.664062 194.550781 " fill-opacity="1" fill-rule="nonzero"/></g></g></g></g><g clip-path="url(#ac71ee6fa8)"><g clip-path="url(#a9face4f94)"><g clip-path="url(#e4f4490c7d)"><g clip-path="url(#1e9f5760cb)"><path fill="#6e7e7f" d="M 167.878906 164.28125 C 177.683594 181.140625 187.109375 191.535156 193.652344 194.457031 L 188.792969 196.113281 C 182.542969 192.792969 176.359375 187.589844 171.074219 179.578125 C 150.339844 148.15625 152.167969 128.941406 152.167969 128.941406 L 154.402344 126.960938 C 153.703125 134.089844 158.078125 147.425781 167.878906 164.28125 Z M 139.496094 140.164062 L 138.433594 141.105469 C 138.757812 147.953125 143.386719 159.738281 151.550781 173.777344 C 159.714844 187.820312 167.671875 197.671875 173.457031 201.339844 L 174.804688 200.878906 C 169.722656 198.085938 161.703125 189.039062 152.503906 173.222656 C 143.308594 157.410156 139.410156 145.964844 139.496094 140.164062 Z M 133.289062 145.664062 L 132.300781 146.539062 C 133.238281 153.546875 137.75 164.542969 145.253906 177.441406 C 152.753906 190.339844 160.074219 199.699219 165.707031 203.980469 L 166.953125 203.554688 C 161.863281 199.933594 154.515625 191.171875 146.207031 176.886719 C 137.902344 162.597656 133.917969 151.878906 133.289062 145.664062 Z M 127.652344 150.65625 L 126.699219 151.496094 C 128.042969 158.527344 132.429688 168.863281 139.398438 180.847656 C 146.367188 192.828125 153.179688 201.753906 158.625 206.394531 L 159.828125 205.984375 C 154.820312 201.890625 147.996094 193.429688 140.355469 180.289062 C 132.710938 167.148438 128.734375 157.03125 127.652344 150.65625 Z M 172.199219 161.769531 C 183.367188 180.976562 195.789062 193.710938 200.414062 191.019531 C 205.039062 188.328125 200.113281 171.234375 188.945312 152.03125 C 177.777344 132.828125 165.355469 120.09375 160.730469 122.78125 C 156.105469 125.472656 161.03125 142.566406 172.199219 161.769531 Z M 172.199219 161.769531 " fill-opacity="1" fill-rule="nonzero"/></g></g></g></g><g clip-path="url(#a860f05acc)"><g clip-path="url(#926bc569d0)"><g clip-path="url(#11eb390559)"><g clip-path="url(#b316d55cf6)"><path fill="#384249" d="M 170.851562 216.417969 C 167.019531 217.644531 162.9375 216.820312 159.355469 214.097656 C 155.5 211.167969 152.328125 207.554688 149.859375 203.3125 C 144.1875 193.558594 142.222656 180.464844 144.160156 164.65625 C 146.25 147.597656 152.183594 133.210938 152.246094 133.066406 L 152.476562 132.507812 L 154.894531 133.800781 C 155.167969 133.949219 155.269531 134.28125 155.125 134.554688 C 154.980469 134.824219 154.648438 134.925781 154.378906 134.78125 L 153.039062 134.0625 C 151.933594 136.871094 147.089844 149.804688 145.253906 164.820312 C 143.351562 180.34375 144.375 201.339844 160.015625 213.21875 C 163.304688 215.71875 167.03125 216.480469 170.507812 215.371094 C 174.316406 214.152344 179.640625 210.121094 183.558594 197.902344 L 184.839844 197.519531 C 180.765625 210.742188 174.984375 215.09375 170.851562 216.417969 Z M 170.851562 216.417969 " fill-opacity="1" fill-rule="nonzero"/></g></g></g></g><g clip-path="url(#ad31bf75aa)"><g clip-path="url(#819d332cd2)"><g clip-path="url(#785a02a068)"><g clip-path="url(#7602666525)"><path fill="#536363" d="M 200.414062 191.023438 C 196.234375 193.453125 185.679688 183.277344 175.441406 167.113281 C 186.175781 166.035156 194.476562 162.386719 194.476562 162.386719 C 201.605469 177.0625 204.183594 188.832031 200.414062 191.023438 Z M 200.414062 191.023438 " fill-opacity="1" fill-rule="nonzero"/></g></g></g></g><g clip-path="url(#b8221f18ec)"><g clip-path="url(#8e7a065ed5)"><g clip-path="url(#71be26eac8)"><path fill="#3d81a8" d="M 243.777344 252.039062 C 245.234375 251.363281 246.691406 250.691406 248.71875 249.753906 C 246.863281 246.949219 243.007812 246.074219 244.007812 242.535156 C 245.058594 238.796875 248.710938 239.277344 251.53125 238.4375 C 253.863281 237.738281 256.191406 236.980469 258.457031 236.09375 C 270.066406 231.554688 271.667969 224.640625 263.277344 215.171875 C 257.949219 209.15625 251.519531 204.589844 244.320312 201.0625 C 227.769531 192.953125 210.28125 187.765625 192.257812 184.21875 C 190.421875 183.855469 187.597656 184.125 187.6875 181.394531 C 187.75 179.269531 190.324219 179.257812 191.976562 178.628906 C 192.554688 178.4375 193.148438 178.296875 193.753906 178.207031 C 230.636719 171.464844 263.378906 177.75 288.496094 208.203125 C 292.136719 212.617188 296.332031 215.824219 302.554688 215.195312 C 304.28125 215.019531 306.449219 215.0625 307.398438 217.011719 C 308.457031 219.191406 306.078125 220.058594 305.304688 221.382812 C 308.792969 220.886719 312.339844 220.023438 315.898438 219.992188 C 319.050781 219.964844 323.085938 220.09375 323.730469 224.183594 C 324.429688 228.574219 320.71875 230.125 317.261719 230.839844 C 313.703125 231.578125 310.003906 231.605469 306.375 232.011719 C 304.605469 232.210938 302.304688 231.867188 301.566406 233.894531 C 300.6875 236.308594 303.03125 237.410156 304.476562 238.710938 C 307.480469 241.417969 311.203125 243.292969 313.519531 246.804688 C 315.273438 249.457031 315.59375 252.214844 313.765625 254.765625 C 311.765625 257.558594 308.894531 257.347656 306.097656 255.976562 C 303.910156 254.90625 301.820312 253.648438 299.671875 252.492188 C 297.871094 251.519531 296.347656 251.21875 295.152344 253.535156 C 291.105469 261.34375 290.980469 261.453125 283.40625 256.792969 C 279.59375 254.433594 276.992188 255.460938 274.550781 258.675781 C 271.945312 262.101562 269.152344 265.28125 264.855469 266.722656 C 257.667969 269.140625 254.378906 266.957031 254.125 259.183594 C 251.128906 259.78125 248.164062 260.691406 245.113281 260.203125 C 242.851562 259.835938 240.410156 259.15625 239.863281 256.6875 C 239.242188 253.882812 241.742188 252.996094 243.777344 252.039062 Z M 243.777344 252.039062 " fill-opacity="1" fill-rule="nonzero"/></g></g></g><g clip-path="url(#01cc23b6eb)"><g clip-path="url(#4eba255eee)"><g clip-path="url(#4954e60069)"><path fill="#3d81a8" d="M 321.792969 234.0625 C 329.234375 234.195312 335.75 231.140625 342.605469 229.601562 C 346.710938 228.683594 351.628906 228.902344 352.101562 234.316406 C 352.546875 239.410156 347.699219 240.253906 343.863281 240.417969 C 336.03125 240.761719 328.824219 238.171875 321.792969 234.0625 Z M 321.792969 234.0625 " fill-opacity="1" fill-rule="nonzero"/></g></g></g><g clip-path="url(#dbd9569bf3)"><g clip-path="url(#dd9b73bf7b)"><g clip-path="url(#8e8e8e844c)"><path fill="#3d81a8" d="M 216.492188 249.53125 C 223.300781 245.664062 230.578125 246.132812 237.820312 247.089844 L 238.257812 248.925781 C 232.726562 252.199219 227.304688 255.675781 221.625 258.667969 C 218.726562 260.195312 214.976562 260.960938 212.957031 257.425781 C 210.886719 253.800781 213.605469 251.167969 216.492188 249.53125 Z M 216.492188 249.53125 " fill-opacity="1" fill-rule="nonzero"/></g></g></g><g clip-path="url(#8d9efc521d)"><g clip-path="url(#8974fe5396)"><g clip-path="url(#39914e439c)"><path fill="#3d81a8" d="M 340.851562 254.8125 C 339.027344 258.574219 335.070312 258.605469 331.800781 256.898438 C 325.542969 253.628906 321.09375 248.542969 317.632812 240.699219 C 324.832031 243.167969 330.578125 245.003906 336.214844 247.121094 C 339.664062 248.386719 342.871094 250.636719 340.851562 254.8125 Z M 340.851562 254.8125 " fill-opacity="1" fill-rule="nonzero"/></g></g></g><g clip-path="url(#9f9c210b5c)"><g clip-path="url(#dcc1d10ffb)"><g clip-path="url(#4decd5c8c4)"><path fill="#3d81a8" d="M 298.636719 274.554688 C 301.644531 276.703125 303.113281 279.667969 300.34375 282.808594 C 297.722656 285.773438 294.582031 284.246094 292.226562 282.191406 C 287.09375 277.734375 286.089844 271.691406 286.796875 264.929688 C 290.796875 268.296875 294.539062 271.628906 298.636719 274.554688 Z M 298.636719 274.554688 " fill-opacity="1" fill-rule="nonzero"/></g></g></g><g clip-path="url(#eee8f77c86)"><g clip-path="url(#4b1fe08bfc)"><g clip-path="url(#3af21f8960)"><path fill="#3d81a8" d="M 269.375 280.171875 C 273.011719 274.914062 277.207031 270.019531 279.035156 262.929688 C 283.511719 270.679688 281.4375 281.578125 275.554688 285.699219 C 273.601562 287.0625 271.5 287.984375 269.445312 286.226562 C 267.292969 284.386719 268.066406 282.058594 269.375 280.171875 Z M 269.375 280.171875 " fill-opacity="1" fill-rule="nonzero"/></g></g></g></svg>