<svg xmlns="http://www.w3.org/2000/svg" xmlns:xlink="http://www.w3.org/1999/xlink" width="500" zoomAndPan="magnify" viewBox="0 0 375 374.999991" height="500" preserveAspectRatio="xMidYMid meet" version="1.0"><path fill="#fff4c3" d="M 82.527344 196.96875 C 82.527344 196.96875 84.578125 204.457031 87.472656 203.230469 C 87.472656 203.230469 94.390625 198.3125 94.5 200.519531 C 94.5 200.519531 91.140625 210.140625 93.894531 210.5 L 99.875 209.820312 C 99.875 209.820312 101.921875 210.535156 100.257812 211.636719 C 100.257812 211.636719 81.144531 225.734375 79.992188 219.046875 C 79.992188 219.046875 79.117188 198.5625 82.527344 196.96875 Z M 82.527344 196.96875 " fill-opacity="1" fill-rule="nonzero"/><path fill="#fff4c3" d="M 352.683594 78.949219 C 352.683594 78.949219 358.167969 83.832031 359.832031 81.375 C 359.832031 81.375 362.789062 73.910156 364.003906 75.609375 C 364.003906 75.609375 366.296875 84.96875 368.660156 83.835938 L 373.058594 80.21875 C 373.058594 80.21875 375.046875 79.734375 374.289062 81.464844 C 374.289062 81.464844 366.390625 102.476562 362.023438 97.769531 C 362.027344 97.765625 350.808594 81.964844 352.683594 78.949219 Z M 352.683594 78.949219 " fill-opacity="1" fill-rule="nonzero"/><path fill="#fff4c3" d="M 350.847656 110.914062 C 350.847656 110.914062 354.808594 117.09375 357.074219 115.175781 C 357.074219 115.175781 361.9375 108.792969 362.648438 110.753906 C 362.648438 110.753906 362.335938 120.386719 364.90625 119.933594 L 370.121094 117.640625 C 370.121094 117.640625 372.164062 117.707031 370.972656 119.171875 C 370.972656 119.171875 357.691406 137.265625 354.761719 131.558594 C 354.765625 131.558594 348.230469 113.3125 350.847656 110.914062 Z M 350.847656 110.914062 " fill-opacity="1" fill-rule="nonzero"/><path fill="#fff4c3" d="M 342.664062 148.601562 C 342.664062 148.601562 344.492188 155.710938 347.242188 154.601562 C 347.242188 154.601562 353.863281 150.0625 353.921875 152.148438 C 353.921875 152.148438 350.605469 161.191406 353.195312 161.570312 L 358.867188 161.023438 C 358.867188 161.023438 360.78125 161.730469 359.191406 162.75 C 359.191406 162.75 340.910156 175.765625 339.917969 169.433594 C 339.917969 169.433594 339.421875 150.0625 342.664062 148.601562 Z M 342.664062 148.601562 " fill-opacity="1" fill-rule="nonzero"/><path fill="#fff4c3" d="M 322.792969 177.871094 C 322.792969 177.871094 321.933594 185.164062 324.902344 185.117188 C 324.902344 185.117188 332.710938 183.265625 332.015625 185.234375 C 332.015625 185.234375 325.664062 192.476562 327.941406 193.761719 L 333.429688 195.296875 C 333.429688 195.296875 334.960938 196.644531 333.109375 197.023438 C 333.109375 197.023438 311.367188 202.585938 312.722656 196.3125 C 312.726562 196.3125 319.246094 178.066406 322.792969 177.871094 Z M 322.792969 177.871094 " fill-opacity="1" fill-rule="nonzero"/><path fill="#fff4c3" d="M 247.933594 201.347656 C 247.933594 201.347656 242.027344 205.703125 244.089844 207.839844 C 244.089844 207.839844 250.777344 212.273438 248.867188 213.113281 C 248.867188 213.113281 239.238281 213.425781 239.851562 215.96875 L 242.484375 221.023438 C 242.484375 221.023438 242.546875 223.0625 241.007812 221.964844 C 241.007812 221.964844 222.089844 209.894531 227.589844 206.601562 C 227.589844 206.605469 245.371094 198.894531 247.933594 201.347656 Z M 247.933594 201.347656 " fill-opacity="1" fill-rule="nonzero"/><path fill="#fff4c3" d="M 202.167969 198.429688 C 202.167969 198.429688 200.476562 205.570312 203.429688 205.871094 C 203.429688 205.871094 211.402344 204.9375 210.484375 206.808594 C 210.484375 206.808594 203.332031 213.265625 205.449219 214.808594 L 210.71875 216.972656 C 210.71875 216.972656 212.085938 218.488281 210.203125 218.644531 C 210.203125 218.644531 187.960938 221.648438 190.039062 215.578125 C 190.039062 215.578125 198.628906 198.210938 202.167969 198.429688 Z M 202.167969 198.429688 " fill-opacity="1" fill-rule="nonzero"/><path fill="#fff4c3" d="M 155.292969 197.292969 C 155.292969 197.292969 152.457031 204.054688 155.320312 204.839844 C 155.320312 204.839844 163.335938 205.21875 162.125 206.921875 C 162.125 206.921875 154.007812 212.121094 155.84375 213.988281 L 160.691406 216.984375 C 160.691406 216.984375 161.792969 218.703125 159.90625 218.550781 C 159.90625 218.550781 137.476562 217.871094 140.515625 212.226562 C 140.515625 212.222656 151.835938 196.496094 155.292969 197.292969 Z M 155.292969 197.292969 " fill-opacity="1" fill-rule="nonzero"/><path fill="#fff4c3" d="M 118.773438 208.222656 C 118.773438 208.222656 117.304688 215.414062 120.269531 215.621094 C 120.269531 215.621094 128.203125 214.429688 127.347656 216.339844 C 127.347656 216.339844 120.40625 223.015625 122.566406 224.492188 L 127.90625 226.484375 C 127.90625 226.484375 129.320312 227.960938 127.441406 228.179688 C 127.441406 228.179688 105.304688 231.886719 107.191406 225.757812 C 107.191406 225.753906 115.226562 208.113281 118.773438 208.222656 Z M 118.773438 208.222656 " fill-opacity="1" fill-rule="nonzero"/><path fill="#fff4c3" d="M 53.9375 250.953125 C 53.9375 250.953125 55.410156 258.140625 58.210938 257.171875 C 58.210938 257.171875 65.046875 252.964844 65.003906 255.054688 C 65.003906 255.054688 61.238281 263.921875 63.808594 264.429688 L 69.503906 264.171875 C 69.503906 264.171875 71.378906 264.972656 69.734375 265.910156 C 69.734375 265.910156 50.828125 278 50.15625 271.621094 C 50.15625 271.617188 50.632812 252.242188 53.9375 250.953125 Z M 53.9375 250.953125 " fill-opacity="1" fill-rule="nonzero"/><path fill="#fff4c3" d="M 33.296875 282.492188 C 33.296875 282.492188 34.765625 289.683594 37.574219 288.714844 C 37.574219 288.714844 44.40625 284.507812 44.363281 286.59375 C 44.363281 286.59375 40.601562 295.460938 43.167969 295.96875 L 48.859375 295.710938 C 48.859375 295.710938 50.738281 296.511719 49.097656 297.449219 C 49.097656 297.449219 30.1875 309.539062 29.515625 303.160156 C 29.515625 303.160156 29.988281 283.785156 33.296875 282.492188 Z M 33.296875 282.492188 " fill-opacity="1" fill-rule="nonzero"/><path fill="#fff4c3" d="M 79.597656 227.078125 C 79.597656 227.078125 79.9375 234.40625 82.863281 233.878906 C 82.863281 233.878906 90.261719 230.78125 89.902344 232.835938 C 89.902344 232.835938 84.808594 241.015625 87.265625 241.914062 L 92.933594 242.535156 C 92.933594 242.535156 94.664062 243.617188 92.898438 244.289062 C 92.898438 244.289062 72.347656 253.3125 72.671875 246.910156 C 72.671875 246.910156 76.132812 227.839844 79.597656 227.078125 Z M 79.597656 227.078125 " fill-opacity="1" fill-rule="nonzero"/><path fill="#fff4c3" d="M 283.347656 195.882812 C 283.347656 195.882812 279.078125 201.851562 281.695312 203.246094 C 281.695312 203.246094 289.425781 205.402344 287.867188 206.789062 C 287.867188 206.789062 278.804688 210.058594 280.175781 212.285156 L 284.238281 216.28125 C 284.238281 216.28125 284.933594 218.203125 283.125 217.636719 C 283.125 217.636719 261.402344 212 265.625 207.164062 C 265.625 207.164062 280.152344 194.339844 283.347656 195.882812 Z M 283.347656 195.882812 " fill-opacity="1" fill-rule="nonzero"/><path fill="#fff4c3" d="M 332.144531 56.839844 C 332.144531 56.839844 339.320312 59.796875 340.125 56.761719 C 340.125 56.761719 340.472656 48.28125 342.28125 49.550781 C 342.28125 49.550781 347.832031 58.09375 349.800781 56.140625 L 352.933594 50.992188 C 352.933594 50.992188 354.75 49.816406 354.597656 51.804688 C 354.597656 51.804688 354.035156 75.542969 348.042969 72.367188 C 348.039062 72.367188 331.3125 60.503906 332.144531 56.839844 Z M 332.144531 56.839844 " fill-opacity="1" fill-rule="nonzero"/><path fill="#fff4c3" d="M 323.660156 95.601562 C 323.660156 95.601562 330.839844 98.558594 331.644531 95.523438 C 331.644531 95.523438 331.988281 87.046875 333.796875 88.3125 C 333.796875 88.3125 339.351562 96.855469 341.316406 94.902344 L 344.449219 89.753906 C 344.449219 89.753906 346.261719 88.578125 346.117188 90.5625 C 346.117188 90.5625 345.554688 114.308594 339.5625 111.128906 C 339.558594 111.125 322.828125 99.269531 323.660156 95.601562 Z M 323.660156 95.601562 " fill-opacity="1" fill-rule="nonzero"/><path fill="#fff4c3" d="M 318.785156 131.761719 C 318.785156 131.761719 325.964844 134.71875 326.765625 131.679688 C 326.765625 131.679688 327.113281 123.199219 328.925781 124.46875 C 328.925781 124.46875 334.472656 133.011719 336.441406 131.058594 L 339.574219 125.910156 C 339.574219 125.910156 341.386719 124.734375 341.238281 126.722656 C 341.238281 126.722656 340.675781 150.46875 334.679688 147.285156 C 334.679688 147.285156 317.957031 135.425781 318.785156 131.761719 Z M 318.785156 131.761719 " fill-opacity="1" fill-rule="nonzero"/><path fill="#fff4c3" d="M 302.910156 153.105469 C 302.910156 153.105469 307.820312 159.121094 309.972656 156.828125 C 309.972656 156.828125 314.304688 149.527344 315.292969 151.5 C 315.292969 151.5 316.125 161.660156 318.78125 160.871094 L 323.980469 157.828125 C 323.980469 157.828125 326.136719 157.65625 325.0625 159.335938 C 325.0625 159.335938 313.296875 179.96875 309.53125 174.320312 C 309.53125 174.320312 300.4375 155.941406 302.910156 153.105469 Z M 302.910156 153.105469 " fill-opacity="1" fill-rule="nonzero"/><path fill="#fff4c3" d="M 296.078125 167.511719 C 296.078125 167.511719 292.066406 174.160156 294.945312 175.414062 C 294.945312 175.414062 303.273438 177.042969 301.75 178.640625 C 301.75 178.640625 292.457031 182.832031 294.097656 185.074219 L 298.707031 188.949219 C 298.707031 188.949219 299.597656 190.917969 297.652344 190.472656 C 297.652344 190.472656 274.265625 186.316406 278.324219 180.871094 C 278.320312 180.875 292.574219 166.140625 296.078125 167.511719 Z M 296.078125 167.511719 " fill-opacity="1" fill-rule="nonzero"/><path fill="#fff4c3" d="M 256.578125 173.304688 C 256.578125 173.304688 256.816406 181.066406 259.914062 180.554688 C 259.914062 180.554688 267.796875 177.402344 267.375 179.574219 C 267.375 179.574219 261.851562 188.136719 264.441406 189.128906 L 270.417969 189.878906 C 270.417969 189.878906 272.234375 191.054688 270.359375 191.734375 C 270.359375 191.734375 248.460938 200.9375 248.917969 194.167969 C 248.917969 194.167969 252.890625 174.054688 256.578125 173.304688 Z M 256.578125 173.304688 " fill-opacity="1" fill-rule="nonzero"/><path fill="#fff4c3" d="M 217.238281 173.304688 C 217.238281 173.304688 217.472656 181.066406 220.578125 180.554688 C 220.578125 180.554688 228.457031 177.402344 228.039062 179.574219 C 228.039062 179.574219 222.515625 188.136719 225.101562 189.128906 L 231.082031 189.878906 C 231.082031 189.878906 232.898438 191.054688 231.019531 191.734375 C 231.019531 191.734375 209.125 200.9375 209.578125 194.167969 C 209.574219 194.167969 213.550781 174.054688 217.238281 173.304688 Z M 217.238281 173.304688 " fill-opacity="1" fill-rule="nonzero"/><path fill="#fff4c3" d="M 173.398438 177.648438 C 173.398438 177.648438 173.632812 185.410156 176.734375 184.898438 C 176.734375 184.898438 184.613281 181.75 184.195312 183.917969 C 184.195312 183.917969 178.671875 192.480469 181.261719 193.472656 L 187.242188 194.222656 C 187.242188 194.222656 189.058594 195.398438 187.179688 196.074219 C 187.179688 196.074219 165.28125 205.277344 165.734375 198.503906 C 165.734375 198.507812 169.710938 178.398438 173.398438 177.648438 Z M 173.398438 177.648438 " fill-opacity="1" fill-rule="nonzero"/><path fill="#fff4c3" d="M 123.578125 179.441406 C 123.578125 179.441406 125.632812 186.929688 128.53125 185.703125 C 128.53125 185.703125 135.445312 180.785156 135.550781 182.992188 C 135.550781 182.992188 132.199219 192.613281 134.949219 192.96875 L 140.933594 192.292969 C 140.933594 192.292969 142.976562 193.007812 141.3125 194.109375 C 141.3125 194.109375 122.199219 208.207031 121.042969 201.519531 C 121.046875 201.519531 120.171875 181.035156 123.578125 179.441406 Z M 123.578125 179.441406 " fill-opacity="1" fill-rule="nonzero"/><path fill="#fff4c3" d="M 53.449219 217.761719 C 53.449219 217.761719 52.722656 225.496094 55.867188 225.367188 C 55.867188 225.367188 64.074219 223.222656 63.390625 225.320312 C 63.390625 225.320312 56.847656 233.128906 59.292969 234.4375 L 65.128906 235.921875 C 65.128906 235.921875 66.789062 237.316406 64.839844 237.753906 C 64.839844 237.753906 41.976562 244.175781 43.265625 237.511719 C 43.265625 237.519531 49.703125 218.054688 53.449219 217.761719 Z M 53.449219 217.761719 " fill-opacity="1" fill-rule="nonzero"/><path fill="#fff4c3" d="M 22.121094 254.085938 C 22.121094 254.085938 25.585938 261.03125 28.191406 259.269531 C 28.191406 259.269531 34.023438 253.109375 34.554688 255.25 C 34.554688 255.25 33.128906 265.34375 35.898438 265.15625 L 41.636719 263.335938 C 41.636719 263.335938 43.78125 263.640625 42.363281 265.042969 C 42.363281 265.042969 26.335938 282.574219 23.910156 276.242188 C 23.910156 276.242188 19.085938 256.308594 22.121094 254.085938 Z M 22.121094 254.085938 " fill-opacity="1" fill-rule="nonzero"/><path fill="#fff4c3" d="M 2.183594 301.695312 C 2.183594 301.695312 7.9375 306.902344 9.71875 304.3125 C 9.71875 304.3125 12.910156 296.449219 14.179688 298.25 C 14.179688 298.25 16.527344 308.167969 19.039062 306.984375 L 23.71875 303.199219 C 23.71875 303.199219 25.828125 302.703125 25.015625 304.527344 C 25.015625 304.527344 16.484375 326.691406 11.914062 321.675781 C 11.914062 321.675781 0.164062 304.871094 2.183594 301.695312 Z M 2.183594 301.695312 " fill-opacity="1" fill-rule="nonzero"/></svg>