<svg xmlns="http://www.w3.org/2000/svg" xmlns:xlink="http://www.w3.org/1999/xlink" width="500" zoomAndPan="magnify" viewBox="0 0 375 374.999991" height="500" preserveAspectRatio="xMidYMid meet" version="1.0"><path fill="#272727" d="M 315.679688 127.539062 C 315.679688 127.242188 315.679688 126.957031 315.59375 126.660156 C 315.53125 125.402344 315.410156 124.148438 315.226562 122.902344 C 315.046875 121.65625 314.808594 120.417969 314.507812 119.195312 C 314.210938 117.96875 313.855469 116.761719 313.441406 115.570312 C 313.027344 114.378906 312.558594 113.210938 312.035156 112.066406 C 311.511719 110.917969 310.933594 109.800781 310.304688 108.710938 C 309.675781 107.617188 308.992188 106.558594 308.261719 105.53125 C 307.53125 104.503906 306.753906 103.515625 305.929688 102.5625 C 305.101562 101.609375 304.234375 100.699219 303.324219 99.828125 C 302.410156 98.957031 301.460938 98.132812 300.472656 97.351562 C 299.480469 96.574219 298.457031 95.839844 297.398438 95.160156 C 296.335938 94.476562 295.246094 93.84375 294.128906 93.265625 C 293.007812 92.6875 291.863281 92.160156 290.695312 91.691406 C 289.527344 91.222656 288.335938 90.808594 287.128906 90.449219 C 285.917969 90.09375 284.695312 89.792969 283.460938 89.550781 C 282.222656 89.308594 280.976562 89.128906 279.722656 89.003906 C 278.46875 88.882812 277.210938 88.820312 275.949219 88.816406 L 99.050781 88.816406 C 97.789062 88.820312 96.53125 88.882812 95.277344 89.003906 C 94.023438 89.128906 92.777344 89.308594 91.539062 89.550781 C 90.304688 89.792969 89.082031 90.09375 87.871094 90.449219 C 86.664062 90.808594 85.472656 91.222656 84.304688 91.691406 C 83.136719 92.160156 81.992188 92.6875 80.871094 93.265625 C 79.753906 93.84375 78.664062 94.476562 77.601562 95.160156 C 76.542969 95.839844 75.519531 96.574219 74.527344 97.351562 C 73.539062 98.132812 72.589844 98.957031 71.675781 99.828125 C 70.765625 100.699219 69.898438 101.609375 69.070312 102.5625 C 68.246094 103.515625 67.46875 104.503906 66.738281 105.53125 C 66.007812 106.558594 65.324219 107.617188 64.695312 108.710938 C 64.066406 109.800781 63.488281 110.917969 62.964844 112.066406 C 62.441406 113.210938 61.972656 114.378906 61.558594 115.570312 C 61.144531 116.761719 60.789062 117.96875 60.492188 119.195312 C 60.191406 120.417969 59.953125 121.65625 59.773438 122.902344 C 59.589844 124.148438 59.46875 125.402344 59.40625 126.660156 C 59.40625 126.96875 59.347656 127.242188 59.320312 127.550781 C 59.289062 127.855469 59.210938 128.289062 59.210938 128.65625 L 59.210938 246.34375 C 59.210938 247.648438 59.277344 248.949219 59.40625 250.25 C 59.535156 251.546875 59.730469 252.835938 59.984375 254.113281 C 60.238281 255.394531 60.558594 256.65625 60.9375 257.90625 C 61.316406 259.152344 61.757812 260.378906 62.257812 261.582031 C 62.757812 262.789062 63.3125 263.964844 63.929688 265.117188 C 64.542969 266.265625 65.214844 267.382812 65.941406 268.46875 C 66.664062 269.550781 67.441406 270.597656 68.269531 271.605469 C 69.097656 272.613281 69.972656 273.578125 70.894531 274.5 C 71.816406 275.421875 72.78125 276.296875 73.789062 277.125 C 74.796875 277.953125 75.84375 278.730469 76.925781 279.453125 C 78.011719 280.179688 79.128906 280.851562 80.277344 281.464844 C 81.429688 282.082031 82.605469 282.636719 83.8125 283.136719 C 85.015625 283.636719 86.242188 284.078125 87.492188 284.457031 C 88.738281 284.835938 90 285.15625 91.28125 285.410156 C 92.558594 285.667969 93.847656 285.859375 95.144531 285.988281 C 96.445312 286.117188 97.746094 286.183594 99.050781 286.183594 L 275.949219 286.183594 C 277.253906 286.183594 278.554688 286.117188 279.855469 285.988281 C 281.152344 285.859375 282.441406 285.664062 283.71875 285.410156 C 284.996094 285.152344 286.261719 284.835938 287.507812 284.457031 C 288.757812 284.074219 289.984375 283.636719 291.1875 283.136719 C 292.390625 282.636719 293.570312 282.078125 294.71875 281.460938 C 295.867188 280.847656 296.984375 280.175781 298.070312 279.453125 C 299.152344 278.726562 300.199219 277.949219 301.207031 277.125 C 302.214844 276.296875 303.179688 275.421875 304.105469 274.5 C 305.027344 273.574219 305.902344 272.609375 306.726562 271.601562 C 307.554688 270.59375 308.332031 269.546875 309.058594 268.464844 C 309.78125 267.378906 310.453125 266.261719 311.066406 265.113281 C 311.683594 263.964844 312.242188 262.785156 312.742188 261.582031 C 313.242188 260.378906 313.679688 259.152344 314.0625 257.902344 C 314.441406 256.65625 314.757812 255.390625 315.015625 254.113281 C 315.269531 252.835938 315.460938 251.546875 315.59375 250.25 C 315.722656 248.949219 315.789062 247.648438 315.789062 246.34375 L 315.789062 128.65625 C 315.789062 128.289062 315.691406 127.925781 315.679688 127.539062 Z M 99.050781 108.550781 L 275.949219 108.550781 C 277.03125 108.554688 278.105469 108.648438 279.171875 108.824219 C 280.238281 109 281.285156 109.261719 282.308594 109.609375 C 283.332031 109.957031 284.320312 110.382812 285.277344 110.886719 C 286.230469 111.394531 287.140625 111.972656 288.003906 112.628906 C 288.863281 113.28125 289.667969 114 290.414062 114.78125 C 291.160156 115.5625 291.835938 116.402344 292.449219 117.292969 C 293.058594 118.1875 293.59375 119.121094 294.050781 120.101562 C 294.511719 121.078125 294.886719 122.089844 295.183594 123.128906 L 187.5 185.941406 L 79.816406 123.128906 C 80.113281 122.089844 80.488281 121.078125 80.949219 120.101562 C 81.40625 119.121094 81.941406 118.1875 82.550781 117.292969 C 83.164062 116.402344 83.839844 115.5625 84.585938 114.78125 C 85.332031 114 86.136719 113.28125 86.996094 112.628906 C 87.859375 111.972656 88.769531 111.394531 89.722656 110.886719 C 90.679688 110.382812 91.667969 109.957031 92.691406 109.609375 C 93.714844 109.261719 94.761719 109 95.828125 108.824219 C 96.894531 108.648438 97.96875 108.554688 99.050781 108.550781 Z M 275.949219 266.449219 L 99.050781 266.449219 C 98.390625 266.445312 97.734375 266.414062 97.078125 266.347656 C 96.425781 266.28125 95.773438 266.183594 95.128906 266.054688 C 94.484375 265.925781 93.847656 265.765625 93.21875 265.574219 C 92.585938 265.382812 91.96875 265.160156 91.359375 264.910156 C 90.753906 264.65625 90.160156 264.375 89.578125 264.066406 C 89 263.753906 88.433594 263.417969 87.886719 263.050781 C 87.339844 262.683594 86.8125 262.292969 86.304688 261.875 C 85.796875 261.457031 85.308594 261.015625 84.84375 260.550781 C 84.378906 260.085938 83.9375 259.597656 83.519531 259.089844 C 83.101562 258.582031 82.710938 258.054688 82.34375 257.507812 C 81.976562 256.960938 81.640625 256.394531 81.328125 255.816406 C 81.019531 255.234375 80.738281 254.640625 80.484375 254.035156 C 80.234375 253.425781 80.011719 252.808594 79.820312 252.175781 C 79.628906 251.546875 79.46875 250.910156 79.339844 250.265625 C 79.210938 249.621094 79.113281 248.96875 79.046875 248.316406 C 78.980469 247.660156 78.949219 247.003906 78.949219 246.34375 L 78.949219 145.46875 L 182.566406 205.894531 C 183.320312 206.335938 184.121094 206.667969 184.964844 206.898438 C 185.808594 207.125 186.664062 207.238281 187.539062 207.238281 C 188.414062 207.238281 189.273438 207.125 190.117188 206.898438 C 190.960938 206.667969 191.757812 206.335938 192.511719 205.894531 L 296.050781 145.46875 L 296.050781 246.34375 C 296.050781 247.003906 296.019531 247.660156 295.953125 248.316406 C 295.886719 248.96875 295.789062 249.621094 295.660156 250.265625 C 295.53125 250.910156 295.371094 251.546875 295.179688 252.175781 C 294.988281 252.808594 294.765625 253.425781 294.515625 254.035156 C 294.261719 254.640625 293.980469 255.234375 293.671875 255.816406 C 293.359375 256.394531 293.023438 256.960938 292.65625 257.507812 C 292.289062 258.054688 291.898438 258.582031 291.480469 259.089844 C 291.0625 259.597656 290.621094 260.085938 290.15625 260.550781 C 289.691406 261.015625 289.203125 261.457031 288.695312 261.875 C 288.1875 262.292969 287.660156 262.683594 287.113281 263.050781 C 286.566406 263.417969 286 263.753906 285.421875 264.066406 C 284.839844 264.375 284.246094 264.65625 283.640625 264.910156 C 283.03125 265.160156 282.414062 265.382812 281.78125 265.574219 C 281.152344 265.765625 280.515625 265.925781 279.871094 266.054688 C 279.226562 266.183594 278.574219 266.28125 277.921875 266.347656 C 277.265625 266.414062 276.609375 266.445312 275.949219 266.449219 Z M 275.949219 266.449219 " fill-opacity="1" fill-rule="nonzero"/><path fill="#272727" d="M 187.5 0 C 184.429688 0 181.363281 0.0742188 178.300781 0.226562 C 175.234375 0.375 172.175781 0.601562 169.121094 0.902344 C 166.066406 1.203125 163.023438 1.578125 159.988281 2.03125 C 156.953125 2.480469 153.929688 3.003906 150.921875 3.601562 C 147.910156 4.203125 144.917969 4.875 141.941406 5.617188 C 138.964844 6.363281 136.007812 7.183594 133.070312 8.074219 C 130.136719 8.964844 127.222656 9.925781 124.332031 10.960938 C 121.445312 11.996094 118.582031 13.097656 115.746094 14.273438 C 112.910156 15.445312 110.105469 16.691406 107.332031 18.003906 C 104.558594 19.3125 101.820312 20.691406 99.113281 22.140625 C 96.40625 23.585938 93.738281 25.097656 91.105469 26.675781 C 88.472656 28.253906 85.882812 29.894531 83.332031 31.597656 C 80.777344 33.304688 78.269531 35.070312 75.804688 36.898438 C 73.339844 38.726562 70.921875 40.613281 68.550781 42.558594 C 66.179688 44.507812 63.855469 46.511719 61.582031 48.570312 C 59.308594 50.632812 57.085938 52.746094 54.917969 54.917969 C 52.746094 57.085938 50.632812 59.308594 48.570312 61.582031 C 46.511719 63.855469 44.507812 66.179688 42.558594 68.550781 C 40.613281 70.921875 38.726562 73.339844 36.898438 75.804688 C 35.070312 78.269531 33.304688 80.777344 31.597656 83.332031 C 29.894531 85.882812 28.253906 88.472656 26.675781 91.105469 C 25.097656 93.738281 23.585938 96.40625 22.140625 99.113281 C 20.691406 101.820312 19.3125 104.558594 18.003906 107.332031 C 16.691406 110.105469 15.445312 112.910156 14.273438 115.746094 C 13.097656 118.582031 11.996094 121.445312 10.960938 124.332031 C 9.925781 127.222656 8.964844 130.136719 8.074219 133.070312 C 7.183594 136.007812 6.363281 138.964844 5.621094 141.941406 C 4.875 144.917969 4.203125 147.910156 3.601562 150.921875 C 3.003906 153.929688 2.480469 156.953125 2.03125 159.988281 C 1.578125 163.023438 1.203125 166.066406 0.902344 169.121094 C 0.601562 172.175781 0.375 175.234375 0.226562 178.300781 C 0.0742188 181.363281 0 184.429688 0 187.5 C 0 190.570312 0.0742188 193.636719 0.226562 196.699219 C 0.375 199.765625 0.601562 202.824219 0.902344 205.878906 C 1.203125 208.933594 1.578125 211.976562 2.03125 215.011719 C 2.480469 218.046875 3.003906 221.070312 3.601562 224.078125 C 4.203125 227.089844 4.875 230.082031 5.621094 233.058594 C 6.363281 236.035156 7.183594 238.992188 8.074219 241.929688 C 8.964844 244.863281 9.925781 247.777344 10.960938 250.667969 C 11.996094 253.554688 13.097656 256.417969 14.273438 259.253906 C 15.445312 262.089844 16.691406 264.894531 18.003906 267.667969 C 19.3125 270.441406 20.691406 273.179688 22.140625 275.886719 C 23.585938 278.59375 25.097656 281.261719 26.675781 283.894531 C 28.253906 286.527344 29.894531 289.117188 31.597656 291.667969 C 33.304688 294.222656 35.070312 296.730469 36.898438 299.195312 C 38.726562 301.660156 40.613281 304.078125 42.558594 306.449219 C 44.507812 308.820312 46.511719 311.144531 48.570312 313.417969 C 50.632812 315.691406 52.746094 317.914062 54.917969 320.082031 C 57.085938 322.253906 59.308594 324.367188 61.582031 326.429688 C 63.855469 328.488281 66.179688 330.492188 68.550781 332.4375 C 70.921875 334.386719 73.339844 336.273438 75.804688 338.101562 C 78.269531 339.929688 80.777344 341.695312 83.332031 343.402344 C 85.882812 345.105469 88.472656 346.746094 91.105469 348.324219 C 93.738281 349.902344 96.40625 351.414062 99.113281 352.859375 C 101.820312 354.308594 104.558594 355.6875 107.332031 356.996094 C 110.105469 358.308594 112.910156 359.554688 115.746094 360.726562 C 118.582031 361.902344 121.445312 363.003906 124.332031 364.039062 C 127.222656 365.074219 130.136719 366.035156 133.070312 366.925781 C 136.007812 367.816406 138.964844 368.636719 141.941406 369.378906 C 144.917969 370.125 147.910156 370.796875 150.921875 371.398438 C 153.929688 371.996094 156.953125 372.519531 159.988281 372.96875 C 163.023438 373.421875 166.066406 373.796875 169.121094 374.097656 C 172.175781 374.398438 175.234375 374.625 178.300781 374.773438 C 181.363281 374.925781 184.429688 375 187.5 375 C 190.570312 375 193.636719 374.925781 196.699219 374.773438 C 199.765625 374.625 202.824219 374.398438 205.878906 374.097656 C 208.933594 373.796875 211.976562 373.421875 215.011719 372.96875 C 218.046875 372.519531 221.070312 371.996094 224.078125 371.398438 C 227.089844 370.796875 230.082031 370.125 233.058594 369.378906 C 236.035156 368.636719 238.992188 367.816406 241.929688 366.925781 C 244.863281 366.035156 247.777344 365.074219 250.667969 364.039062 C 253.554688 363.003906 256.417969 361.902344 259.253906 360.726562 C 262.089844 359.554688 264.894531 358.308594 267.667969 356.996094 C 270.441406 355.6875 273.179688 354.308594 275.886719 352.859375 C 278.59375 351.414062 281.261719 349.902344 283.894531 348.324219 C 286.527344 346.746094 289.117188 345.105469 291.667969 343.402344 C 294.222656 341.695312 296.730469 339.929688 299.195312 338.101562 C 301.660156 336.273438 304.078125 334.386719 306.449219 332.4375 C 308.820312 330.492188 311.144531 328.488281 313.417969 326.429688 C 315.691406 324.367188 317.914062 322.253906 320.082031 320.082031 C 322.253906 317.914062 324.367188 315.691406 326.429688 313.417969 C 328.488281 311.144531 330.492188 308.820312 332.4375 306.449219 C 334.386719 304.078125 336.273438 301.660156 338.101562 299.195312 C 339.929688 296.730469 341.695312 294.222656 343.402344 291.667969 C 345.105469 289.117188 346.746094 286.527344 348.324219 283.894531 C 349.902344 281.261719 351.414062 278.59375 352.859375 275.886719 C 354.308594 273.179688 355.6875 270.441406 356.996094 267.667969 C 358.308594 264.894531 359.554688 262.089844 360.726562 259.253906 C 361.902344 256.417969 363.003906 253.554688 364.039062 250.667969 C 365.074219 247.777344 366.035156 244.863281 366.925781 241.929688 C 367.816406 238.992188 368.636719 236.035156 369.378906 233.058594 C 370.125 230.082031 370.796875 227.089844 371.398438 224.078125 C 371.996094 221.070312 372.519531 218.046875 372.96875 215.011719 C 373.421875 211.976562 373.796875 208.933594 374.097656 205.878906 C 374.398438 202.824219 374.625 199.765625 374.773438 196.699219 C 374.925781 193.636719 375 190.570312 375 187.5 C 374.996094 184.433594 374.917969 181.367188 374.765625 178.304688 C 374.609375 175.238281 374.382812 172.179688 374.078125 169.128906 C 373.773438 166.074219 373.394531 163.03125 372.945312 160 C 372.492188 156.964844 371.964844 153.941406 371.363281 150.933594 C 370.761719 147.925781 370.085938 144.933594 369.339844 141.960938 C 368.59375 138.984375 367.773438 136.03125 366.878906 133.09375 C 365.988281 130.160156 365.023438 127.25 363.988281 124.359375 C 362.953125 121.472656 361.847656 118.613281 360.671875 115.777344 C 359.496094 112.945312 358.253906 110.140625 356.941406 107.371094 C 355.625 104.597656 354.246094 101.859375 352.800781 99.152344 C 351.351562 96.449219 349.839844 93.78125 348.261719 91.152344 C 346.683594 88.519531 345.042969 85.929688 343.335938 83.378906 C 341.632812 80.828125 339.867188 78.324219 338.039062 75.859375 C 336.210938 73.394531 334.324219 70.976562 332.375 68.605469 C 330.429688 66.234375 328.425781 63.914062 326.367188 61.640625 C 324.304688 59.367188 322.191406 57.148438 320.023438 54.976562 C 317.851562 52.808594 315.632812 50.695312 313.359375 48.632812 C 311.085938 46.574219 308.765625 44.570312 306.394531 42.625 C 304.023438 40.675781 301.605469 38.789062 299.140625 36.960938 C 296.675781 35.132812 294.171875 33.367188 291.621094 31.664062 C 289.070312 29.957031 286.480469 28.316406 283.847656 26.738281 C 281.21875 25.160156 278.550781 23.648438 275.847656 22.199219 C 273.140625 20.753906 270.402344 19.375 267.628906 18.0625 C 264.859375 16.746094 262.054688 15.503906 259.222656 14.328125 C 256.386719 13.152344 253.527344 12.046875 250.640625 11.011719 C 247.75 9.976562 244.839844 9.011719 241.90625 8.121094 C 238.96875 7.226562 236.015625 6.40625 233.039062 5.660156 C 230.066406 4.914062 227.074219 4.238281 224.066406 3.636719 C 221.058594 3.035156 218.035156 2.507812 215 2.054688 C 211.96875 1.601562 208.925781 1.226562 205.871094 0.921875 C 202.820312 0.617188 199.761719 0.390625 196.695312 0.234375 C 193.632812 0.0820312 190.566406 0.00390625 187.5 0 Z M 187.5 355.261719 C 184.753906 355.261719 182.011719 355.195312 179.269531 355.0625 C 176.527344 354.925781 173.789062 354.722656 171.054688 354.457031 C 168.324219 354.1875 165.601562 353.851562 162.882812 353.449219 C 160.167969 353.042969 157.464844 352.574219 154.769531 352.039062 C 152.078125 351.503906 149.398438 350.902344 146.738281 350.234375 C 144.074219 349.570312 141.429688 348.835938 138.800781 348.039062 C 136.171875 347.242188 133.566406 346.382812 130.980469 345.457031 C 128.398438 344.53125 125.835938 343.542969 123.300781 342.492188 C 120.761719 341.441406 118.253906 340.328125 115.773438 339.15625 C 113.289062 337.980469 110.839844 336.75 108.417969 335.453125 C 105.996094 334.160156 103.609375 332.808594 101.253906 331.394531 C 98.898438 329.984375 96.578125 328.515625 94.296875 326.988281 C 92.011719 325.464844 89.769531 323.882812 87.5625 322.25 C 85.359375 320.613281 83.195312 318.925781 81.070312 317.183594 C 78.949219 315.441406 76.871094 313.648438 74.835938 311.804688 C 72.804688 309.960938 70.816406 308.066406 68.875 306.125 C 66.933594 304.183594 65.039062 302.195312 63.195312 300.164062 C 61.351562 298.128906 59.558594 296.050781 57.816406 293.929688 C 56.074219 291.804688 54.386719 289.640625 52.75 287.4375 C 51.117188 285.230469 49.535156 282.988281 48.011719 280.703125 C 46.484375 278.421875 45.015625 276.101562 43.605469 273.746094 C 42.191406 271.390625 40.839844 269.003906 39.546875 266.582031 C 38.25 264.160156 37.019531 261.710938 35.84375 259.226562 C 34.671875 256.746094 33.558594 254.238281 32.507812 251.699219 C 31.457031 249.164062 30.46875 246.601562 29.542969 244.019531 C 28.617188 241.433594 27.757812 238.828125 26.960938 236.199219 C 26.164062 233.570312 25.429688 230.925781 24.765625 228.261719 C 24.097656 225.601562 23.496094 222.921875 22.960938 220.230469 C 22.425781 217.535156 21.957031 214.832031 21.550781 212.117188 C 21.148438 209.398438 20.8125 206.675781 20.542969 203.945312 C 20.277344 201.210938 20.074219 198.472656 19.9375 195.730469 C 19.804688 192.988281 19.738281 190.246094 19.738281 187.5 C 19.738281 184.753906 19.804688 182.011719 19.9375 179.269531 C 20.074219 176.527344 20.277344 173.789062 20.542969 171.054688 C 20.8125 168.324219 21.148438 165.601562 21.550781 162.882812 C 21.957031 160.167969 22.425781 157.464844 22.960938 154.769531 C 23.496094 152.078125 24.097656 149.398438 24.765625 146.738281 C 25.429688 144.074219 26.164062 141.429688 26.960938 138.800781 C 27.757812 136.171875 28.617188 133.566406 29.542969 130.980469 C 30.46875 128.398438 31.457031 125.835938 32.507812 123.300781 C 33.558594 120.761719 34.671875 118.253906 35.84375 115.773438 C 37.019531 113.289062 38.25 110.839844 39.546875 108.417969 C 40.839844 105.996094 42.191406 103.609375 43.605469 101.253906 C 45.015625 98.898438 46.484375 96.578125 48.011719 94.296875 C 49.535156 92.011719 51.117188 89.769531 52.75 87.5625 C 54.386719 85.359375 56.074219 83.195312 57.816406 81.070312 C 59.558594 78.949219 61.351562 76.871094 63.195312 74.835938 C 65.039062 72.804688 66.933594 70.816406 68.875 68.875 C 70.816406 66.933594 72.804688 65.039062 74.835938 63.195312 C 76.871094 61.351562 78.949219 59.558594 81.070312 57.816406 C 83.195312 56.074219 85.359375 54.386719 87.5625 52.75 C 89.769531 51.117188 92.011719 49.535156 94.296875 48.011719 C 96.578125 46.484375 98.898438 45.015625 101.253906 43.605469 C 103.609375 42.191406 105.996094 40.839844 108.417969 39.546875 C 110.839844 38.25 113.289062 37.019531 115.773438 35.84375 C 118.253906 34.671875 120.761719 33.558594 123.300781 32.507812 C 125.835938 31.457031 128.398438 30.46875 130.980469 29.542969 C 133.566406 28.617188 136.171875 27.757812 138.800781 26.960938 C 141.429688 26.164062 144.074219 25.429688 146.738281 24.765625 C 149.398438 24.097656 152.078125 23.496094 154.769531 22.960938 C 157.464844 22.425781 160.167969 21.957031 162.882812 21.550781 C 165.601562 21.148438 168.324219 20.8125 171.054688 20.542969 C 173.789062 20.277344 176.527344 20.074219 179.269531 19.9375 C 182.011719 19.804688 184.753906 19.738281 187.5 19.738281 C 190.246094 19.738281 192.988281 19.804688 195.730469 19.9375 C 198.472656 20.074219 201.210938 20.277344 203.945312 20.542969 C 206.675781 20.8125 209.398438 21.148438 212.117188 21.550781 C 214.832031 21.957031 217.535156 22.425781 220.230469 22.960938 C 222.921875 23.496094 225.601562 24.097656 228.261719 24.765625 C 230.925781 25.429688 233.570312 26.164062 236.199219 26.960938 C 238.828125 27.757812 241.433594 28.617188 244.019531 29.542969 C 246.601562 30.46875 249.164062 31.457031 251.699219 32.507812 C 254.238281 33.558594 256.746094 34.671875 259.226562 35.84375 C 261.710938 37.019531 264.160156 38.25 266.582031 39.546875 C 269.003906 40.839844 271.390625 42.191406 273.746094 43.605469 C 276.101562 45.015625 278.421875 46.484375 280.703125 48.011719 C 282.988281 49.535156 285.230469 51.117188 287.4375 52.75 C 289.640625 54.386719 291.804688 56.074219 293.929688 57.816406 C 296.050781 59.558594 298.128906 61.351562 300.164062 63.195312 C 302.195312 65.039062 304.183594 66.933594 306.125 68.875 C 308.066406 70.816406 309.960938 72.804688 311.804688 74.835938 C 313.648438 76.871094 315.441406 78.949219 317.183594 81.070312 C 318.925781 83.195312 320.613281 85.359375 322.25 87.5625 C 323.882812 89.769531 325.464844 92.011719 326.988281 94.296875 C 328.515625 96.578125 329.984375 98.898438 331.394531 101.253906 C 332.808594 103.609375 334.160156 105.996094 335.453125 108.417969 C 336.75 110.839844 337.980469 113.289062 339.15625 115.773438 C 340.328125 118.253906 341.441406 120.761719 342.492188 123.300781 C 343.542969 125.835938 344.53125 128.398438 345.457031 130.980469 C 346.382812 133.566406 347.242188 136.171875 348.039062 138.800781 C 348.835938 141.429688 349.570312 144.074219 350.234375 146.738281 C 350.902344 149.398438 351.503906 152.078125 352.039062 154.769531 C 352.574219 157.464844 353.042969 160.167969 353.449219 162.882812 C 353.851562 165.601562 354.1875 168.324219 354.457031 171.054688 C 354.722656 173.789062 354.925781 176.527344 355.0625 179.269531 C 355.195312 182.011719 355.261719 184.753906 355.261719 187.5 C 355.261719 190.246094 355.191406 192.988281 355.050781 195.730469 C 354.914062 198.46875 354.710938 201.207031 354.4375 203.9375 C 354.167969 206.667969 353.828125 209.390625 353.421875 212.105469 C 353.019531 214.820312 352.546875 217.523438 352.007812 220.214844 C 351.472656 222.90625 350.867188 225.585938 350.199219 228.246094 C 349.53125 230.90625 348.796875 233.550781 347.996094 236.179688 C 347.199219 238.804688 346.335938 241.410156 345.410156 243.992188 C 344.484375 246.578125 343.496094 249.136719 342.441406 251.671875 C 341.390625 254.207031 340.277344 256.714844 339.101562 259.195312 C 337.929688 261.675781 336.695312 264.125 335.398438 266.546875 C 334.105469 268.964844 332.75 271.351562 331.339844 273.707031 C 329.925781 276.058594 328.457031 278.378906 326.933594 280.660156 C 325.40625 282.941406 323.828125 285.183594 322.191406 287.390625 C 320.554688 289.59375 318.867188 291.757812 317.125 293.878906 C 315.382812 296 313.589844 298.078125 311.746094 300.109375 C 309.90625 302.144531 308.011719 304.128906 306.070312 306.070312 C 304.128906 308.011719 302.144531 309.90625 300.109375 311.746094 C 298.078125 313.589844 296 315.382812 293.878906 317.125 C 291.757812 318.867188 289.59375 320.554688 287.390625 322.191406 C 285.183594 323.828125 282.941406 325.40625 280.660156 326.933594 C 278.378906 328.457031 276.058594 329.925781 273.707031 331.339844 C 271.351562 332.75 268.964844 334.105469 266.546875 335.398438 C 264.125 336.695312 261.675781 337.929688 259.195312 339.101562 C 256.714844 340.277344 254.207031 341.390625 251.671875 342.441406 C 249.136719 343.496094 246.578125 344.484375 243.992188 345.410156 C 241.410156 346.335938 238.804688 347.199219 236.179688 347.996094 C 233.550781 348.796875 230.90625 349.53125 228.246094 350.199219 C 225.585938 350.867188 222.90625 351.472656 220.214844 352.007812 C 217.523438 352.546875 214.820312 353.019531 212.105469 353.421875 C 209.390625 353.828125 206.667969 354.167969 203.9375 354.4375 C 201.207031 354.710938 198.46875 354.914062 195.730469 355.050781 C 192.988281 355.191406 190.246094 355.261719 187.5 355.261719 Z M 187.5 355.261719 " fill-opacity="1" fill-rule="nonzero"/></svg>