<svg xmlns="http://www.w3.org/2000/svg" xmlns:xlink="http://www.w3.org/1999/xlink" width="500" zoomAndPan="magnify" viewBox="0 0 375 374.999991" height="500" preserveAspectRatio="xMidYMid meet" version="1.0"><path fill="#272727" d="M 270.589844 375 L 104.410156 375 C 47.058594 375 0 327.941406 0 270.589844 L 0 104.410156 C 0 47.058594 47.058594 0 104.410156 0 L 270.589844 0 C 327.941406 0 375 47.058594 375 104.410156 L 375 270.589844 C 375 327.941406 327.941406 375 270.589844 375 Z M 104.410156 23.53125 C 60.292969 23.53125 23.53125 60.292969 23.53125 104.410156 L 23.53125 270.589844 C 23.53125 314.707031 60.292969 351.46875 104.410156 351.46875 L 270.589844 351.46875 C 314.707031 351.46875 351.46875 314.707031 351.46875 270.589844 L 351.46875 104.410156 C 351.46875 60.292969 314.707031 23.53125 270.589844 23.53125 Z M 104.410156 23.53125 " fill-opacity="1" fill-rule="evenodd"/><path fill="#272727" d="M 187.5 252.207031 C 152.207031 252.207031 122.792969 222.792969 122.792969 187.5 C 122.792969 152.207031 152.207031 122.792969 187.5 122.792969 C 222.792969 122.792969 252.207031 152.207031 252.207031 187.5 C 252.207031 222.792969 222.792969 252.207031 187.5 252.207031 Z M 187.5 146.324219 C 164.707031 146.324219 146.324219 164.707031 146.324219 187.5 C 146.324219 210.292969 164.707031 228.675781 187.5 228.675781 C 210.292969 228.675781 228.675781 210.292969 228.675781 187.5 C 228.675781 164.707031 210.292969 146.324219 187.5 146.324219 Z M 187.5 146.324219 " fill-opacity="1" fill-rule="evenodd"/><path fill="#272727" d="M 187.5 293.382812 C 129.410156 293.382812 81.617188 245.589844 81.617188 187.5 C 81.617188 129.410156 129.410156 81.617188 187.5 81.617188 C 245.589844 81.617188 293.382812 129.410156 293.382812 187.5 C 293.382812 245.589844 245.589844 293.382812 187.5 293.382812 Z M 187.5 105.148438 C 141.910156 105.148438 105.148438 141.910156 105.148438 187.5 C 105.148438 233.089844 141.910156 269.851562 187.5 269.851562 C 233.089844 269.851562 269.851562 233.089844 269.851562 187.5 C 269.851562 141.910156 233.089844 105.148438 187.5 105.148438 Z M 187.5 105.148438 " fill-opacity="1" fill-rule="evenodd"/><path fill="#272727" d="M 100.734375 86.765625 L 75 86.765625 C 68.382812 86.765625 63.234375 81.617188 63.234375 75 C 63.234375 68.382812 68.382812 63.234375 75 63.234375 L 100.734375 63.234375 C 107.351562 63.234375 112.5 68.382812 112.5 75 C 112.5 81.617188 107.351562 86.765625 100.734375 86.765625 Z M 100.734375 86.765625 " fill-opacity="1" fill-rule="evenodd"/></svg>