<svg xmlns="http://www.w3.org/2000/svg" xmlns:xlink="http://www.w3.org/1999/xlink" width="500" zoomAndPan="magnify" viewBox="0 0 375 374.999991" height="500" preserveAspectRatio="xMidYMid meet" version="1.0"><path fill="#272727" d="M 252.136719 23.085938 C 212.179688 0 162.894531 0 122.941406 23.085938 C 61.0625 58.769531 39.917969 137.75 75.597656 199.550781 L 168.339844 360.230469 C 176.8125 375 198.109375 375 206.585938 360.230469 L 299.324219 199.550781 C 335.082031 137.75 313.9375 58.769531 252.136719 23.085938 Z M 187.539062 200.792969 C 155.355469 200.792969 129.3125 174.75 129.3125 142.570312 C 129.3125 110.386719 155.355469 84.34375 187.539062 84.34375 C 219.722656 84.34375 245.761719 110.386719 245.761719 142.570312 C 245.6875 174.671875 219.644531 200.792969 187.539062 200.792969 Z M 187.539062 200.792969 " fill-opacity="1" fill-rule="nonzero"/></svg>