<svg width="1325" height="310" viewBox="0 0 1325 310" fill="none" xmlns="http://www.w3.org/2000/svg">
<path d="M172.271 56.724C170.766 53.5521 165.589 42.9636 156.5 36.2917C150.167 31.6511 138.828 28.8959 132.927 37.1146C127.917 44.0834 131.167 51.2031 138.521 52.9115C148.354 55.2031 149.411 51.2709 172.271 56.724Z" fill="#3D81A8"/>
<path d="M622.474 53.875C627.25 54.4479 632.042 52.849 636.62 51.4375C643.938 49.1667 656.74 43.3177 649.792 33.7552C643.682 25.3542 632.755 31.625 627.688 38.1406C623.156 43.974 621.339 53.7344 622.474 53.875Z" fill="#3D81A8"/>
<path d="M1059.59 88.1823C1064.75 89.849 1070.39 89.1771 1075.74 88.651C1084.32 87.7969 1102.12 82.2135 1096.41 70.2969C1091.39 59.8333 1078 64.2292 1071.04 70.1979C1064.81 75.526 1058.35 87.7813 1059.59 88.1823Z" fill="#3D81A8"/>
<path d="M901.125 26.2552C906 27.099 911 25.7604 915.755 24.5886C923.375 22.724 938.708 15.3802 932.016 5.38023C926.146 -3.40623 914.641 2.28127 909.13 8.56252C904.203 14.1771 899.958 26.0521 901.125 26.2552Z" fill="#3D81A8"/>
<path d="M1257.83 64.8125C1264.72 70.8698 1272.19 76.2604 1281.99 83.974C1283.12 68.75 1281.14 58.0208 1270.31 50.4115C1265.81 47.25 1261.07 46.2083 1256.93 50.3021C1252.05 55.1406 1253.12 60.6667 1257.83 64.8125Z" fill="#3D81A8"/>
<mask id="mask0_15_117" style="mask-type:luminance" maskUnits="userSpaceOnUse" x="1" y="27" width="1324" height="283">
<path d="M1.66663 27H1324.85V309.109H1.66663V27Z" fill="white"/>
</mask>
<g mask="url(#mask0_15_117)">
<path d="M1324.24 308.615C1325.39 250.828 1319.25 111.49 1312.3 99.9219C1295.69 72.3125 1265.67 105.969 1245.83 109.609C1228.97 112.719 1213.44 101.208 1196.1 100.854C1184.82 100.63 1173.46 102.63 1162.99 106.833C1153.82 110.505 1142.39 123.344 1132.27 122.375C1127.46 121.917 1123.09 119.495 1118.65 117.573C1095.07 107.38 1076.25 117.818 1052.77 122.635C1056.12 99.3854 1044.65 87.1875 1020.03 91.625C1007.65 93.8646 996.38 100 984.531 104.245C953.172 115.458 957.036 106.979 951.677 77.5104C948.156 58.1667 906.26 71.4167 895.26 75.6146C890.677 77.3542 879.542 80.5729 877.104 73.7761C875.016 67.9479 888.182 60.1094 891.427 56.4063C896.453 50.6979 897.646 41.5834 894.391 34.7084C891.068 27.6615 880.979 26.3281 874.021 29.8229C867.052 33.3021 862.427 40.0469 857.833 46.3438C855.094 50.1042 852.125 53.9167 848.016 56.0938C843.901 58.2604 838.323 58.349 835.01 55.0729C832.078 52.1667 831.719 47.6406 831.135 43.5469C828.135 22.4584 807.562 31.9219 800.229 44.4115C795.437 52.5625 791.531 62.0781 783.245 66.6511C776.458 70.4063 768.255 69.9479 760.516 70.4271C749.422 71.1146 743.49 75.1927 737.505 84.0521C733.344 90.1979 726.464 104.448 717.516 96.4219C693.969 75.3177 674.964 84.5521 647.906 86.0521C638.823 86.5521 629.172 84.1875 622.766 77.724C616.37 71.2709 613.833 61.4948 606.682 55.8906C587.974 41.2188 563.755 63.3386 555.12 79.1979C546.448 75.7813 536.484 75.1563 527.838 78.6198C516.448 83.1875 513.609 96.125 501.099 95.1823C495.724 94.7709 493.922 88.7865 486.807 89.3125C480.276 89.7969 474.661 96.4323 468.776 98.8229C441.193 110.068 453.406 78.0781 435.771 68.7031C428.495 64.8334 419.781 65.0469 411.594 65.9531C403.401 66.8646 395.078 68.375 386.995 66.7917C378.099 65.0469 370.349 59.7136 363.245 54.0781C351.432 44.7084 332.682 27.6823 316.469 37.1354C306.016 43.2396 293.505 57.25 308.417 72.8073C303.115 67.2709 296.896 66.7917 289.969 68.0938C282.312 69.5417 274.953 72.6302 268.651 77.2448C261.896 82.1823 258.609 87.4688 249.646 82.8073C240.87 78.25 234.531 69.9531 225.865 65.2709C209.963 56.6875 192.719 52.9063 178.302 66.0261C171.203 72.4844 164.786 80.5104 155.578 83.224C145.641 86.1615 135.156 82.125 125.38 78.6771C115.609 75.2292 104.338 72.4427 95.2812 77.474C91.3958 79.6354 88.3645 83.0417 84.7031 85.5573C65.052 99.1146 13.5781 61.2552 5.24994 103.74C1.4739 122.995 3.55723 278.401 2.40619 301.427C2.40619 301.427 1324.21 308.615 1324.24 308.615Z" fill="#231F20"/>
</g>
<path d="M429.083 58.3855C433.141 58.1199 436.88 56.099 440.469 54.2501C446.208 51.2969 457.068 42.4896 449.807 35.7709C443.427 29.8646 435.312 36.6199 432.104 42.6928C429.234 48.1303 428.109 58.4428 429.083 58.3855Z" fill="#3D81A8"/>
<path d="M220.297 47.6406C221.062 44.125 223.5 32.3021 220.328 21.1927C218.109 13.4531 210.682 4.10939 200.781 7.0521C192.391 9.56251 190.573 17.375 195.432 23.375C201.937 31.4011 205.25 28.875 220.297 47.6406Z" fill="#3D81A8"/>
<path d="M762.115 22.3385C766.849 26.9062 773.063 29.7604 778.359 33.6042C779.745 34.6146 781.13 35.6458 782.49 36.6927C783.073 37.1458 787.052 39.7031 786.99 40.2969C788.557 24.526 786.781 13.3333 775.734 5.15103C771.594 2.07811 766.625 0.828114 762.245 4.27603C758.479 7.23436 757.271 12.7344 758.729 17.1927C759.391 19.2135 760.609 20.8906 762.115 22.3385Z" fill="#3D81A8"/>
<mask id="mask1_15_117" style="mask-type:luminance" maskUnits="userSpaceOnUse" x="0" y="36" width="1325" height="274">
<path d="M0.958313 36.3334H1325V309.109H0.958313V36.3334Z" fill="white"/>
</mask>
<g mask="url(#mask1_15_117)">
<path d="M1323.53 309.443C1327.27 278.792 1324.14 140.146 1310.72 113.912C1307.05 106.724 1300.67 101.135 1292.89 99.0157C1272.22 93.3698 1256.95 114.62 1237.85 118.135C1221.07 121.219 1205.64 109.771 1188.38 109.422C1177.16 109.198 1165.86 111.182 1155.45 115.365C1146.32 119.021 1134.95 131.787 1124.89 130.828C1120.1 130.37 1115.76 127.964 1111.33 126.057C1087.88 115.912 1069.16 126.287 1045.8 131.089C1049.13 107.958 1037.72 95.823 1013.23 100.245C1000.92 102.464 989.703 108.573 977.927 112.792C946.724 123.953 950.573 115.51 945.24 86.198C941.734 66.9532 900.068 80.1407 889.12 84.3073C884.557 86.0469 873.479 89.25 871.057 82.4792C868.984 76.6823 878.703 67.7396 881.932 64.0573C887.318 57.9323 892.198 49.2188 887.365 42.0469C884.375 37.6094 878.797 35.7865 873.563 36.8386C863.328 38.8959 857.583 47.3959 851.891 55.198C848.688 59.5886 845.182 64.0521 839.87 65.8594C837.172 66.7865 834.167 66.8334 831.599 65.5782C826.422 63.0469 826.042 57.4011 825.328 52.4115C822.354 31.4375 801.88 40.849 794.583 53.2709C789.823 61.3855 785.932 70.849 777.698 75.4011C770.948 79.1355 762.786 78.6719 755.089 79.1511C744.047 79.8334 738.151 83.9011 732.193 92.698C728.052 98.8177 721.203 112.995 712.307 105.016C688.885 84.0157 669.984 93.2084 643.062 94.6928C634.031 95.1928 624.427 92.8386 618.057 86.4167C611.693 79.9948 609.167 70.2709 602.057 64.6875C585.042 51.3438 563.443 68.6042 553.302 83.7188C551.745 86.0313 548.901 87.099 546.208 86.3803C538.771 84.3855 530.745 84.4532 523.625 87.3021C512.292 91.8438 509.479 104.714 497.031 103.776C491.682 103.37 489.896 97.4115 482.812 97.9375C476.312 98.4167 470.734 105.016 464.875 107.401C437.443 118.589 449.589 86.7657 432.047 77.4323C424.807 73.5834 416.135 73.7969 407.99 74.7032C399.844 75.6094 391.568 77.1146 383.521 75.5365C374.672 73.7969 366.969 68.4948 359.901 62.8907C348.151 53.5678 329.469 36.5782 313.375 46.0417C306.734 49.948 299.906 58.4792 305.531 69.8386C306.698 72.2084 305.047 75.0105 302.417 74.9219C297.099 74.7344 291.094 76.0678 287.016 76.8282C279.396 78.2709 272.073 81.3438 265.807 85.9271C259.089 90.8438 255.812 96.1042 246.896 91.4688C238.167 86.9323 231.87 78.6771 223.234 74.0209C207.432 65.4896 190.271 61.7292 175.932 74.7761C168.87 81.2032 162.479 89.1771 153.323 91.8855C143.437 94.7969 133.01 90.7813 123.292 87.3542C113.568 83.9271 102.349 81.1511 93.3489 86.1615C89.4844 88.3125 86.4635 91.698 82.8281 94.2032C63.276 107.682 14.4635 65.5834 5.5781 111.495C1.87498 130.651 2.09894 286.537 0.958313 309.443H1323.53Z" fill="#3D81A8"/>
</g>
<mask id="mask2_15_117" style="mask-type:luminance" maskUnits="userSpaceOnUse" x="0" y="36" width="1325" height="274">
<path d="M0.958313 36.3334H1325V309.109H0.958313V36.3334Z" fill="white"/>
</mask>
<g mask="url(#mask2_15_117)">
<path d="M1323.53 309.443C1327.27 278.792 1324.14 140.146 1310.72 113.912C1307.05 106.724 1300.67 101.135 1292.89 99.0157C1272.22 93.3698 1256.95 114.62 1237.85 118.135C1221.07 121.219 1205.64 109.771 1188.38 109.422C1177.16 109.198 1165.86 111.182 1155.45 115.365C1146.32 119.021 1134.95 131.787 1124.89 130.828C1120.1 130.37 1115.76 127.964 1111.33 126.057C1087.88 115.912 1069.16 126.287 1045.8 131.089C1049.13 107.958 1037.72 95.823 1013.23 100.245C1000.92 102.464 989.703 108.573 977.927 112.792C946.724 123.953 950.573 115.51 945.24 86.198C941.734 66.9532 900.068 80.1407 889.12 84.3073C884.557 86.0469 873.479 89.25 871.057 82.4792C868.984 76.6823 878.703 67.7396 881.932 64.0573C887.318 57.9323 892.198 49.2188 887.365 42.0469C884.375 37.6094 878.797 35.7865 873.563 36.8386C863.328 38.8959 857.583 47.3959 851.891 55.198C848.688 59.5886 845.182 64.0521 839.87 65.8594C837.172 66.7865 834.167 66.8334 831.599 65.5782C826.422 63.0469 826.042 57.4011 825.328 52.4115C822.354 31.4375 801.88 40.849 794.583 53.2709C789.823 61.3855 785.932 70.849 777.698 75.4011C770.948 79.1355 762.786 78.6719 755.089 79.1511C744.047 79.8334 738.151 83.9011 732.193 92.698C728.052 98.8177 721.203 112.995 712.307 105.016C688.885 84.0157 669.984 93.2084 643.062 94.6928C634.031 95.1928 624.427 92.8386 618.057 86.4167C611.693 79.9948 609.167 70.2709 602.057 64.6875C585.042 51.3438 563.443 68.6042 553.302 83.7188C551.745 86.0313 548.901 87.099 546.208 86.3803C538.771 84.3855 530.745 84.4532 523.625 87.3021C512.292 91.8438 509.479 104.714 497.031 103.776C491.682 103.37 489.896 97.4115 482.812 97.9375C476.312 98.4167 470.734 105.016 464.875 107.401C437.443 118.589 449.589 86.7657 432.047 77.4323C424.807 73.5834 416.135 73.7969 407.99 74.7032C399.844 75.6094 391.568 77.1146 383.521 75.5365C374.672 73.7969 366.969 68.4948 359.901 62.8907C348.151 53.5678 329.469 36.5782 313.375 46.0417C306.734 49.948 299.906 58.4792 305.531 69.8386C306.698 72.2084 305.047 75.0105 302.417 74.9219C297.099 74.7344 291.094 76.0678 287.016 76.8282C279.396 78.2709 272.073 81.3438 265.807 85.9271C259.089 90.8438 255.812 96.1042 246.896 91.4688C238.167 86.9323 231.87 78.6771 223.234 74.0209C207.432 65.4896 190.271 61.7292 175.932 74.7761C168.87 81.2032 162.479 89.1771 153.323 91.8855C143.437 94.7969 133.01 90.7813 123.292 87.3542C113.568 83.9271 102.349 81.1511 93.3489 86.1615C89.4844 88.3125 86.4635 91.698 82.8281 94.2032C63.276 107.682 14.4635 65.5834 5.5781 111.495C1.87498 130.651 2.09894 286.537 0.958313 309.443H1323.53Z" fill="#3D81A8"/>
</g>
<path d="M1251.44 119.516C1256.02 116.505 1260.19 113.292 1264.62 110.177C1269.03 107.078 1273.7 104.005 1279.33 102.255C1282.14 101.412 1285.21 101.021 1288.24 101.365C1291.24 101.714 1294.22 102.75 1296.68 104.453C1298.83 105.906 1300.62 107.703 1302.08 109.703C1303.03 111.021 1301.25 112.646 1300.04 111.568C1298.36 110.083 1296.58 108.833 1294.67 107.912C1292.48 106.891 1290.19 106.318 1287.83 106.198C1285.49 106.104 1283.15 106.453 1280.8 107.167C1276.1 108.583 1271.49 111.182 1266.68 113.589C1261.9 116.031 1256.85 118.464 1251.44 119.516Z" fill="white"/>
<path d="M1145.42 127.948C1147.71 125.599 1150.06 123.401 1152.64 121.313C1153.95 120.313 1155.35 119.323 1156.95 118.537C1158.43 117.781 1159.95 117.141 1161.49 116.521C1167.65 114.047 1174.23 112.615 1180.87 112.125C1184.23 111.932 1187.45 111.849 1190.95 112.224C1194.36 112.63 1197.64 113.453 1200.75 114.537C1203.89 115.563 1206.87 116.87 1209.84 118.115C1212.79 119.385 1215.75 120.646 1218.68 122.167C1215.44 121.865 1212.24 121.307 1209.02 120.76L1199.62 118.802C1196.52 118.229 1193.48 117.719 1190.48 117.568C1189.01 117.49 1187.49 117.495 1185.92 117.547C1184.37 117.568 1182.82 117.662 1181.28 117.766C1175.08 118.208 1168.93 119.203 1162.85 120.703C1161.33 121.068 1159.84 121.542 1158.32 121.964C1156.92 122.339 1155.53 122.974 1154.11 123.656C1151.24 125 1148.41 126.63 1145.42 127.948Z" fill="white"/>
<path d="M1063.31 132.203C1068.19 129.635 1073.26 127.62 1078.6 126.146C1083.94 124.719 1089.64 123.948 1095.36 124.495C1101.06 124.99 1106.7 126.833 1111.52 129.557C1116.31 132.219 1120.38 136.573 1117.63 136.036C1114.88 135.437 1112.2 134.516 1109.72 133.62C1104.78 131.771 1099.9 130.589 1094.84 130.12C1089.81 129.641 1084.68 129.943 1079.42 130.5C1074.17 131.036 1068.82 131.906 1063.31 132.203Z" fill="white"/>
<path d="M972.823 120.141C979.594 116.797 986.141 113.344 992.891 110.188C996.245 108.51 999.719 107.036 1003.3 105.656C1006.89 104.328 1010.65 103.276 1014.51 102.578C1018.35 101.943 1022.35 101.667 1026.41 102.219C1030.4 102.823 1034.76 104.271 1037.76 107.589C1039.23 109.208 1040.36 111.109 1040.99 113.073C1041.65 115.036 1041.98 117.031 1042.09 118.984C1042.24 122.922 1040.21 122.844 1039.34 119.37C1038.55 115.917 1037.01 112.74 1034.67 110.745C1032.3 108.781 1029.16 107.771 1025.8 107.547C1022.44 107.281 1018.93 107.557 1015.44 108.156C1008.45 109.245 1001.6 111.813 994.568 114.245C987.484 116.646 980.292 119.036 972.823 120.141Z" fill="white"/>
<path d="M891.026 89.3021C895.469 86.3698 900.328 84.2553 905.302 82.4948C910.297 80.7865 915.464 79.5053 920.823 78.9167C923.5 78.6355 926.229 78.5105 928.995 78.7188C931.75 78.948 934.615 79.3751 937.422 80.8751C938.797 81.6303 940.224 82.7917 940.995 84.4688C941.37 85.2761 941.552 86.224 941.589 86.9271L941.677 88.8907C941.714 91.5209 939.745 91.849 938.943 89.3698L938.391 87.5001C938.214 86.9167 938.026 86.6146 937.755 86.2865C937.25 85.6823 936.484 85.2396 935.526 84.8959C933.583 84.2501 931.198 84.0678 928.781 84.0834C926.365 84.0834 923.906 84.2605 921.427 84.5469C916.469 85.0782 911.458 85.9219 906.406 86.7865C901.354 87.6355 896.281 88.5834 891.026 89.3021Z" fill="white"/>
<path d="M851.505 61.5105C853.521 58.4844 855.224 55.6147 857.208 52.7032C859.208 49.823 861.417 46.974 864.302 44.4844C865.755 43.2553 867.37 42.1199 869.188 41.2397C870.943 40.3907 873.167 39.6772 875.276 39.698C877.385 39.6667 879.49 40.099 881.313 41.0574C883.099 41.9897 882.021 43.6563 880.427 43.4792C878.844 43.2969 877.266 43.4272 875.802 43.7865C872.984 44.4428 870.448 46.3334 867.974 48.3959C865.51 50.5001 863.125 52.9584 860.521 55.3386C857.922 57.6928 855.016 60.1355 851.505 61.5105Z" fill="white"/>
<path d="M782.766 76.8021C786.292 73.724 788.948 70.3333 791.172 66.5729C793.443 62.8489 795.292 58.8802 797.568 54.8281L798.427 53.3281C798.703 52.8437 799.005 52.3229 799.38 51.7656C800.115 50.7031 800.906 49.6979 801.792 48.8125C803.547 47 805.563 45.5 807.786 44.3594C810.021 43.2604 812.505 42.4271 815.24 42.6562C815.854 42.7292 816.641 42.8906 817.286 43.2396C817.943 43.5885 819.318 44.5989 819.688 45.151C820.438 46.2604 819.458 46.7187 818.63 46.1771C817.771 45.625 815.063 45.2239 814.094 45.4427C812.24 45.776 811.599 46.7239 809.964 47.9167C808.323 49.1667 806.807 50.5989 805.526 52.1771C804.177 53.7292 803.307 55.3802 802.177 57.4427C799.99 61.3021 797.656 65.4375 794.51 69.0417C791.411 72.625 787.349 75.7031 782.766 76.8021Z" fill="white"/>
<path d="M643.359 100.031C648.823 98.5626 654.172 97.3022 659.609 96.1928C665.036 95.0626 670.578 94.1355 676.339 93.9584C682.042 93.7761 688.13 94.5626 693.5 97.0001C698.896 99.349 703.484 103.057 706.99 107.479C701.974 104.859 697.083 102.51 692.016 101.162C686.943 99.8074 681.823 99.4584 676.484 99.6095C671.167 99.7501 665.714 100.307 660.161 100.557C654.62 100.844 648.964 100.896 643.359 100.031Z" fill="white"/>
<path d="M566.177 79.4897C564.974 80.4897 563.38 78.9011 564.349 77.6824C566.589 74.8438 569.177 72.2449 572.073 69.9636C574.797 67.7865 577.854 65.9428 581.276 64.6615C584.672 63.3751 588.63 62.7553 592.51 63.5834C594.443 64.0053 596.297 64.7709 597.948 65.7657C598.766 66.2657 599.536 66.823 600.266 67.4167C601.036 68.0417 601.729 68.7188 602.354 69.4324C604.833 72.2917 606.422 75.3803 607.901 78.3542C609.422 81.323 610.807 84.2397 612.568 86.9376C614.26 89.6824 616.411 92.1303 618.896 94.422C615.75 93.172 612.891 91.1095 610.448 88.6407C608.036 86.1459 606.021 83.3074 604.187 80.5365C602.297 77.797 600.573 75.047 598.526 73.0053C598.01 72.5001 597.495 72.0313 596.958 71.6199C596.375 71.1928 595.776 70.797 595.167 70.4584C593.958 69.7605 592.687 69.2553 591.354 68.9792C586.01 67.8334 579.927 70.2917 574.516 73.4897C571.63 75.2501 568.854 77.2709 566.177 79.4897Z" fill="white"/>
<path d="M512.547 103.255C513.349 101.594 514.286 100.146 515.203 98.7031C516.135 97.2448 517.146 95.7969 518.344 94.4167C519.547 93.0469 520.969 91.7448 522.672 90.7083C524.417 89.6354 526.198 89.0052 528.021 88.5104C531.677 87.5521 535.495 87.526 539.083 88.2708C540.443 88.5521 541.781 88.9479 543.063 89.4583C544.76 90.125 544.297 92.6719 542.464 92.6406C541.182 92.625 539.927 92.6406 538.682 92.6979C535.474 92.8333 532.38 93.2239 529.438 93.9792C527.958 94.3646 526.484 94.8333 525.24 95.4062C523.932 95.9948 522.646 96.7969 521.318 97.7135C519.979 98.6146 518.641 99.6458 517.182 100.63C515.677 101.573 514.182 102.521 512.547 103.255Z" fill="white"/>
<path d="M411.12 78.474C413.318 78.0417 415.505 77.474 417.786 77.2865C422.344 77.0105 427.266 77.4844 431.781 80.2032C432.917 80.948 433.963 81.8334 434.838 82.8282C435.682 83.849 436.401 84.9167 436.974 86.0209C438.094 88.2396 438.781 90.4948 439.25 92.6927C440.203 97.1302 440.49 101.318 441.276 105.74C438.307 102.281 436.724 97.8959 435.021 94.0521C433.359 90.1563 431.536 86.6563 428.766 84.9844C425.776 83.1563 421.776 82.224 417.687 81.724C415.62 81.5052 413.469 81.4427 411.323 81.224C409.161 80.9219 408.922 78.9532 411.12 78.474Z" fill="white"/>
<path d="M310.51 53.5677C311.792 51.5625 313.411 49.8229 315.458 48.4531C317.495 47.0781 319.99 46.1927 322.5 45.9584C325 45.7552 327.479 46.0625 329.771 46.6875C334.354 47.9896 338.281 50.3698 341.771 53.0834C345.25 55.8438 348.333 58.9584 350.943 62.5573C346.849 60.8125 343.12 58.7031 339.365 56.8281C335.651 54.9375 331.948 53.1823 328.26 52.1354C324.547 51.1198 321.005 50.8906 317.589 52.3386C315.885 53.0573 314.12 54.0625 312.635 55.3386C311.078 56.5886 309.292 55.5834 310.51 53.5677Z" fill="white"/>
<path d="M218.38 80.5261C215.031 78.8959 211.635 77.4167 208.182 76.3125C201.328 74.0157 194.047 73.323 187.526 75.9323C184.245 77.25 181.307 79.2292 178.354 81.7605C175.354 84.1042 172.229 86.5105 169.042 88.6615C171.427 85.5417 173.922 82.7292 176.453 79.7552L178.396 77.573C179.089 76.8438 179.812 76.1407 180.578 75.4532C182.104 74.1042 183.828 72.9427 185.667 71.948C189.349 69.9323 193.635 69.0157 197.802 68.9532C201.984 68.9063 206.062 69.7448 209.917 70.9375C213.766 72.1875 217.411 73.8542 220.859 75.7813C224.437 77.724 227.698 80.3334 230.458 83.0209C232.755 85.1719 234.932 87.375 237.167 89.4844L218.38 80.5261Z" fill="white"/>
<path d="M91.3177 93.3386C92.1615 92.4375 93.0573 91.5365 94.0833 90.6875C95.1146 89.8281 96.3281 89.1094 97.5937 88.5521C100.156 87.4584 102.927 87.0834 105.557 87.099C108.208 87.1198 110.766 87.5417 113.245 88.125C118.224 89.3125 122.724 91.3542 127.094 93.2031C131.495 95.099 135.839 96.9063 140.557 98.4219C135.615 99.1459 130.542 98.3386 125.771 97.1927C120.948 96.0156 116.453 94.3802 111.99 93.3177C107.536 92.2656 103.036 91.5365 98.9687 92.5104C96.9531 92.974 95.0365 94.0156 92.9896 95.349C90.9375 96.6302 89.6927 95.2188 91.3177 93.3386Z" fill="white"/>
<path d="M12.125 108.984C12.151 106.688 12.5469 104.391 13.3646 102.135C14.224 99.9167 15.6354 97.7032 17.7448 96.1042C19.8333 94.4896 22.474 93.6511 24.9323 93.3907C27.4063 93.1094 29.7813 93.2292 32.125 93.5157C36.7813 94.1355 41.1667 95.4115 45.4063 96.9063C49.6406 98.3282 53.8073 99.8073 57.9844 101.849C53.4583 101.823 48.8906 101.354 44.4479 100.615C40.0313 99.8802 35.7188 98.9323 31.5 98.3802C27.2969 97.8698 23.1146 97.6094 19.8333 99.2969C16.4948 101.026 14.1615 104.922 12.125 108.984Z" fill="white"/>
<path d="M219.266 31.2448C219.083 26.2552 218.151 20.5677 215.031 15.7969C213.245 13.0677 208.63 7.38023 205.562 10.9011C203.125 13.6875 209.219 17.3177 211.51 19.7344C215.417 23.8334 217.229 26.2136 219.266 31.2448Z" fill="white"/>
<path d="M771.891 10.8072C774.786 13.5572 778.156 14.9947 783.505 22.927C783.12 18.1249 780.234 11.2604 775.792 7.55723C773.943 6.02078 772.12 5.15098 770.786 6.00515C769.214 7.01557 769.911 8.93223 771.891 10.8072Z" fill="white"/>
</svg>
