<svg xmlns="http://www.w3.org/2000/svg" xmlns:xlink="http://www.w3.org/1999/xlink" width="500" zoomAndPan="magnify" viewBox="0 0 375 374.999991" height="500" preserveAspectRatio="xMidYMid meet" version="1.0"><defs><clipPath id="4860cdc079"><path d="M 15.714844 76.039062 L 164.921875 76.039062 L 164.921875 218.882812 L 15.714844 218.882812 Z M 15.714844 76.039062 " clip-rule="nonzero"/></clipPath><clipPath id="42163483f2"><path d="M 15.824219 189.75 C 15.824219 189.675781 16.351562 187.726562 16.574219 186.675781 C 16.800781 185.699219 17.25 183.675781 17.324219 183.601562 C 17.324219 183.601562 18.226562 181.726562 18.75 180.824219 C 19.199219 179.851562 20.101562 178.050781 20.175781 178.050781 C 20.175781 177.976562 20.175781 177.976562 20.175781 177.976562 C 20.175781 177.976562 21.523438 176.398438 22.199219 175.648438 C 22.875 174.824219 24.226562 173.25 24.300781 173.25 C 24.375 173.175781 34.351562 160.800781 39.148438 156.226562 C 42.976562 152.625 50.699219 149.476562 50.175781 147.449219 C 49.726562 145.351562 38.25 147.75 35.101562 144.148438 C 30.898438 139.273438 30.449219 122.101562 32.699219 115.949219 C 34.050781 112.199219 40.425781 108.976562 40.273438 108.449219 C 40.273438 108.300781 39.976562 108.375 39.976562 108.300781 C 39.898438 108.226562 40.648438 107.925781 41.25 107.476562 C 42.824219 106.199219 46.050781 102.449219 49.273438 99.449219 C 53.925781 95.175781 62.324219 87.824219 66.75 84.523438 C 69.226562 82.648438 70.949219 81.601562 72.898438 80.476562 C 74.550781 79.5 75.976562 78.601562 77.699219 78 C 79.351562 77.398438 81.148438 76.949219 82.949219 76.726562 C 84.675781 76.5 86.550781 76.5 88.351562 76.726562 C 90.074219 76.949219 91.875 77.398438 93.601562 78.074219 C 95.25 78.675781 96.898438 79.574219 98.324219 80.625 C 99.824219 81.601562 101.625 83.324219 102.375 84.226562 C 102.75 84.601562 102.75 84.824219 103.050781 85.199219 C 103.425781 85.574219 103.875 85.949219 104.324219 86.476562 C 104.925781 87.074219 106.425781 88.5 106.425781 88.5 C 106.5 88.574219 107.476562 90.226562 108 91.050781 C 108.523438 91.875 109.574219 93.523438 109.574219 93.601562 C 109.574219 93.601562 109.648438 95.25 110.101562 95.324219 C 111.148438 95.625 115.5 90.148438 117.226562 88.574219 C 118.199219 87.675781 118.726562 87.148438 119.550781 86.476562 C 120.375 85.800781 121.199219 85.125 122.023438 84.523438 C 122.851562 83.851562 124.5 82.5 124.5 82.5 C 124.574219 82.5 126.449219 81.601562 127.425781 81.148438 C 128.398438 80.699219 130.273438 79.875 130.273438 79.875 C 130.351562 79.800781 132.375 79.425781 133.425781 79.273438 C 134.476562 79.050781 136.5 78.675781 136.574219 78.675781 C 136.574219 78.675781 138.675781 78.75 139.726562 78.824219 C 140.773438 78.824219 142.875 78.976562 142.875 78.976562 C 142.949219 78.976562 144.898438 79.574219 145.949219 79.875 C 146.925781 80.175781 148.949219 80.773438 148.949219 80.773438 C 148.949219 80.773438 148.949219 80.773438 149.023438 80.773438 C 149.023438 80.851562 150.824219 81.898438 151.726562 82.425781 C 152.625 82.949219 154.425781 84 154.425781 84.074219 C 154.425781 84.074219 154.425781 84.074219 154.5 84.074219 C 154.5 84.074219 156 85.5 156.75 86.25 C 157.5 87 159 88.5 159 88.5 C 159 88.5 160.125 90.300781 160.648438 91.199219 C 161.25 92.101562 162.300781 93.898438 162.375 93.898438 C 162.375 93.976562 162.976562 95.925781 163.351562 96.898438 C 163.648438 97.949219 164.25 99.898438 164.324219 99.976562 C 164.324219 99.976562 164.476562 102.074219 164.550781 103.125 C 164.625 104.175781 164.773438 106.273438 164.699219 106.273438 C 164.699219 106.351562 164.398438 108.375 164.175781 109.425781 C 164.023438 110.476562 163.648438 112.5 163.648438 112.574219 C 163.648438 112.648438 162.824219 114.523438 162.375 115.5 C 161.925781 116.476562 161.101562 118.351562 161.101562 118.425781 C 161.101562 118.425781 159.824219 120.074219 159.148438 120.898438 C 158.476562 121.800781 157.273438 123.375 157.199219 123.449219 C 157.125 123.523438 146.851562 136.273438 141.375 142.648438 C 135.824219 149.175781 129.523438 156.449219 124.199219 162.226562 C 119.773438 167.023438 113.324219 173.101562 111.601562 175.125 C 111.074219 175.726562 111 176.023438 110.699219 176.398438 C 110.398438 176.625 110.023438 176.773438 109.726562 177.074219 C 109.351562 177.375 109.050781 177.898438 108.523438 178.273438 C 107.851562 178.726562 106.800781 179.175781 106.050781 179.625 C 105.226562 180.148438 104.398438 180.976562 103.648438 181.273438 C 103.199219 181.5 102.75 181.5 102.300781 181.726562 C 101.851562 181.875 101.550781 182.25 101.023438 182.398438 C 100.273438 182.699219 98.925781 182.773438 98.25 182.925781 C 97.726562 183 97.648438 182.925781 97.125 183.226562 C 94.875 184.425781 87.300781 192 81.75 195.976562 C 75.898438 200.25 66.449219 204.675781 62.851562 207.824219 C 61.050781 209.398438 59.398438 211.949219 59.398438 211.949219 C 59.324219 211.949219 57.675781 213.148438 56.773438 213.75 C 55.949219 214.351562 54.300781 215.550781 54.226562 215.625 C 54.226562 215.625 52.273438 216.375 51.300781 216.75 C 50.324219 217.125 48.375 217.875 48.375 217.875 C 48.300781 217.875 46.273438 218.175781 45.226562 218.324219 C 44.175781 218.476562 42.148438 218.699219 42.148438 218.699219 C 42.074219 218.699219 40.050781 218.476562 39 218.398438 C 37.949219 218.25 35.925781 218.023438 35.851562 218.023438 C 35.851562 218.023438 33.898438 217.351562 32.925781 216.976562 C 31.949219 216.601562 30 215.925781 29.925781 215.851562 C 29.925781 215.851562 28.199219 214.726562 27.300781 214.125 C 26.476562 213.523438 24.75 212.398438 24.75 212.324219 C 24.675781 212.324219 23.324219 210.824219 22.574219 210 C 21.898438 209.25 20.550781 207.75 20.476562 207.675781 C 20.476562 207.675781 19.5 205.875 18.976562 204.898438 C 18.523438 204 17.550781 202.199219 17.476562 202.125 C 17.476562 202.125 16.949219 200.101562 16.726562 199.125 C 16.425781 198.074219 15.898438 196.125 15.898438 196.050781 C 15.898438 195.976562 15.898438 193.949219 15.898438 192.898438 C 15.898438 191.851562 15.824219 189.75 15.824219 189.75 " clip-rule="nonzero"/></clipPath><clipPath id="d72120606d"><path d="M 26.640625 101.566406 L 80.609375 101.566406 L 80.609375 156.695312 L 26.640625 156.695312 Z M 26.640625 101.566406 " clip-rule="nonzero"/></clipPath><clipPath id="b07c06ebec"><path d="M 33.375 118.5 C 44.625 105.976562 45.898438 105.226562 47.476562 104.398438 C 49.050781 103.574219 50.773438 102.898438 52.574219 102.449219 C 54.300781 102 56.175781 101.773438 57.976562 101.773438 C 59.773438 101.773438 61.574219 102 63.375 102.449219 C 65.101562 102.898438 66.824219 103.574219 68.476562 104.398438 C 70.050781 105.226562 71.550781 106.273438 72.898438 107.476562 C 74.25 108.675781 75.523438 110.101562 76.574219 111.523438 C 77.550781 113.023438 78.449219 114.675781 79.050781 116.398438 C 79.726562 118.050781 80.175781 119.851562 80.398438 121.648438 C 80.625 123.449219 80.625 125.324219 80.398438 127.125 C 80.175781 128.851562 79.726562 130.726562 79.050781 132.375 C 78.449219 134.101562 77.550781 135.75 76.574219 137.175781 C 75.523438 138.675781 75.074219 140.476562 72.898438 141.300781 C 67.574219 143.25 44.101562 140.550781 39.074219 136.800781 C 36.75 135 36.75 132.449219 36.148438 130.125 C 35.476562 127.800781 35.25 125.175781 35.398438 122.851562 C 35.625 120.449219 36.226562 117.898438 37.125 115.726562 C 38.023438 113.476562 39.375 111.300781 40.949219 109.5 C 42.523438 107.699219 44.550781 106.050781 46.648438 104.851562 C 48.675781 103.648438 51.074219 102.75 53.476562 102.226562 C 55.800781 101.773438 58.351562 101.699219 60.75 102 C 63.148438 102.300781 65.550781 102.976562 67.726562 104.023438 C 69.898438 105.074219 72 106.574219 73.726562 108.226562 C 75.449219 109.875 76.949219 111.976562 78.074219 114.074219 C 79.125 116.25 79.949219 118.648438 80.324219 121.050781 C 80.625 123.449219 80.625 126 80.175781 128.398438 C 79.726562 130.726562 78.898438 133.125 77.773438 135.226562 C 76.574219 137.324219 75 139.351562 73.273438 141 C 71.476562 142.648438 69.300781 144 67.125 144.976562 C 64.949219 145.949219 62.476562 146.625 60.074219 146.851562 C 57.675781 147.074219 55.125 146.925781 52.800781 146.324219 C 50.398438 145.800781 48.074219 144.824219 46.050781 143.550781 C 43.949219 142.273438 42.074219 140.550781 40.5 138.75 C 39 136.875 37.726562 134.625 36.824219 132.375 C 36 130.199219 35.476562 127.648438 35.398438 125.25 C 35.324219 122.851562 35.625 120.300781 36.300781 117.976562 C 36.976562 115.726562 38.101562 113.398438 39.449219 111.449219 C 40.875 109.425781 42.675781 107.625 44.550781 106.199219 C 46.5 104.773438 48.824219 103.574219 51.074219 102.898438 C 53.398438 102.148438 55.875 101.773438 58.273438 101.773438 C 60.675781 101.851562 63.226562 102.300781 65.476562 103.125 C 67.800781 103.875 72.074219 105.75 71.925781 106.648438 C 71.476562 108.300781 43.5 109.050781 42.976562 107.476562 C 42.75 106.800781 45.898438 105.226562 47.476562 104.398438 C 49.050781 103.574219 50.773438 102.898438 52.574219 102.449219 C 54.300781 102 56.175781 101.773438 57.976562 101.773438 C 59.773438 101.773438 61.574219 102 63.375 102.449219 C 65.101562 102.898438 66.824219 103.574219 68.476562 104.398438 C 70.050781 105.226562 71.550781 106.273438 72.898438 107.476562 C 74.25 108.675781 75.523438 110.101562 76.574219 111.523438 C 77.550781 113.023438 78.449219 114.675781 79.050781 116.398438 C 79.726562 118.050781 80.175781 119.851562 80.398438 121.648438 C 80.625 123.449219 80.625 125.324219 80.398438 127.125 C 80.175781 128.851562 79.726562 130.726562 79.050781 132.375 C 78.449219 134.023438 77.699219 135.449219 76.574219 137.175781 C 75 139.574219 72.601562 142.574219 70.125 145.125 C 67.351562 147.976562 63.449219 151.648438 60.675781 153.375 C 58.875 154.574219 57.449219 155.101562 55.800781 155.625 C 54.074219 156.148438 52.273438 156.449219 50.476562 156.601562 C 48.675781 156.675781 46.875 156.601562 45.148438 156.226562 C 43.351562 155.925781 41.625 155.398438 39.976562 154.648438 C 38.324219 153.898438 36.75 153 35.398438 151.875 C 33.976562 150.75 32.699219 149.476562 31.574219 148.050781 C 30.449219 146.625 29.550781 145.050781 28.800781 143.476562 C 28.050781 141.824219 27.523438 140.101562 27.226562 138.300781 C 26.851562 136.574219 26.773438 134.699219 26.851562 132.976562 C 27 131.175781 27.300781 129.375 27.824219 127.648438 C 28.351562 126 29.101562 124.273438 30.074219 122.773438 C 30.976562 121.199219 33.375 118.5 33.375 118.5 " clip-rule="nonzero"/></clipPath><clipPath id="de540b8f9d"><path d="M 20 80 L 360.535156 80 L 360.535156 299 L 20 299 Z M 20 80 " clip-rule="nonzero"/></clipPath><clipPath id="45a5e55e28"><path d="M 20.324219 226.199219 C 36.449219 203.699219 38.101562 202.726562 39.824219 201.375 C 41.398438 200.175781 42.75 199.125 44.324219 198.300781 C 45.898438 197.476562 47.625 196.800781 49.351562 196.425781 C 51.074219 195.976562 53.175781 195.75 54.675781 195.75 C 55.800781 195.75 56.625 196.5 57.523438 196.125 C 59.101562 195.449219 60 192.449219 62.101562 190.199219 C 65.925781 186.148438 73.648438 180.148438 79.273438 175.125 C 84.898438 170.101562 90.449219 165.148438 95.925781 160.050781 C 101.550781 154.949219 106.949219 149.773438 112.648438 144.449219 C 118.648438 138.75 125.023438 132.675781 131.101562 127.050781 C 136.949219 121.800781 142.5 116.699219 148.425781 111.824219 C 154.199219 106.949219 160.125 102.449219 166.199219 97.949219 C 172.351562 93.375 177.523438 87.523438 184.949219 84.75 C 193.648438 81.449219 207.824219 78 215.851562 81.449219 C 223.5 84.75 231 98.476562 232.726562 103.648438 C 233.550781 105.898438 232.125 108.976562 232.726562 109.199219 C 233.476562 109.5 235.273438 105.898438 237.523438 103.574219 C 241.574219 99.300781 254.324219 88.125 256.199219 86.476562 C 256.574219 86.25 256.800781 86.023438 256.800781 86.023438 C 256.800781 86.023438 258.75 85.125 259.800781 84.75 C 260.773438 84.300781 262.726562 83.476562 262.726562 83.398438 C 262.800781 83.398438 264.898438 83.101562 265.949219 82.875 C 267 82.726562 269.101562 82.351562 269.175781 82.351562 C 269.175781 82.351562 271.351562 82.5 272.398438 82.574219 C 273.449219 82.648438 275.625 82.800781 275.625 82.800781 C 275.699219 82.800781 277.726562 83.476562 278.699219 83.851562 C 279.75 84.148438 281.773438 84.824219 281.773438 84.824219 C 281.773438 84.824219 281.773438 84.824219 281.851562 84.824219 C 281.851562 84.824219 283.648438 85.949219 284.550781 86.550781 C 285.523438 87.148438 287.324219 88.273438 287.324219 88.273438 C 287.398438 88.273438 288.824219 89.851562 289.574219 90.601562 C 290.324219 91.351562 291.824219 92.851562 291.824219 92.925781 C 291.824219 92.925781 291.824219 92.925781 291.898438 92.925781 C 291.898438 92.925781 292.949219 94.800781 293.476562 95.699219 C 294.074219 96.675781 295.125 98.476562 295.125 98.550781 C 295.199219 98.550781 295.800781 100.574219 296.101562 101.625 C 296.398438 102.675781 297 104.699219 297 104.773438 C 297 104.773438 297.074219 106.875 297.148438 108 C 297.226562 109.050781 297.300781 111.226562 297.300781 111.226562 C 297.300781 111.300781 296.851562 113.023438 296.851562 113.699219 C 296.773438 114.148438 296.625 114.449219 296.925781 114.898438 C 298.875 117.074219 322.875 116.625 329.324219 122.699219 C 334.800781 127.875 336.226562 137.925781 336.375 145.726562 C 336.523438 153.675781 332.324219 163.726562 329.925781 170.023438 C 328.351562 174.300781 323.550781 178.125 324.675781 180.300781 C 326.324219 183.226562 339.976562 179.101562 345.601562 182.476562 C 351.601562 186 357.074219 194.699219 359.175781 202.050781 C 361.351562 209.625 360.523438 219.75 357.898438 227.25 C 355.425781 234.449219 347.851562 241.648438 344.398438 246.300781 C 342.300781 249.074219 339.449219 251.101562 339.148438 252.824219 C 339 253.726562 339.675781 254.25 340.050781 255.074219 C 340.351562 256.050781 341.175781 258.074219 341.175781 258.148438 C 341.175781 258.148438 341.25 259.125 341.324219 259.574219 C 341.398438 259.875 341.550781 260.101562 341.625 260.476562 C 341.699219 260.851562 341.550781 261.300781 341.550781 261.824219 C 341.625 262.648438 341.925781 264.523438 341.925781 264.601562 C 341.925781 264.675781 341.550781 266.851562 341.476562 267.75 C 341.476562 268.273438 341.550781 268.800781 341.476562 269.175781 C 341.398438 269.476562 341.324219 269.625 341.25 269.925781 C 341.175781 270.226562 341.101562 271.050781 341.101562 271.050781 C 341.101562 271.050781 340.273438 273.074219 339.898438 274.050781 C 339.523438 275.101562 338.773438 277.050781 338.773438 277.125 C 338.773438 277.125 338.625 277.199219 338.625 277.273438 C 338.625 277.273438 338.625 277.351562 338.550781 277.425781 C 338.550781 277.5 338.324219 277.726562 338.175781 277.949219 C 337.875 278.398438 337.351562 279.074219 336.898438 279.75 C 336.300781 280.574219 335.023438 282.375 335.023438 282.449219 C 335.023438 282.449219 334.125 283.125 333.824219 283.5 C 333.601562 283.726562 333.449219 284.023438 333.226562 284.25 C 332.925781 284.550781 332.476562 284.699219 332.101562 285 C 331.5 285.449219 330.148438 286.726562 330.148438 286.726562 C 330.074219 286.726562 327.601562 288.074219 327.226562 288.226562 C 327.226562 288.226562 327.226562 288.226562 327.148438 288.300781 C 326.925781 288.375 326.25 288.898438 325.949219 289.050781 C 325.648438 289.199219 325.5 289.125 325.273438 289.273438 C 324.976562 289.351562 324.375 289.726562 324.375 289.726562 C 324.300781 289.726562 322.273438 290.175781 321.226562 290.476562 C 320.175781 290.699219 318.074219 291.226562 318.074219 291.226562 C 318 291.226562 317.851562 291.226562 317.699219 291.226562 C 317.625 291.226562 317.625 291.300781 317.476562 291.300781 C 317.25 291.300781 316.875 291.226562 316.5 291.226562 C 316.050781 291.226562 315.449219 291.226562 314.773438 291.226562 C 313.875 291.226562 311.625 291.226562 311.550781 291.226562 C 311.550781 291.148438 311.550781 291.226562 311.550781 291.226562 C 311.550781 291.148438 310.351562 290.851562 309.898438 290.773438 C 309.449219 290.699219 309.148438 290.773438 308.773438 290.699219 C 308.398438 290.625 308.023438 290.324219 307.574219 290.175781 C 306.898438 289.949219 305.324219 289.574219 305.25 289.574219 C 305.175781 289.574219 287.699219 283.199219 285.449219 280.648438 C 284.625 279.75 285.375 278.476562 284.625 278.101562 C 282.675781 277.351562 274.875 285.449219 269.023438 286.425781 C 262.5 287.550781 252.449219 287.023438 247.050781 283.125 C 241.574219 279.148438 240.226562 262.875 236.625 262.648438 C 233.324219 262.5 230.476562 273.074219 226.199219 278.101562 C 221.398438 283.875 215.550781 291.601562 208.574219 294.976562 C 201.523438 298.351562 191.851562 300 184.050781 298.273438 C 175.574219 296.324219 164.925781 289.273438 159.898438 282.375 C 155.398438 276.148438 157.351562 260.625 153.675781 259.648438 C 150.523438 258.75 145.574219 267.976562 140.550781 272.175781 C 134.625 277.199219 127.273438 283.5 120.074219 287.175781 C 113.25 290.625 105.898438 293.851562 98.625 294 C 91.199219 294.148438 81.601562 292.425781 75.898438 287.773438 C 70.050781 282.976562 65.851562 272.25 64.425781 265.199219 C 63.300781 259.726562 67.351562 250.574219 65.550781 249.675781 C 63.675781 248.699219 58.574219 258.074219 53.25 259.875 C 46.273438 262.199219 31.273438 263.324219 25.726562 258.300781 C 19.648438 252.898438 20.324219 226.199219 20.324219 226.199219 " clip-rule="nonzero"/></clipPath><clipPath id="7a32bc1875"><path d="M 269 235.601562 L 314.53125 235.601562 L 314.53125 280.097656 L 269 280.097656 Z M 269 235.601562 " clip-rule="nonzero"/></clipPath><clipPath id="09d47562cd"><path d="M 292.351562 235.648438 C 301.648438 237.601562 303.898438 238.726562 305.773438 240.148438 C 307.648438 241.574219 309.375 243.449219 310.726562 245.398438 C 312 247.351562 313.050781 249.601562 313.726562 251.925781 C 314.324219 254.175781 314.625 256.648438 314.476562 259.050781 C 314.324219 261.375 313.800781 263.851562 312.976562 266.023438 C 312.074219 268.199219 310.800781 270.375 309.226562 272.175781 C 307.726562 273.976562 305.773438 275.625 303.75 276.824219 C 301.726562 278.023438 299.398438 279 297.074219 279.523438 C 294.824219 279.976562 292.273438 280.125 289.949219 279.898438 C 287.625 279.601562 285.148438 278.925781 283.050781 277.949219 C 280.875 276.976562 278.773438 275.550781 277.050781 273.898438 C 275.398438 272.324219 273.824219 270.300781 272.773438 268.199219 C 271.648438 266.101562 270.824219 263.773438 270.449219 261.449219 C 270.074219 259.125 270.074219 256.574219 270.449219 254.25 C 270.824219 251.925781 271.648438 249.523438 272.773438 247.425781 C 273.824219 245.324219 275.398438 243.375 277.050781 241.726562 C 278.773438 240.074219 280.875 238.726562 283.050781 237.675781 C 285.148438 236.699219 287.625 236.023438 289.949219 235.800781 C 292.273438 235.5 294.824219 235.648438 297.074219 236.175781 C 299.398438 236.699219 301.726562 237.601562 303.75 238.800781 C 305.773438 240.074219 307.726562 241.648438 309.226562 243.449219 C 310.800781 245.25 312.074219 247.425781 312.976562 249.601562 C 313.800781 251.851562 314.324219 254.25 314.476562 256.648438 C 314.625 258.976562 314.324219 261.523438 313.726562 263.773438 C 313.050781 266.023438 312 268.351562 310.726562 270.300781 C 309.375 272.25 307.648438 274.050781 305.773438 275.476562 C 303.898438 276.898438 301.648438 278.101562 299.398438 278.851562 C 297.148438 279.601562 294.523438 279.898438 292.351562 279.976562 C 290.398438 280.125 288.75 279.976562 287.023438 279.601562 C 285.226562 279.300781 283.5 278.699219 281.925781 277.949219 C 280.273438 277.273438 278.699219 276.300781 277.351562 275.175781 C 276 274.050781 274.648438 272.773438 273.601562 271.351562 C 272.550781 269.925781 271.574219 268.351562 270.898438 266.699219 C 270.148438 265.125 269.625 263.324219 269.324219 261.601562 C 269.023438 259.875 268.949219 258 269.101562 256.273438 C 269.175781 254.476562 269.550781 252.675781 270.074219 251.023438 C 270.675781 249.300781 271.425781 247.648438 272.324219 246.148438 C 273.300781 244.648438 274.425781 243.226562 275.699219 241.949219 C 276.976562 240.75 278.398438 239.625 279.976562 238.726562 C 281.476562 237.824219 283.125 237.074219 284.851562 236.550781 C 286.574219 236.023438 290.101562 235.648438 290.101562 235.648438 " clip-rule="nonzero"/></clipPath><clipPath id="201b6a1623"><path d="M 276.046875 224.972656 L 339.792969 224.972656 L 339.792969 292.5 L 276.046875 292.5 Z M 276.046875 224.972656 " clip-rule="nonzero"/></clipPath><clipPath id="da4e6451a8"><path d="M 276.074219 259.726562 C 276.898438 252.675781 277.5 250.875 278.25 249.300781 C 279.074219 247.726562 280.050781 246.148438 281.175781 244.726562 C 282.300781 243.375 283.800781 241.949219 285.074219 241.050781 C 286.050781 240.300781 287.476562 239.773438 287.851562 239.476562 C 287.925781 239.398438 287.925781 239.324219 288 239.25 C 288.074219 238.949219 288.148438 238.425781 288.375 237.976562 C 288.675781 237.375 289.351562 236.625 289.875 235.949219 C 290.324219 235.199219 290.625 234.226562 291.074219 233.699219 C 291.375 233.324219 291.75 233.175781 292.050781 232.875 C 292.351562 232.5 292.425781 232.125 292.800781 231.824219 C 293.25 231.300781 294.226562 230.851562 294.898438 230.324219 C 295.5 229.800781 296.175781 228.976562 296.773438 228.601562 C 297.148438 228.375 297.601562 228.300781 297.976562 228.148438 C 298.273438 227.925781 298.5 227.625 298.949219 227.398438 C 299.625 227.101562 300.601562 226.949219 301.425781 226.648438 C 302.25 226.351562 303.074219 225.75 303.75 225.601562 C 304.273438 225.523438 304.648438 225.601562 305.023438 225.523438 C 305.476562 225.449219 305.773438 225.226562 306.226562 225.148438 C 306.976562 225.074219 307.949219 225.226562 308.773438 225.226562 C 309.675781 225.148438 310.648438 224.925781 311.324219 225 C 311.851562 225.074219 312.148438 225.226562 312.601562 225.300781 C 312.976562 225.375 313.351562 225.226562 313.875 225.375 C 314.550781 225.449219 315.449219 225.976562 316.273438 226.199219 C 317.101562 226.5 318.300781 226.574219 318.75 226.875 C 318.976562 226.949219 318.898438 227.175781 319.125 227.25 C 319.5 227.550781 320.25 227.550781 321 228 C 322.5 228.824219 325.273438 230.851562 326.925781 232.726562 C 328.648438 234.601562 330.449219 237.675781 331.050781 239.175781 C 331.351562 239.851562 331.125 240.226562 331.5 240.824219 C 332.023438 241.875 333.75 242.476562 334.648438 244.351562 C 336.75 248.550781 340.726562 260.25 339.226562 267.675781 C 337.648438 275.550781 331.425781 286.351562 324.375 290.023438 C 316.949219 293.851562 303.074219 292.875 295.273438 289.199219 C 287.851562 285.75 280.425781 273.976562 278.101562 269.550781 C 277.125 267.675781 277.273438 266.625 276.976562 265.050781 C 276.601562 263.398438 276.074219 259.726562 276.074219 259.726562 " clip-rule="nonzero"/></clipPath><clipPath id="fa0b768056"><path d="M 16 200.820312 L 120 200.820312 L 120 267.402344 L 16 267.402344 Z M 16 200.820312 " clip-rule="nonzero"/></clipPath><clipPath id="d71e9bc245"><path d="M 65.101562 241.875 C 58.050781 244.574219 46.726562 227.925781 48.375 222.074219 C 49.949219 216.601562 63.898438 212.101562 69.148438 210.675781 C 72 209.925781 74.101562 211.273438 76.199219 210.449219 C 78.375 209.550781 79.800781 206.476562 81.976562 205.050781 C 84.074219 203.625 86.625 202.5 89.101562 201.824219 C 91.574219 201.148438 94.351562 200.851562 96.976562 201 C 99.523438 201.148438 102.226562 201.75 104.625 202.726562 C 107.023438 203.699219 109.351562 205.125 111.375 206.851562 C 113.324219 208.574219 115.050781 210.675781 116.398438 212.925781 C 117.75 215.101562 118.726562 217.726562 119.25 220.199219 C 119.773438 222.75 119.925781 225.523438 119.625 228.074219 C 119.324219 230.699219 118.574219 233.324219 117.449219 235.648438 C 116.398438 237.976562 114.824219 240.300781 113.023438 242.175781 C 111.226562 244.050781 109.050781 245.699219 106.726562 246.898438 C 104.398438 248.101562 101.773438 248.925781 99.226562 249.375 C 96.675781 249.75 93.898438 249.75 91.351562 249.300781 C 88.800781 248.851562 86.175781 247.949219 83.925781 246.75 C 81.601562 245.476562 79.425781 243.824219 77.699219 241.875 C 75.898438 240 74.398438 237.75 73.273438 235.351562 C 72.226562 233.023438 71.476562 230.324219 71.25 227.773438 C 70.949219 225.148438 71.175781 222.449219 71.699219 219.898438 C 72.300781 217.351562 73.351562 214.800781 74.699219 212.625 C 76.050781 210.375 77.851562 208.273438 79.800781 206.625 C 81.824219 204.976562 84.226562 203.550781 86.625 202.648438 C 89.023438 201.675781 91.726562 201.074219 94.351562 201 C 96.898438 200.851562 99.675781 201.148438 102.148438 201.898438 C 104.625 202.574219 107.101562 203.773438 109.273438 205.273438 C 111.375 206.699219 113.398438 208.648438 114.976562 210.675781 C 116.476562 212.773438 117.75 215.25 118.574219 217.648438 C 119.398438 220.125 119.851562 222.898438 119.773438 225.449219 C 119.773438 228.074219 119.324219 230.773438 118.5 233.25 C 117.601562 235.648438 117.074219 237.824219 114.75 240.148438 C 110.324219 244.648438 98.175781 251.25 89.851562 254.175781 C 82.351562 256.726562 74.699219 255.601562 67.199219 257.699219 C 59.324219 259.875 51.226562 267.148438 43.648438 267.148438 C 36.449219 267.148438 27.148438 264.074219 22.648438 258.601562 C 17.398438 252.074219 14.699219 236.550781 16.949219 228.300781 C 18.976562 221.023438 27.976562 214.800781 32.625 210.675781 C 35.699219 207.898438 38.476562 206.023438 41.023438 204.675781 C 42.824219 203.773438 44.398438 203.324219 46.125 202.949219 C 47.851562 202.574219 49.726562 202.425781 51.449219 202.425781 C 53.25 202.5 55.050781 202.800781 56.773438 203.25 C 58.5 203.699219 60.226562 204.449219 61.726562 205.351562 C 63.300781 206.175781 64.800781 207.300781 66.074219 208.5 C 67.351562 209.699219 68.550781 211.125 69.523438 212.625 C 70.5 214.125 71.324219 215.773438 71.851562 217.5 C 72.449219 219.148438 72.824219 220.949219 72.976562 222.75 C 73.199219 224.476562 73.125 226.351562 72.824219 228.074219 C 72.601562 229.875 72.074219 231.675781 71.398438 233.25 C 70.726562 234.898438 69.824219 236.550781 68.773438 237.976562 C 67.726562 239.398438 65.101562 241.875 65.101562 241.875 " clip-rule="nonzero"/></clipPath><clipPath id="894bca4967"><path d="M 182 83.59375 L 294 83.59375 L 294 172.910156 L 182 172.910156 Z M 182 83.59375 " clip-rule="nonzero"/></clipPath><clipPath id="b90a558187"><path d="M 273.75 128.398438 C 262.800781 130.875 254.175781 135.75 247.125 141.148438 C 238.050781 148.125 225.675781 164.773438 219.074219 169.199219 C 216.148438 171.148438 214.351562 171.601562 211.875 172.199219 C 209.324219 172.800781 206.625 172.949219 204.074219 172.726562 C 201.449219 172.5 198.824219 171.75 196.5 170.699219 C 194.101562 169.648438 191.851562 168.148438 189.898438 166.425781 C 188.023438 164.699219 186.375 162.523438 185.101562 160.273438 C 183.898438 158.023438 182.925781 155.398438 182.476562 152.925781 C 182.023438 150.375 182.023438 147.601562 182.398438 145.050781 C 182.773438 142.5 183.601562 139.875 184.800781 137.625 C 185.925781 135.300781 187.574219 133.125 189.449219 131.324219 C 191.25 129.523438 193.5 127.949219 195.824219 126.824219 C 198.148438 125.699219 200.773438 124.949219 203.324219 124.648438 C 205.875 124.351562 208.648438 124.425781 211.199219 124.949219 C 213.675781 125.476562 216.226562 126.449219 218.476562 127.726562 C 220.726562 129.074219 222.824219 130.800781 224.550781 132.75 C 226.199219 134.625 227.625 137.023438 228.675781 139.351562 C 229.648438 141.75 230.25 144.449219 230.398438 147 C 230.625 149.550781 230.324219 152.324219 229.726562 154.800781 C 229.050781 157.273438 227.925781 159.75 226.5 161.925781 C 225.074219 164.101562 223.273438 166.125 221.25 167.699219 C 219.148438 169.273438 216.75 170.625 214.351562 171.449219 C 211.949219 172.273438 209.25 172.800781 206.625 172.800781 C 204.074219 172.875 201.375 172.425781 198.898438 171.675781 C 196.425781 170.851562 194.023438 169.648438 191.925781 168.074219 C 189.898438 166.574219 187.949219 164.625 186.449219 162.523438 C 185.023438 160.351562 183.824219 157.875 183.074219 155.476562 C 182.398438 153 182.023438 150.226562 182.175781 147.675781 C 182.25 145.125 182.773438 142.425781 183.75 140.023438 C 184.648438 137.625 185.699219 135.75 187.648438 133.273438 C 190.726562 129.226562 196.574219 123.824219 201.601562 119.175781 C 207 114.148438 212.925781 109.050781 219.148438 104.398438 C 225.601562 99.523438 232.425781 93.824219 239.773438 90.523438 C 247.050781 87.226562 256.574219 85.351562 262.949219 84.449219 C 267.449219 83.773438 271.351562 83.699219 274.425781 84 C 276.523438 84.226562 278.023438 84.75 279.675781 85.425781 C 281.324219 86.023438 282.898438 86.925781 284.398438 87.976562 C 285.824219 89.023438 287.175781 90.226562 288.375 91.574219 C 289.5 93 290.550781 94.5 291.375 96.074219 C 292.125 97.726562 292.800781 99.449219 293.175781 101.175781 C 293.550781 102.898438 293.773438 104.773438 293.773438 106.5 C 293.699219 108.300781 293.476562 110.175781 293.023438 111.898438 C 292.574219 113.625 291.898438 115.351562 291 116.925781 C 290.175781 118.425781 289.125 120 287.851562 121.273438 C 286.648438 122.625 285.300781 123.824219 283.800781 124.800781 C 282.300781 125.773438 280.648438 126.601562 279 127.199219 C 277.273438 127.800781 273.75 128.398438 273.75 128.398438 " clip-rule="nonzero"/></clipPath><clipPath id="fa3d1bc07b"><path d="M 233 80.847656 L 290.796875 80.847656 L 290.796875 151.691406 L 233 151.691406 Z M 233 80.847656 " clip-rule="nonzero"/></clipPath><clipPath id="0f33f998b1"><path d="M 239.175781 98.324219 C 244.648438 90.675781 252.675781 81.601562 259.5 80.925781 C 267.523438 80.175781 282.226562 87.148438 287.023438 93.976562 C 291.375 100.199219 291.148438 111.074219 289.5 118.800781 C 287.773438 126.449219 279.523438 135.976562 276.75 140.101562 C 275.550781 141.898438 275.175781 142.574219 273.976562 143.773438 C 272.398438 145.351562 270.226562 147.300781 268.050781 148.574219 C 265.875 149.773438 263.398438 150.75 261 151.199219 C 258.523438 151.648438 255.898438 151.726562 253.425781 151.425781 C 250.949219 151.125 248.398438 150.300781 246.148438 149.25 C 243.898438 148.125 241.800781 146.550781 240 144.824219 C 238.199219 143.101562 236.699219 140.925781 235.574219 138.675781 C 234.449219 136.5 233.699219 133.949219 233.324219 131.476562 C 232.949219 129 233.023438 126.375 233.476562 123.898438 C 234 121.425781 234.898438 118.949219 236.101562 116.773438 C 237.300781 114.601562 238.949219 112.574219 240.824219 110.851562 C 242.625 109.199219 244.875 107.773438 247.199219 106.800781 C 249.449219 105.75 252.074219 105.148438 254.550781 104.925781 C 257.023438 104.699219 259.648438 104.925781 262.050781 105.523438 C 264.449219 106.125 266.925781 107.175781 269.023438 108.449219 C 271.125 109.800781 273.148438 111.601562 274.648438 113.550781 C 276.226562 115.425781 277.574219 117.75 278.398438 120.074219 C 279.300781 122.398438 279.824219 125.023438 279.898438 127.5 C 279.976562 130.050781 279.601562 132.675781 278.851562 135 C 278.175781 137.398438 276.976562 139.800781 275.550781 141.824219 C 274.050781 143.851562 272.25 145.726562 270.226562 147.226562 C 268.199219 148.648438 265.800781 149.851562 263.398438 150.601562 C 261.074219 151.351562 258.449219 151.648438 255.898438 151.648438 C 253.425781 151.574219 250.800781 151.050781 248.476562 150.226562 C 246.148438 149.398438 243.824219 148.050781 241.875 146.550781 C 239.925781 144.976562 238.199219 143.023438 236.851562 140.925781 C 235.5 138.824219 234.375 136.351562 233.773438 133.949219 C 233.175781 131.550781 232.949219 128.925781 233.175781 126.375 C 233.324219 123.898438 234 121.351562 234.976562 119.023438 C 235.949219 116.773438 236.925781 113.101562 239.023438 112.648438 C 242.398438 111.976562 249 122.175781 255.226562 123.300781 C 262.273438 124.648438 278.476562 115.800781 279.75 117.675781 C 280.574219 118.875 275.773438 123.898438 273.824219 125.925781 C 272.324219 127.425781 271.050781 128.324219 269.550781 129.226562 C 267.976562 130.125 266.324219 130.875 264.601562 131.398438 C 262.875 131.925781 261.074219 132.226562 259.351562 132.300781 C 257.550781 132.375 255.675781 132.300781 253.949219 131.925781 C 252.226562 131.625 250.425781 131.023438 248.851562 130.273438 C 247.199219 129.523438 245.625 128.625 244.273438 127.5 C 242.851562 126.375 241.574219 125.101562 240.449219 123.675781 C 239.398438 122.25 238.425781 120.675781 237.75 119.023438 C 237 117.375 236.476562 115.648438 236.175781 113.851562 C 235.875 112.125 235.800781 110.324219 235.875 108.523438 C 236.023438 106.726562 236.324219 104.925781 236.925781 103.199219 C 237.449219 101.550781 239.175781 98.324219 239.175781 98.324219 " clip-rule="nonzero"/></clipPath></defs><g clip-path="url(#4860cdc079)"><g clip-path="url(#42163483f2)"><path fill="#fff4c3" d="M 12.824219 73.726562 L 167.816406 73.726562 L 167.816406 221.773438 L 12.824219 221.773438 Z M 12.824219 73.726562 " fill-opacity="1" fill-rule="nonzero"/></g></g><g clip-path="url(#d72120606d)"><g clip-path="url(#b07c06ebec)"><path fill="#fff4c3" d="M 23.851562 98.773438 L 83.398438 98.773438 L 83.398438 159.488281 L 23.851562 159.488281 Z M 23.851562 98.773438 " fill-opacity="1" fill-rule="nonzero"/></g></g><g clip-path="url(#de540b8f9d)"><g clip-path="url(#45a5e55e28)"><path fill="#fff4c3" d="M 17.324219 78.449219 L 362.03125 78.449219 L 362.03125 301.273438 L 17.324219 301.273438 Z M 17.324219 78.449219 " fill-opacity="1" fill-rule="nonzero"/></g></g><g clip-path="url(#7a32bc1875)"><g clip-path="url(#09d47562cd)"><path fill="#fff4c3" d="M 266.101562 232.648438 L 317.484375 232.648438 L 317.484375 283.050781 L 266.101562 283.050781 Z M 266.101562 232.648438 " fill-opacity="1" fill-rule="nonzero"/></g></g><g clip-path="url(#201b6a1623)"><g clip-path="url(#da4e6451a8)"><path fill="#fff4c3" d="M 273.074219 222 L 342.226562 222 L 342.226562 293.039062 L 273.074219 293.039062 Z M 273.074219 222 " fill-opacity="1" fill-rule="nonzero"/></g></g><g clip-path="url(#fa0b768056)"><g clip-path="url(#d71e9bc245)"><path fill="#fff4c3" d="M 13.949219 198 L 122.851562 198 L 122.851562 270.226562 L 13.949219 270.226562 Z M 13.949219 198 " fill-opacity="1" fill-rule="nonzero"/></g></g><g clip-path="url(#894bca4967)"><g clip-path="url(#b90a558187)"><path fill="#fff4c3" d="M 179.175781 81 L 297.027344 81 L 297.027344 175.875 L 179.175781 175.875 Z M 179.175781 81 " fill-opacity="1" fill-rule="nonzero"/></g></g><g clip-path="url(#fa3d1bc07b)"><g clip-path="url(#0f33f998b1)"><path fill="#fff4c3" d="M 230.175781 77.925781 L 292.5 77.925781 L 292.5 154.613281 L 230.175781 154.613281 Z M 230.175781 77.925781 " fill-opacity="1" fill-rule="nonzero"/></g></g></svg>