<svg xmlns="http://www.w3.org/2000/svg" xmlns:xlink="http://www.w3.org/1999/xlink" width="1366" zoomAndPan="magnify" viewBox="0 0 1024.5 576" height="768" preserveAspectRatio="xMidYMid meet" version="1.0"><defs><clipPath id="1b3210f364"><path d="M 519.589844 266 L 904.496094 266 L 904.496094 559 L 519.589844 559 Z M 519.589844 266 " clip-rule="nonzero"/></clipPath><clipPath id="100a6a9a3d"><path d="M 519.703125 497.394531 C 520.75 478.261719 522.09375 473.480469 523.886719 469.144531 C 525.679688 464.660156 528.074219 460.476562 530.914062 456.589844 C 533.75 452.703125 537.039062 449.117188 540.777344 446.128906 C 544.363281 442.988281 548.546875 440.300781 552.734375 438.207031 C 557.066406 436.113281 561.699219 434.621094 566.335938 433.574219 C 570.96875 432.527344 575.898438 432.078125 580.683594 432.230469 C 585.316406 432.378906 594.882812 434.320312 594.882812 434.320312 C 594.882812 434.320312 616.550781 441.792969 619.09375 439.703125 C 620.289062 438.804688 619.242188 436.5625 619.242188 434.621094 C 619.09375 432.078125 618.347656 428.492188 618.496094 426.101562 C 618.644531 424.457031 619.242188 423.410156 619.542969 422.066406 C 619.691406 420.570312 619.242188 419.375 619.542969 417.730469 C 619.988281 415.488281 621.632812 412.5 622.53125 409.808594 C 623.277344 406.96875 623.578125 403.683594 624.472656 401.441406 C 625.070312 399.945312 626.117188 399.199219 626.714844 397.851562 C 627.464844 396.65625 627.464844 395.3125 628.210938 393.816406 C 629.40625 391.875 631.945312 389.484375 633.589844 387.242188 C 635.234375 385 636.582031 381.710938 638.074219 380.066406 C 639.121094 378.871094 640.316406 378.421875 641.363281 377.375 C 642.410156 376.332031 642.859375 375.136719 644.054688 374.089844 C 645.699219 372.445312 648.835938 371.101562 651.226562 369.457031 C 653.46875 367.8125 655.710938 365.269531 657.804688 364.074219 C 659.148438 363.179688 660.492188 363.179688 661.839844 362.582031 C 663.035156 361.984375 663.78125 360.9375 665.277344 360.339844 C 667.519531 359.292969 670.957031 358.992188 673.644531 358.246094 C 676.335938 357.347656 681.566406 355.257812 681.566406 355.257812 C 681.417969 354.957031 683.960938 339.863281 690.085938 331.792969 C 701.148438 317.59375 730.292969 296.96875 754.953125 286.65625 C 781.554688 275.445312 821.164062 259.902344 845.824219 269.617188 C 871.230469 279.78125 900.675781 322.675781 903.8125 349.277344 C 906.652344 372.59375 889.765625 399.347656 874.519531 419.675781 C 858.230469 441.347656 830.28125 457.9375 807.261719 473.929688 C 785.144531 489.023438 762.425781 500.980469 739.257812 513.683594 C 715.792969 526.386719 692.628906 542.679688 667.519531 550.152344 C 642.707031 557.328125 608.78125 560.015625 589.800781 558.074219 C 578.441406 556.730469 570.519531 551.945312 563.195312 549.253906 C 557.964844 547.3125 553.929688 546.117188 549.894531 543.726562 C 545.707031 541.484375 541.671875 538.496094 538.234375 535.355469 C 534.796875 532.066406 531.660156 528.332031 528.96875 524.296875 C 526.429688 520.261719 524.1875 515.925781 522.691406 511.441406 C 521.199219 506.957031 519.703125 497.394531 519.703125 497.394531 " clip-rule="nonzero"/></clipPath><clipPath id="19a9934c06"><path d="M 210 36 L 806.523438 36 L 806.523438 507 L 210 507 Z M 210 36 " clip-rule="nonzero"/></clipPath><clipPath id="abdaee976d"><path d="M 211.066406 388.585938 C 213.757812 363.179688 214.058594 358.84375 215.402344 354.507812 C 216.746094 350.027344 218.691406 345.542969 220.933594 341.65625 C 223.324219 337.621094 226.164062 333.734375 229.453125 330.445312 C 232.589844 327.160156 236.328125 324.167969 240.363281 321.628906 C 244.25 319.238281 248.582031 317.144531 252.917969 315.800781 C 257.402344 314.304688 262.035156 313.40625 266.667969 312.960938 C 271.300781 312.660156 276.082031 312.808594 280.714844 313.707031 C 285.199219 314.453125 289.832031 315.800781 294.019531 317.59375 C 298.351562 319.386719 302.539062 321.925781 306.125 324.617188 C 309.859375 327.457031 313.296875 330.746094 316.136719 334.480469 C 319.128906 338.070312 321.667969 342.105469 323.613281 346.289062 C 325.554688 350.472656 327.050781 355.109375 327.945312 359.589844 C 328.84375 364.074219 328.992188 373.492188 328.992188 373.492188 C 328.992188 373.492188 327.347656 393.519531 329.289062 393.96875 C 332.878906 394.714844 346.03125 342.105469 361.425781 320.730469 C 376.96875 298.761719 401.332031 281.574219 422.703125 264.535156 C 443.476562 247.945312 469.335938 232.402344 487.417969 219.398438 C 500.722656 209.832031 518.957031 197.875 521.644531 194.140625 C 522.09375 193.390625 521.945312 193.242188 522.09375 192.347656 C 522.542969 190.550781 522.992188 186.21875 523.886719 183.378906 C 524.636719 180.988281 526.429688 177.996094 527.027344 176.503906 C 527.324219 175.90625 527.324219 175.457031 527.472656 175.007812 C 527.625 174.710938 527.773438 174.710938 528.222656 174.113281 C 530.015625 170.972656 535.992188 153.039062 543.617188 140.78125 C 554.527344 122.996094 571.414062 97.589844 591.890625 80.699219 C 614.757812 61.867188 648.238281 38.851562 677.082031 36.160156 C 704.734375 33.769531 760.183594 63.511719 761.378906 62.464844 C 761.378906 62.464844 761.230469 62.167969 761.230469 62.167969 C 761.230469 62.167969 761.230469 62.464844 761.378906 62.464844 C 761.976562 63.0625 766.757812 62.765625 768.402344 64.707031 C 770.796875 67.546875 768.554688 73.675781 770.796875 80.699219 C 775.578125 96.09375 806.964844 127.332031 806.367188 150.347656 C 805.917969 173.363281 784.695312 199.222656 767.207031 218.800781 C 749.125 239.277344 721.921875 254.96875 698.308594 269.617188 C 675.886719 283.515625 651.527344 291.886719 629.257812 304.890625 C 606.835938 318.191406 586.0625 334.929688 563.941406 348.832031 C 541.972656 362.582031 518.957031 372.59375 497.132812 387.839844 C 473.820312 404.28125 451.699219 427.59375 428.832031 444.484375 C 407.609375 460.027344 387.730469 475.722656 364.5625 486.035156 C 341.246094 496.496094 313.148438 508.601562 289.085938 506.511719 C 265.621094 504.269531 234.980469 492.460938 221.679688 474.078125 C 207.480469 454.347656 211.066406 388.585938 211.066406 388.585938 " clip-rule="nonzero"/></clipPath><clipPath id="218a6fffbe"><path d="M 337.496094 139 L 862.425781 139 L 862.425781 570 L 337.496094 570 Z M 337.496094 139 " clip-rule="nonzero"/></clipPath><clipPath id="f0ad7677fe"><path d="M 337.511719 466.605469 C 388.179688 376.480469 412.242188 359.589844 433.761719 341.65625 C 455.585938 323.421875 480.542969 304.738281 501.917969 289.195312 C 520.152344 275.894531 544.8125 262.292969 553.78125 253.476562 C 557.816406 249.589844 558.414062 246.152344 560.804688 243.609375 C 562.746094 241.667969 566.035156 240.472656 566.933594 239.125 C 567.53125 238.527344 567.082031 238.082031 567.679688 237.484375 C 568.726562 236.136719 573.058594 234.644531 575.601562 233 C 578.140625 231.207031 580.832031 228.664062 582.925781 227.617188 C 584.566406 226.722656 586.0625 226.722656 587.40625 226.125 C 588.753906 225.527344 589.648438 224.480469 591.445312 223.882812 C 593.683594 222.984375 597.421875 222.835938 600.410156 222.089844 C 603.398438 221.339844 606.6875 219.695312 609.078125 219.398438 C 610.875 219.097656 612.21875 219.695312 613.714844 219.546875 C 615.207031 219.398438 616.402344 218.652344 618.195312 218.652344 C 620.738281 218.5 624.324219 219.546875 627.3125 219.847656 C 630.304688 219.996094 634.039062 219.546875 636.429688 219.996094 C 638.222656 220.292969 639.269531 221.191406 640.765625 221.640625 C 642.257812 221.9375 643.753906 221.640625 645.398438 222.238281 C 647.789062 222.984375 650.777344 225.078125 653.617188 226.273438 C 656.457031 227.46875 660.046875 228.066406 662.289062 229.410156 C 663.78125 230.160156 664.527344 231.355469 665.875 232.25 C 667.070312 233 668.566406 233.296875 669.910156 234.195312 C 672.003906 235.6875 674.242188 238.679688 676.484375 240.769531 C 678.726562 242.714844 682.015625 244.507812 683.660156 246.449219 C 684.855469 247.796875 685.15625 249.140625 686.199219 250.335938 C 687.097656 251.53125 688.441406 252.128906 689.339844 253.476562 C 690.535156 255.117188 689.9375 257.957031 692.328125 259.304688 C 699.800781 263.9375 757.042969 258.855469 757.042969 258.554688 C 757.042969 258.40625 738.363281 258.554688 731.039062 258.109375 C 725.660156 257.808594 721.621094 257.808594 716.988281 256.914062 C 712.503906 256.015625 707.871094 254.371094 703.6875 252.429688 C 699.503906 250.335938 695.46875 247.796875 691.878906 244.804688 C 688.292969 241.964844 685.003906 238.378906 682.316406 234.644531 C 679.476562 231.054688 677.082031 226.871094 675.289062 222.535156 C 673.496094 218.203125 672.152344 213.570312 671.40625 209.085938 C 670.804688 204.453125 670.65625 199.667969 670.957031 195.035156 C 671.40625 190.402344 672.300781 185.769531 673.796875 181.285156 C 675.289062 176.953125 677.382812 172.617188 679.921875 168.730469 C 682.464844 164.84375 685.453125 161.109375 688.890625 157.820312 C 692.179688 154.683594 696.066406 151.84375 700.101562 149.449219 C 704.136719 147.207031 708.46875 145.265625 712.953125 144.070312 C 717.4375 142.726562 726.855469 141.828125 726.855469 141.828125 C 726.855469 141.828125 741.800781 139.289062 752.710938 139.585938 C 771.394531 140.035156 810.550781 136.449219 828.636719 150.199219 C 847.765625 164.84375 862.414062 203.257812 862.265625 228.664062 C 862.265625 252.429688 845.972656 277.386719 832.222656 298.164062 C 818.324219 318.789062 797.996094 334.480469 779.3125 352.714844 C 759.285156 372.296875 736.417969 392.921875 715.644531 411.601562 C 696.066406 429.390625 678.578125 445.230469 657.953125 462.417969 C 635.535156 481.25 611.023438 504.566406 585.765625 519.960938 C 561.851562 534.308594 536.292969 544.773438 511.035156 553.140625 C 486.671875 561.210938 461.414062 570.628906 437.050781 569.730469 C 412.839844 568.835938 381.902344 563.753906 365.460938 547.761719 C 347.675781 530.574219 337.511719 466.605469 337.511719 466.605469 " clip-rule="nonzero"/></clipPath><clipPath id="45c88069b5"><path d="M 198.570312 5 L 431.910156 5 L 431.910156 240 L 198.570312 240 Z M 198.570312 5 " clip-rule="nonzero"/></clipPath><clipPath id="c6a3b97086"><path d="M 214.207031 143.023438 C 330.785156 15.234375 333.476562 14.339844 338.40625 12.097656 C 343.191406 10.003906 348.421875 8.359375 353.652344 7.464844 C 358.882812 6.566406 364.414062 6.269531 369.792969 6.714844 C 375.027344 7.015625 380.40625 8.0625 385.488281 9.707031 C 390.570312 11.351562 395.5 13.59375 400.136719 16.429688 C 404.617188 19.269531 408.953125 22.707031 412.691406 26.445312 C 416.425781 30.183594 419.714844 34.515625 422.40625 39.148438 C 425.09375 43.78125 427.335938 48.714844 428.832031 53.796875 C 430.476562 58.878906 431.371094 64.410156 431.671875 69.640625 C 431.96875 75.019531 431.519531 80.402344 430.476562 85.632812 C 429.578125 90.863281 427.785156 96.09375 425.542969 100.875 C 423.449219 105.808594 422.40625 110.292969 417.171875 114.625 C 406.710938 123.445312 371.738281 137.792969 356.640625 139.136719 C 347.972656 139.886719 342.144531 137.195312 335.566406 134.65625 C 328.992188 132.113281 322.414062 128.226562 317.035156 123.742188 C 311.65625 119.261719 306.722656 113.429688 302.984375 107.453125 C 299.25 101.324219 296.410156 94.449219 294.765625 87.425781 C 293.269531 80.550781 292.824219 73.078125 293.421875 66.050781 C 294.167969 58.878906 296.109375 51.554688 299.101562 45.128906 C 301.941406 38.699219 306.125 32.421875 311.058594 27.191406 C 315.839844 22.109375 321.816406 17.476562 328.09375 14.039062 C 334.371094 10.753906 341.398438 8.210938 348.421875 7.015625 C 355.445312 5.820312 362.917969 5.820312 369.945312 6.867188 C 376.96875 7.914062 384.144531 10.304688 390.421875 13.59375 C 396.699219 16.878906 402.824219 21.363281 407.757812 26.445312 C 412.691406 31.527344 416.875 37.804688 420.011719 44.230469 C 423.003906 50.65625 425.09375 57.832031 425.84375 64.855469 C 426.738281 71.882812 426.289062 79.503906 424.945312 86.378906 C 423.449219 93.402344 420.609375 100.429688 417.023438 106.554688 C 413.4375 112.535156 408.652344 118.363281 403.273438 122.996094 C 397.894531 127.628906 391.464844 131.664062 384.890625 134.355469 C 378.3125 137.046875 370.988281 138.691406 363.816406 139.136719 C 356.792969 139.585938 349.320312 138.839844 342.445312 136.894531 C 335.566406 135.101562 328.691406 131.964844 322.863281 128.078125 C 316.886719 124.191406 311.355469 118.960938 307.019531 113.429688 C 302.6875 107.75 299.101562 101.027344 296.859375 94.449219 C 294.46875 87.722656 293.269531 80.25 293.121094 73.226562 C 293.121094 66.050781 294.316406 58.578125 296.410156 51.855469 C 298.652344 45.128906 302.089844 38.402344 306.421875 32.722656 C 310.609375 27.042969 316.136719 21.8125 321.96875 17.777344 C 327.796875 13.742188 334.671875 10.601562 341.398438 8.660156 C 348.273438 6.714844 362.320312 4.625 362.769531 6.117188 C 363.515625 8.511719 314.195312 33.171875 313.148438 31.527344 C 312.402344 30.78125 320.324219 23.605469 324.507812 20.316406 C 328.691406 17.03125 333.476562 14.339844 338.40625 12.097656 C 343.191406 10.003906 348.421875 8.359375 353.652344 7.464844 C 358.882812 6.566406 364.414062 6.269531 369.792969 6.714844 C 375.027344 7.015625 380.40625 8.0625 385.488281 9.707031 C 390.570312 11.351562 395.5 13.59375 400.136719 16.429688 C 404.617188 19.269531 408.953125 22.558594 412.691406 26.445312 C 416.277344 30.183594 419.714844 34.515625 422.40625 39.148438 C 425.09375 43.78125 427.335938 48.714844 428.832031 53.796875 C 430.476562 58.878906 431.371094 64.410156 431.671875 69.640625 C 431.96875 75.019531 431.519531 80.402344 430.476562 85.632812 C 429.578125 90.863281 427.785156 96.09375 425.542969 100.875 C 423.449219 105.808594 417.472656 114.777344 417.171875 114.625 C 417.023438 114.476562 424.644531 102.667969 423.449219 101.625 C 420.460938 99.230469 380.105469 130.46875 361.574219 148.253906 C 342.890625 166.339844 325.703125 194.585938 311.65625 209.234375 C 302.835938 218.652344 295.066406 225.824219 288.191406 230.457031 C 283.707031 233.597656 280.117188 235.242188 275.785156 236.734375 C 271.449219 238.230469 266.816406 239.277344 262.183594 239.722656 C 257.550781 240.171875 252.765625 240.023438 248.285156 239.425781 C 243.652344 238.679688 239.015625 237.484375 234.832031 235.6875 C 230.5 234.046875 226.3125 231.652344 222.726562 228.964844 C 218.988281 226.273438 215.402344 222.984375 212.414062 219.546875 C 209.425781 215.960938 206.882812 212.074219 204.789062 207.890625 C 202.847656 203.703125 201.203125 199.222656 200.15625 194.738281 C 199.261719 190.253906 198.664062 185.46875 198.8125 180.835938 C 198.960938 176.355469 199.558594 171.570312 200.90625 167.085938 C 202.101562 162.753906 203.894531 158.269531 206.136719 154.234375 C 208.378906 150.199219 214.207031 143.023438 214.207031 143.023438 " clip-rule="nonzero"/></clipPath><clipPath id="fe59c00175"><path d="M 184.070312 40.546875 L 598.796875 40.546875 L 598.796875 406 L 184.070312 406 Z M 184.070312 40.546875 " clip-rule="nonzero"/></clipPath><clipPath id="64ecf3dc60"><path d="M 184.164062 311.015625 C 188.796875 307.429688 187.601562 307.132812 187.753906 306.234375 C 188.050781 299.808594 224.222656 249.738281 236.773438 238.828125 C 242.304688 234.046875 246.492188 233.597656 251.125 231.355469 C 255.457031 229.261719 259.492188 227.019531 263.828125 225.675781 C 268.160156 224.332031 272.945312 223.433594 277.429688 223.285156 C 282.0625 222.984375 287.890625 223.433594 291.328125 224.179688 C 293.269531 224.480469 293.71875 226.125 296.109375 225.675781 C 304.929688 224.03125 335.867188 198.023438 353.953125 181.585938 C 372.484375 164.84375 394.15625 137.046875 405.8125 125.539062 C 411.34375 120.15625 417.621094 116.71875 418.816406 114.179688 C 419.265625 113.28125 418.816406 112.234375 418.96875 112.085938 C 418.96875 111.9375 420.761719 105.808594 421.804688 102.820312 C 422.703125 99.679688 424.644531 93.554688 424.644531 93.402344 C 424.796875 93.253906 428.082031 87.722656 429.726562 85.035156 C 431.371094 82.195312 434.660156 76.664062 434.808594 76.664062 C 434.808594 76.515625 439.441406 72.03125 441.683594 69.640625 C 443.925781 67.398438 448.410156 62.765625 448.558594 62.765625 C 448.710938 62.613281 454.238281 59.328125 456.929688 57.683594 C 459.769531 55.890625 465.148438 52.601562 465.300781 52.601562 C 465.449219 52.453125 471.578125 50.507812 474.714844 49.613281 C 477.855469 48.566406 483.832031 46.621094 483.980469 46.621094 C 484.132812 46.621094 485.773438 46.621094 485.925781 46.472656 C 486.074219 46.472656 486.074219 46.472656 486.074219 46.472656 C 486.375 46.324219 488.015625 46.324219 489.214844 46.023438 C 490.707031 45.578125 493.996094 43.933594 494.144531 43.933594 C 494.292969 43.78125 500.570312 42.738281 503.859375 42.289062 C 507.148438 41.691406 513.425781 40.644531 513.574219 40.644531 C 513.722656 40.644531 520.152344 41.09375 523.4375 41.390625 C 526.726562 41.691406 533.003906 42.140625 533.152344 42.140625 C 533.304688 42.140625 539.429688 44.230469 542.570312 45.277344 C 545.707031 46.175781 551.835938 48.265625 551.984375 48.265625 C 551.984375 48.265625 557.515625 51.703125 560.207031 53.496094 C 563.046875 55.292969 568.425781 58.578125 568.574219 58.730469 C 568.726562 58.878906 573.210938 63.511719 575.449219 65.753906 C 577.691406 68.144531 582.175781 72.777344 582.328125 72.925781 C 582.328125 72.925781 585.613281 78.605469 587.257812 81.445312 C 588.902344 84.285156 592.191406 89.816406 592.191406 89.816406 C 592.191406 89.816406 592.191406 89.816406 592.191406 89.964844 C 592.339844 89.964844 594.132812 96.242188 595.03125 99.382812 C 595.925781 102.519531 597.71875 108.648438 597.71875 108.796875 C 597.871094 108.945312 598.019531 115.375 598.167969 118.660156 C 598.320312 121.949219 598.617188 128.378906 598.617188 128.378906 C 598.617188 128.378906 598.617188 128.378906 598.617188 128.527344 C 598.617188 128.527344 597.421875 134.953125 596.675781 138.09375 C 596.078125 141.378906 594.882812 147.65625 594.730469 147.808594 C 594.730469 147.957031 592.042969 153.636719 590.546875 156.625 C 589.203125 159.613281 586.511719 165.441406 586.511719 165.59375 C 586.363281 165.59375 586.363281 165.59375 586.363281 165.59375 C 586.363281 165.742188 582.328125 170.675781 580.234375 173.214844 C 578.140625 175.753906 574.105469 180.835938 574.105469 180.835938 C 573.957031 180.988281 568.277344 185.320312 566.183594 186.816406 C 564.839844 187.863281 564.390625 187.863281 562.746094 189.507812 C 555.871094 195.933594 532.40625 226.273438 515.816406 243.910156 C 498.777344 261.992188 481.589844 280.675781 461.265625 296.96875 C 439.742188 314.007812 413.136719 328.800781 389.222656 343.300781 C 366.507812 357.050781 337.960938 375.136719 321.371094 381.710938 C 312.550781 385.296875 303.285156 383.953125 300.144531 387.242188 C 298.203125 389.035156 300.296875 393.070312 298.503906 394.265625 C 295.664062 396.207031 288.488281 391.574219 281.3125 392.023438 C 268.757812 392.921875 240.8125 409.511719 230.496094 405.175781 C 223.621094 402.1875 222.277344 386.644531 218.691406 384.253906 C 217.195312 383.207031 216 384.699219 214.503906 383.652344 C 210.917969 380.964844 207.929688 366.464844 203.445312 357.347656 C 198.363281 346.738281 184.464844 329.847656 184.914062 324.320312 C 185.0625 322.226562 187.902344 321.925781 188.050781 320.285156 C 188.351562 317.890625 184.164062 311.015625 184.164062 311.015625 M 311.207031 341.207031 C 316.886719 337.023438 314.046875 332.390625 313.148438 332.390625 C 312.253906 332.539062 311.207031 341.207031 311.207031 341.207031 M 319.726562 359.292969 C 322.414062 358.546875 321.371094 355.40625 320.921875 355.40625 C 320.621094 355.40625 319.726562 359.292969 319.726562 359.292969 " clip-rule="nonzero"/></clipPath><clipPath id="587b5d0ca7"><path d="M 172.066406 73.082031 L 549.941406 73.082031 L 549.941406 436 L 172.066406 436 Z M 172.066406 73.082031 " clip-rule="nonzero"/></clipPath><clipPath id="8a06f6e643"><path d="M 172.207031 391.277344 C 188.199219 274.546875 224.070312 259.304688 237.820312 251.082031 C 244.25 247.347656 251.273438 245.703125 252.765625 244.058594 C 253.066406 243.609375 252.765625 243.460938 253.066406 242.863281 C 253.8125 241.519531 256.804688 238.527344 258.597656 236.136719 C 260.242188 233.746094 262.035156 230.160156 263.230469 228.8125 C 263.828125 228.214844 264.125 228.515625 264.722656 227.617188 C 266.964844 224.179688 267.714844 205.945312 274.589844 194.4375 C 284.75 177.25 308.21875 157.074219 328.691406 140.183594 C 350.960938 121.949219 378.015625 100.875 404.320312 89.667969 C 428.832031 79.203125 465.148438 73.972656 480.695312 73.226562 C 487.570312 72.925781 490.707031 74.273438 495.488281 75.019531 C 500.125 75.765625 504.757812 76.214844 509.089844 77.5625 C 513.425781 78.90625 517.757812 80.847656 521.644531 83.238281 C 525.679688 85.632812 529.417969 88.621094 532.554688 91.757812 C 535.84375 95.046875 538.683594 98.785156 541.074219 102.667969 C 543.46875 106.554688 545.410156 110.890625 546.753906 115.375 C 548.101562 119.707031 548.996094 124.339844 549.144531 128.976562 C 549.445312 133.457031 549.144531 138.242188 548.398438 142.726562 C 547.503906 147.207031 546.15625 151.84375 544.214844 155.878906 C 542.269531 160.0625 539.878906 164.097656 537.039062 167.835938 C 534.199219 171.421875 530.761719 174.710938 527.175781 177.550781 C 523.589844 180.390625 519.554688 182.78125 515.367188 184.722656 C 511.183594 186.515625 506.699219 188.011719 502.214844 188.757812 C 497.582031 189.507812 488.316406 189.507812 488.316406 189.507812 C 488.316406 189.507812 479.796875 187.5625 473.519531 189.507812 C 458.871094 193.839844 408.652344 226.570312 407.90625 232.847656 C 407.609375 234.34375 410.449219 235.839844 410.597656 235.988281 C 410.597656 235.988281 413.136719 241.070312 414.484375 243.609375 C 415.828125 246.152344 418.367188 251.082031 418.367188 251.234375 C 418.519531 251.382812 419.714844 256.761719 420.460938 259.601562 C 421.058594 262.292969 422.40625 267.824219 422.40625 267.972656 C 422.554688 268.121094 422.40625 273.652344 422.40625 276.492188 C 422.40625 279.480469 422.40625 285.011719 422.40625 285.160156 C 422.40625 285.308594 420.910156 290.691406 420.3125 293.53125 C 419.566406 296.21875 418.21875 301.75 418.21875 301.75 C 418.21875 301.898438 418.21875 301.898438 418.21875 301.898438 C 418.070312 301.898438 415.527344 306.832031 414.183594 309.371094 C 412.839844 311.914062 410.148438 316.996094 410.148438 316.996094 C 410 317.144531 406.261719 321.328125 404.320312 323.421875 C 402.527344 325.515625 398.640625 329.699219 398.640625 329.847656 C 398.492188 329.847656 393.859375 333.136719 391.464844 334.632812 C 389.222656 336.277344 384.589844 339.414062 384.441406 339.5625 C 384.441406 339.5625 384.441406 339.5625 384.292969 339.5625 C 384.144531 339.5625 383.246094 339.863281 382.796875 340.160156 C 382.5 340.460938 382.050781 341.058594 382.050781 341.058594 C 381.902344 341.207031 376.96875 344.945312 374.277344 346.886719 C 371.738281 348.679688 366.355469 352.269531 366.65625 352.566406 C 366.804688 352.867188 374.277344 348.53125 374.726562 349.277344 C 376.222656 351.519531 338.558594 394.566406 315.988281 408.914062 C 293.867188 422.8125 264.875 437.460938 241.109375 434.769531 C 216.898438 431.929688 172.207031 391.277344 172.207031 391.277344 " clip-rule="nonzero"/></clipPath><clipPath id="e873369c0a"><path d="M 175.066406 274.566406 L 309.542969 274.566406 L 309.542969 419.871094 L 175.066406 419.871094 Z M 175.066406 274.566406 " clip-rule="nonzero"/></clipPath><clipPath id="04a3911bea"><path d="M 175.347656 398.898438 C 180.578125 316.246094 184.613281 312.960938 187.601562 308.328125 C 190.292969 304.140625 192.535156 300.253906 195.675781 296.816406 C 198.664062 293.378906 202.25 290.242188 206.136719 287.699219 C 209.871094 285.011719 215.851562 282.171875 218.542969 281.125 C 219.585938 280.675781 220.484375 280.824219 221.082031 280.527344 C 221.53125 280.378906 221.679688 280.078125 222.128906 279.929688 C 222.875 279.628906 224.371094 279.480469 225.417969 279.03125 C 226.460938 278.734375 227.210938 277.984375 228.40625 277.539062 C 230.199219 277.089844 232.890625 277.089844 235.132812 276.640625 C 237.222656 276.191406 239.765625 275.144531 241.558594 274.996094 C 242.902344 274.847656 243.949219 275.296875 244.996094 275.296875 C 246.191406 275.296875 247.089844 274.699219 248.285156 274.847656 C 250.226562 274.847656 252.765625 275.746094 255.007812 276.042969 C 257.25 276.34375 259.941406 276.191406 261.734375 276.640625 C 262.929688 276.941406 263.679688 277.539062 264.875 277.835938 C 265.921875 278.285156 266.964844 278.136719 268.160156 278.585938 C 269.804688 279.183594 272.046875 280.824219 273.992188 281.871094 C 276.082031 282.769531 278.625 283.515625 280.269531 284.414062 C 281.3125 285.160156 281.914062 286.058594 282.808594 286.65625 C 283.707031 287.402344 284.75 287.550781 285.648438 288.449219 C 287.144531 289.496094 288.636719 291.738281 290.28125 293.378906 C 291.777344 295.023438 294.167969 296.519531 295.214844 297.863281 C 296.109375 298.910156 296.261719 299.957031 297.007812 300.855469 C 297.605469 301.75 298.503906 302.199219 299.25 303.394531 C 300.144531 304.890625 300.894531 307.578125 301.941406 309.523438 C 302.835938 311.464844 304.628906 313.707031 305.226562 315.351562 C 305.675781 316.546875 305.527344 317.59375 305.824219 318.640625 C 306.273438 319.835938 306.871094 320.582031 307.171875 321.777344 C 307.621094 323.570312 307.46875 326.261719 307.769531 328.503906 C 308.066406 330.746094 309.113281 333.285156 309.113281 335.078125 C 309.113281 336.425781 308.664062 337.320312 308.664062 338.515625 C 308.664062 339.5625 309.113281 340.609375 308.964844 341.804688 C 308.816406 343.75 307.769531 346.289062 307.320312 348.382812 C 306.871094 350.625 306.871094 353.164062 306.421875 355.109375 C 305.976562 356.75 305.226562 358.84375 304.929688 359.441406 C 304.78125 359.589844 304.628906 359.589844 304.628906 359.742188 C 304.332031 360.039062 304.480469 360.636719 304.183594 361.386719 C 302.984375 364.222656 297.753906 373.492188 293.421875 378.421875 C 288.9375 383.355469 281.015625 389.183594 277.726562 391.128906 C 276.382812 391.875 275.933594 391.277344 274.589844 392.324219 C 270.105469 395.3125 261.585938 415.789062 249.777344 419.226562 C 232.589844 424.15625 175.347656 398.898438 175.347656 398.898438 " clip-rule="nonzero"/></clipPath><clipPath id="f7b81be844"><path d="M 593.21875 141 L 600 141 L 600 154 L 593.21875 154 Z M 593.21875 141 " clip-rule="nonzero"/></clipPath><clipPath id="9d410cfb1f"><path d="M 593.238281 147.808594 C 594.28125 143.171875 593.683594 141.828125 593.984375 139.585938 C 594.730469 134.503906 599.8125 118.8125 601.308594 116.121094 C 601.605469 115.375 601.757812 115.523438 602.054688 114.925781 C 602.503906 113.878906 602.503906 112.234375 603.550781 109.546875 C 607.4375 99.382812 620.4375 56.1875 639.71875 41.390625 C 660.492188 25.25 708.023438 17.328125 727.453125 20.914062 C 738.511719 22.859375 745.089844 34.964844 751.214844 36.609375 C 754.503906 37.503906 756.597656 34.964844 759.4375 36.160156 C 764.367188 37.953125 768.851562 47.21875 775.128906 52.601562 C 782.75 58.878906 799.640625 64.855469 802.628906 70.835938 C 804.125 74.125 800.539062 77.261719 801.734375 80.550781 C 803.378906 85.332031 813.09375 87.425781 815.335938 94.898438 C 819.96875 110.441406 816.828125 158.867188 801.582031 176.355469 C 786.636719 193.390625 735.375 194.585938 726.105469 199.820312 C 723.863281 201.164062 723.566406 201.910156 722.222656 203.257812 C 720.578125 205.050781 718.484375 208.039062 716.691406 209.382812 C 715.496094 210.429688 714.300781 210.578125 713.105469 211.476562 C 712.058594 212.222656 711.308594 213.269531 709.964844 214.167969 C 708.171875 215.363281 704.882812 216.257812 702.492188 217.453125 C 699.953125 218.652344 697.410156 220.742188 695.316406 221.492188 C 693.824219 221.9375 692.476562 221.789062 691.28125 222.238281 C 689.9375 222.6875 688.890625 223.433594 687.398438 223.882812 C 685.304688 224.332031 681.867188 224.179688 679.175781 224.480469 C 676.484375 224.929688 673.347656 225.972656 671.105469 225.972656 C 669.460938 226.125 668.414062 225.527344 667.070312 225.527344 C 665.574219 225.375 664.527344 225.972656 662.886719 225.824219 C 660.644531 225.527344 657.652344 224.332031 654.964844 223.730469 C 652.273438 223.285156 648.835938 223.285156 646.742188 222.6875 C 645.25 222.089844 644.351562 221.191406 643.007812 220.742188 C 641.8125 220.292969 640.464844 220.445312 638.972656 219.847656 C 637.027344 218.949219 634.488281 216.707031 632.097656 215.363281 C 629.707031 214.015625 626.566406 212.972656 624.773438 211.625 C 623.429688 210.730469 622.828125 209.535156 621.785156 208.636719 C 620.738281 207.890625 619.542969 207.589844 618.347656 206.394531 C 616.703125 204.902344 615.058594 202.0625 613.265625 199.96875 C 611.320312 198.023438 608.632812 196.082031 607.4375 194.140625 C 606.539062 192.945312 606.238281 191.597656 605.492188 190.550781 C 604.894531 189.355469 603.699219 188.609375 602.953125 187.265625 C 601.90625 185.320312 601.308594 182.03125 600.113281 179.492188 C 599.066406 176.953125 597.121094 174.261719 596.523438 172.167969 C 596.078125 170.523438 596.375 169.328125 595.925781 167.984375 C 595.628906 166.640625 594.882812 165.742188 594.582031 164.097656 C 594.132812 161.855469 594.582031 158.566406 594.433594 155.878906 C 594.132812 153.1875 593.238281 147.808594 593.238281 147.808594 " clip-rule="nonzero"/></clipPath><clipPath id="0fbf8345cf"><path d="M 621.328125 29 L 810 29 L 810 227 L 621.328125 227 Z M 621.328125 29 " clip-rule="nonzero"/></clipPath><clipPath id="7d27fe902e"><path d="M 621.933594 87.722656 C 626.417969 69.9375 628.660156 65.753906 631.199219 61.867188 C 633.589844 58.132812 636.730469 54.542969 640.167969 51.40625 C 643.457031 48.265625 647.339844 45.578125 651.375 43.335938 C 655.414062 41.09375 664.230469 38.253906 664.230469 38.101562 C 664.230469 38.101562 671.253906 34.664062 677.832031 33.621094 C 693.074219 31.226562 733.878906 24.351562 755.25 34.367188 C 776.921875 44.679688 799.042969 71.433594 806.515625 95.347656 C 814.4375 120.753906 807.261719 170.226562 797.996094 183.976562 C 793.664062 190.402344 783.796875 189.804688 780.660156 192.945312 C 778.867188 194.886719 779.464844 196.53125 777.96875 198.773438 C 775.128906 202.808594 768.703125 209.832031 763.171875 214.015625 C 757.492188 218.203125 750.917969 221.640625 744.191406 223.730469 C 737.613281 225.824219 728.050781 227.019531 723.265625 226.871094 C 720.726562 226.871094 718.484375 225.675781 717.289062 225.824219 C 716.691406 225.972656 716.691406 226.421875 716.242188 226.421875 C 714.898438 226.570312 711.609375 224.929688 709.367188 224.480469 C 706.976562 223.882812 704.136719 223.882812 702.34375 223.132812 C 700.996094 222.6875 700.25 221.9375 699.203125 221.492188 C 698.15625 221.042969 696.960938 221.042969 695.765625 220.445312 C 693.972656 219.695312 692.03125 217.605469 689.9375 216.410156 C 687.996094 215.214844 685.304688 214.167969 683.660156 212.972656 C 682.613281 212.222656 682.164062 211.175781 681.269531 210.429688 C 680.371094 209.683594 679.324219 209.382812 678.429688 208.339844 C 676.933594 206.992188 675.589844 204.453125 674.09375 202.660156 C 672.601562 200.863281 670.359375 199.070312 669.3125 197.425781 C 668.566406 196.230469 668.414062 195.183594 667.816406 194.140625 C 667.21875 193.09375 666.324219 192.496094 665.726562 191.300781 C 664.828125 189.507812 664.378906 186.816406 663.632812 184.574219 C 662.734375 182.332031 661.089844 179.941406 660.644531 177.996094 C 660.34375 176.652344 660.492188 175.605469 660.34375 174.558594 C 660.046875 173.363281 659.449219 172.46875 659.148438 171.121094 C 659 169.179688 659.449219 166.339844 659.296875 163.949219 C 659.148438 161.558594 658.550781 158.867188 658.699219 156.921875 C 658.699219 155.578125 659.296875 154.683594 659.449219 153.484375 C 659.597656 152.289062 659.296875 150.945312 659.449219 149.898438 C 659.597656 149.003906 660.644531 148.105469 660.34375 147.359375 C 659.746094 146.164062 655.859375 146.164062 653.320312 144.816406 C 649.734375 143.171875 645.25 140.183594 641.660156 137.195312 C 638.222656 134.207031 635.085938 130.769531 632.394531 127.03125 C 629.703125 123.296875 627.464844 119.261719 625.667969 114.925781 C 624.027344 110.742188 622.828125 106.109375 622.082031 101.625 C 621.484375 96.992188 621.933594 87.722656 621.933594 87.722656 " clip-rule="nonzero"/></clipPath><clipPath id="9847668acd"><path d="M 647.589844 197.675781 L 771 197.675781 L 771 324 L 647.589844 324 Z M 647.589844 197.675781 " clip-rule="nonzero"/></clipPath><clipPath id="c59ec1fb37"><path d="M 734.027344 205.945312 C 762.574219 246 766.609375 282.171875 762.574219 295.621094 C 760.332031 302.648438 755.25 305.933594 750.46875 309.96875 C 745.835938 313.855469 740.304688 317.292969 734.625 319.683594 C 728.796875 321.925781 722.519531 323.421875 716.390625 323.871094 C 710.113281 324.167969 703.6875 323.570312 697.710938 321.925781 C 691.730469 320.285156 685.753906 317.59375 680.671875 314.15625 C 675.589844 310.71875 670.804688 306.234375 667.070312 301.453125 C 663.183594 296.519531 660.195312 290.691406 658.101562 284.863281 C 656.160156 279.183594 654.964844 272.605469 654.964844 266.476562 C 654.964844 260.351562 656.011719 253.921875 657.953125 247.945312 C 659.746094 242.117188 662.886719 236.285156 666.472656 231.355469 C 670.207031 226.570312 674.992188 221.9375 680.074219 218.5 C 685.15625 214.914062 690.984375 212.222656 696.960938 210.429688 C 702.941406 208.785156 709.367188 208.039062 715.496094 208.339844 C 721.621094 208.636719 728.050781 209.980469 733.878906 212.222656 C 739.558594 214.464844 745.238281 217.902344 749.871094 221.789062 C 754.652344 225.675781 758.988281 230.757812 762.125 235.988281 C 765.265625 241.21875 767.804688 247.347656 769.152344 253.324219 C 770.496094 259.304688 770.945312 265.878906 770.347656 272.007812 C 769.75 278.136719 767.957031 284.414062 765.414062 290.09375 C 762.875 295.621094 759.285156 301.003906 755.101562 305.636719 C 750.765625 310.121094 745.6875 314.007812 740.15625 316.996094 C 734.773438 319.984375 728.648438 322.078125 722.519531 323.125 C 716.390625 324.167969 709.964844 324.167969 703.835938 323.273438 C 697.710938 322.226562 691.582031 320.132812 686.050781 317.292969 C 680.671875 314.453125 675.289062 310.570312 671.105469 306.085938 C 666.769531 301.75 663.035156 296.21875 660.492188 290.691406 C 657.804688 285.160156 656.011719 278.882812 655.414062 272.753906 C 654.664062 266.628906 654.964844 260.050781 656.308594 254.074219 C 657.503906 248.09375 660.792969 236.4375 663.035156 236.585938 C 667.367188 237.035156 679.625 301.152344 675.441406 303.691406 C 673.496094 304.890625 667.816406 298.460938 664.527344 295.324219 C 661.242188 292.035156 658.402344 288.449219 656.011719 284.5625 C 653.617188 280.675781 651.675781 276.34375 650.332031 272.007812 C 648.984375 267.671875 648.089844 263.039062 647.789062 258.40625 C 647.492188 253.921875 647.789062 249.140625 648.535156 244.65625 C 649.433594 240.171875 650.777344 235.6875 652.574219 231.503906 C 654.515625 227.46875 656.90625 223.285156 659.746094 219.695312 C 662.4375 216.109375 665.875 212.820312 669.460938 209.980469 C 672.898438 207.140625 676.933594 204.75 681.121094 202.808594 C 685.304688 201.015625 689.789062 199.519531 694.273438 198.773438 C 698.753906 197.875 703.390625 197.578125 708.023438 197.875 C 712.503906 198.023438 717.140625 198.921875 721.472656 200.265625 C 725.957031 201.613281 734.027344 205.945312 734.027344 205.945312 " clip-rule="nonzero"/></clipPath><clipPath id="a0cee64c27"><path d="M 181.089844 279.734375 L 318.496094 279.734375 L 318.496094 410.488281 L 181.089844 410.488281 Z M 181.089844 279.734375 " clip-rule="nonzero"/></clipPath><clipPath id="37fc64c107"><path d="M 303.488281 375.675781 C 286.597656 393.613281 270.007812 403.027344 261.191406 406.613281 C 255.808594 408.855469 252.074219 409.453125 247.441406 410.050781 C 242.65625 410.648438 237.875 410.5 233.09375 410.050781 C 228.460938 409.453125 223.824219 408.257812 219.34375 406.613281 C 215.007812 404.820312 210.671875 402.578125 206.789062 399.886719 C 202.902344 397.199219 199.316406 394.058594 196.175781 390.472656 C 193.1875 386.886719 190.347656 383 188.253906 378.816406 C 186.011719 374.628906 184.367188 369.996094 183.171875 365.511719 C 182.125 360.878906 181.527344 356.097656 181.527344 351.3125 C 181.527344 346.679688 182.125 341.898438 183.324219 337.265625 C 184.367188 332.78125 186.164062 328.148438 188.402344 323.964844 C 190.496094 319.925781 193.335938 315.890625 196.476562 312.304688 C 199.613281 308.867188 203.199219 305.578125 207.085938 302.890625 C 210.972656 300.347656 219.492188 296.015625 219.640625 296.460938 C 220.238281 297.058594 192.289062 318.882812 191.839844 318.285156 C 191.394531 317.984375 199.914062 308.269531 204.996094 304.535156 C 209.925781 300.796875 215.90625 297.65625 221.882812 295.714844 C 227.710938 293.621094 234.289062 292.578125 240.566406 292.578125 C 246.84375 292.726562 253.417969 293.773438 259.398438 295.714844 C 265.375 297.808594 271.203125 300.945312 276.285156 304.832031 C 281.21875 308.570312 285.851562 313.5 289.289062 318.582031 C 292.726562 323.8125 295.566406 329.941406 297.210938 335.917969 C 298.855469 342.046875 299.601562 348.625 299.304688 354.902344 C 298.855469 361.179688 297.359375 367.753906 295.117188 373.582031 C 292.726562 379.414062 289.289062 385.09375 285.253906 389.875 C 281.070312 394.65625 275.988281 398.84375 270.605469 402.128906 C 265.226562 405.269531 259.097656 407.808594 252.972656 409.15625 C 246.84375 410.5 240.117188 410.800781 233.839844 410.050781 C 227.5625 409.304688 221.136719 407.511719 215.457031 404.96875 C 209.777344 402.28125 204.246094 398.542969 199.761719 394.210938 C 195.28125 389.875 191.242188 384.496094 188.253906 378.964844 C 185.414062 373.433594 183.324219 367.007812 182.277344 360.878906 C 181.230469 354.75 181.230469 348.027344 182.277344 341.75 C 183.324219 335.621094 185.5625 329.34375 188.554688 323.8125 C 191.394531 318.285156 195.578125 312.902344 200.0625 308.570312 C 204.695312 304.382812 210.226562 300.648438 215.90625 297.957031 C 221.585938 295.417969 228.011719 293.621094 234.289062 293.023438 C 240.566406 292.277344 247.140625 292.726562 253.269531 294.070312 C 259.398438 295.417969 265.675781 297.957031 270.90625 301.246094 C 276.285156 304.382812 281.367188 308.71875 285.402344 313.5 C 289.4375 318.285156 292.875 324.113281 295.269531 329.941406 C 297.511719 335.769531 299.003906 342.347656 299.304688 348.625 C 299.601562 354.75 300.199219 360.582031 297.0625 367.457031 C 291.832031 378.964844 271.054688 400.785156 261.191406 406.613281 C 255.960938 409.753906 252.074219 409.453125 247.441406 410.050781 C 242.65625 410.648438 237.875 410.5 233.242188 410.050781 C 228.460938 409.453125 223.824219 408.257812 219.34375 406.613281 C 215.007812 404.820312 210.671875 402.578125 206.789062 399.886719 C 203.050781 397.199219 199.316406 394.058594 196.175781 390.472656 C 193.1875 386.886719 190.347656 383 188.253906 378.816406 C 186.011719 374.628906 184.367188 369.996094 183.171875 365.511719 C 182.125 360.878906 181.527344 356.097656 181.527344 351.3125 C 181.527344 346.679688 182.125 341.898438 183.324219 337.265625 C 184.367188 332.78125 186.164062 328.148438 188.402344 323.964844 C 190.496094 319.925781 193.335938 315.890625 196.476562 312.304688 C 199.613281 308.867188 203.199219 305.578125 207.085938 303.039062 C 210.972656 300.347656 219.191406 295.714844 219.640625 296.460938 C 220.238281 297.210938 208.28125 308.71875 208.433594 308.867188 C 208.730469 309.167969 223.378906 293.921875 229.804688 289.4375 C 234.140625 286.449219 237.726562 284.804688 242.058594 283.308594 C 246.394531 281.664062 250.878906 280.621094 255.511719 280.171875 C 259.996094 279.722656 264.777344 279.871094 269.261719 280.46875 C 273.746094 281.066406 278.378906 282.265625 282.5625 283.90625 C 286.75 285.703125 290.933594 287.941406 294.671875 290.632812 C 298.40625 293.175781 301.84375 296.460938 304.832031 299.898438 C 307.824219 303.335938 310.363281 307.222656 312.457031 311.410156 C 314.398438 315.445312 316.042969 319.925781 317.089844 324.261719 C 318.136719 328.746094 318.582031 333.378906 318.433594 338.011719 C 318.433594 342.496094 317.835938 347.277344 316.640625 351.613281 C 315.445312 356.097656 313.652344 360.429688 311.558594 364.464844 C 309.316406 368.503906 303.488281 375.675781 303.488281 375.675781 " clip-rule="nonzero"/></clipPath><clipPath id="ef960cb9ee"><path d="M 183.621094 294.59375 L 294.855469 294.59375 L 294.855469 408.257812 L 183.621094 408.257812 Z M 183.621094 294.59375 " clip-rule="nonzero"/></clipPath><clipPath id="21e2ada408"><path d="M 294.519531 334.722656 C 294.671875 370.445312 290.484375 379.5625 285.105469 386.585938 C 279.722656 393.460938 271.652344 399.589844 263.730469 403.175781 C 255.660156 406.914062 245.796875 408.707031 236.980469 408.109375 C 228.308594 407.660156 218.59375 404.671875 211.121094 400.039062 C 203.648438 395.554688 196.476562 388.378906 191.839844 380.90625 C 187.359375 373.285156 184.367188 363.71875 183.769531 354.902344 C 183.324219 346.234375 185.117188 336.21875 188.703125 328.296875 C 192.289062 320.226562 198.566406 312.304688 205.441406 306.925781 C 212.316406 301.542969 221.585938 297.359375 230.253906 295.714844 C 238.921875 294.21875 248.933594 294.820312 257.304688 297.359375 C 265.675781 300.050781 280.472656 311.410156 280.472656 311.410156 " clip-rule="nonzero"/></clipPath><clipPath id="b30e5e07c0"><path d="M 175.394531 296.496094 L 290.71875 296.496094 L 290.71875 409.867188 L 175.394531 409.867188 Z M 175.394531 296.496094 " clip-rule="nonzero"/></clipPath><clipPath id="7de4f95130"><path d="M 233.988281 296.613281 C 257.753906 301.542969 263.433594 304.535156 268.214844 308.121094 C 273 311.855469 277.332031 316.488281 280.769531 321.421875 C 284.207031 326.355469 286.898438 332.183594 288.394531 338.011719 C 290.035156 343.839844 290.785156 350.269531 290.484375 356.246094 C 290.1875 362.226562 288.691406 368.503906 286.449219 374.03125 C 284.207031 379.710938 280.917969 385.242188 277.035156 389.726562 C 273.148438 394.359375 268.214844 398.542969 263.132812 401.53125 C 257.902344 404.671875 252.074219 407.0625 246.09375 408.40625 C 240.265625 409.605469 233.839844 410.050781 227.863281 409.304688 C 221.882812 408.707031 215.753906 407.0625 210.226562 404.523438 C 204.84375 401.980469 199.464844 398.394531 195.128906 394.210938 C 190.796875 390.023438 186.910156 384.941406 184.070312 379.5625 C 181.230469 374.332031 179.136719 368.203125 178.242188 362.226562 C 177.195312 356.394531 177.195312 349.96875 178.242188 343.992188 C 179.136719 338.011719 181.230469 332.035156 184.070312 326.652344 C 186.910156 321.273438 190.796875 316.191406 195.128906 312.15625 C 199.464844 307.972656 204.84375 304.382812 210.226562 301.84375 C 215.753906 299.300781 221.882812 297.65625 227.863281 296.910156 C 233.839844 296.3125 240.265625 296.613281 246.09375 297.957031 C 252.074219 299.300781 258.050781 301.542969 263.132812 304.683594 C 268.363281 307.820312 273.148438 312.007812 277.035156 316.488281 C 280.917969 321.125 284.355469 326.652344 286.449219 332.183594 C 288.691406 337.863281 290.1875 344.140625 290.484375 350.117188 C 290.785156 356.097656 290.035156 362.523438 288.394531 368.351562 C 286.898438 374.03125 284.207031 379.859375 280.769531 384.941406 C 277.332031 389.875 273 394.507812 268.214844 398.246094 C 263.433594 401.832031 257.753906 404.820312 252.074219 406.765625 C 246.394531 408.707031 239.519531 409.453125 233.988281 409.753906 C 229.207031 409.902344 224.871094 409.453125 220.386719 408.40625 C 216.054688 407.511719 211.570312 406.015625 207.535156 403.925781 C 203.5 401.980469 199.613281 399.441406 196.027344 396.601562 C 192.589844 393.613281 189.449219 390.171875 186.761719 386.585938 C 184.070312 383 181.828125 378.816406 180.035156 374.78125 C 178.390625 370.59375 177.046875 365.960938 176.449219 361.628906 C 175.699219 357.144531 175.699219 352.359375 176 347.875 C 176.449219 343.394531 177.492188 338.910156 178.988281 334.574219 C 180.484375 330.390625 182.425781 326.203125 184.964844 322.320312 C 187.359375 318.582031 190.347656 314.996094 193.636719 311.855469 C 196.921875 308.867188 200.808594 306.027344 204.695312 303.785156 C 208.582031 301.695312 212.914062 299.898438 217.25 298.703125 C 221.585938 297.507812 230.703125 296.613281 230.703125 296.613281 " clip-rule="nonzero"/></clipPath><clipPath id="ec480aca3c"><path d="M 179 295 L 289.941406 295 L 289.941406 408.273438 L 179 408.273438 Z M 179 295 " clip-rule="nonzero"/></clipPath><clipPath id="ebf1349b40"><path d="M 289.589844 334.722656 C 289.589844 370.296875 285.554688 379.5625 280.023438 386.4375 C 274.640625 393.3125 266.722656 399.441406 258.800781 403.027344 C 250.878906 406.613281 240.863281 408.558594 232.195312 407.960938 C 223.378906 407.363281 213.8125 404.371094 206.339844 399.886719 C 198.867188 395.40625 191.691406 388.230469 187.207031 380.757812 C 182.726562 373.285156 179.734375 363.71875 179.136719 354.902344 C 178.6875 346.234375 180.484375 336.367188 184.070312 328.296875 C 187.65625 320.375 193.785156 312.453125 200.808594 307.074219 C 207.683594 301.695312 216.800781 297.507812 225.46875 296.015625 C 233.988281 294.371094 244.003906 294.96875 252.371094 297.507812 C 260.742188 300.199219 275.539062 311.558594 275.539062 311.558594 " clip-rule="nonzero"/></clipPath><clipPath id="51d53c69d8"><path d="M 160.308594 278 L 294 278 L 294 418.660156 L 160.308594 418.660156 Z M 160.308594 278 " clip-rule="nonzero"/></clipPath><clipPath id="7fb04a86f7"><path d="M 160.605469 356.84375 C 160.902344 354.601562 160.753906 353.109375 160.753906 353.109375 C 160.753906 352.957031 161.652344 348.324219 162.25 345.933594 C 162.695312 343.542969 163.59375 338.910156 163.59375 338.757812 C 163.59375 338.757812 163.894531 338.160156 164.042969 337.863281 C 164.042969 337.714844 164.042969 337.714844 164.042969 337.5625 C 164.191406 337.414062 164.191406 337.414062 164.339844 337.117188 C 164.789062 336.21875 165.6875 333.378906 166.582031 331.585938 C 167.628906 329.640625 169.273438 328 170.320312 326.203125 C 171.515625 324.261719 172.410156 321.871094 173.609375 320.375 C 174.355469 319.480469 175.25 319.03125 176 318.285156 C 176.746094 317.386719 177.195312 316.339844 177.941406 315.59375 C 178.6875 314.695312 179.585938 314.695312 180.632812 313.5 C 183.324219 310.8125 191.542969 297.210938 191.691406 297.058594 C 191.839844 297.058594 195.277344 293.921875 197.074219 292.425781 C 198.867188 290.933594 202.304688 287.792969 202.453125 287.792969 C 202.453125 287.792969 206.636719 285.703125 208.730469 284.65625 C 210.824219 283.460938 215.007812 281.367188 215.007812 281.367188 C 215.15625 281.367188 219.640625 280.320312 221.882812 279.722656 C 224.273438 279.273438 228.757812 278.078125 228.757812 278.078125 C 228.90625 278.078125 233.539062 278.226562 235.933594 278.226562 C 238.324219 278.226562 242.957031 278.226562 242.957031 278.226562 C 243.105469 278.378906 247.589844 279.425781 249.832031 280.023438 C 252.074219 280.621094 256.558594 281.816406 256.707031 281.816406 C 256.707031 281.816406 260.890625 284.058594 262.984375 285.253906 C 264.925781 286.300781 269.113281 288.542969 269.113281 288.542969 C 269.261719 288.542969 272.699219 291.679688 274.34375 293.324219 C 276.136719 294.96875 279.574219 297.957031 279.574219 298.105469 C 279.722656 298.105469 282.265625 301.992188 283.609375 303.933594 C 284.957031 305.878906 287.496094 309.765625 287.496094 309.765625 C 287.644531 309.914062 289.140625 314.25 290.035156 316.488281 C 290.785156 318.730469 292.429688 323.066406 292.429688 323.066406 C 292.429688 323.214844 292.875 327.847656 293.175781 330.089844 C 293.472656 332.480469 293.921875 337.117188 293.921875 337.117188 C 293.921875 337.265625 293.324219 342.195312 293.027344 344.140625 C 292.875 345.632812 292.578125 347.277344 292.578125 347.726562 C 292.578125 347.875 292.578125 348.027344 292.578125 348.027344 C 292.578125 348.027344 292.429688 348.175781 292.429688 348.324219 C 292.429688 348.324219 292.578125 348.625 292.578125 348.921875 C 292.578125 350.566406 292.128906 358.1875 291.082031 362.523438 C 290.1875 367.007812 288.542969 371.492188 286.449219 375.527344 C 284.507812 379.5625 281.816406 383.449219 278.976562 386.886719 C 275.988281 390.324219 271.054688 394.65625 268.8125 396.300781 C 267.765625 396.898438 267.167969 396.898438 266.421875 397.496094 C 265.375 398.394531 263.132812 401.683594 262.984375 401.683594 C 262.984375 401.683594 261.339844 402.878906 260.742188 403.476562 C 260.144531 403.925781 259.996094 404.371094 259.398438 404.820312 C 258.648438 405.417969 257.753906 405.71875 256.707031 406.464844 C 255.0625 407.511719 251.476562 410.351562 251.328125 410.5 C 251.328125 410.5 246.84375 412.292969 245.199219 413.042969 C 244.152344 413.640625 243.257812 414.386719 242.507812 414.683594 C 241.761719 414.835938 241.3125 414.835938 240.566406 414.984375 C 239.816406 415.28125 238.023438 416.179688 237.875 416.179688 C 237.875 416.179688 233.09375 416.925781 230.703125 417.375 C 228.308594 417.675781 223.675781 418.570312 223.527344 418.570312 C 223.527344 418.570312 223.378906 418.421875 223.378906 418.421875 C 223.378906 418.421875 223.226562 418.570312 223.226562 418.570312 C 223.078125 418.570312 222.929688 418.421875 222.628906 418.421875 C 221.585938 418.273438 218.445312 418.121094 216.203125 417.972656 C 213.960938 417.675781 209.03125 417.375 209.03125 417.375 C 209.03125 417.375 209.03125 417.375 208.878906 417.375 C 208.878906 417.375 206.789062 416.480469 205.890625 416.328125 C 205.144531 416.179688 204.546875 416.179688 203.796875 416.03125 C 202.902344 415.730469 202.15625 415.132812 200.957031 414.683594 C 199.316406 413.9375 195.128906 412.742188 195.128906 412.742188 C 194.980469 412.59375 190.796875 409.902344 189.152344 408.855469 C 187.957031 408.257812 186.910156 407.960938 186.164062 407.511719 C 185.5625 407.0625 185.414062 406.613281 184.964844 406.316406 C 184.367188 405.71875 182.875 404.96875 182.726562 404.820312 C 182.726562 404.820312 179.4375 401.382812 177.644531 399.589844 C 176 397.796875 172.710938 394.507812 172.710938 394.359375 C 172.710938 394.359375 172.5625 394.058594 172.410156 393.910156 C 172.410156 393.910156 172.261719 393.910156 172.261719 393.761719 C 171.964844 393.460938 171.8125 392.863281 171.515625 392.265625 C 170.917969 391.21875 169.871094 389.574219 168.972656 388.082031 C 167.929688 386.136719 165.386719 381.804688 165.386719 381.65625 C 165.386719 381.65625 164.789062 379.261719 164.339844 378.21875 C 164.042969 377.46875 163.59375 377.019531 163.292969 376.273438 C 162.996094 375.378906 163.144531 374.332031 162.847656 373.136719 C 162.546875 371.640625 161.351562 367.753906 161.351562 367.753906 C 161.351562 367.605469 161.054688 361.179688 161.054688 360.429688 C 161.054688 360.28125 161.054688 360.28125 161.054688 360.132812 C 160.902344 359.535156 160.605469 356.84375 160.605469 356.84375 " clip-rule="nonzero"/></clipPath></defs><g clip-path="url(#1b3210f364)"><g clip-path="url(#100a6a9a3d)"><path fill="#fff4c3" d="M 513.722656 263.636719 L 910.363281 263.636719 L 910.363281 564.050781 L 513.722656 564.050781 Z M 513.722656 263.636719 " fill-opacity="1" fill-rule="nonzero"/></g></g><g clip-path="url(#19a9934c06)"><g clip-path="url(#abdaee976d)"><path fill="#fff4c3" d="M 205.089844 30.183594 L 812.496094 30.183594 L 812.496094 512.226562 L 205.089844 512.226562 Z M 205.089844 30.183594 " fill-opacity="1" fill-rule="nonzero"/></g></g><g clip-path="url(#218a6fffbe)"><g clip-path="url(#f0ad7677fe)"><path fill="#fff4c3" d="M 331.53125 133.609375 L 868.390625 133.609375 L 868.390625 576.515625 L 331.53125 576.515625 Z M 331.53125 133.609375 " fill-opacity="1" fill-rule="nonzero"/></g></g><g clip-path="url(#45c88069b5)"><g clip-path="url(#c6a3b97086)"><path fill="#fff4c3" d="M 192.835938 0.140625 L 437.648438 0.140625 L 437.648438 245.910156 L 192.835938 245.910156 Z M 192.835938 0.140625 " fill-opacity="1" fill-rule="nonzero"/></g></g><g clip-path="url(#fe59c00175)"><g clip-path="url(#64ecf3dc60)"><path fill="#fff4c3" d="M 178.1875 34.664062 L 604.679688 34.664062 L 604.679688 411.15625 L 178.1875 411.15625 Z M 178.1875 34.664062 " fill-opacity="1" fill-rule="nonzero"/></g></g><g clip-path="url(#587b5d0ca7)"><g clip-path="url(#8a06f6e643)"><path fill="#fff4c3" d="M 166.230469 67.246094 L 555.777344 67.246094 L 555.777344 440.746094 L 166.230469 440.746094 Z M 166.230469 67.246094 " fill-opacity="1" fill-rule="nonzero"/></g></g><g clip-path="url(#e873369c0a)"><g clip-path="url(#04a3911bea)"><path fill="#fff4c3" d="M 169.367188 268.871094 L 315.242188 268.871094 L 315.242188 425.570312 L 169.367188 425.570312 Z M 169.367188 268.871094 " fill-opacity="1" fill-rule="nonzero"/></g></g><g clip-path="url(#f7b81be844)"><g clip-path="url(#9d410cfb1f)"><path fill="#fff4c3" d="M 587.257812 141.828125 L 599.363281 141.828125 L 599.363281 153.933594 L 587.257812 153.933594 Z M 587.257812 141.828125 " fill-opacity="1" fill-rule="nonzero"/></g></g><g clip-path="url(#0fbf8345cf)"><g clip-path="url(#7d27fe902e)"><path fill="#fff4c3" d="M 615.953125 27.640625 L 812.496094 27.640625 L 812.496094 232.625 L 615.953125 232.625 Z M 615.953125 27.640625 " fill-opacity="1" fill-rule="nonzero"/></g></g><g clip-path="url(#9847668acd)"><g clip-path="url(#c59ec1fb37)"><path fill="#fff4c3" d="M 641.8125 191.898438 L 776.324219 191.898438 L 776.324219 330.089844 L 641.8125 330.089844 Z M 641.8125 191.898438 " fill-opacity="1" fill-rule="nonzero"/></g></g><g clip-path="url(#a0cee64c27)"><g clip-path="url(#37fc64c107)"><path fill="#fff4c3" d="M 175.550781 274.191406 L 324.589844 274.191406 L 324.589844 416.03125 L 175.550781 416.03125 Z M 175.550781 274.191406 " fill-opacity="1" fill-rule="nonzero"/></g></g><g clip-path="url(#ef960cb9ee)"><g clip-path="url(#21e2ada408)"><path fill="#fff4c3" d="M 177.792969 289.738281 L 302.144531 289.738281 L 302.144531 414.085938 L 177.792969 414.085938 Z M 177.792969 289.738281 " fill-opacity="1" fill-rule="nonzero"/></g></g><g clip-path="url(#b30e5e07c0)"><g clip-path="url(#7de4f95130)"><path fill="#fff4c3" d="M 170.019531 290.632812 L 296.585938 290.632812 L 296.585938 415.730469 L 170.019531 415.730469 Z M 170.019531 290.632812 " fill-opacity="1" fill-rule="nonzero"/></g></g><g clip-path="url(#ec480aca3c)"><g clip-path="url(#ebf1349b40)"><path fill="#fff4c3" d="M 173.160156 290.035156 L 297.210938 290.035156 L 297.210938 414.085938 L 173.160156 414.085938 Z M 173.160156 290.035156 " fill-opacity="1" fill-rule="nonzero"/></g></g><g clip-path="url(#51d53c69d8)"><g clip-path="url(#7fb04a86f7)"><path fill="#fff4c3" d="M 154.625 272.101562 L 300.050781 272.101562 L 300.050781 424.339844 L 154.625 424.339844 Z M 154.625 272.101562 " fill-opacity="1" fill-rule="nonzero"/></g></g></svg>